M48
; DRILL file {KiCad 7.0.8} date Fri Oct 13 18:56:19 2023
; FORMAT={-:-/ absolute / metric / decimal}
; #@! TF.CreationDate,2023-10-13T18:56:19-05:00
; #@! TF.GenerationSoftware,Kicad,Pcbnew,7.0.8
; #@! TF.FileFunction,Plated,1,2,PTH
FMAT,2
METRIC
; #@! TA.AperFunction,Plated,PTH,ViaDrill
T1C0.400
; #@! TA.AperFunction,Plated,PTH,ComponentDrill
T2C0.750
; #@! TA.AperFunction,Plated,PTH,ComponentDrill
T3C0.800
; #@! TA.AperFunction,Plated,PTH,ComponentDrill
T4C0.850
; #@! TA.AperFunction,Plated,PTH,ComponentDrill
T5C0.900
; #@! TA.AperFunction,Plated,PTH,ComponentDrill
T6C1.000
; #@! TA.AperFunction,Plated,PTH,ComponentDrill
T7C1.016
; #@! TA.AperFunction,Plated,PTH,ComponentDrill
T8C2.700
; #@! TA.AperFunction,Plated,PTH,ComponentDrill
T9C3.200
%
G90
G05
T1
X85.59Y-99.905
X95.9Y-107.6
X100.1Y-96.4
X100.2Y-100.5
X101.535Y-87.331
X104.3Y-81.5
X104.6Y-84.6
X125.814Y-75.336
X126.184Y-100.434
X130.0Y-97.1
X138.4Y-88.0
X140.5Y-106.3
X146.089Y-108.901
X155.283Y-103.9
T2
X173.23Y-110.86
X174.5Y-110.86
X175.77Y-110.86
T3
X68.0Y-99.5
X68.0Y-104.5
X69.5Y-84.42
X69.5Y-94.58
X71.5Y-109.69
X71.5Y-117.31
X72.0Y-99.5
X72.0Y-104.5
X73.5Y-84.42
X73.5Y-94.58
X74.0Y-57.47
X74.0Y-60.01
X74.0Y-62.55
X74.5Y-74.5
X74.5Y-79.5
X76.0Y-99.5
X76.0Y-104.5
X76.0Y-110.5
X76.0Y-115.5
X77.5Y-84.42
X77.5Y-94.58
X78.875Y-73.2
X78.875Y-80.82
X80.0Y-109.42
X80.0Y-119.58
X81.415Y-73.2
X81.415Y-80.82
X81.5Y-84.42
X81.5Y-94.58
X82.0Y-57.47
X82.0Y-60.01
X82.0Y-62.55
X82.5Y-98.2
X82.5Y-105.82
X83.955Y-73.2
X83.955Y-80.82
X84.0Y-109.42
X84.0Y-119.58
X85.04Y-98.2
X85.04Y-105.82
X85.5Y-84.42
X85.5Y-94.58
X86.495Y-73.2
X86.495Y-80.82
X87.58Y-98.2
X87.58Y-105.82
X88.0Y-55.42
X88.0Y-65.58
X88.0Y-109.42
X88.0Y-119.58
X89.035Y-73.2
X89.035Y-80.82
X89.5Y-84.42
X89.5Y-94.58
X90.12Y-98.2
X90.12Y-105.82
X91.575Y-73.2
X91.575Y-80.82
X92.0Y-55.42
X92.0Y-65.58
X92.0Y-109.42
X92.0Y-119.58
X92.66Y-98.2
X92.66Y-105.82
X93.5Y-84.42
X93.5Y-94.58
X94.115Y-73.2
X94.115Y-80.82
X95.2Y-98.2
X95.2Y-105.82
X96.0Y-55.42
X96.0Y-65.58
X96.0Y-109.42
X96.0Y-119.58
X96.5Y-131.95
X96.5Y-134.49
X96.5Y-137.03
X96.92Y-143.0
X97.5Y-89.0
X97.5Y-94.0
X97.74Y-98.2
X97.74Y-105.82
X98.0Y-74.5
X98.0Y-79.5
X100.0Y-55.42
X100.0Y-65.58
X100.28Y-98.2
X100.28Y-105.82
X102.5Y-84.42
X102.5Y-94.58
X102.82Y-98.2
X102.82Y-105.82
X103.0Y-110.0
X103.0Y-115.0
X104.0Y-55.42
X104.0Y-65.58
X104.0Y-74.5
X104.0Y-79.5
X104.0Y-131.5
X104.0Y-136.5
X105.36Y-98.2
X105.36Y-105.82
X106.5Y-84.42
X106.5Y-94.58
X107.08Y-143.0
X107.9Y-98.2
X107.9Y-105.82
X108.0Y-55.42
X108.0Y-65.58
X108.375Y-73.2
X108.375Y-80.82
X108.5Y-109.42
X108.5Y-119.58
X109.2Y-130.2
X109.2Y-137.82
X110.44Y-98.2
X110.44Y-105.82
X110.5Y-84.34
X110.5Y-94.5
X110.915Y-73.2
X110.915Y-80.82
X111.74Y-130.2
X111.74Y-137.82
X111.92Y-143.0
X112.0Y-55.42
X112.0Y-65.58
X112.5Y-109.42
X112.5Y-119.58
X112.98Y-98.2
X112.98Y-105.82
X113.455Y-73.2
X113.455Y-80.82
X114.28Y-130.2
X114.28Y-137.82
X114.5Y-84.42
X114.5Y-94.58
X115.52Y-98.2
X115.52Y-105.82
X115.995Y-73.2
X115.995Y-80.82
X116.0Y-55.42
X116.0Y-65.58
X116.5Y-109.42
X116.5Y-119.58
X116.82Y-130.2
X116.82Y-137.82
X118.5Y-84.42
X118.5Y-94.58
X118.535Y-73.2
X118.535Y-80.82
X120.5Y-109.42
X120.5Y-119.58
X121.0Y-54.5
X121.0Y-58.5
X121.0Y-62.5
X121.0Y-66.5
X121.075Y-73.2
X121.075Y-80.82
X122.0Y-99.55
X122.0Y-104.43
X122.08Y-143.0
X122.5Y-85.5
X122.5Y-90.5
X123.0Y-132.682
X123.0Y-135.182
X123.615Y-73.2
X123.615Y-80.82
X126.0Y-54.5
X126.0Y-58.5
X126.0Y-62.5
X126.0Y-66.5
X126.0Y-113.5
X126.0Y-118.5
X126.5Y-85.5
X126.5Y-90.5
X126.69Y-94.5
X126.69Y-109.5
X127.5Y-75.0
X127.5Y-80.0
X127.5Y-99.5
X127.5Y-104.5
X130.0Y-113.5
X130.0Y-118.5
X130.5Y-85.5
X130.5Y-90.5
X131.5Y-55.42
X131.5Y-65.58
X132.5Y-99.5
X132.5Y-104.5
X134.0Y-113.5
X134.0Y-118.5
X134.31Y-94.5
X134.31Y-109.5
X135.5Y-55.42
X135.5Y-65.58
X137.5Y-74.5
X137.5Y-79.5
X138.86Y-94.96
X138.86Y-97.5
X138.86Y-100.04
X138.86Y-102.96
X138.86Y-105.5
X138.86Y-108.04
X139.5Y-55.42
X139.5Y-65.58
X142.2Y-73.2
X142.2Y-80.82
X143.102Y-130.23
X143.42Y-86.0
X143.42Y-90.0
X143.42Y-94.0
X143.42Y-98.0
X143.42Y-102.0
X143.42Y-106.0
X143.42Y-110.0
X143.42Y-114.0
X143.42Y-118.0
X143.42Y-122.0
X143.5Y-55.42
X143.5Y-65.58
X144.74Y-73.2
X144.74Y-80.82
X145.602Y-130.23
X147.28Y-73.2
X147.28Y-80.82
X147.5Y-55.42
X147.5Y-65.58
X149.82Y-73.2
X149.82Y-80.82
X150.602Y-130.23
X151.5Y-55.42
X151.5Y-65.58
X153.102Y-130.23
X153.5Y-74.5
X153.5Y-79.5
X153.58Y-86.0
X153.58Y-90.0
X153.58Y-94.0
X153.58Y-98.0
X153.58Y-102.0
X153.58Y-106.0
X153.58Y-110.0
X153.58Y-114.0
X153.58Y-118.0
X153.58Y-122.0
X155.5Y-55.42
X155.5Y-65.58
X159.5Y-55.42
X159.5Y-65.58
X161.5Y-70.0
X161.5Y-75.0
X163.5Y-55.42
X163.5Y-65.58
X165.5Y-70.0
X165.5Y-75.0
X167.5Y-55.42
X167.5Y-65.58
X169.5Y-70.0
X169.5Y-75.0
X171.5Y-55.42
X171.5Y-65.58
X172.0Y-104.0
X173.182Y-118.0
X173.5Y-70.0
X173.5Y-75.0
X175.5Y-55.42
X175.5Y-65.58
X175.682Y-118.0
X177.0Y-104.0
X177.5Y-70.0
X177.5Y-75.0
X179.5Y-55.42
X179.5Y-65.58
X187.2Y-131.54
X187.2Y-141.7
X187.5Y-67.92
X187.5Y-78.08
X187.5Y-96.92
X187.5Y-107.08
X193.62Y-100.0
X203.78Y-100.0
T4
X137.92Y-123.23
X137.92Y-133.23
X158.42Y-123.73
X158.42Y-133.73
T5
X187.5Y-61.235
X187.5Y-63.775
X187.5Y-111.235
X187.5Y-113.775
T6
X77.235Y-129.165
X77.235Y-131.705
X77.235Y-134.245
X77.235Y-136.785
X77.235Y-139.325
X77.235Y-141.865
X85.235Y-132.975
X85.235Y-135.515
X85.235Y-138.055
X87.775Y-132.975
X87.775Y-135.515
X87.775Y-138.055
X160.0Y-92.375
X160.0Y-94.915
X160.0Y-97.455
X160.0Y-99.995
X160.0Y-102.535
X160.0Y-105.075
X160.0Y-107.615
T7
X142.94Y-139.2
X142.94Y-141.74
X145.48Y-139.2
X145.48Y-141.74
X148.02Y-139.2
X148.02Y-141.74
X150.56Y-139.2
X150.56Y-141.74
X153.1Y-139.2
X153.1Y-141.74
T8
X168.6Y-88.0
X168.6Y-138.0
X172.5Y-93.9
X172.5Y-143.9
X175.5Y-81.1
X175.5Y-131.1
X179.74Y-92.24
X179.74Y-142.24
X181.4Y-85.0
X181.4Y-135.0
X193.6Y-63.0
X193.6Y-88.0
X193.6Y-113.0
X193.6Y-138.0
X197.5Y-68.9
X197.5Y-93.9
X197.5Y-118.9
X197.5Y-143.9
X200.5Y-56.1
X200.5Y-81.1
X200.5Y-106.1
X200.5Y-131.1
X204.74Y-67.24
X204.74Y-92.24
X204.74Y-117.24
X204.74Y-142.24
X206.4Y-60.0
X206.4Y-85.0
X206.4Y-110.0
X206.4Y-135.0
X218.6Y-63.0
X218.6Y-88.0
X218.6Y-113.0
X218.6Y-138.0
X222.5Y-68.9
X222.5Y-93.9
X222.5Y-118.9
X222.5Y-143.9
X225.5Y-56.1
X225.5Y-81.1
X225.5Y-106.1
X225.5Y-131.1
X229.74Y-67.24
X229.74Y-92.24
X229.74Y-117.24
X229.74Y-142.24
X231.4Y-60.0
X231.4Y-85.0
X231.4Y-110.0
X231.4Y-135.0
T9
X70.0Y-70.0
X70.0Y-130.0
X130.0Y-70.0
X130.0Y-130.0
T0
M30
