G04 #@! TF.GenerationSoftware,KiCad,Pcbnew,7.0.8*
G04 #@! TF.CreationDate,2023-10-13T18:56:11-05:00*
G04 #@! TF.ProjectId,QuantizerBack,5175616e-7469-47a6-9572-4261636b2e6b,rev?*
G04 #@! TF.SameCoordinates,Original*
G04 #@! TF.FileFunction,Legend,Top*
G04 #@! TF.FilePolarity,Positive*
%FSLAX46Y46*%
G04 Gerber Fmt 4.6, Leading zero omitted, Abs format (unit mm)*
G04 Created by KiCad (PCBNEW 7.0.8) date 2023-10-13 18:56:11*
%MOMM*%
%LPD*%
G01*
G04 APERTURE LIST*
%ADD10C,0.150000*%
%ADD11C,0.120000*%
%ADD12C,4.500001*%
%ADD13R,4.500001X4.500001*%
%ADD14C,4.500000*%
%ADD15R,1.800000X1.800000*%
%ADD16C,1.800000*%
%ADD17C,4.000000*%
%ADD18R,1.700000X1.700000*%
%ADD19O,1.700000X1.700000*%
%ADD20C,1.600000*%
%ADD21O,1.600000X1.600000*%
%ADD22R,1.600000X1.600000*%
%ADD23C,1.500000*%
%ADD24R,1.600000X2.400000*%
%ADD25O,1.600000X2.400000*%
%ADD26C,1.440000*%
%ADD27R,1.050000X1.500000*%
%ADD28O,1.050000X1.500000*%
%ADD29R,1.727200X1.727200*%
%ADD30O,1.727200X1.727200*%
%ADD31R,1.500000X1.500000*%
G04 APERTURE END LIST*
D10*
X224750000Y-102589164D02*
X224750000Y-103124878D01*
X224750000Y-103124878D02*
X224714285Y-103232021D01*
X224714285Y-103232021D02*
X224642857Y-103303450D01*
X224642857Y-103303450D02*
X224535714Y-103339164D01*
X224535714Y-103339164D02*
X224464285Y-103339164D01*
X225214286Y-102910592D02*
X225142857Y-102874878D01*
X225142857Y-102874878D02*
X225107143Y-102839164D01*
X225107143Y-102839164D02*
X225071429Y-102767735D01*
X225071429Y-102767735D02*
X225071429Y-102732021D01*
X225071429Y-102732021D02*
X225107143Y-102660592D01*
X225107143Y-102660592D02*
X225142857Y-102624878D01*
X225142857Y-102624878D02*
X225214286Y-102589164D01*
X225214286Y-102589164D02*
X225357143Y-102589164D01*
X225357143Y-102589164D02*
X225428572Y-102624878D01*
X225428572Y-102624878D02*
X225464286Y-102660592D01*
X225464286Y-102660592D02*
X225500000Y-102732021D01*
X225500000Y-102732021D02*
X225500000Y-102767735D01*
X225500000Y-102767735D02*
X225464286Y-102839164D01*
X225464286Y-102839164D02*
X225428572Y-102874878D01*
X225428572Y-102874878D02*
X225357143Y-102910592D01*
X225357143Y-102910592D02*
X225214286Y-102910592D01*
X225214286Y-102910592D02*
X225142857Y-102946307D01*
X225142857Y-102946307D02*
X225107143Y-102982021D01*
X225107143Y-102982021D02*
X225071429Y-103053450D01*
X225071429Y-103053450D02*
X225071429Y-103196307D01*
X225071429Y-103196307D02*
X225107143Y-103267735D01*
X225107143Y-103267735D02*
X225142857Y-103303450D01*
X225142857Y-103303450D02*
X225214286Y-103339164D01*
X225214286Y-103339164D02*
X225357143Y-103339164D01*
X225357143Y-103339164D02*
X225428572Y-103303450D01*
X225428572Y-103303450D02*
X225464286Y-103267735D01*
X225464286Y-103267735D02*
X225500000Y-103196307D01*
X225500000Y-103196307D02*
X225500000Y-103053450D01*
X225500000Y-103053450D02*
X225464286Y-102982021D01*
X225464286Y-102982021D02*
X225428572Y-102946307D01*
X225428572Y-102946307D02*
X225357143Y-102910592D01*
X183879164Y-113058571D02*
X183129164Y-113058571D01*
X183129164Y-113058571D02*
X183129164Y-112880000D01*
X183129164Y-112880000D02*
X183164878Y-112772857D01*
X183164878Y-112772857D02*
X183236307Y-112701428D01*
X183236307Y-112701428D02*
X183307735Y-112665714D01*
X183307735Y-112665714D02*
X183450592Y-112630000D01*
X183450592Y-112630000D02*
X183557735Y-112630000D01*
X183557735Y-112630000D02*
X183700592Y-112665714D01*
X183700592Y-112665714D02*
X183772021Y-112701428D01*
X183772021Y-112701428D02*
X183843450Y-112772857D01*
X183843450Y-112772857D02*
X183879164Y-112880000D01*
X183879164Y-112880000D02*
X183879164Y-113058571D01*
X183879164Y-111915714D02*
X183879164Y-112344285D01*
X183879164Y-112130000D02*
X183129164Y-112130000D01*
X183129164Y-112130000D02*
X183236307Y-112201428D01*
X183236307Y-112201428D02*
X183307735Y-112272857D01*
X183307735Y-112272857D02*
X183343450Y-112344285D01*
X187839164Y-116671428D02*
X187089164Y-116671428D01*
X187839164Y-116242857D02*
X187410592Y-116564285D01*
X187089164Y-116242857D02*
X187517735Y-116671428D01*
X174392857Y-127589164D02*
X174392857Y-128124878D01*
X174392857Y-128124878D02*
X174357142Y-128232021D01*
X174357142Y-128232021D02*
X174285714Y-128303450D01*
X174285714Y-128303450D02*
X174178571Y-128339164D01*
X174178571Y-128339164D02*
X174107142Y-128339164D01*
X175142857Y-128339164D02*
X174714286Y-128339164D01*
X174928571Y-128339164D02*
X174928571Y-127589164D01*
X174928571Y-127589164D02*
X174857143Y-127696307D01*
X174857143Y-127696307D02*
X174785714Y-127767735D01*
X174785714Y-127767735D02*
X174714286Y-127803450D01*
X175392857Y-127589164D02*
X175857143Y-127589164D01*
X175857143Y-127589164D02*
X175607143Y-127874878D01*
X175607143Y-127874878D02*
X175714286Y-127874878D01*
X175714286Y-127874878D02*
X175785715Y-127910592D01*
X175785715Y-127910592D02*
X175821429Y-127946307D01*
X175821429Y-127946307D02*
X175857143Y-128017735D01*
X175857143Y-128017735D02*
X175857143Y-128196307D01*
X175857143Y-128196307D02*
X175821429Y-128267735D01*
X175821429Y-128267735D02*
X175785715Y-128303450D01*
X175785715Y-128303450D02*
X175714286Y-128339164D01*
X175714286Y-128339164D02*
X175500000Y-128339164D01*
X175500000Y-128339164D02*
X175428572Y-128303450D01*
X175428572Y-128303450D02*
X175392857Y-128267735D01*
X199750000Y-77589164D02*
X199750000Y-78124878D01*
X199750000Y-78124878D02*
X199714285Y-78232021D01*
X199714285Y-78232021D02*
X199642857Y-78303450D01*
X199642857Y-78303450D02*
X199535714Y-78339164D01*
X199535714Y-78339164D02*
X199464285Y-78339164D01*
X200142857Y-78339164D02*
X200285714Y-78339164D01*
X200285714Y-78339164D02*
X200357143Y-78303450D01*
X200357143Y-78303450D02*
X200392857Y-78267735D01*
X200392857Y-78267735D02*
X200464286Y-78160592D01*
X200464286Y-78160592D02*
X200500000Y-78017735D01*
X200500000Y-78017735D02*
X200500000Y-77732021D01*
X200500000Y-77732021D02*
X200464286Y-77660592D01*
X200464286Y-77660592D02*
X200428572Y-77624878D01*
X200428572Y-77624878D02*
X200357143Y-77589164D01*
X200357143Y-77589164D02*
X200214286Y-77589164D01*
X200214286Y-77589164D02*
X200142857Y-77624878D01*
X200142857Y-77624878D02*
X200107143Y-77660592D01*
X200107143Y-77660592D02*
X200071429Y-77732021D01*
X200071429Y-77732021D02*
X200071429Y-77910592D01*
X200071429Y-77910592D02*
X200107143Y-77982021D01*
X200107143Y-77982021D02*
X200142857Y-78017735D01*
X200142857Y-78017735D02*
X200214286Y-78053450D01*
X200214286Y-78053450D02*
X200357143Y-78053450D01*
X200357143Y-78053450D02*
X200428572Y-78017735D01*
X200428572Y-78017735D02*
X200464286Y-77982021D01*
X200464286Y-77982021D02*
X200500000Y-77910592D01*
X199750000Y-102589164D02*
X199750000Y-103124878D01*
X199750000Y-103124878D02*
X199714285Y-103232021D01*
X199714285Y-103232021D02*
X199642857Y-103303450D01*
X199642857Y-103303450D02*
X199535714Y-103339164D01*
X199535714Y-103339164D02*
X199464285Y-103339164D01*
X200428572Y-102589164D02*
X200285714Y-102589164D01*
X200285714Y-102589164D02*
X200214286Y-102624878D01*
X200214286Y-102624878D02*
X200178572Y-102660592D01*
X200178572Y-102660592D02*
X200107143Y-102767735D01*
X200107143Y-102767735D02*
X200071429Y-102910592D01*
X200071429Y-102910592D02*
X200071429Y-103196307D01*
X200071429Y-103196307D02*
X200107143Y-103267735D01*
X200107143Y-103267735D02*
X200142857Y-103303450D01*
X200142857Y-103303450D02*
X200214286Y-103339164D01*
X200214286Y-103339164D02*
X200357143Y-103339164D01*
X200357143Y-103339164D02*
X200428572Y-103303450D01*
X200428572Y-103303450D02*
X200464286Y-103267735D01*
X200464286Y-103267735D02*
X200500000Y-103196307D01*
X200500000Y-103196307D02*
X200500000Y-103017735D01*
X200500000Y-103017735D02*
X200464286Y-102946307D01*
X200464286Y-102946307D02*
X200428572Y-102910592D01*
X200428572Y-102910592D02*
X200357143Y-102874878D01*
X200357143Y-102874878D02*
X200214286Y-102874878D01*
X200214286Y-102874878D02*
X200142857Y-102910592D01*
X200142857Y-102910592D02*
X200107143Y-102946307D01*
X200107143Y-102946307D02*
X200071429Y-103017735D01*
X199392857Y-52589164D02*
X199392857Y-53124878D01*
X199392857Y-53124878D02*
X199357142Y-53232021D01*
X199357142Y-53232021D02*
X199285714Y-53303450D01*
X199285714Y-53303450D02*
X199178571Y-53339164D01*
X199178571Y-53339164D02*
X199107142Y-53339164D01*
X200142857Y-53339164D02*
X199714286Y-53339164D01*
X199928571Y-53339164D02*
X199928571Y-52589164D01*
X199928571Y-52589164D02*
X199857143Y-52696307D01*
X199857143Y-52696307D02*
X199785714Y-52767735D01*
X199785714Y-52767735D02*
X199714286Y-52803450D01*
X200607143Y-52589164D02*
X200678572Y-52589164D01*
X200678572Y-52589164D02*
X200750000Y-52624878D01*
X200750000Y-52624878D02*
X200785715Y-52660592D01*
X200785715Y-52660592D02*
X200821429Y-52732021D01*
X200821429Y-52732021D02*
X200857143Y-52874878D01*
X200857143Y-52874878D02*
X200857143Y-53053450D01*
X200857143Y-53053450D02*
X200821429Y-53196307D01*
X200821429Y-53196307D02*
X200785715Y-53267735D01*
X200785715Y-53267735D02*
X200750000Y-53303450D01*
X200750000Y-53303450D02*
X200678572Y-53339164D01*
X200678572Y-53339164D02*
X200607143Y-53339164D01*
X200607143Y-53339164D02*
X200535715Y-53303450D01*
X200535715Y-53303450D02*
X200500000Y-53267735D01*
X200500000Y-53267735D02*
X200464286Y-53196307D01*
X200464286Y-53196307D02*
X200428572Y-53053450D01*
X200428572Y-53053450D02*
X200428572Y-52874878D01*
X200428572Y-52874878D02*
X200464286Y-52732021D01*
X200464286Y-52732021D02*
X200500000Y-52660592D01*
X200500000Y-52660592D02*
X200535715Y-52624878D01*
X200535715Y-52624878D02*
X200607143Y-52589164D01*
X183879164Y-63058571D02*
X183129164Y-63058571D01*
X183129164Y-63058571D02*
X183129164Y-62880000D01*
X183129164Y-62880000D02*
X183164878Y-62772857D01*
X183164878Y-62772857D02*
X183236307Y-62701428D01*
X183236307Y-62701428D02*
X183307735Y-62665714D01*
X183307735Y-62665714D02*
X183450592Y-62630000D01*
X183450592Y-62630000D02*
X183557735Y-62630000D01*
X183557735Y-62630000D02*
X183700592Y-62665714D01*
X183700592Y-62665714D02*
X183772021Y-62701428D01*
X183772021Y-62701428D02*
X183843450Y-62772857D01*
X183843450Y-62772857D02*
X183879164Y-62880000D01*
X183879164Y-62880000D02*
X183879164Y-63058571D01*
X183129164Y-62380000D02*
X183129164Y-61915714D01*
X183129164Y-61915714D02*
X183414878Y-62165714D01*
X183414878Y-62165714D02*
X183414878Y-62058571D01*
X183414878Y-62058571D02*
X183450592Y-61987143D01*
X183450592Y-61987143D02*
X183486307Y-61951428D01*
X183486307Y-61951428D02*
X183557735Y-61915714D01*
X183557735Y-61915714D02*
X183736307Y-61915714D01*
X183736307Y-61915714D02*
X183807735Y-61951428D01*
X183807735Y-61951428D02*
X183843450Y-61987143D01*
X183843450Y-61987143D02*
X183879164Y-62058571D01*
X183879164Y-62058571D02*
X183879164Y-62272857D01*
X183879164Y-62272857D02*
X183843450Y-62344285D01*
X183843450Y-62344285D02*
X183807735Y-62380000D01*
X187839164Y-58696428D02*
X187089164Y-58696428D01*
X187839164Y-58267857D02*
X187410592Y-58589285D01*
X187089164Y-58267857D02*
X187517735Y-58696428D01*
X159190476Y-89499819D02*
X159190476Y-90214104D01*
X159190476Y-90214104D02*
X159142857Y-90356961D01*
X159142857Y-90356961D02*
X159047619Y-90452200D01*
X159047619Y-90452200D02*
X158904762Y-90499819D01*
X158904762Y-90499819D02*
X158809524Y-90499819D01*
X160190476Y-90499819D02*
X159619048Y-90499819D01*
X159904762Y-90499819D02*
X159904762Y-89499819D01*
X159904762Y-89499819D02*
X159809524Y-89642676D01*
X159809524Y-89642676D02*
X159714286Y-89737914D01*
X159714286Y-89737914D02*
X159619048Y-89785533D01*
X160523810Y-89499819D02*
X161190476Y-89499819D01*
X161190476Y-89499819D02*
X160761905Y-90499819D01*
X224392857Y-77589164D02*
X224392857Y-78124878D01*
X224392857Y-78124878D02*
X224357142Y-78232021D01*
X224357142Y-78232021D02*
X224285714Y-78303450D01*
X224285714Y-78303450D02*
X224178571Y-78339164D01*
X224178571Y-78339164D02*
X224107142Y-78339164D01*
X225142857Y-78339164D02*
X224714286Y-78339164D01*
X224928571Y-78339164D02*
X224928571Y-77589164D01*
X224928571Y-77589164D02*
X224857143Y-77696307D01*
X224857143Y-77696307D02*
X224785714Y-77767735D01*
X224785714Y-77767735D02*
X224714286Y-77803450D01*
X225857143Y-78339164D02*
X225428572Y-78339164D01*
X225642857Y-78339164D02*
X225642857Y-77589164D01*
X225642857Y-77589164D02*
X225571429Y-77696307D01*
X225571429Y-77696307D02*
X225500000Y-77767735D01*
X225500000Y-77767735D02*
X225428572Y-77803450D01*
X199750000Y-127589164D02*
X199750000Y-128124878D01*
X199750000Y-128124878D02*
X199714285Y-128232021D01*
X199714285Y-128232021D02*
X199642857Y-128303450D01*
X199642857Y-128303450D02*
X199535714Y-128339164D01*
X199535714Y-128339164D02*
X199464285Y-128339164D01*
X200464286Y-127589164D02*
X200107143Y-127589164D01*
X200107143Y-127589164D02*
X200071429Y-127946307D01*
X200071429Y-127946307D02*
X200107143Y-127910592D01*
X200107143Y-127910592D02*
X200178572Y-127874878D01*
X200178572Y-127874878D02*
X200357143Y-127874878D01*
X200357143Y-127874878D02*
X200428572Y-127910592D01*
X200428572Y-127910592D02*
X200464286Y-127946307D01*
X200464286Y-127946307D02*
X200500000Y-128017735D01*
X200500000Y-128017735D02*
X200500000Y-128196307D01*
X200500000Y-128196307D02*
X200464286Y-128267735D01*
X200464286Y-128267735D02*
X200428572Y-128303450D01*
X200428572Y-128303450D02*
X200357143Y-128339164D01*
X200357143Y-128339164D02*
X200178572Y-128339164D01*
X200178572Y-128339164D02*
X200107143Y-128303450D01*
X200107143Y-128303450D02*
X200071429Y-128267735D01*
X173892857Y-97089164D02*
X173892857Y-97624878D01*
X173892857Y-97624878D02*
X173857142Y-97732021D01*
X173857142Y-97732021D02*
X173785714Y-97803450D01*
X173785714Y-97803450D02*
X173678571Y-97839164D01*
X173678571Y-97839164D02*
X173607142Y-97839164D01*
X174642857Y-97839164D02*
X174214286Y-97839164D01*
X174428571Y-97839164D02*
X174428571Y-97089164D01*
X174428571Y-97089164D02*
X174357143Y-97196307D01*
X174357143Y-97196307D02*
X174285714Y-97267735D01*
X174285714Y-97267735D02*
X174214286Y-97303450D01*
X175285715Y-97339164D02*
X175285715Y-97839164D01*
X175107143Y-97053450D02*
X174928572Y-97589164D01*
X174928572Y-97589164D02*
X175392857Y-97589164D01*
X224750000Y-127589164D02*
X224750000Y-128124878D01*
X224750000Y-128124878D02*
X224714285Y-128232021D01*
X224714285Y-128232021D02*
X224642857Y-128303450D01*
X224642857Y-128303450D02*
X224535714Y-128339164D01*
X224535714Y-128339164D02*
X224464285Y-128339164D01*
X225035714Y-127589164D02*
X225535714Y-127589164D01*
X225535714Y-127589164D02*
X225214286Y-128339164D01*
X224392857Y-52589164D02*
X224392857Y-53124878D01*
X224392857Y-53124878D02*
X224357142Y-53232021D01*
X224357142Y-53232021D02*
X224285714Y-53303450D01*
X224285714Y-53303450D02*
X224178571Y-53339164D01*
X224178571Y-53339164D02*
X224107142Y-53339164D01*
X225142857Y-53339164D02*
X224714286Y-53339164D01*
X224928571Y-53339164D02*
X224928571Y-52589164D01*
X224928571Y-52589164D02*
X224857143Y-52696307D01*
X224857143Y-52696307D02*
X224785714Y-52767735D01*
X224785714Y-52767735D02*
X224714286Y-52803450D01*
X225428572Y-52660592D02*
X225464286Y-52624878D01*
X225464286Y-52624878D02*
X225535715Y-52589164D01*
X225535715Y-52589164D02*
X225714286Y-52589164D01*
X225714286Y-52589164D02*
X225785715Y-52624878D01*
X225785715Y-52624878D02*
X225821429Y-52660592D01*
X225821429Y-52660592D02*
X225857143Y-52732021D01*
X225857143Y-52732021D02*
X225857143Y-52803450D01*
X225857143Y-52803450D02*
X225821429Y-52910592D01*
X225821429Y-52910592D02*
X225392857Y-53339164D01*
X225392857Y-53339164D02*
X225857143Y-53339164D01*
D11*
X217100000Y-104600000D02*
X223500000Y-104600000D01*
X217100000Y-111000000D02*
X217100000Y-104600000D01*
X217100000Y-120350000D02*
X217100000Y-115000000D01*
X220500000Y-120350000D02*
X217100000Y-120350000D01*
X227500000Y-104600000D02*
X232850000Y-104600000D01*
X230350000Y-120350000D02*
X224500000Y-120350000D01*
X231290000Y-119590000D02*
X230350000Y-120350000D01*
X232850000Y-104600000D02*
X232850000Y-107800000D01*
X232850000Y-112100000D02*
X232850000Y-118300000D01*
X232850000Y-118300000D02*
X232850000Y-118350000D01*
X232850000Y-118350000D02*
X232110000Y-118940000D01*
X185955000Y-115065000D02*
X189045000Y-115065000D01*
X187500462Y-109515001D02*
G75*
G03*
X185955170Y-115064999I-462J-2989999D01*
G01*
X189044830Y-115065000D02*
G75*
G03*
X187499538Y-109515000I-1544830J2560000D01*
G01*
X190000000Y-112505000D02*
G75*
G03*
X190000000Y-112505000I-2500000J0D01*
G01*
X167100000Y-129600000D02*
X173500000Y-129600000D01*
X167100000Y-136000000D02*
X167100000Y-129600000D01*
X167100000Y-145350000D02*
X167100000Y-140000000D01*
X170500000Y-145350000D02*
X167100000Y-145350000D01*
X177500000Y-129600000D02*
X182850000Y-129600000D01*
X180350000Y-145350000D02*
X174500000Y-145350000D01*
X181290000Y-144590000D02*
X180350000Y-145350000D01*
X182850000Y-129600000D02*
X182850000Y-132800000D01*
X182850000Y-137100000D02*
X182850000Y-143300000D01*
X182850000Y-143300000D02*
X182850000Y-143350000D01*
X182850000Y-143350000D02*
X182110000Y-143940000D01*
X192100000Y-79600000D02*
X198500000Y-79600000D01*
X192100000Y-86000000D02*
X192100000Y-79600000D01*
X192100000Y-95350000D02*
X192100000Y-90000000D01*
X195500000Y-95350000D02*
X192100000Y-95350000D01*
X202500000Y-79600000D02*
X207850000Y-79600000D01*
X205350000Y-95350000D02*
X199500000Y-95350000D01*
X206290000Y-94590000D02*
X205350000Y-95350000D01*
X207850000Y-79600000D02*
X207850000Y-82800000D01*
X207850000Y-87100000D02*
X207850000Y-93300000D01*
X207850000Y-93300000D02*
X207850000Y-93350000D01*
X207850000Y-93350000D02*
X207110000Y-93940000D01*
X192100000Y-104600000D02*
X198500000Y-104600000D01*
X192100000Y-111000000D02*
X192100000Y-104600000D01*
X192100000Y-120350000D02*
X192100000Y-115000000D01*
X195500000Y-120350000D02*
X192100000Y-120350000D01*
X202500000Y-104600000D02*
X207850000Y-104600000D01*
X205350000Y-120350000D02*
X199500000Y-120350000D01*
X206290000Y-119590000D02*
X205350000Y-120350000D01*
X207850000Y-104600000D02*
X207850000Y-107800000D01*
X207850000Y-112100000D02*
X207850000Y-118300000D01*
X207850000Y-118300000D02*
X207850000Y-118350000D01*
X207850000Y-118350000D02*
X207110000Y-118940000D01*
X192100000Y-54600000D02*
X198500000Y-54600000D01*
X192100000Y-61000000D02*
X192100000Y-54600000D01*
X192100000Y-70350000D02*
X192100000Y-65000000D01*
X195500000Y-70350000D02*
X192100000Y-70350000D01*
X202500000Y-54600000D02*
X207850000Y-54600000D01*
X205350000Y-70350000D02*
X199500000Y-70350000D01*
X206290000Y-69590000D02*
X205350000Y-70350000D01*
X207850000Y-54600000D02*
X207850000Y-57800000D01*
X207850000Y-62100000D02*
X207850000Y-68300000D01*
X207850000Y-68300000D02*
X207850000Y-68350000D01*
X207850000Y-68350000D02*
X207110000Y-68940000D01*
X185955000Y-65065000D02*
X189045000Y-65065000D01*
X187500462Y-59515001D02*
G75*
G03*
X185955170Y-65064999I-462J-2989999D01*
G01*
X189044830Y-65065000D02*
G75*
G03*
X187499538Y-59515000I-1544830J2560000D01*
G01*
X190000000Y-62505000D02*
G75*
G03*
X190000000Y-62505000I-2500000J0D01*
G01*
X158670000Y-91045000D02*
X160000000Y-91045000D01*
X158670000Y-92375000D02*
X158670000Y-91045000D01*
X158670000Y-93645000D02*
X158670000Y-108945000D01*
X158670000Y-93645000D02*
X161330000Y-93645000D01*
X158670000Y-108945000D02*
X161330000Y-108945000D01*
X161330000Y-93645000D02*
X161330000Y-108945000D01*
X217100000Y-79600000D02*
X223500000Y-79600000D01*
X217100000Y-86000000D02*
X217100000Y-79600000D01*
X217100000Y-95350000D02*
X217100000Y-90000000D01*
X220500000Y-95350000D02*
X217100000Y-95350000D01*
X227500000Y-79600000D02*
X232850000Y-79600000D01*
X230350000Y-95350000D02*
X224500000Y-95350000D01*
X231290000Y-94590000D02*
X230350000Y-95350000D01*
X232850000Y-79600000D02*
X232850000Y-82800000D01*
X232850000Y-87100000D02*
X232850000Y-93300000D01*
X232850000Y-93300000D02*
X232850000Y-93350000D01*
X232850000Y-93350000D02*
X232110000Y-93940000D01*
X192100000Y-129600000D02*
X198500000Y-129600000D01*
X192100000Y-136000000D02*
X192100000Y-129600000D01*
X192100000Y-145350000D02*
X192100000Y-140000000D01*
X195500000Y-145350000D02*
X192100000Y-145350000D01*
X202500000Y-129600000D02*
X207850000Y-129600000D01*
X205350000Y-145350000D02*
X199500000Y-145350000D01*
X206290000Y-144590000D02*
X205350000Y-145350000D01*
X207850000Y-129600000D02*
X207850000Y-132800000D01*
X207850000Y-137100000D02*
X207850000Y-143300000D01*
X207850000Y-143300000D02*
X207850000Y-143350000D01*
X207850000Y-143350000D02*
X207110000Y-143940000D01*
X167100000Y-79600000D02*
X173500000Y-79600000D01*
X167100000Y-86000000D02*
X167100000Y-79600000D01*
X167100000Y-95350000D02*
X167100000Y-90000000D01*
X170500000Y-95350000D02*
X167100000Y-95350000D01*
X177500000Y-79600000D02*
X182850000Y-79600000D01*
X180350000Y-95350000D02*
X174500000Y-95350000D01*
X181290000Y-94590000D02*
X180350000Y-95350000D01*
X182850000Y-79600000D02*
X182850000Y-82800000D01*
X182850000Y-87100000D02*
X182850000Y-93300000D01*
X182850000Y-93300000D02*
X182850000Y-93350000D01*
X182850000Y-93350000D02*
X182110000Y-93940000D01*
X217100000Y-129600000D02*
X223500000Y-129600000D01*
X217100000Y-136000000D02*
X217100000Y-129600000D01*
X217100000Y-145350000D02*
X217100000Y-140000000D01*
X220500000Y-145350000D02*
X217100000Y-145350000D01*
X227500000Y-129600000D02*
X232850000Y-129600000D01*
X230350000Y-145350000D02*
X224500000Y-145350000D01*
X231290000Y-144590000D02*
X230350000Y-145350000D01*
X232850000Y-129600000D02*
X232850000Y-132800000D01*
X232850000Y-137100000D02*
X232850000Y-143300000D01*
X232850000Y-143300000D02*
X232850000Y-143350000D01*
X232850000Y-143350000D02*
X232110000Y-143940000D01*
X217100000Y-54600000D02*
X223500000Y-54600000D01*
X217100000Y-61000000D02*
X217100000Y-54600000D01*
X217100000Y-70350000D02*
X217100000Y-65000000D01*
X220500000Y-70350000D02*
X217100000Y-70350000D01*
X227500000Y-54600000D02*
X232850000Y-54600000D01*
X230350000Y-70350000D02*
X224500000Y-70350000D01*
X231290000Y-69590000D02*
X230350000Y-70350000D01*
X232850000Y-54600000D02*
X232850000Y-57800000D01*
X232850000Y-62100000D02*
X232850000Y-68300000D01*
X232850000Y-68300000D02*
X232850000Y-68350000D01*
X232850000Y-68350000D02*
X232110000Y-68940000D01*
%LPC*%
D12*
X225500000Y-106100000D03*
X231400000Y-110000000D03*
D13*
X229740000Y-117240000D03*
D14*
X218600000Y-113000000D03*
X222500000Y-118900000D03*
D15*
X187500000Y-113775000D03*
D16*
X187500000Y-111235000D03*
D12*
X175500000Y-131100000D03*
X181400000Y-135000000D03*
D13*
X179740000Y-142240000D03*
D14*
X168600000Y-138000000D03*
X172500000Y-143900000D03*
D12*
X200500000Y-81100000D03*
X206400000Y-85000000D03*
D13*
X204740000Y-92240000D03*
D14*
X193600000Y-88000000D03*
X197500000Y-93900000D03*
D17*
X70000000Y-130000000D03*
D12*
X200500000Y-106100000D03*
X206400000Y-110000000D03*
D13*
X204740000Y-117240000D03*
D14*
X193600000Y-113000000D03*
X197500000Y-118900000D03*
D17*
X130000000Y-130000000D03*
D12*
X200500000Y-56100000D03*
X206400000Y-60000000D03*
D13*
X204740000Y-67240000D03*
D14*
X193600000Y-63000000D03*
X197500000Y-68900000D03*
D15*
X187500000Y-63775000D03*
D16*
X187500000Y-61235000D03*
D18*
X160000000Y-92375000D03*
D19*
X160000000Y-94915000D03*
X160000000Y-97455000D03*
X160000000Y-99995000D03*
X160000000Y-102535000D03*
X160000000Y-105075000D03*
X160000000Y-107615000D03*
D12*
X225500000Y-81100000D03*
X231400000Y-85000000D03*
D13*
X229740000Y-92240000D03*
D14*
X218600000Y-88000000D03*
X222500000Y-93900000D03*
D12*
X200500000Y-131100000D03*
X206400000Y-135000000D03*
D13*
X204740000Y-142240000D03*
D14*
X193600000Y-138000000D03*
X197500000Y-143900000D03*
D17*
X70000000Y-70000000D03*
X130000000Y-70000000D03*
D12*
X175500000Y-81100000D03*
X181400000Y-85000000D03*
D13*
X179740000Y-92240000D03*
D14*
X168600000Y-88000000D03*
X172500000Y-93900000D03*
D12*
X225500000Y-131100000D03*
X231400000Y-135000000D03*
D13*
X229740000Y-142240000D03*
D14*
X218600000Y-138000000D03*
X222500000Y-143900000D03*
D12*
X225500000Y-56100000D03*
X231400000Y-60000000D03*
D13*
X229740000Y-67240000D03*
D14*
X218600000Y-63000000D03*
X222500000Y-68900000D03*
D20*
X69500000Y-94580000D03*
D21*
X69500000Y-84420000D03*
D20*
X72000000Y-99500000D03*
X72000000Y-104500000D03*
X100000000Y-55420000D03*
D21*
X100000000Y-65580000D03*
D20*
X96000000Y-109420000D03*
D21*
X96000000Y-119580000D03*
D22*
X134310000Y-94500000D03*
D21*
X126690000Y-94500000D03*
D22*
X82500000Y-98200000D03*
D21*
X85040000Y-98200000D03*
X87580000Y-98200000D03*
X90120000Y-98200000D03*
X92660000Y-98200000D03*
X95200000Y-98200000D03*
X97740000Y-98200000D03*
X100280000Y-98200000D03*
X102820000Y-98200000D03*
X105360000Y-98200000D03*
X107900000Y-98200000D03*
X110440000Y-98200000D03*
X112980000Y-98200000D03*
X115520000Y-98200000D03*
X115520000Y-105820000D03*
X112980000Y-105820000D03*
X110440000Y-105820000D03*
X107900000Y-105820000D03*
X105360000Y-105820000D03*
X102820000Y-105820000D03*
X100280000Y-105820000D03*
X97740000Y-105820000D03*
X95200000Y-105820000D03*
X92660000Y-105820000D03*
X90120000Y-105820000D03*
X87580000Y-105820000D03*
X85040000Y-105820000D03*
X82500000Y-105820000D03*
D23*
X122000000Y-99550000D03*
X122000000Y-104430000D03*
D20*
X143420000Y-90000000D03*
D21*
X153580000Y-90000000D03*
D24*
X108375000Y-73200000D03*
D25*
X110915000Y-73200000D03*
X113455000Y-73200000D03*
X115995000Y-73200000D03*
X118535000Y-73200000D03*
X121075000Y-73200000D03*
X123615000Y-73200000D03*
X123615000Y-80820000D03*
X121075000Y-80820000D03*
X118535000Y-80820000D03*
X115995000Y-80820000D03*
X113455000Y-80820000D03*
X110915000Y-80820000D03*
X108375000Y-80820000D03*
D22*
X123000000Y-135182400D03*
D20*
X123000000Y-132682400D03*
X158420000Y-123730000D03*
D21*
X158420000Y-133730000D03*
D20*
X112500000Y-109420000D03*
D21*
X112500000Y-119580000D03*
D20*
X122500000Y-85500000D03*
X122500000Y-90500000D03*
X120500000Y-119580000D03*
D21*
X120500000Y-109420000D03*
D20*
X126000000Y-118500000D03*
X126000000Y-113500000D03*
X106500000Y-84420000D03*
D21*
X106500000Y-94580000D03*
D24*
X78875000Y-73200000D03*
D25*
X81415000Y-73200000D03*
X83955000Y-73200000D03*
X86495000Y-73200000D03*
X89035000Y-73200000D03*
X91575000Y-73200000D03*
X94115000Y-73200000D03*
X94115000Y-80820000D03*
X91575000Y-80820000D03*
X89035000Y-80820000D03*
X86495000Y-80820000D03*
X83955000Y-80820000D03*
X81415000Y-80820000D03*
X78875000Y-80820000D03*
D20*
X114500000Y-84420000D03*
D21*
X114500000Y-94580000D03*
D20*
X107080000Y-143000000D03*
D21*
X96920000Y-143000000D03*
D20*
X104000000Y-131500000D03*
X104000000Y-136500000D03*
X73500000Y-94580000D03*
D21*
X73500000Y-84420000D03*
D20*
X187500000Y-107080000D03*
D21*
X187500000Y-96920000D03*
D20*
X89500000Y-84420000D03*
D21*
X89500000Y-94580000D03*
D26*
X82000000Y-62550000D03*
X82000000Y-60010000D03*
X82000000Y-57470000D03*
D22*
X153102400Y-130230000D03*
D20*
X150602400Y-130230000D03*
D26*
X74000000Y-62550000D03*
X74000000Y-60010000D03*
X74000000Y-57470000D03*
D20*
X126500000Y-90500000D03*
X126500000Y-85500000D03*
X163500000Y-55420000D03*
D21*
X163500000Y-65580000D03*
D20*
X187200000Y-141700000D03*
D21*
X187200000Y-131540000D03*
D20*
X165500000Y-75000000D03*
X165500000Y-70000000D03*
X116000000Y-55420000D03*
D21*
X116000000Y-65580000D03*
D20*
X177000000Y-104000000D03*
X172000000Y-104000000D03*
X126000000Y-58500000D03*
X121000000Y-58500000D03*
X137920000Y-123230000D03*
D21*
X137920000Y-133230000D03*
D20*
X173500000Y-75000000D03*
X173500000Y-70000000D03*
X92000000Y-55420000D03*
D21*
X92000000Y-65580000D03*
D27*
X175770000Y-110860000D03*
D28*
X174500000Y-110860000D03*
X173230000Y-110860000D03*
D29*
X142940000Y-139200000D03*
D30*
X142940000Y-141740000D03*
X145480000Y-139200000D03*
X145480000Y-141740000D03*
X148020000Y-139200000D03*
X148020000Y-141740000D03*
X150560000Y-139200000D03*
X150560000Y-141740000D03*
X153100000Y-139200000D03*
X153100000Y-141740000D03*
D20*
X108000000Y-65580000D03*
D21*
X108000000Y-55420000D03*
D20*
X77500000Y-94580000D03*
D21*
X77500000Y-84420000D03*
D20*
X112000000Y-65580000D03*
D21*
X112000000Y-55420000D03*
D20*
X177500000Y-75000000D03*
X177500000Y-70000000D03*
X104000000Y-55420000D03*
D21*
X104000000Y-65580000D03*
D20*
X143420000Y-122000000D03*
D21*
X153580000Y-122000000D03*
D20*
X143420000Y-110000000D03*
D21*
X153580000Y-110000000D03*
D18*
X87775000Y-132975000D03*
D19*
X85235000Y-132975000D03*
X87775000Y-135515000D03*
X85235000Y-135515000D03*
X87775000Y-138055000D03*
X85235000Y-138055000D03*
D20*
X153580000Y-94000000D03*
D21*
X143420000Y-94000000D03*
D22*
X109200000Y-130200000D03*
D21*
X111740000Y-130200000D03*
X114280000Y-130200000D03*
X116820000Y-130200000D03*
X116820000Y-137820000D03*
X114280000Y-137820000D03*
X111740000Y-137820000D03*
X109200000Y-137820000D03*
D20*
X88000000Y-55420000D03*
D21*
X88000000Y-65580000D03*
D20*
X108500000Y-109420000D03*
D21*
X108500000Y-119580000D03*
D20*
X68000000Y-104500000D03*
X68000000Y-99500000D03*
X179500000Y-65580000D03*
D21*
X179500000Y-55420000D03*
D20*
X155500000Y-55420000D03*
D21*
X155500000Y-65580000D03*
D18*
X77235000Y-129165000D03*
D19*
X77235000Y-131705000D03*
X77235000Y-134245000D03*
X77235000Y-136785000D03*
X77235000Y-139325000D03*
X77235000Y-141865000D03*
D20*
X84000000Y-119580000D03*
D21*
X84000000Y-109420000D03*
D20*
X153580000Y-102000000D03*
D21*
X143420000Y-102000000D03*
D20*
X167500000Y-55420000D03*
D21*
X167500000Y-65580000D03*
D20*
X143500000Y-55420000D03*
D21*
X143500000Y-65580000D03*
D20*
X171500000Y-65580000D03*
D21*
X171500000Y-55420000D03*
D20*
X97500000Y-89000000D03*
X97500000Y-94000000D03*
X130500000Y-90500000D03*
X130500000Y-85500000D03*
X126000000Y-54500000D03*
X121000000Y-54500000D03*
X159500000Y-55420000D03*
D21*
X159500000Y-65580000D03*
D20*
X80000000Y-109420000D03*
D21*
X80000000Y-119580000D03*
D22*
X175682400Y-118000000D03*
D20*
X173182400Y-118000000D03*
X147500000Y-65580000D03*
D21*
X147500000Y-55420000D03*
D20*
X81500000Y-84420000D03*
D21*
X81500000Y-94580000D03*
D24*
X142200000Y-73200000D03*
D25*
X144740000Y-73200000D03*
X147280000Y-73200000D03*
X149820000Y-73200000D03*
X149820000Y-80820000D03*
X147280000Y-80820000D03*
X144740000Y-80820000D03*
X142200000Y-80820000D03*
D20*
X110500000Y-94500000D03*
D21*
X110500000Y-84340000D03*
D20*
X118500000Y-94580000D03*
D21*
X118500000Y-84420000D03*
D20*
X132500000Y-104500000D03*
X127500000Y-104500000D03*
X96000000Y-65580000D03*
D21*
X96000000Y-55420000D03*
D20*
X126000000Y-62500000D03*
X121000000Y-62500000D03*
D26*
X96500000Y-131950000D03*
X96500000Y-134490000D03*
X96500000Y-137030000D03*
D20*
X76000000Y-110500000D03*
X76000000Y-115500000D03*
X153500000Y-74500000D03*
X153500000Y-79500000D03*
X92000000Y-109420000D03*
D21*
X92000000Y-119580000D03*
D20*
X85500000Y-94580000D03*
D21*
X85500000Y-84420000D03*
D20*
X122080000Y-143000000D03*
D21*
X111920000Y-143000000D03*
D20*
X137500000Y-79500000D03*
X137500000Y-74500000D03*
D31*
X138860000Y-94960000D03*
D23*
X138860000Y-97500000D03*
X138860000Y-100040000D03*
D20*
X153580000Y-86000000D03*
D21*
X143420000Y-86000000D03*
D20*
X134000000Y-113500000D03*
X134000000Y-118500000D03*
X103000000Y-110000000D03*
X103000000Y-115000000D03*
X151500000Y-55420000D03*
D21*
X151500000Y-65580000D03*
D20*
X153580000Y-106000000D03*
D21*
X143420000Y-106000000D03*
D20*
X153580000Y-98000000D03*
D21*
X143420000Y-98000000D03*
D20*
X132500000Y-99500000D03*
X127500000Y-99500000D03*
X139500000Y-55420000D03*
D21*
X139500000Y-65580000D03*
D20*
X131500000Y-55420000D03*
D21*
X131500000Y-65580000D03*
D20*
X127500000Y-80000000D03*
X127500000Y-75000000D03*
X126000000Y-66500000D03*
X121000000Y-66500000D03*
X175500000Y-55420000D03*
D21*
X175500000Y-65580000D03*
D20*
X93500000Y-94580000D03*
D21*
X93500000Y-84420000D03*
D20*
X102500000Y-84420000D03*
D21*
X102500000Y-94580000D03*
D20*
X98000000Y-79500000D03*
X98000000Y-74500000D03*
X143420000Y-118000000D03*
D21*
X153580000Y-118000000D03*
D22*
X145602400Y-130230000D03*
D20*
X143102400Y-130230000D03*
X135500000Y-55420000D03*
D21*
X135500000Y-65580000D03*
D20*
X130000000Y-113500000D03*
X130000000Y-118500000D03*
X143420000Y-114000000D03*
D21*
X153580000Y-114000000D03*
D20*
X169500000Y-75000000D03*
X169500000Y-70000000D03*
D22*
X71500000Y-117310000D03*
D21*
X71500000Y-109690000D03*
D20*
X104000000Y-74500000D03*
X104000000Y-79500000D03*
D31*
X138860000Y-102960000D03*
D23*
X138860000Y-105500000D03*
X138860000Y-108040000D03*
D20*
X161500000Y-75000000D03*
X161500000Y-70000000D03*
X203780000Y-100000000D03*
D21*
X193620000Y-100000000D03*
D22*
X134310000Y-109500000D03*
D21*
X126690000Y-109500000D03*
D20*
X76000000Y-99500000D03*
X76000000Y-104500000D03*
X116500000Y-109420000D03*
D21*
X116500000Y-119580000D03*
D20*
X74500000Y-74500000D03*
X74500000Y-79500000D03*
X187500000Y-67920000D03*
D21*
X187500000Y-78080000D03*
D20*
X88000000Y-109420000D03*
D21*
X88000000Y-119580000D03*
%LPD*%
M02*
