%TF.GenerationSoftware,KiCad,Pcbnew,7.0.8*%
%TF.CreationDate,2023-10-13T18:56:20-05:00*%
%TF.ProjectId,QuantizerBack,5175616e-7469-47a6-9572-4261636b2e6b,rev?*%
%TF.SameCoordinates,Original*%
%TF.FileFunction,Drillmap*%
%TF.FilePolarity,Positive*%
%FSLAX45Y45*%
G04 Gerber Fmt 4.5, Leading zero omitted, Abs format (unit mm)*
G04 Created by KiCad (PCBNEW 7.0.8) date 2023-10-13 18:56:20*
%MOMM*%
%LPD*%
G01*
G04 APERTURE LIST*
%ADD10C,0.100000*%
%ADD11C,0.200000*%
G04 APERTURE END LIST*
D10*
X6500000Y-5250000D02*
X23500000Y-5250000D01*
X23500000Y-14750000D01*
X6500000Y-14750000D01*
X6500000Y-5250000D01*
D11*
X6755777Y-15066484D02*
X6755777Y-14866484D01*
X6755777Y-14866484D02*
X6803396Y-14866484D01*
X6803396Y-14866484D02*
X6831967Y-14876008D01*
X6831967Y-14876008D02*
X6851015Y-14895055D01*
X6851015Y-14895055D02*
X6860539Y-14914103D01*
X6860539Y-14914103D02*
X6870062Y-14952198D01*
X6870062Y-14952198D02*
X6870062Y-14980769D01*
X6870062Y-14980769D02*
X6860539Y-15018865D01*
X6860539Y-15018865D02*
X6851015Y-15037912D01*
X6851015Y-15037912D02*
X6831967Y-15056960D01*
X6831967Y-15056960D02*
X6803396Y-15066484D01*
X6803396Y-15066484D02*
X6755777Y-15066484D01*
X6955777Y-15066484D02*
X6955777Y-14933150D01*
X6955777Y-14971246D02*
X6965301Y-14952198D01*
X6965301Y-14952198D02*
X6974824Y-14942674D01*
X6974824Y-14942674D02*
X6993872Y-14933150D01*
X6993872Y-14933150D02*
X7012920Y-14933150D01*
X7079586Y-15066484D02*
X7079586Y-14933150D01*
X7079586Y-14866484D02*
X7070062Y-14876008D01*
X7070062Y-14876008D02*
X7079586Y-14885531D01*
X7079586Y-14885531D02*
X7089110Y-14876008D01*
X7089110Y-14876008D02*
X7079586Y-14866484D01*
X7079586Y-14866484D02*
X7079586Y-14885531D01*
X7203396Y-15066484D02*
X7184348Y-15056960D01*
X7184348Y-15056960D02*
X7174824Y-15037912D01*
X7174824Y-15037912D02*
X7174824Y-14866484D01*
X7308158Y-15066484D02*
X7289110Y-15056960D01*
X7289110Y-15056960D02*
X7279586Y-15037912D01*
X7279586Y-15037912D02*
X7279586Y-14866484D01*
X7536729Y-15066484D02*
X7536729Y-14866484D01*
X7536729Y-14866484D02*
X7603396Y-15009341D01*
X7603396Y-15009341D02*
X7670062Y-14866484D01*
X7670062Y-14866484D02*
X7670062Y-15066484D01*
X7851015Y-15066484D02*
X7851015Y-14961722D01*
X7851015Y-14961722D02*
X7841491Y-14942674D01*
X7841491Y-14942674D02*
X7822443Y-14933150D01*
X7822443Y-14933150D02*
X7784348Y-14933150D01*
X7784348Y-14933150D02*
X7765301Y-14942674D01*
X7851015Y-15056960D02*
X7831967Y-15066484D01*
X7831967Y-15066484D02*
X7784348Y-15066484D01*
X7784348Y-15066484D02*
X7765301Y-15056960D01*
X7765301Y-15056960D02*
X7755777Y-15037912D01*
X7755777Y-15037912D02*
X7755777Y-15018865D01*
X7755777Y-15018865D02*
X7765301Y-14999817D01*
X7765301Y-14999817D02*
X7784348Y-14990293D01*
X7784348Y-14990293D02*
X7831967Y-14990293D01*
X7831967Y-14990293D02*
X7851015Y-14980769D01*
X7946253Y-14933150D02*
X7946253Y-15133150D01*
X7946253Y-14942674D02*
X7965301Y-14933150D01*
X7965301Y-14933150D02*
X8003396Y-14933150D01*
X8003396Y-14933150D02*
X8022443Y-14942674D01*
X8022443Y-14942674D02*
X8031967Y-14952198D01*
X8031967Y-14952198D02*
X8041491Y-14971246D01*
X8041491Y-14971246D02*
X8041491Y-15028388D01*
X8041491Y-15028388D02*
X8031967Y-15047436D01*
X8031967Y-15047436D02*
X8022443Y-15056960D01*
X8022443Y-15056960D02*
X8003396Y-15066484D01*
X8003396Y-15066484D02*
X7965301Y-15066484D01*
X7965301Y-15066484D02*
X7946253Y-15056960D01*
X8127205Y-15047436D02*
X8136729Y-15056960D01*
X8136729Y-15056960D02*
X8127205Y-15066484D01*
X8127205Y-15066484D02*
X8117682Y-15056960D01*
X8117682Y-15056960D02*
X8127205Y-15047436D01*
X8127205Y-15047436D02*
X8127205Y-15066484D01*
X8127205Y-14942674D02*
X8136729Y-14952198D01*
X8136729Y-14952198D02*
X8127205Y-14961722D01*
X8127205Y-14961722D02*
X8117682Y-14952198D01*
X8117682Y-14952198D02*
X8127205Y-14942674D01*
X8127205Y-14942674D02*
X8127205Y-14961722D01*
M02*
