G04 #@! TF.GenerationSoftware,KiCad,Pcbnew,(6.0.5)*
G04 #@! TF.CreationDate,2022-07-13T23:04:47-05:00*
G04 #@! TF.ProjectId,QuantizerBack,5175616e-7469-47a6-9572-4261636b2e6b,rev?*
G04 #@! TF.SameCoordinates,Original*
G04 #@! TF.FileFunction,Legend,Top*
G04 #@! TF.FilePolarity,Positive*
%FSLAX46Y46*%
G04 Gerber Fmt 4.6, Leading zero omitted, Abs format (unit mm)*
G04 Created by KiCad (PCBNEW (6.0.5)) date 2022-07-13 23:04:47*
%MOMM*%
%LPD*%
G01*
G04 APERTURE LIST*
%ADD10C,0.150000*%
%ADD11C,0.120000*%
G04 APERTURE END LIST*
D10*
G04 #@! TO.C,J8*
X224750000Y-102589285D02*
X224750000Y-103125000D01*
X224714285Y-103232142D01*
X224642857Y-103303571D01*
X224535714Y-103339285D01*
X224464285Y-103339285D01*
X225214285Y-102910714D02*
X225142857Y-102875000D01*
X225107142Y-102839285D01*
X225071428Y-102767857D01*
X225071428Y-102732142D01*
X225107142Y-102660714D01*
X225142857Y-102625000D01*
X225214285Y-102589285D01*
X225357142Y-102589285D01*
X225428571Y-102625000D01*
X225464285Y-102660714D01*
X225500000Y-102732142D01*
X225500000Y-102767857D01*
X225464285Y-102839285D01*
X225428571Y-102875000D01*
X225357142Y-102910714D01*
X225214285Y-102910714D01*
X225142857Y-102946428D01*
X225107142Y-102982142D01*
X225071428Y-103053571D01*
X225071428Y-103196428D01*
X225107142Y-103267857D01*
X225142857Y-103303571D01*
X225214285Y-103339285D01*
X225357142Y-103339285D01*
X225428571Y-103303571D01*
X225464285Y-103267857D01*
X225500000Y-103196428D01*
X225500000Y-103053571D01*
X225464285Y-102982142D01*
X225428571Y-102946428D01*
X225357142Y-102910714D01*
G04 #@! TO.C,D1*
X183879285Y-113058571D02*
X183129285Y-113058571D01*
X183129285Y-112880000D01*
X183165000Y-112772857D01*
X183236428Y-112701428D01*
X183307857Y-112665714D01*
X183450714Y-112630000D01*
X183557857Y-112630000D01*
X183700714Y-112665714D01*
X183772142Y-112701428D01*
X183843571Y-112772857D01*
X183879285Y-112880000D01*
X183879285Y-113058571D01*
X183879285Y-111915714D02*
X183879285Y-112344285D01*
X183879285Y-112130000D02*
X183129285Y-112130000D01*
X183236428Y-112201428D01*
X183307857Y-112272857D01*
X183343571Y-112344285D01*
X187839285Y-116671428D02*
X187089285Y-116671428D01*
X187839285Y-116242857D02*
X187410714Y-116564285D01*
X187089285Y-116242857D02*
X187517857Y-116671428D01*
G04 #@! TO.C,J13*
X174392857Y-127589285D02*
X174392857Y-128125000D01*
X174357142Y-128232142D01*
X174285714Y-128303571D01*
X174178571Y-128339285D01*
X174107142Y-128339285D01*
X175142857Y-128339285D02*
X174714285Y-128339285D01*
X174928571Y-128339285D02*
X174928571Y-127589285D01*
X174857142Y-127696428D01*
X174785714Y-127767857D01*
X174714285Y-127803571D01*
X175392857Y-127589285D02*
X175857142Y-127589285D01*
X175607142Y-127875000D01*
X175714285Y-127875000D01*
X175785714Y-127910714D01*
X175821428Y-127946428D01*
X175857142Y-128017857D01*
X175857142Y-128196428D01*
X175821428Y-128267857D01*
X175785714Y-128303571D01*
X175714285Y-128339285D01*
X175500000Y-128339285D01*
X175428571Y-128303571D01*
X175392857Y-128267857D01*
G04 #@! TO.C,J9*
X199750000Y-77589285D02*
X199750000Y-78125000D01*
X199714285Y-78232142D01*
X199642857Y-78303571D01*
X199535714Y-78339285D01*
X199464285Y-78339285D01*
X200142857Y-78339285D02*
X200285714Y-78339285D01*
X200357142Y-78303571D01*
X200392857Y-78267857D01*
X200464285Y-78160714D01*
X200500000Y-78017857D01*
X200500000Y-77732142D01*
X200464285Y-77660714D01*
X200428571Y-77625000D01*
X200357142Y-77589285D01*
X200214285Y-77589285D01*
X200142857Y-77625000D01*
X200107142Y-77660714D01*
X200071428Y-77732142D01*
X200071428Y-77910714D01*
X200107142Y-77982142D01*
X200142857Y-78017857D01*
X200214285Y-78053571D01*
X200357142Y-78053571D01*
X200428571Y-78017857D01*
X200464285Y-77982142D01*
X200500000Y-77910714D01*
G04 #@! TO.C,J6*
X199750000Y-102589285D02*
X199750000Y-103125000D01*
X199714285Y-103232142D01*
X199642857Y-103303571D01*
X199535714Y-103339285D01*
X199464285Y-103339285D01*
X200428571Y-102589285D02*
X200285714Y-102589285D01*
X200214285Y-102625000D01*
X200178571Y-102660714D01*
X200107142Y-102767857D01*
X200071428Y-102910714D01*
X200071428Y-103196428D01*
X200107142Y-103267857D01*
X200142857Y-103303571D01*
X200214285Y-103339285D01*
X200357142Y-103339285D01*
X200428571Y-103303571D01*
X200464285Y-103267857D01*
X200500000Y-103196428D01*
X200500000Y-103017857D01*
X200464285Y-102946428D01*
X200428571Y-102910714D01*
X200357142Y-102875000D01*
X200214285Y-102875000D01*
X200142857Y-102910714D01*
X200107142Y-102946428D01*
X200071428Y-103017857D01*
G04 #@! TO.C,J10*
X199392857Y-52589285D02*
X199392857Y-53125000D01*
X199357142Y-53232142D01*
X199285714Y-53303571D01*
X199178571Y-53339285D01*
X199107142Y-53339285D01*
X200142857Y-53339285D02*
X199714285Y-53339285D01*
X199928571Y-53339285D02*
X199928571Y-52589285D01*
X199857142Y-52696428D01*
X199785714Y-52767857D01*
X199714285Y-52803571D01*
X200607142Y-52589285D02*
X200678571Y-52589285D01*
X200750000Y-52625000D01*
X200785714Y-52660714D01*
X200821428Y-52732142D01*
X200857142Y-52875000D01*
X200857142Y-53053571D01*
X200821428Y-53196428D01*
X200785714Y-53267857D01*
X200750000Y-53303571D01*
X200678571Y-53339285D01*
X200607142Y-53339285D01*
X200535714Y-53303571D01*
X200500000Y-53267857D01*
X200464285Y-53196428D01*
X200428571Y-53053571D01*
X200428571Y-52875000D01*
X200464285Y-52732142D01*
X200500000Y-52660714D01*
X200535714Y-52625000D01*
X200607142Y-52589285D01*
G04 #@! TO.C,D3*
X183879285Y-63058571D02*
X183129285Y-63058571D01*
X183129285Y-62880000D01*
X183165000Y-62772857D01*
X183236428Y-62701428D01*
X183307857Y-62665714D01*
X183450714Y-62630000D01*
X183557857Y-62630000D01*
X183700714Y-62665714D01*
X183772142Y-62701428D01*
X183843571Y-62772857D01*
X183879285Y-62880000D01*
X183879285Y-63058571D01*
X183129285Y-62380000D02*
X183129285Y-61915714D01*
X183415000Y-62165714D01*
X183415000Y-62058571D01*
X183450714Y-61987142D01*
X183486428Y-61951428D01*
X183557857Y-61915714D01*
X183736428Y-61915714D01*
X183807857Y-61951428D01*
X183843571Y-61987142D01*
X183879285Y-62058571D01*
X183879285Y-62272857D01*
X183843571Y-62344285D01*
X183807857Y-62380000D01*
X187839285Y-58696428D02*
X187089285Y-58696428D01*
X187839285Y-58267857D02*
X187410714Y-58589285D01*
X187089285Y-58267857D02*
X187517857Y-58696428D01*
G04 #@! TO.C,J17*
X159190476Y-89497380D02*
X159190476Y-90211666D01*
X159142857Y-90354523D01*
X159047619Y-90449761D01*
X158904761Y-90497380D01*
X158809523Y-90497380D01*
X160190476Y-90497380D02*
X159619047Y-90497380D01*
X159904761Y-90497380D02*
X159904761Y-89497380D01*
X159809523Y-89640238D01*
X159714285Y-89735476D01*
X159619047Y-89783095D01*
X160523809Y-89497380D02*
X161190476Y-89497380D01*
X160761904Y-90497380D01*
G04 #@! TO.C,J11*
X224392857Y-77589285D02*
X224392857Y-78125000D01*
X224357142Y-78232142D01*
X224285714Y-78303571D01*
X224178571Y-78339285D01*
X224107142Y-78339285D01*
X225142857Y-78339285D02*
X224714285Y-78339285D01*
X224928571Y-78339285D02*
X224928571Y-77589285D01*
X224857142Y-77696428D01*
X224785714Y-77767857D01*
X224714285Y-77803571D01*
X225857142Y-78339285D02*
X225428571Y-78339285D01*
X225642857Y-78339285D02*
X225642857Y-77589285D01*
X225571428Y-77696428D01*
X225500000Y-77767857D01*
X225428571Y-77803571D01*
G04 #@! TO.C,J5*
X199750000Y-127589285D02*
X199750000Y-128125000D01*
X199714285Y-128232142D01*
X199642857Y-128303571D01*
X199535714Y-128339285D01*
X199464285Y-128339285D01*
X200464285Y-127589285D02*
X200107142Y-127589285D01*
X200071428Y-127946428D01*
X200107142Y-127910714D01*
X200178571Y-127875000D01*
X200357142Y-127875000D01*
X200428571Y-127910714D01*
X200464285Y-127946428D01*
X200500000Y-128017857D01*
X200500000Y-128196428D01*
X200464285Y-128267857D01*
X200428571Y-128303571D01*
X200357142Y-128339285D01*
X200178571Y-128339285D01*
X200107142Y-128303571D01*
X200071428Y-128267857D01*
G04 #@! TO.C,J14*
X173892857Y-97089285D02*
X173892857Y-97625000D01*
X173857142Y-97732142D01*
X173785714Y-97803571D01*
X173678571Y-97839285D01*
X173607142Y-97839285D01*
X174642857Y-97839285D02*
X174214285Y-97839285D01*
X174428571Y-97839285D02*
X174428571Y-97089285D01*
X174357142Y-97196428D01*
X174285714Y-97267857D01*
X174214285Y-97303571D01*
X175285714Y-97339285D02*
X175285714Y-97839285D01*
X175107142Y-97053571D02*
X174928571Y-97589285D01*
X175392857Y-97589285D01*
G04 #@! TO.C,J7*
X224750000Y-127589285D02*
X224750000Y-128125000D01*
X224714285Y-128232142D01*
X224642857Y-128303571D01*
X224535714Y-128339285D01*
X224464285Y-128339285D01*
X225035714Y-127589285D02*
X225535714Y-127589285D01*
X225214285Y-128339285D01*
G04 #@! TO.C,J12*
X224392857Y-52589285D02*
X224392857Y-53125000D01*
X224357142Y-53232142D01*
X224285714Y-53303571D01*
X224178571Y-53339285D01*
X224107142Y-53339285D01*
X225142857Y-53339285D02*
X224714285Y-53339285D01*
X224928571Y-53339285D02*
X224928571Y-52589285D01*
X224857142Y-52696428D01*
X224785714Y-52767857D01*
X224714285Y-52803571D01*
X225428571Y-52660714D02*
X225464285Y-52625000D01*
X225535714Y-52589285D01*
X225714285Y-52589285D01*
X225785714Y-52625000D01*
X225821428Y-52660714D01*
X225857142Y-52732142D01*
X225857142Y-52803571D01*
X225821428Y-52910714D01*
X225392857Y-53339285D01*
X225857142Y-53339285D01*
D11*
G04 #@! TO.C,J8*
X217100000Y-104600000D02*
X223500000Y-104600000D01*
X217100000Y-111000000D02*
X217100000Y-104600000D01*
X232850000Y-118300000D02*
X232850000Y-118350000D01*
X232850000Y-104600000D02*
X232850000Y-107800000D01*
X220500000Y-120350000D02*
X217100000Y-120350000D01*
X231290000Y-119590000D02*
X230350000Y-120350000D01*
X232850000Y-112100000D02*
X232850000Y-118300000D01*
X227500000Y-104600000D02*
X232850000Y-104600000D01*
X217100000Y-120350000D02*
X217100000Y-115000000D01*
X232850000Y-118350000D02*
X232110000Y-118940000D01*
X230350000Y-120350000D02*
X224500000Y-120350000D01*
G04 #@! TO.C,D1*
X185955000Y-115065000D02*
X189045000Y-115065000D01*
X187500462Y-109515000D02*
G75*
G03*
X185955170Y-115065000I-462J-2990000D01*
G01*
X189044830Y-115065000D02*
G75*
G03*
X187499538Y-109515000I-1544830J2560000D01*
G01*
X190000000Y-112505000D02*
G75*
G03*
X190000000Y-112505000I-2500000J0D01*
G01*
G04 #@! TO.C,J13*
X182850000Y-143300000D02*
X182850000Y-143350000D01*
X182850000Y-129600000D02*
X182850000Y-132800000D01*
X180350000Y-145350000D02*
X174500000Y-145350000D01*
X182850000Y-137100000D02*
X182850000Y-143300000D01*
X167100000Y-136000000D02*
X167100000Y-129600000D01*
X170500000Y-145350000D02*
X167100000Y-145350000D01*
X182850000Y-143350000D02*
X182110000Y-143940000D01*
X167100000Y-145350000D02*
X167100000Y-140000000D01*
X181290000Y-144590000D02*
X180350000Y-145350000D01*
X167100000Y-129600000D02*
X173500000Y-129600000D01*
X177500000Y-129600000D02*
X182850000Y-129600000D01*
G04 #@! TO.C,J9*
X202500000Y-79600000D02*
X207850000Y-79600000D01*
X206290000Y-94590000D02*
X205350000Y-95350000D01*
X207850000Y-93350000D02*
X207110000Y-93940000D01*
X207850000Y-87100000D02*
X207850000Y-93300000D01*
X192100000Y-95350000D02*
X192100000Y-90000000D01*
X192100000Y-86000000D02*
X192100000Y-79600000D01*
X207850000Y-79600000D02*
X207850000Y-82800000D01*
X192100000Y-79600000D02*
X198500000Y-79600000D01*
X195500000Y-95350000D02*
X192100000Y-95350000D01*
X205350000Y-95350000D02*
X199500000Y-95350000D01*
X207850000Y-93300000D02*
X207850000Y-93350000D01*
G04 #@! TO.C,J6*
X207850000Y-112100000D02*
X207850000Y-118300000D01*
X192100000Y-104600000D02*
X198500000Y-104600000D01*
X192100000Y-120350000D02*
X192100000Y-115000000D01*
X202500000Y-104600000D02*
X207850000Y-104600000D01*
X206290000Y-119590000D02*
X205350000Y-120350000D01*
X207850000Y-118350000D02*
X207110000Y-118940000D01*
X207850000Y-118300000D02*
X207850000Y-118350000D01*
X205350000Y-120350000D02*
X199500000Y-120350000D01*
X207850000Y-104600000D02*
X207850000Y-107800000D01*
X192100000Y-111000000D02*
X192100000Y-104600000D01*
X195500000Y-120350000D02*
X192100000Y-120350000D01*
G04 #@! TO.C,J10*
X207850000Y-54600000D02*
X207850000Y-57800000D01*
X195500000Y-70350000D02*
X192100000Y-70350000D01*
X205350000Y-70350000D02*
X199500000Y-70350000D01*
X206290000Y-69590000D02*
X205350000Y-70350000D01*
X202500000Y-54600000D02*
X207850000Y-54600000D01*
X192100000Y-61000000D02*
X192100000Y-54600000D01*
X192100000Y-70350000D02*
X192100000Y-65000000D01*
X207850000Y-68350000D02*
X207110000Y-68940000D01*
X207850000Y-68300000D02*
X207850000Y-68350000D01*
X192100000Y-54600000D02*
X198500000Y-54600000D01*
X207850000Y-62100000D02*
X207850000Y-68300000D01*
G04 #@! TO.C,D3*
X185955000Y-65065000D02*
X189045000Y-65065000D01*
X187500462Y-59515000D02*
G75*
G03*
X185955170Y-65065000I-462J-2990000D01*
G01*
X189044830Y-65065000D02*
G75*
G03*
X187499538Y-59515000I-1544830J2560000D01*
G01*
X190000000Y-62505000D02*
G75*
G03*
X190000000Y-62505000I-2500000J0D01*
G01*
G04 #@! TO.C,J17*
X158670000Y-91045000D02*
X160000000Y-91045000D01*
X158670000Y-93645000D02*
X161330000Y-93645000D01*
X158670000Y-108945000D02*
X161330000Y-108945000D01*
X161330000Y-93645000D02*
X161330000Y-108945000D01*
X158670000Y-92375000D02*
X158670000Y-91045000D01*
X158670000Y-93645000D02*
X158670000Y-108945000D01*
G04 #@! TO.C,J11*
X232850000Y-79600000D02*
X232850000Y-82800000D01*
X227500000Y-79600000D02*
X232850000Y-79600000D01*
X232850000Y-93350000D02*
X232110000Y-93940000D01*
X230350000Y-95350000D02*
X224500000Y-95350000D01*
X231290000Y-94590000D02*
X230350000Y-95350000D01*
X217100000Y-79600000D02*
X223500000Y-79600000D01*
X217100000Y-86000000D02*
X217100000Y-79600000D01*
X232850000Y-93300000D02*
X232850000Y-93350000D01*
X217100000Y-95350000D02*
X217100000Y-90000000D01*
X220500000Y-95350000D02*
X217100000Y-95350000D01*
X232850000Y-87100000D02*
X232850000Y-93300000D01*
G04 #@! TO.C,J5*
X202500000Y-129600000D02*
X207850000Y-129600000D01*
X192100000Y-129600000D02*
X198500000Y-129600000D01*
X195500000Y-145350000D02*
X192100000Y-145350000D01*
X207850000Y-143350000D02*
X207110000Y-143940000D01*
X192100000Y-136000000D02*
X192100000Y-129600000D01*
X205350000Y-145350000D02*
X199500000Y-145350000D01*
X206290000Y-144590000D02*
X205350000Y-145350000D01*
X207850000Y-143300000D02*
X207850000Y-143350000D01*
X192100000Y-145350000D02*
X192100000Y-140000000D01*
X207850000Y-137100000D02*
X207850000Y-143300000D01*
X207850000Y-129600000D02*
X207850000Y-132800000D01*
G04 #@! TO.C,J14*
X180350000Y-95350000D02*
X174500000Y-95350000D01*
X181290000Y-94590000D02*
X180350000Y-95350000D01*
X182850000Y-93300000D02*
X182850000Y-93350000D01*
X167100000Y-95350000D02*
X167100000Y-90000000D01*
X182850000Y-93350000D02*
X182110000Y-93940000D01*
X167100000Y-79600000D02*
X173500000Y-79600000D01*
X182850000Y-87100000D02*
X182850000Y-93300000D01*
X167100000Y-86000000D02*
X167100000Y-79600000D01*
X182850000Y-79600000D02*
X182850000Y-82800000D01*
X170500000Y-95350000D02*
X167100000Y-95350000D01*
X177500000Y-79600000D02*
X182850000Y-79600000D01*
G04 #@! TO.C,J7*
X232850000Y-129600000D02*
X232850000Y-132800000D01*
X232850000Y-143350000D02*
X232110000Y-143940000D01*
X217100000Y-145350000D02*
X217100000Y-140000000D01*
X220500000Y-145350000D02*
X217100000Y-145350000D01*
X217100000Y-136000000D02*
X217100000Y-129600000D01*
X232850000Y-137100000D02*
X232850000Y-143300000D01*
X227500000Y-129600000D02*
X232850000Y-129600000D01*
X232850000Y-143300000D02*
X232850000Y-143350000D01*
X217100000Y-129600000D02*
X223500000Y-129600000D01*
X230350000Y-145350000D02*
X224500000Y-145350000D01*
X231290000Y-144590000D02*
X230350000Y-145350000D01*
G04 #@! TO.C,J12*
X232850000Y-68350000D02*
X232110000Y-68940000D01*
X227500000Y-54600000D02*
X232850000Y-54600000D01*
X232850000Y-54600000D02*
X232850000Y-57800000D01*
X232850000Y-68300000D02*
X232850000Y-68350000D01*
X230350000Y-70350000D02*
X224500000Y-70350000D01*
X232850000Y-62100000D02*
X232850000Y-68300000D01*
X220500000Y-70350000D02*
X217100000Y-70350000D01*
X217100000Y-54600000D02*
X223500000Y-54600000D01*
X217100000Y-61000000D02*
X217100000Y-54600000D01*
X231290000Y-69590000D02*
X230350000Y-70350000D01*
X217100000Y-70350000D02*
X217100000Y-65000000D01*
G04 #@! TD*
M02*
