M48
INCH,TZ
T1C0.0157
T2C0.0295
T3C0.0315
T4C0.0335
T5C0.0354
T6C0.0394
T7C0.0400
T8C0.1063
T9C0.1260
%
G90
G05
T1
X33697Y-39333
X39974Y-34382
X41063Y-32087
X41181Y-33307
X49533Y-29660
X49679Y-39541
X49947Y-38333
X54488Y-34646
X55315Y-41850
X57515Y-42874
X61135Y-40906
T2
X68201Y-43646
X68701Y-43646
X69201Y-43646
T3
X26772Y-39173
X26772Y-41142
X27362Y-33236
X27362Y-37236
X28150Y-43185
X28150Y-46185
X28346Y-39173
X28346Y-41142
X28937Y-33236
X28937Y-37236
X29134Y-22626
X29134Y-23626
X29134Y-24626
X29331Y-29331
X29331Y-31299
X29921Y-39173
X29921Y-41142
X29921Y-43504
X29921Y-45472
X30512Y-33236
X30512Y-37236
X31053Y-28819
X31053Y-31819
X31496Y-43079
X31496Y-47079
X32053Y-28819
X32053Y-31819
X32087Y-33236
X32087Y-37236
X32283Y-22626
X32283Y-23626
X32283Y-24626
X32480Y-38661
X32480Y-41661
X33053Y-28819
X33053Y-31819
X33071Y-43079
X33071Y-47079
X33480Y-38661
X33480Y-41661
X33661Y-33236
X33661Y-37236
X34053Y-28819
X34053Y-31819
X34480Y-38661
X34480Y-41661
X34646Y-21819
X34646Y-25819
X34646Y-43079
X34646Y-47079
X35053Y-28819
X35053Y-31819
X35236Y-33236
X35236Y-37236
X35480Y-38661
X35480Y-41661
X36053Y-28819
X36053Y-31819
X36220Y-21819
X36220Y-25819
X36220Y-43079
X36220Y-47079
X36480Y-38661
X36480Y-41661
X36811Y-33236
X36811Y-37236
X37053Y-28819
X37053Y-31819
X37480Y-38661
X37480Y-41661
X37795Y-21819
X37795Y-25819
X37795Y-43079
X37795Y-47079
X37992Y-51949
X37992Y-52949
X37992Y-53949
X38157Y-56299
X38386Y-35039
X38386Y-37008
X38480Y-38661
X38480Y-41661
X38583Y-29331
X38583Y-31299
X39370Y-21819
X39370Y-25819
X39480Y-38661
X39480Y-41661
X40354Y-33236
X40354Y-37236
X40480Y-38661
X40480Y-41661
X40551Y-43307
X40551Y-45276
X40945Y-21819
X40945Y-25819
X40945Y-29331
X40945Y-31299
X40945Y-51772
X40945Y-53740
X41480Y-38661
X41480Y-41661
X41929Y-33236
X41929Y-37236
X42157Y-56299
X42480Y-38661
X42480Y-41661
X42520Y-21819
X42520Y-25819
X42667Y-28819
X42667Y-31819
X42717Y-43079
X42717Y-47079
X42992Y-51260
X42992Y-54260
X43480Y-38661
X43480Y-41661
X43504Y-33205
X43504Y-37205
X43667Y-28819
X43667Y-31819
X43992Y-51260
X43992Y-54260
X44063Y-56299
X44094Y-21819
X44094Y-25819
X44291Y-43079
X44291Y-47079
X44480Y-38661
X44480Y-41661
X44667Y-28819
X44667Y-31819
X44992Y-51260
X44992Y-54260
X45079Y-33236
X45079Y-37236
X45480Y-38661
X45480Y-41661
X45667Y-28819
X45667Y-31819
X45669Y-21819
X45669Y-25819
X45866Y-43079
X45866Y-47079
X45992Y-51260
X45992Y-54260
X46654Y-33236
X46654Y-37236
X46667Y-28819
X46667Y-31819
X47441Y-43079
X47441Y-47079
X47638Y-21457
X47638Y-23031
X47638Y-24606
X47638Y-26181
X47667Y-28819
X47667Y-31819
X48031Y-39193
X48031Y-41114
X48063Y-56299
X48228Y-33661
X48228Y-35630
X48425Y-52237
X48425Y-53221
X48667Y-28819
X48667Y-31819
X49606Y-21457
X49606Y-23031
X49606Y-24606
X49606Y-26181
X49606Y-44685
X49606Y-46654
X49803Y-33661
X49803Y-35630
X49878Y-37205
X49878Y-43110
X50197Y-29528
X50197Y-31496
X50197Y-39173
X50197Y-41142
X51181Y-44685
X51181Y-46654
X51378Y-33661
X51378Y-35630
X51772Y-21819
X51772Y-25819
X52165Y-39173
X52165Y-41142
X52756Y-44685
X52756Y-46654
X52878Y-37205
X52878Y-43110
X53346Y-21819
X53346Y-25819
X54134Y-29331
X54134Y-31299
X54669Y-37386
X54669Y-38386
X54669Y-39386
X54669Y-40535
X54669Y-41535
X54669Y-42535
X54921Y-21819
X54921Y-25819
X55984Y-28819
X55984Y-31819
X56340Y-51272
X56465Y-33858
X56465Y-35433
X56465Y-37008
X56465Y-38583
X56465Y-40157
X56465Y-41732
X56465Y-43307
X56465Y-44882
X56465Y-46457
X56465Y-48031
X56496Y-21819
X56496Y-25819
X56984Y-28819
X56984Y-31819
X57324Y-51272
X57984Y-28819
X57984Y-31819
X58071Y-21819
X58071Y-25819
X58984Y-28819
X58984Y-31819
X59292Y-51272
X59646Y-21819
X59646Y-25819
X60277Y-51272
X60433Y-29331
X60433Y-31299
X60465Y-33858
X60465Y-35433
X60465Y-37008
X60465Y-38583
X60465Y-40157
X60465Y-41732
X60465Y-43307
X60465Y-44882
X60465Y-46457
X60465Y-48031
X61220Y-21819
X61220Y-25819
X62795Y-21819
X62795Y-25819
X63583Y-27559
X63583Y-29528
X64370Y-21819
X64370Y-25819
X65157Y-27559
X65157Y-29528
X65945Y-21819
X65945Y-25819
X66732Y-27559
X66732Y-29528
X67520Y-21819
X67520Y-25819
X67717Y-40945
X68182Y-46457
X68307Y-27559
X68307Y-29528
X69094Y-21819
X69094Y-25819
X69166Y-46457
X69685Y-40945
X69882Y-27559
X69882Y-29528
X70669Y-21819
X70669Y-25819
X73819Y-26740
X73819Y-30740
X73819Y-38157
X73819Y-42157
T4
X54299Y-48516
X54299Y-52453
X62370Y-48713
X62370Y-52650
T5
X73819Y-24108
X73819Y-25108
X73819Y-43793
X73819Y-44793
T6
X30407Y-50852
X30407Y-51852
X30407Y-52852
X30407Y-53852
X30407Y-54852
X30407Y-55852
X33557Y-52352
X33557Y-53352
X33557Y-54352
X34557Y-52352
X34557Y-53352
X34557Y-54352
X62992Y-36368
X62992Y-37368
X62992Y-38368
X62992Y-39368
X62992Y-40368
X62992Y-41368
X62992Y-42368
T7
X56268Y-54815
X56268Y-55815
X57268Y-54815
X57268Y-55815
X58268Y-54815
X58268Y-55815
X59268Y-54815
X59268Y-55815
X60268Y-54815
X60268Y-55815
T8
X66378Y-34646
X66378Y-54331
X67913Y-36969
X67913Y-56654
X69094Y-31929
X69094Y-51614
X70764Y-36315
X70764Y-56000
X71417Y-33465
X71417Y-53150
X76220Y-24803
X76220Y-34646
X76220Y-44488
X76220Y-54331
X77756Y-27126
X77756Y-36969
X77756Y-46811
X77756Y-56654
X78937Y-22087
X78937Y-31929
X78937Y-41772
X78937Y-51614
X80606Y-26472
X80606Y-36315
X80606Y-46157
X80606Y-56000
X81260Y-23622
X81260Y-33465
X81260Y-43307
X81260Y-53150
X86063Y-24803
X86063Y-34646
X86063Y-44488
X86063Y-54331
X87598Y-27126
X87598Y-36969
X87598Y-46811
X87598Y-56654
X88780Y-22087
X88780Y-31929
X88780Y-41772
X88780Y-51614
X90449Y-26472
X90449Y-36315
X90449Y-46157
X90449Y-56000
X91102Y-23622
X91102Y-33465
X91102Y-43307
X91102Y-53150
T9
X27559Y-27559
X27559Y-51181
X51181Y-27559
X51181Y-51181
T0
M30
