%TF.GenerationSoftware,KiCad,Pcbnew,7.0.8*%
%TF.CreationDate,2023-10-13T18:56:20-05:00*%
%TF.ProjectId,QuantizerBack,5175616e-7469-47a6-9572-4261636b2e6b,rev?*%
%TF.SameCoordinates,Original*%
%TF.FileFunction,Drillmap*%
%TF.FilePolarity,Positive*%
%FSLAX45Y45*%
G04 Gerber Fmt 4.5, Leading zero omitted, Abs format (unit mm)*
G04 Created by KiCad (PCBNEW 7.0.8) date 2023-10-13 18:56:20*
%MOMM*%
%LPD*%
G01*
G04 APERTURE LIST*
%ADD10C,0.100000*%
%ADD11C,0.200000*%
%ADD12C,0.040000*%
%ADD13C,0.075000*%
%ADD14C,0.080000*%
%ADD15C,0.085000*%
%ADD16C,0.090000*%
%ADD17C,0.101600*%
%ADD18C,0.270000*%
%ADD19C,0.320000*%
G04 APERTURE END LIST*
D10*
X6500000Y-5250000D02*
X23500000Y-5250000D01*
X23500000Y-14750000D01*
X6500000Y-14750000D01*
X6500000Y-5250000D01*
D11*
D12*
X8539000Y-9970490D02*
X8579000Y-10010490D01*
X8579000Y-9970490D02*
X8539000Y-10010490D01*
X9570000Y-10740000D02*
X9610000Y-10780000D01*
X9610000Y-10740000D02*
X9570000Y-10780000D01*
X9990000Y-9620000D02*
X10030000Y-9660000D01*
X10030000Y-9620000D02*
X9990000Y-9660000D01*
X10000000Y-10030000D02*
X10040000Y-10070000D01*
X10040000Y-10030000D02*
X10000000Y-10070000D01*
X10133500Y-8713090D02*
X10173500Y-8753090D01*
X10173500Y-8713090D02*
X10133500Y-8753090D01*
X10410000Y-8130000D02*
X10450000Y-8170000D01*
X10450000Y-8130000D02*
X10410000Y-8170000D01*
X10440000Y-8440000D02*
X10480000Y-8480000D01*
X10480000Y-8440000D02*
X10440000Y-8480000D01*
X12561410Y-7513580D02*
X12601410Y-7553580D01*
X12601410Y-7513580D02*
X12561410Y-7553580D01*
X12598400Y-10023360D02*
X12638400Y-10063360D01*
X12638400Y-10023360D02*
X12598400Y-10063360D01*
X12980000Y-9690000D02*
X13020000Y-9730000D01*
X13020000Y-9690000D02*
X12980000Y-9730000D01*
X13820000Y-8780000D02*
X13860000Y-8820000D01*
X13860000Y-8780000D02*
X13820000Y-8820000D01*
X14030000Y-10610000D02*
X14070000Y-10650000D01*
X14070000Y-10610000D02*
X14030000Y-10650000D01*
X14588890Y-10870100D02*
X14628890Y-10910100D01*
X14628890Y-10870100D02*
X14588890Y-10910100D01*
X15508330Y-10370000D02*
X15548330Y-10410000D01*
X15548330Y-10370000D02*
X15508330Y-10410000D01*
D13*
X17360500Y-11086000D02*
G75*
G03*
X17360500Y-11086000I-37500J0D01*
G01*
X17487500Y-11086000D02*
G75*
G03*
X17487500Y-11086000I-37500J0D01*
G01*
X17614500Y-11086000D02*
G75*
G03*
X17614500Y-11086000I-37500J0D01*
G01*
D14*
X6800000Y-9910000D02*
X6800000Y-9990000D01*
X6760000Y-9950000D02*
X6840000Y-9950000D01*
X6800000Y-10410000D02*
X6800000Y-10490000D01*
X6760000Y-10450000D02*
X6840000Y-10450000D01*
X6950000Y-8402000D02*
X6950000Y-8482000D01*
X6910000Y-8442000D02*
X6990000Y-8442000D01*
X6950000Y-9418000D02*
X6950000Y-9498000D01*
X6910000Y-9458000D02*
X6990000Y-9458000D01*
X7150000Y-10929000D02*
X7150000Y-11009000D01*
X7110000Y-10969000D02*
X7190000Y-10969000D01*
X7150000Y-11691000D02*
X7150000Y-11771000D01*
X7110000Y-11731000D02*
X7190000Y-11731000D01*
X7200000Y-9910000D02*
X7200000Y-9990000D01*
X7160000Y-9950000D02*
X7240000Y-9950000D01*
X7200000Y-10410000D02*
X7200000Y-10490000D01*
X7160000Y-10450000D02*
X7240000Y-10450000D01*
X7350000Y-8402000D02*
X7350000Y-8482000D01*
X7310000Y-8442000D02*
X7390000Y-8442000D01*
X7350000Y-9418000D02*
X7350000Y-9498000D01*
X7310000Y-9458000D02*
X7390000Y-9458000D01*
X7400000Y-5707000D02*
X7400000Y-5787000D01*
X7360000Y-5747000D02*
X7440000Y-5747000D01*
X7400000Y-5961000D02*
X7400000Y-6041000D01*
X7360000Y-6001000D02*
X7440000Y-6001000D01*
X7400000Y-6215000D02*
X7400000Y-6295000D01*
X7360000Y-6255000D02*
X7440000Y-6255000D01*
X7450000Y-7410000D02*
X7450000Y-7490000D01*
X7410000Y-7450000D02*
X7490000Y-7450000D01*
X7450000Y-7910000D02*
X7450000Y-7990000D01*
X7410000Y-7950000D02*
X7490000Y-7950000D01*
X7600000Y-9910000D02*
X7600000Y-9990000D01*
X7560000Y-9950000D02*
X7640000Y-9950000D01*
X7600000Y-10410000D02*
X7600000Y-10490000D01*
X7560000Y-10450000D02*
X7640000Y-10450000D01*
X7600000Y-11010000D02*
X7600000Y-11090000D01*
X7560000Y-11050000D02*
X7640000Y-11050000D01*
X7600000Y-11510000D02*
X7600000Y-11590000D01*
X7560000Y-11550000D02*
X7640000Y-11550000D01*
X7750000Y-8402000D02*
X7750000Y-8482000D01*
X7710000Y-8442000D02*
X7790000Y-8442000D01*
X7750000Y-9418000D02*
X7750000Y-9498000D01*
X7710000Y-9458000D02*
X7790000Y-9458000D01*
X7887500Y-7280000D02*
X7887500Y-7360000D01*
X7847500Y-7320000D02*
X7927500Y-7320000D01*
X7887500Y-8042000D02*
X7887500Y-8122000D01*
X7847500Y-8082000D02*
X7927500Y-8082000D01*
X8000000Y-10902000D02*
X8000000Y-10982000D01*
X7960000Y-10942000D02*
X8040000Y-10942000D01*
X8000000Y-11918000D02*
X8000000Y-11998000D01*
X7960000Y-11958000D02*
X8040000Y-11958000D01*
X8141500Y-7280000D02*
X8141500Y-7360000D01*
X8101500Y-7320000D02*
X8181500Y-7320000D01*
X8141500Y-8042000D02*
X8141500Y-8122000D01*
X8101500Y-8082000D02*
X8181500Y-8082000D01*
X8150000Y-8402000D02*
X8150000Y-8482000D01*
X8110000Y-8442000D02*
X8190000Y-8442000D01*
X8150000Y-9418000D02*
X8150000Y-9498000D01*
X8110000Y-9458000D02*
X8190000Y-9458000D01*
X8200000Y-5707000D02*
X8200000Y-5787000D01*
X8160000Y-5747000D02*
X8240000Y-5747000D01*
X8200000Y-5961000D02*
X8200000Y-6041000D01*
X8160000Y-6001000D02*
X8240000Y-6001000D01*
X8200000Y-6215000D02*
X8200000Y-6295000D01*
X8160000Y-6255000D02*
X8240000Y-6255000D01*
X8250000Y-9780000D02*
X8250000Y-9860000D01*
X8210000Y-9820000D02*
X8290000Y-9820000D01*
X8250000Y-10542000D02*
X8250000Y-10622000D01*
X8210000Y-10582000D02*
X8290000Y-10582000D01*
X8395500Y-7280000D02*
X8395500Y-7360000D01*
X8355500Y-7320000D02*
X8435500Y-7320000D01*
X8395500Y-8042000D02*
X8395500Y-8122000D01*
X8355500Y-8082000D02*
X8435500Y-8082000D01*
X8400000Y-10902000D02*
X8400000Y-10982000D01*
X8360000Y-10942000D02*
X8440000Y-10942000D01*
X8400000Y-11918000D02*
X8400000Y-11998000D01*
X8360000Y-11958000D02*
X8440000Y-11958000D01*
X8504000Y-9780000D02*
X8504000Y-9860000D01*
X8464000Y-9820000D02*
X8544000Y-9820000D01*
X8504000Y-10542000D02*
X8504000Y-10622000D01*
X8464000Y-10582000D02*
X8544000Y-10582000D01*
X8550000Y-8402000D02*
X8550000Y-8482000D01*
X8510000Y-8442000D02*
X8590000Y-8442000D01*
X8550000Y-9418000D02*
X8550000Y-9498000D01*
X8510000Y-9458000D02*
X8590000Y-9458000D01*
X8649500Y-7280000D02*
X8649500Y-7360000D01*
X8609500Y-7320000D02*
X8689500Y-7320000D01*
X8649500Y-8042000D02*
X8649500Y-8122000D01*
X8609500Y-8082000D02*
X8689500Y-8082000D01*
X8758000Y-9780000D02*
X8758000Y-9860000D01*
X8718000Y-9820000D02*
X8798000Y-9820000D01*
X8758000Y-10542000D02*
X8758000Y-10622000D01*
X8718000Y-10582000D02*
X8798000Y-10582000D01*
X8800000Y-5502000D02*
X8800000Y-5582000D01*
X8760000Y-5542000D02*
X8840000Y-5542000D01*
X8800000Y-6518000D02*
X8800000Y-6598000D01*
X8760000Y-6558000D02*
X8840000Y-6558000D01*
X8800000Y-10902000D02*
X8800000Y-10982000D01*
X8760000Y-10942000D02*
X8840000Y-10942000D01*
X8800000Y-11918000D02*
X8800000Y-11998000D01*
X8760000Y-11958000D02*
X8840000Y-11958000D01*
X8903500Y-7280000D02*
X8903500Y-7360000D01*
X8863500Y-7320000D02*
X8943500Y-7320000D01*
X8903500Y-8042000D02*
X8903500Y-8122000D01*
X8863500Y-8082000D02*
X8943500Y-8082000D01*
X8950000Y-8402000D02*
X8950000Y-8482000D01*
X8910000Y-8442000D02*
X8990000Y-8442000D01*
X8950000Y-9418000D02*
X8950000Y-9498000D01*
X8910000Y-9458000D02*
X8990000Y-9458000D01*
X9012000Y-9780000D02*
X9012000Y-9860000D01*
X8972000Y-9820000D02*
X9052000Y-9820000D01*
X9012000Y-10542000D02*
X9012000Y-10622000D01*
X8972000Y-10582000D02*
X9052000Y-10582000D01*
X9157500Y-7280000D02*
X9157500Y-7360000D01*
X9117500Y-7320000D02*
X9197500Y-7320000D01*
X9157500Y-8042000D02*
X9157500Y-8122000D01*
X9117500Y-8082000D02*
X9197500Y-8082000D01*
X9200000Y-5502000D02*
X9200000Y-5582000D01*
X9160000Y-5542000D02*
X9240000Y-5542000D01*
X9200000Y-6518000D02*
X9200000Y-6598000D01*
X9160000Y-6558000D02*
X9240000Y-6558000D01*
X9200000Y-10902000D02*
X9200000Y-10982000D01*
X9160000Y-10942000D02*
X9240000Y-10942000D01*
X9200000Y-11918000D02*
X9200000Y-11998000D01*
X9160000Y-11958000D02*
X9240000Y-11958000D01*
X9266000Y-9780000D02*
X9266000Y-9860000D01*
X9226000Y-9820000D02*
X9306000Y-9820000D01*
X9266000Y-10542000D02*
X9266000Y-10622000D01*
X9226000Y-10582000D02*
X9306000Y-10582000D01*
X9350000Y-8402000D02*
X9350000Y-8482000D01*
X9310000Y-8442000D02*
X9390000Y-8442000D01*
X9350000Y-9418000D02*
X9350000Y-9498000D01*
X9310000Y-9458000D02*
X9390000Y-9458000D01*
X9411500Y-7280000D02*
X9411500Y-7360000D01*
X9371500Y-7320000D02*
X9451500Y-7320000D01*
X9411500Y-8042000D02*
X9411500Y-8122000D01*
X9371500Y-8082000D02*
X9451500Y-8082000D01*
X9520000Y-9780000D02*
X9520000Y-9860000D01*
X9480000Y-9820000D02*
X9560000Y-9820000D01*
X9520000Y-10542000D02*
X9520000Y-10622000D01*
X9480000Y-10582000D02*
X9560000Y-10582000D01*
X9600000Y-5502000D02*
X9600000Y-5582000D01*
X9560000Y-5542000D02*
X9640000Y-5542000D01*
X9600000Y-6518000D02*
X9600000Y-6598000D01*
X9560000Y-6558000D02*
X9640000Y-6558000D01*
X9600000Y-10902000D02*
X9600000Y-10982000D01*
X9560000Y-10942000D02*
X9640000Y-10942000D01*
X9600000Y-11918000D02*
X9600000Y-11998000D01*
X9560000Y-11958000D02*
X9640000Y-11958000D01*
X9650000Y-13155000D02*
X9650000Y-13235000D01*
X9610000Y-13195000D02*
X9690000Y-13195000D01*
X9650000Y-13409000D02*
X9650000Y-13489000D01*
X9610000Y-13449000D02*
X9690000Y-13449000D01*
X9650000Y-13663000D02*
X9650000Y-13743000D01*
X9610000Y-13703000D02*
X9690000Y-13703000D01*
X9692000Y-14260000D02*
X9692000Y-14340000D01*
X9652000Y-14300000D02*
X9732000Y-14300000D01*
X9750000Y-8860000D02*
X9750000Y-8940000D01*
X9710000Y-8900000D02*
X9790000Y-8900000D01*
X9750000Y-9360000D02*
X9750000Y-9440000D01*
X9710000Y-9400000D02*
X9790000Y-9400000D01*
X9774000Y-9780000D02*
X9774000Y-9860000D01*
X9734000Y-9820000D02*
X9814000Y-9820000D01*
X9774000Y-10542000D02*
X9774000Y-10622000D01*
X9734000Y-10582000D02*
X9814000Y-10582000D01*
X9800000Y-7410000D02*
X9800000Y-7490000D01*
X9760000Y-7450000D02*
X9840000Y-7450000D01*
X9800000Y-7910000D02*
X9800000Y-7990000D01*
X9760000Y-7950000D02*
X9840000Y-7950000D01*
X10000000Y-5502000D02*
X10000000Y-5582000D01*
X9960000Y-5542000D02*
X10040000Y-5542000D01*
X10000000Y-6518000D02*
X10000000Y-6598000D01*
X9960000Y-6558000D02*
X10040000Y-6558000D01*
X10028000Y-9780000D02*
X10028000Y-9860000D01*
X9988000Y-9820000D02*
X10068000Y-9820000D01*
X10028000Y-10542000D02*
X10028000Y-10622000D01*
X9988000Y-10582000D02*
X10068000Y-10582000D01*
X10250000Y-8402000D02*
X10250000Y-8482000D01*
X10210000Y-8442000D02*
X10290000Y-8442000D01*
X10250000Y-9418000D02*
X10250000Y-9498000D01*
X10210000Y-9458000D02*
X10290000Y-9458000D01*
X10282000Y-9780000D02*
X10282000Y-9860000D01*
X10242000Y-9820000D02*
X10322000Y-9820000D01*
X10282000Y-10542000D02*
X10282000Y-10622000D01*
X10242000Y-10582000D02*
X10322000Y-10582000D01*
X10300000Y-10960000D02*
X10300000Y-11040000D01*
X10260000Y-11000000D02*
X10340000Y-11000000D01*
X10300000Y-11460000D02*
X10300000Y-11540000D01*
X10260000Y-11500000D02*
X10340000Y-11500000D01*
X10400000Y-5502000D02*
X10400000Y-5582000D01*
X10360000Y-5542000D02*
X10440000Y-5542000D01*
X10400000Y-6518000D02*
X10400000Y-6598000D01*
X10360000Y-6558000D02*
X10440000Y-6558000D01*
X10400000Y-7410000D02*
X10400000Y-7490000D01*
X10360000Y-7450000D02*
X10440000Y-7450000D01*
X10400000Y-7910000D02*
X10400000Y-7990000D01*
X10360000Y-7950000D02*
X10440000Y-7950000D01*
X10400000Y-13110000D02*
X10400000Y-13190000D01*
X10360000Y-13150000D02*
X10440000Y-13150000D01*
X10400000Y-13610000D02*
X10400000Y-13690000D01*
X10360000Y-13650000D02*
X10440000Y-13650000D01*
X10536000Y-9780000D02*
X10536000Y-9860000D01*
X10496000Y-9820000D02*
X10576000Y-9820000D01*
X10536000Y-10542000D02*
X10536000Y-10622000D01*
X10496000Y-10582000D02*
X10576000Y-10582000D01*
X10650000Y-8402000D02*
X10650000Y-8482000D01*
X10610000Y-8442000D02*
X10690000Y-8442000D01*
X10650000Y-9418000D02*
X10650000Y-9498000D01*
X10610000Y-9458000D02*
X10690000Y-9458000D01*
X10708000Y-14260000D02*
X10708000Y-14340000D01*
X10668000Y-14300000D02*
X10748000Y-14300000D01*
X10790000Y-9780000D02*
X10790000Y-9860000D01*
X10750000Y-9820000D02*
X10830000Y-9820000D01*
X10790000Y-10542000D02*
X10790000Y-10622000D01*
X10750000Y-10582000D02*
X10830000Y-10582000D01*
X10800000Y-5502000D02*
X10800000Y-5582000D01*
X10760000Y-5542000D02*
X10840000Y-5542000D01*
X10800000Y-6518000D02*
X10800000Y-6598000D01*
X10760000Y-6558000D02*
X10840000Y-6558000D01*
X10837500Y-7280000D02*
X10837500Y-7360000D01*
X10797500Y-7320000D02*
X10877500Y-7320000D01*
X10837500Y-8042000D02*
X10837500Y-8122000D01*
X10797500Y-8082000D02*
X10877500Y-8082000D01*
X10850000Y-10902000D02*
X10850000Y-10982000D01*
X10810000Y-10942000D02*
X10890000Y-10942000D01*
X10850000Y-11918000D02*
X10850000Y-11998000D01*
X10810000Y-11958000D02*
X10890000Y-11958000D01*
X10920000Y-12980000D02*
X10920000Y-13060000D01*
X10880000Y-13020000D02*
X10960000Y-13020000D01*
X10920000Y-13742000D02*
X10920000Y-13822000D01*
X10880000Y-13782000D02*
X10960000Y-13782000D01*
X11044000Y-9780000D02*
X11044000Y-9860000D01*
X11004000Y-9820000D02*
X11084000Y-9820000D01*
X11044000Y-10542000D02*
X11044000Y-10622000D01*
X11004000Y-10582000D02*
X11084000Y-10582000D01*
X11050000Y-8394000D02*
X11050000Y-8474000D01*
X11010000Y-8434000D02*
X11090000Y-8434000D01*
X11050000Y-9410000D02*
X11050000Y-9490000D01*
X11010000Y-9450000D02*
X11090000Y-9450000D01*
X11091500Y-7280000D02*
X11091500Y-7360000D01*
X11051500Y-7320000D02*
X11131500Y-7320000D01*
X11091500Y-8042000D02*
X11091500Y-8122000D01*
X11051500Y-8082000D02*
X11131500Y-8082000D01*
X11174000Y-12980000D02*
X11174000Y-13060000D01*
X11134000Y-13020000D02*
X11214000Y-13020000D01*
X11174000Y-13742000D02*
X11174000Y-13822000D01*
X11134000Y-13782000D02*
X11214000Y-13782000D01*
X11192000Y-14260000D02*
X11192000Y-14340000D01*
X11152000Y-14300000D02*
X11232000Y-14300000D01*
X11200000Y-5502000D02*
X11200000Y-5582000D01*
X11160000Y-5542000D02*
X11240000Y-5542000D01*
X11200000Y-6518000D02*
X11200000Y-6598000D01*
X11160000Y-6558000D02*
X11240000Y-6558000D01*
X11250000Y-10902000D02*
X11250000Y-10982000D01*
X11210000Y-10942000D02*
X11290000Y-10942000D01*
X11250000Y-11918000D02*
X11250000Y-11998000D01*
X11210000Y-11958000D02*
X11290000Y-11958000D01*
X11298000Y-9780000D02*
X11298000Y-9860000D01*
X11258000Y-9820000D02*
X11338000Y-9820000D01*
X11298000Y-10542000D02*
X11298000Y-10622000D01*
X11258000Y-10582000D02*
X11338000Y-10582000D01*
X11345500Y-7280000D02*
X11345500Y-7360000D01*
X11305500Y-7320000D02*
X11385500Y-7320000D01*
X11345500Y-8042000D02*
X11345500Y-8122000D01*
X11305500Y-8082000D02*
X11385500Y-8082000D01*
X11428000Y-12980000D02*
X11428000Y-13060000D01*
X11388000Y-13020000D02*
X11468000Y-13020000D01*
X11428000Y-13742000D02*
X11428000Y-13822000D01*
X11388000Y-13782000D02*
X11468000Y-13782000D01*
X11450000Y-8402000D02*
X11450000Y-8482000D01*
X11410000Y-8442000D02*
X11490000Y-8442000D01*
X11450000Y-9418000D02*
X11450000Y-9498000D01*
X11410000Y-9458000D02*
X11490000Y-9458000D01*
X11552000Y-9780000D02*
X11552000Y-9860000D01*
X11512000Y-9820000D02*
X11592000Y-9820000D01*
X11552000Y-10542000D02*
X11552000Y-10622000D01*
X11512000Y-10582000D02*
X11592000Y-10582000D01*
X11599500Y-7280000D02*
X11599500Y-7360000D01*
X11559500Y-7320000D02*
X11639500Y-7320000D01*
X11599500Y-8042000D02*
X11599500Y-8122000D01*
X11559500Y-8082000D02*
X11639500Y-8082000D01*
X11600000Y-5502000D02*
X11600000Y-5582000D01*
X11560000Y-5542000D02*
X11640000Y-5542000D01*
X11600000Y-6518000D02*
X11600000Y-6598000D01*
X11560000Y-6558000D02*
X11640000Y-6558000D01*
X11650000Y-10902000D02*
X11650000Y-10982000D01*
X11610000Y-10942000D02*
X11690000Y-10942000D01*
X11650000Y-11918000D02*
X11650000Y-11998000D01*
X11610000Y-11958000D02*
X11690000Y-11958000D01*
X11682000Y-12980000D02*
X11682000Y-13060000D01*
X11642000Y-13020000D02*
X11722000Y-13020000D01*
X11682000Y-13742000D02*
X11682000Y-13822000D01*
X11642000Y-13782000D02*
X11722000Y-13782000D01*
X11850000Y-8402000D02*
X11850000Y-8482000D01*
X11810000Y-8442000D02*
X11890000Y-8442000D01*
X11850000Y-9418000D02*
X11850000Y-9498000D01*
X11810000Y-9458000D02*
X11890000Y-9458000D01*
X11853500Y-7280000D02*
X11853500Y-7360000D01*
X11813500Y-7320000D02*
X11893500Y-7320000D01*
X11853500Y-8042000D02*
X11853500Y-8122000D01*
X11813500Y-8082000D02*
X11893500Y-8082000D01*
X12050000Y-10902000D02*
X12050000Y-10982000D01*
X12010000Y-10942000D02*
X12090000Y-10942000D01*
X12050000Y-11918000D02*
X12050000Y-11998000D01*
X12010000Y-11958000D02*
X12090000Y-11958000D01*
X12100000Y-5410000D02*
X12100000Y-5490000D01*
X12060000Y-5450000D02*
X12140000Y-5450000D01*
X12100000Y-5810000D02*
X12100000Y-5890000D01*
X12060000Y-5850000D02*
X12140000Y-5850000D01*
X12100000Y-6210000D02*
X12100000Y-6290000D01*
X12060000Y-6250000D02*
X12140000Y-6250000D01*
X12100000Y-6610000D02*
X12100000Y-6690000D01*
X12060000Y-6650000D02*
X12140000Y-6650000D01*
X12107500Y-7280000D02*
X12107500Y-7360000D01*
X12067500Y-7320000D02*
X12147500Y-7320000D01*
X12107500Y-8042000D02*
X12107500Y-8122000D01*
X12067500Y-8082000D02*
X12147500Y-8082000D01*
X12200000Y-9915000D02*
X12200000Y-9995000D01*
X12160000Y-9955000D02*
X12240000Y-9955000D01*
X12200000Y-10403000D02*
X12200000Y-10483000D01*
X12160000Y-10443000D02*
X12240000Y-10443000D01*
X12208000Y-14260000D02*
X12208000Y-14340000D01*
X12168000Y-14300000D02*
X12248000Y-14300000D01*
X12250000Y-8510000D02*
X12250000Y-8590000D01*
X12210000Y-8550000D02*
X12290000Y-8550000D01*
X12250000Y-9010000D02*
X12250000Y-9090000D01*
X12210000Y-9050000D02*
X12290000Y-9050000D01*
X12300000Y-13228240D02*
X12300000Y-13308240D01*
X12260000Y-13268240D02*
X12340000Y-13268240D01*
X12300000Y-13478240D02*
X12300000Y-13558240D01*
X12260000Y-13518240D02*
X12340000Y-13518240D01*
X12361500Y-7280000D02*
X12361500Y-7360000D01*
X12321500Y-7320000D02*
X12401500Y-7320000D01*
X12361500Y-8042000D02*
X12361500Y-8122000D01*
X12321500Y-8082000D02*
X12401500Y-8082000D01*
X12600000Y-5410000D02*
X12600000Y-5490000D01*
X12560000Y-5450000D02*
X12640000Y-5450000D01*
X12600000Y-5810000D02*
X12600000Y-5890000D01*
X12560000Y-5850000D02*
X12640000Y-5850000D01*
X12600000Y-6210000D02*
X12600000Y-6290000D01*
X12560000Y-6250000D02*
X12640000Y-6250000D01*
X12600000Y-6610000D02*
X12600000Y-6690000D01*
X12560000Y-6650000D02*
X12640000Y-6650000D01*
X12600000Y-11310000D02*
X12600000Y-11390000D01*
X12560000Y-11350000D02*
X12640000Y-11350000D01*
X12600000Y-11810000D02*
X12600000Y-11890000D01*
X12560000Y-11850000D02*
X12640000Y-11850000D01*
X12650000Y-8510000D02*
X12650000Y-8590000D01*
X12610000Y-8550000D02*
X12690000Y-8550000D01*
X12650000Y-9010000D02*
X12650000Y-9090000D01*
X12610000Y-9050000D02*
X12690000Y-9050000D01*
X12669000Y-9410000D02*
X12669000Y-9490000D01*
X12629000Y-9450000D02*
X12709000Y-9450000D01*
X12669000Y-10910000D02*
X12669000Y-10990000D01*
X12629000Y-10950000D02*
X12709000Y-10950000D01*
X12750000Y-7460000D02*
X12750000Y-7540000D01*
X12710000Y-7500000D02*
X12790000Y-7500000D01*
X12750000Y-7960000D02*
X12750000Y-8040000D01*
X12710000Y-8000000D02*
X12790000Y-8000000D01*
X12750000Y-9910000D02*
X12750000Y-9990000D01*
X12710000Y-9950000D02*
X12790000Y-9950000D01*
X12750000Y-10410000D02*
X12750000Y-10490000D01*
X12710000Y-10450000D02*
X12790000Y-10450000D01*
X13000000Y-11310000D02*
X13000000Y-11390000D01*
X12960000Y-11350000D02*
X13040000Y-11350000D01*
X13000000Y-11810000D02*
X13000000Y-11890000D01*
X12960000Y-11850000D02*
X13040000Y-11850000D01*
X13050000Y-8510000D02*
X13050000Y-8590000D01*
X13010000Y-8550000D02*
X13090000Y-8550000D01*
X13050000Y-9010000D02*
X13050000Y-9090000D01*
X13010000Y-9050000D02*
X13090000Y-9050000D01*
X13150000Y-5502000D02*
X13150000Y-5582000D01*
X13110000Y-5542000D02*
X13190000Y-5542000D01*
X13150000Y-6518000D02*
X13150000Y-6598000D01*
X13110000Y-6558000D02*
X13190000Y-6558000D01*
X13250000Y-9910000D02*
X13250000Y-9990000D01*
X13210000Y-9950000D02*
X13290000Y-9950000D01*
X13250000Y-10410000D02*
X13250000Y-10490000D01*
X13210000Y-10450000D02*
X13290000Y-10450000D01*
X13400000Y-11310000D02*
X13400000Y-11390000D01*
X13360000Y-11350000D02*
X13440000Y-11350000D01*
X13400000Y-11810000D02*
X13400000Y-11890000D01*
X13360000Y-11850000D02*
X13440000Y-11850000D01*
X13431000Y-9410000D02*
X13431000Y-9490000D01*
X13391000Y-9450000D02*
X13471000Y-9450000D01*
X13431000Y-10910000D02*
X13431000Y-10990000D01*
X13391000Y-10950000D02*
X13471000Y-10950000D01*
X13550000Y-5502000D02*
X13550000Y-5582000D01*
X13510000Y-5542000D02*
X13590000Y-5542000D01*
X13550000Y-6518000D02*
X13550000Y-6598000D01*
X13510000Y-6558000D02*
X13590000Y-6558000D01*
X13750000Y-7410000D02*
X13750000Y-7490000D01*
X13710000Y-7450000D02*
X13790000Y-7450000D01*
X13750000Y-7910000D02*
X13750000Y-7990000D01*
X13710000Y-7950000D02*
X13790000Y-7950000D01*
X13886000Y-9456000D02*
X13886000Y-9536000D01*
X13846000Y-9496000D02*
X13926000Y-9496000D01*
X13886000Y-9710000D02*
X13886000Y-9790000D01*
X13846000Y-9750000D02*
X13926000Y-9750000D01*
X13886000Y-9964000D02*
X13886000Y-10044000D01*
X13846000Y-10004000D02*
X13926000Y-10004000D01*
X13886000Y-10256000D02*
X13886000Y-10336000D01*
X13846000Y-10296000D02*
X13926000Y-10296000D01*
X13886000Y-10510000D02*
X13886000Y-10590000D01*
X13846000Y-10550000D02*
X13926000Y-10550000D01*
X13886000Y-10764000D02*
X13886000Y-10844000D01*
X13846000Y-10804000D02*
X13926000Y-10804000D01*
X13950000Y-5502000D02*
X13950000Y-5582000D01*
X13910000Y-5542000D02*
X13990000Y-5542000D01*
X13950000Y-6518000D02*
X13950000Y-6598000D01*
X13910000Y-6558000D02*
X13990000Y-6558000D01*
X14220000Y-7280000D02*
X14220000Y-7360000D01*
X14180000Y-7320000D02*
X14260000Y-7320000D01*
X14220000Y-8042000D02*
X14220000Y-8122000D01*
X14180000Y-8082000D02*
X14260000Y-8082000D01*
X14310240Y-12983000D02*
X14310240Y-13063000D01*
X14270240Y-13023000D02*
X14350240Y-13023000D01*
X14342000Y-8560000D02*
X14342000Y-8640000D01*
X14302000Y-8600000D02*
X14382000Y-8600000D01*
X14342000Y-8960000D02*
X14342000Y-9040000D01*
X14302000Y-9000000D02*
X14382000Y-9000000D01*
X14342000Y-9360000D02*
X14342000Y-9440000D01*
X14302000Y-9400000D02*
X14382000Y-9400000D01*
X14342000Y-9760000D02*
X14342000Y-9840000D01*
X14302000Y-9800000D02*
X14382000Y-9800000D01*
X14342000Y-10160000D02*
X14342000Y-10240000D01*
X14302000Y-10200000D02*
X14382000Y-10200000D01*
X14342000Y-10560000D02*
X14342000Y-10640000D01*
X14302000Y-10600000D02*
X14382000Y-10600000D01*
X14342000Y-10960000D02*
X14342000Y-11040000D01*
X14302000Y-11000000D02*
X14382000Y-11000000D01*
X14342000Y-11360000D02*
X14342000Y-11440000D01*
X14302000Y-11400000D02*
X14382000Y-11400000D01*
X14342000Y-11760000D02*
X14342000Y-11840000D01*
X14302000Y-11800000D02*
X14382000Y-11800000D01*
X14342000Y-12160000D02*
X14342000Y-12240000D01*
X14302000Y-12200000D02*
X14382000Y-12200000D01*
X14350000Y-5502000D02*
X14350000Y-5582000D01*
X14310000Y-5542000D02*
X14390000Y-5542000D01*
X14350000Y-6518000D02*
X14350000Y-6598000D01*
X14310000Y-6558000D02*
X14390000Y-6558000D01*
X14474000Y-7280000D02*
X14474000Y-7360000D01*
X14434000Y-7320000D02*
X14514000Y-7320000D01*
X14474000Y-8042000D02*
X14474000Y-8122000D01*
X14434000Y-8082000D02*
X14514000Y-8082000D01*
X14560240Y-12983000D02*
X14560240Y-13063000D01*
X14520240Y-13023000D02*
X14600240Y-13023000D01*
X14728000Y-7280000D02*
X14728000Y-7360000D01*
X14688000Y-7320000D02*
X14768000Y-7320000D01*
X14728000Y-8042000D02*
X14728000Y-8122000D01*
X14688000Y-8082000D02*
X14768000Y-8082000D01*
X14750000Y-5502000D02*
X14750000Y-5582000D01*
X14710000Y-5542000D02*
X14790000Y-5542000D01*
X14750000Y-6518000D02*
X14750000Y-6598000D01*
X14710000Y-6558000D02*
X14790000Y-6558000D01*
X14982000Y-7280000D02*
X14982000Y-7360000D01*
X14942000Y-7320000D02*
X15022000Y-7320000D01*
X14982000Y-8042000D02*
X14982000Y-8122000D01*
X14942000Y-8082000D02*
X15022000Y-8082000D01*
X15060240Y-12983000D02*
X15060240Y-13063000D01*
X15020240Y-13023000D02*
X15100240Y-13023000D01*
X15150000Y-5502000D02*
X15150000Y-5582000D01*
X15110000Y-5542000D02*
X15190000Y-5542000D01*
X15150000Y-6518000D02*
X15150000Y-6598000D01*
X15110000Y-6558000D02*
X15190000Y-6558000D01*
X15310240Y-12983000D02*
X15310240Y-13063000D01*
X15270240Y-13023000D02*
X15350240Y-13023000D01*
X15350000Y-7410000D02*
X15350000Y-7490000D01*
X15310000Y-7450000D02*
X15390000Y-7450000D01*
X15350000Y-7910000D02*
X15350000Y-7990000D01*
X15310000Y-7950000D02*
X15390000Y-7950000D01*
X15358000Y-8560000D02*
X15358000Y-8640000D01*
X15318000Y-8600000D02*
X15398000Y-8600000D01*
X15358000Y-8960000D02*
X15358000Y-9040000D01*
X15318000Y-9000000D02*
X15398000Y-9000000D01*
X15358000Y-9360000D02*
X15358000Y-9440000D01*
X15318000Y-9400000D02*
X15398000Y-9400000D01*
X15358000Y-9760000D02*
X15358000Y-9840000D01*
X15318000Y-9800000D02*
X15398000Y-9800000D01*
X15358000Y-10160000D02*
X15358000Y-10240000D01*
X15318000Y-10200000D02*
X15398000Y-10200000D01*
X15358000Y-10560000D02*
X15358000Y-10640000D01*
X15318000Y-10600000D02*
X15398000Y-10600000D01*
X15358000Y-10960000D02*
X15358000Y-11040000D01*
X15318000Y-11000000D02*
X15398000Y-11000000D01*
X15358000Y-11360000D02*
X15358000Y-11440000D01*
X15318000Y-11400000D02*
X15398000Y-11400000D01*
X15358000Y-11760000D02*
X15358000Y-11840000D01*
X15318000Y-11800000D02*
X15398000Y-11800000D01*
X15358000Y-12160000D02*
X15358000Y-12240000D01*
X15318000Y-12200000D02*
X15398000Y-12200000D01*
X15550000Y-5502000D02*
X15550000Y-5582000D01*
X15510000Y-5542000D02*
X15590000Y-5542000D01*
X15550000Y-6518000D02*
X15550000Y-6598000D01*
X15510000Y-6558000D02*
X15590000Y-6558000D01*
X15950000Y-5502000D02*
X15950000Y-5582000D01*
X15910000Y-5542000D02*
X15990000Y-5542000D01*
X15950000Y-6518000D02*
X15950000Y-6598000D01*
X15910000Y-6558000D02*
X15990000Y-6558000D01*
X16150000Y-6960000D02*
X16150000Y-7040000D01*
X16110000Y-7000000D02*
X16190000Y-7000000D01*
X16150000Y-7460000D02*
X16150000Y-7540000D01*
X16110000Y-7500000D02*
X16190000Y-7500000D01*
X16350000Y-5502000D02*
X16350000Y-5582000D01*
X16310000Y-5542000D02*
X16390000Y-5542000D01*
X16350000Y-6518000D02*
X16350000Y-6598000D01*
X16310000Y-6558000D02*
X16390000Y-6558000D01*
X16550000Y-6960000D02*
X16550000Y-7040000D01*
X16510000Y-7000000D02*
X16590000Y-7000000D01*
X16550000Y-7460000D02*
X16550000Y-7540000D01*
X16510000Y-7500000D02*
X16590000Y-7500000D01*
X16750000Y-5502000D02*
X16750000Y-5582000D01*
X16710000Y-5542000D02*
X16790000Y-5542000D01*
X16750000Y-6518000D02*
X16750000Y-6598000D01*
X16710000Y-6558000D02*
X16790000Y-6558000D01*
X16950000Y-6960000D02*
X16950000Y-7040000D01*
X16910000Y-7000000D02*
X16990000Y-7000000D01*
X16950000Y-7460000D02*
X16950000Y-7540000D01*
X16910000Y-7500000D02*
X16990000Y-7500000D01*
X17150000Y-5502000D02*
X17150000Y-5582000D01*
X17110000Y-5542000D02*
X17190000Y-5542000D01*
X17150000Y-6518000D02*
X17150000Y-6598000D01*
X17110000Y-6558000D02*
X17190000Y-6558000D01*
X17200000Y-10360000D02*
X17200000Y-10440000D01*
X17160000Y-10400000D02*
X17240000Y-10400000D01*
X17318240Y-11760000D02*
X17318240Y-11840000D01*
X17278240Y-11800000D02*
X17358240Y-11800000D01*
X17350000Y-6960000D02*
X17350000Y-7040000D01*
X17310000Y-7000000D02*
X17390000Y-7000000D01*
X17350000Y-7460000D02*
X17350000Y-7540000D01*
X17310000Y-7500000D02*
X17390000Y-7500000D01*
X17550000Y-5502000D02*
X17550000Y-5582000D01*
X17510000Y-5542000D02*
X17590000Y-5542000D01*
X17550000Y-6518000D02*
X17550000Y-6598000D01*
X17510000Y-6558000D02*
X17590000Y-6558000D01*
X17568240Y-11760000D02*
X17568240Y-11840000D01*
X17528240Y-11800000D02*
X17608240Y-11800000D01*
X17700000Y-10360000D02*
X17700000Y-10440000D01*
X17660000Y-10400000D02*
X17740000Y-10400000D01*
X17750000Y-6960000D02*
X17750000Y-7040000D01*
X17710000Y-7000000D02*
X17790000Y-7000000D01*
X17750000Y-7460000D02*
X17750000Y-7540000D01*
X17710000Y-7500000D02*
X17790000Y-7500000D01*
X17950000Y-5502000D02*
X17950000Y-5582000D01*
X17910000Y-5542000D02*
X17990000Y-5542000D01*
X17950000Y-6518000D02*
X17950000Y-6598000D01*
X17910000Y-6558000D02*
X17990000Y-6558000D01*
X18720000Y-13114000D02*
X18720000Y-13194000D01*
X18680000Y-13154000D02*
X18760000Y-13154000D01*
X18720000Y-14130000D02*
X18720000Y-14210000D01*
X18680000Y-14170000D02*
X18760000Y-14170000D01*
X18750000Y-6752000D02*
X18750000Y-6832000D01*
X18710000Y-6792000D02*
X18790000Y-6792000D01*
X18750000Y-7768000D02*
X18750000Y-7848000D01*
X18710000Y-7808000D02*
X18790000Y-7808000D01*
X18750000Y-9652000D02*
X18750000Y-9732000D01*
X18710000Y-9692000D02*
X18790000Y-9692000D01*
X18750000Y-10668000D02*
X18750000Y-10748000D01*
X18710000Y-10708000D02*
X18790000Y-10708000D01*
X19362000Y-9960000D02*
X19362000Y-10040000D01*
X19322000Y-10000000D02*
X19402000Y-10000000D01*
X20378000Y-9960000D02*
X20378000Y-10040000D01*
X20338000Y-10000000D02*
X20418000Y-10000000D01*
D15*
X13822052Y-12353052D02*
X13822052Y-12292948D01*
X13761948Y-12292948D01*
X13761948Y-12353052D01*
X13822052Y-12353052D01*
X13822052Y-13353052D02*
X13822052Y-13292948D01*
X13761948Y-13292948D01*
X13761948Y-13353052D01*
X13822052Y-13353052D01*
X15872052Y-12403052D02*
X15872052Y-12342948D01*
X15811948Y-12342948D01*
X15811948Y-12403052D01*
X15872052Y-12403052D01*
X15872052Y-13403052D02*
X15872052Y-13342948D01*
X15811948Y-13342948D01*
X15811948Y-13403052D01*
X15872052Y-13403052D01*
D16*
X18750000Y-6168500D02*
X18795000Y-6123500D01*
X18750000Y-6078500D01*
X18705000Y-6123500D01*
X18750000Y-6168500D01*
X18750000Y-6422500D02*
X18795000Y-6377500D01*
X18750000Y-6332500D01*
X18705000Y-6377500D01*
X18750000Y-6422500D01*
X18750000Y-11168500D02*
X18795000Y-11123500D01*
X18750000Y-11078500D01*
X18705000Y-11123500D01*
X18750000Y-11168500D01*
X18750000Y-11422500D02*
X18795000Y-11377500D01*
X18750000Y-11332500D01*
X18705000Y-11377500D01*
X18750000Y-11422500D01*
D10*
X7673500Y-12866500D02*
X7773500Y-12966500D01*
X7773500Y-12866500D02*
X7673500Y-12966500D01*
X7773500Y-12916500D02*
G75*
G03*
X7773500Y-12916500I-50000J0D01*
G01*
X7673500Y-13120500D02*
X7773500Y-13220500D01*
X7773500Y-13120500D02*
X7673500Y-13220500D01*
X7773500Y-13170500D02*
G75*
G03*
X7773500Y-13170500I-50000J0D01*
G01*
X7673500Y-13374500D02*
X7773500Y-13474500D01*
X7773500Y-13374500D02*
X7673500Y-13474500D01*
X7773500Y-13424500D02*
G75*
G03*
X7773500Y-13424500I-50000J0D01*
G01*
X7673500Y-13628500D02*
X7773500Y-13728500D01*
X7773500Y-13628500D02*
X7673500Y-13728500D01*
X7773500Y-13678500D02*
G75*
G03*
X7773500Y-13678500I-50000J0D01*
G01*
X7673500Y-13882500D02*
X7773500Y-13982500D01*
X7773500Y-13882500D02*
X7673500Y-13982500D01*
X7773500Y-13932500D02*
G75*
G03*
X7773500Y-13932500I-50000J0D01*
G01*
X7673500Y-14136500D02*
X7773500Y-14236500D01*
X7773500Y-14136500D02*
X7673500Y-14236500D01*
X7773500Y-14186500D02*
G75*
G03*
X7773500Y-14186500I-50000J0D01*
G01*
X8473500Y-13247500D02*
X8573500Y-13347500D01*
X8573500Y-13247500D02*
X8473500Y-13347500D01*
X8573500Y-13297500D02*
G75*
G03*
X8573500Y-13297500I-50000J0D01*
G01*
X8473500Y-13501500D02*
X8573500Y-13601500D01*
X8573500Y-13501500D02*
X8473500Y-13601500D01*
X8573500Y-13551500D02*
G75*
G03*
X8573500Y-13551500I-50000J0D01*
G01*
X8473500Y-13755500D02*
X8573500Y-13855500D01*
X8573500Y-13755500D02*
X8473500Y-13855500D01*
X8573500Y-13805500D02*
G75*
G03*
X8573500Y-13805500I-50000J0D01*
G01*
X8727500Y-13247500D02*
X8827500Y-13347500D01*
X8827500Y-13247500D02*
X8727500Y-13347500D01*
X8827500Y-13297500D02*
G75*
G03*
X8827500Y-13297500I-50000J0D01*
G01*
X8727500Y-13501500D02*
X8827500Y-13601500D01*
X8827500Y-13501500D02*
X8727500Y-13601500D01*
X8827500Y-13551500D02*
G75*
G03*
X8827500Y-13551500I-50000J0D01*
G01*
X8727500Y-13755500D02*
X8827500Y-13855500D01*
X8827500Y-13755500D02*
X8727500Y-13855500D01*
X8827500Y-13805500D02*
G75*
G03*
X8827500Y-13805500I-50000J0D01*
G01*
X15950000Y-9187500D02*
X16050000Y-9287500D01*
X16050000Y-9187500D02*
X15950000Y-9287500D01*
X16050000Y-9237500D02*
G75*
G03*
X16050000Y-9237500I-50000J0D01*
G01*
X15950000Y-9441500D02*
X16050000Y-9541500D01*
X16050000Y-9441500D02*
X15950000Y-9541500D01*
X16050000Y-9491500D02*
G75*
G03*
X16050000Y-9491500I-50000J0D01*
G01*
X15950000Y-9695500D02*
X16050000Y-9795500D01*
X16050000Y-9695500D02*
X15950000Y-9795500D01*
X16050000Y-9745500D02*
G75*
G03*
X16050000Y-9745500I-50000J0D01*
G01*
X15950000Y-9949500D02*
X16050000Y-10049500D01*
X16050000Y-9949500D02*
X15950000Y-10049500D01*
X16050000Y-9999500D02*
G75*
G03*
X16050000Y-9999500I-50000J0D01*
G01*
X15950000Y-10203500D02*
X16050000Y-10303500D01*
X16050000Y-10203500D02*
X15950000Y-10303500D01*
X16050000Y-10253500D02*
G75*
G03*
X16050000Y-10253500I-50000J0D01*
G01*
X15950000Y-10457500D02*
X16050000Y-10557500D01*
X16050000Y-10457500D02*
X15950000Y-10557500D01*
X16050000Y-10507500D02*
G75*
G03*
X16050000Y-10507500I-50000J0D01*
G01*
X15950000Y-10711500D02*
X16050000Y-10811500D01*
X16050000Y-10711500D02*
X15950000Y-10811500D01*
X16050000Y-10761500D02*
G75*
G03*
X16050000Y-10761500I-50000J0D01*
G01*
D17*
X14243200Y-13869200D02*
X14344800Y-13970800D01*
X14344800Y-13869200D02*
X14243200Y-13970800D01*
X14294000Y-13869200D02*
X14294000Y-13970800D01*
X14243200Y-13920000D02*
X14344800Y-13920000D01*
X14243200Y-14123200D02*
X14344800Y-14224800D01*
X14344800Y-14123200D02*
X14243200Y-14224800D01*
X14294000Y-14123200D02*
X14294000Y-14224800D01*
X14243200Y-14174000D02*
X14344800Y-14174000D01*
X14497200Y-13869200D02*
X14598800Y-13970800D01*
X14598800Y-13869200D02*
X14497200Y-13970800D01*
X14548000Y-13869200D02*
X14548000Y-13970800D01*
X14497200Y-13920000D02*
X14598800Y-13920000D01*
X14497200Y-14123200D02*
X14598800Y-14224800D01*
X14598800Y-14123200D02*
X14497200Y-14224800D01*
X14548000Y-14123200D02*
X14548000Y-14224800D01*
X14497200Y-14174000D02*
X14598800Y-14174000D01*
X14751200Y-13869200D02*
X14852800Y-13970800D01*
X14852800Y-13869200D02*
X14751200Y-13970800D01*
X14802000Y-13869200D02*
X14802000Y-13970800D01*
X14751200Y-13920000D02*
X14852800Y-13920000D01*
X14751200Y-14123200D02*
X14852800Y-14224800D01*
X14852800Y-14123200D02*
X14751200Y-14224800D01*
X14802000Y-14123200D02*
X14802000Y-14224800D01*
X14751200Y-14174000D02*
X14852800Y-14174000D01*
X15005200Y-13869200D02*
X15106800Y-13970800D01*
X15106800Y-13869200D02*
X15005200Y-13970800D01*
X15056000Y-13869200D02*
X15056000Y-13970800D01*
X15005200Y-13920000D02*
X15106800Y-13920000D01*
X15005200Y-14123200D02*
X15106800Y-14224800D01*
X15106800Y-14123200D02*
X15005200Y-14224800D01*
X15056000Y-14123200D02*
X15056000Y-14224800D01*
X15005200Y-14174000D02*
X15106800Y-14174000D01*
X15259200Y-13869200D02*
X15360800Y-13970800D01*
X15360800Y-13869200D02*
X15259200Y-13970800D01*
X15310000Y-13869200D02*
X15310000Y-13970800D01*
X15259200Y-13920000D02*
X15360800Y-13920000D01*
X15259200Y-14123200D02*
X15360800Y-14224800D01*
X15360800Y-14123200D02*
X15259200Y-14224800D01*
X15310000Y-14123200D02*
X15310000Y-14224800D01*
X15259200Y-14174000D02*
X15360800Y-14174000D01*
D18*
X16725000Y-8665000D02*
X16995000Y-8935000D01*
X16995000Y-8665000D02*
X16725000Y-8935000D01*
X16955460Y-8895460D02*
X16955460Y-8704540D01*
X16764540Y-8704540D01*
X16764540Y-8895460D01*
X16955460Y-8895460D01*
X16725000Y-13665000D02*
X16995000Y-13935000D01*
X16995000Y-13665000D02*
X16725000Y-13935000D01*
X16955460Y-13895460D02*
X16955460Y-13704540D01*
X16764540Y-13704540D01*
X16764540Y-13895460D01*
X16955460Y-13895460D01*
X17115000Y-9255000D02*
X17385000Y-9525000D01*
X17385000Y-9255000D02*
X17115000Y-9525000D01*
X17345460Y-9485460D02*
X17345460Y-9294540D01*
X17154540Y-9294540D01*
X17154540Y-9485460D01*
X17345460Y-9485460D01*
X17115000Y-14255000D02*
X17385000Y-14525000D01*
X17385000Y-14255000D02*
X17115000Y-14525000D01*
X17345460Y-14485460D02*
X17345460Y-14294540D01*
X17154540Y-14294540D01*
X17154540Y-14485460D01*
X17345460Y-14485460D01*
X17415000Y-7975000D02*
X17685000Y-8245000D01*
X17685000Y-7975000D02*
X17415000Y-8245000D01*
X17645460Y-8205460D02*
X17645460Y-8014540D01*
X17454540Y-8014540D01*
X17454540Y-8205460D01*
X17645460Y-8205460D01*
X17415000Y-12975000D02*
X17685000Y-13245000D01*
X17685000Y-12975000D02*
X17415000Y-13245000D01*
X17645460Y-13205460D02*
X17645460Y-13014540D01*
X17454540Y-13014540D01*
X17454540Y-13205460D01*
X17645460Y-13205460D01*
X17839000Y-9089000D02*
X18109000Y-9359000D01*
X18109000Y-9089000D02*
X17839000Y-9359000D01*
X18069460Y-9319460D02*
X18069460Y-9128540D01*
X17878540Y-9128540D01*
X17878540Y-9319460D01*
X18069460Y-9319460D01*
X17839000Y-14089000D02*
X18109000Y-14359000D01*
X18109000Y-14089000D02*
X17839000Y-14359000D01*
X18069460Y-14319460D02*
X18069460Y-14128540D01*
X17878540Y-14128540D01*
X17878540Y-14319460D01*
X18069460Y-14319460D01*
X18005000Y-8365000D02*
X18275000Y-8635000D01*
X18275000Y-8365000D02*
X18005000Y-8635000D01*
X18235460Y-8595460D02*
X18235460Y-8404540D01*
X18044540Y-8404540D01*
X18044540Y-8595460D01*
X18235460Y-8595460D01*
X18005000Y-13365000D02*
X18275000Y-13635000D01*
X18275000Y-13365000D02*
X18005000Y-13635000D01*
X18235460Y-13595460D02*
X18235460Y-13404540D01*
X18044540Y-13404540D01*
X18044540Y-13595460D01*
X18235460Y-13595460D01*
X19225000Y-6165000D02*
X19495000Y-6435000D01*
X19495000Y-6165000D02*
X19225000Y-6435000D01*
X19455460Y-6395460D02*
X19455460Y-6204540D01*
X19264540Y-6204540D01*
X19264540Y-6395460D01*
X19455460Y-6395460D01*
X19225000Y-8665000D02*
X19495000Y-8935000D01*
X19495000Y-8665000D02*
X19225000Y-8935000D01*
X19455460Y-8895460D02*
X19455460Y-8704540D01*
X19264540Y-8704540D01*
X19264540Y-8895460D01*
X19455460Y-8895460D01*
X19225000Y-11165000D02*
X19495000Y-11435000D01*
X19495000Y-11165000D02*
X19225000Y-11435000D01*
X19455460Y-11395460D02*
X19455460Y-11204540D01*
X19264540Y-11204540D01*
X19264540Y-11395460D01*
X19455460Y-11395460D01*
X19225000Y-13665000D02*
X19495000Y-13935000D01*
X19495000Y-13665000D02*
X19225000Y-13935000D01*
X19455460Y-13895460D02*
X19455460Y-13704540D01*
X19264540Y-13704540D01*
X19264540Y-13895460D01*
X19455460Y-13895460D01*
X19615000Y-6755000D02*
X19885000Y-7025000D01*
X19885000Y-6755000D02*
X19615000Y-7025000D01*
X19845460Y-6985460D02*
X19845460Y-6794540D01*
X19654540Y-6794540D01*
X19654540Y-6985460D01*
X19845460Y-6985460D01*
X19615000Y-9255000D02*
X19885000Y-9525000D01*
X19885000Y-9255000D02*
X19615000Y-9525000D01*
X19845460Y-9485460D02*
X19845460Y-9294540D01*
X19654540Y-9294540D01*
X19654540Y-9485460D01*
X19845460Y-9485460D01*
X19615000Y-11755000D02*
X19885000Y-12025000D01*
X19885000Y-11755000D02*
X19615000Y-12025000D01*
X19845460Y-11985460D02*
X19845460Y-11794540D01*
X19654540Y-11794540D01*
X19654540Y-11985460D01*
X19845460Y-11985460D01*
X19615000Y-14255000D02*
X19885000Y-14525000D01*
X19885000Y-14255000D02*
X19615000Y-14525000D01*
X19845460Y-14485460D02*
X19845460Y-14294540D01*
X19654540Y-14294540D01*
X19654540Y-14485460D01*
X19845460Y-14485460D01*
X19915000Y-5475000D02*
X20185000Y-5745000D01*
X20185000Y-5475000D02*
X19915000Y-5745000D01*
X20145460Y-5705460D02*
X20145460Y-5514540D01*
X19954540Y-5514540D01*
X19954540Y-5705460D01*
X20145460Y-5705460D01*
X19915000Y-7975000D02*
X20185000Y-8245000D01*
X20185000Y-7975000D02*
X19915000Y-8245000D01*
X20145460Y-8205460D02*
X20145460Y-8014540D01*
X19954540Y-8014540D01*
X19954540Y-8205460D01*
X20145460Y-8205460D01*
X19915000Y-10475000D02*
X20185000Y-10745000D01*
X20185000Y-10475000D02*
X19915000Y-10745000D01*
X20145460Y-10705460D02*
X20145460Y-10514540D01*
X19954540Y-10514540D01*
X19954540Y-10705460D01*
X20145460Y-10705460D01*
X19915000Y-12975000D02*
X20185000Y-13245000D01*
X20185000Y-12975000D02*
X19915000Y-13245000D01*
X20145460Y-13205460D02*
X20145460Y-13014540D01*
X19954540Y-13014540D01*
X19954540Y-13205460D01*
X20145460Y-13205460D01*
X20339000Y-6589000D02*
X20609000Y-6859000D01*
X20609000Y-6589000D02*
X20339000Y-6859000D01*
X20569460Y-6819460D02*
X20569460Y-6628540D01*
X20378540Y-6628540D01*
X20378540Y-6819460D01*
X20569460Y-6819460D01*
X20339000Y-9089000D02*
X20609000Y-9359000D01*
X20609000Y-9089000D02*
X20339000Y-9359000D01*
X20569460Y-9319460D02*
X20569460Y-9128540D01*
X20378540Y-9128540D01*
X20378540Y-9319460D01*
X20569460Y-9319460D01*
X20339000Y-11589000D02*
X20609000Y-11859000D01*
X20609000Y-11589000D02*
X20339000Y-11859000D01*
X20569460Y-11819460D02*
X20569460Y-11628540D01*
X20378540Y-11628540D01*
X20378540Y-11819460D01*
X20569460Y-11819460D01*
X20339000Y-14089000D02*
X20609000Y-14359000D01*
X20609000Y-14089000D02*
X20339000Y-14359000D01*
X20569460Y-14319460D02*
X20569460Y-14128540D01*
X20378540Y-14128540D01*
X20378540Y-14319460D01*
X20569460Y-14319460D01*
X20505000Y-5865000D02*
X20775000Y-6135000D01*
X20775000Y-5865000D02*
X20505000Y-6135000D01*
X20735460Y-6095460D02*
X20735460Y-5904540D01*
X20544540Y-5904540D01*
X20544540Y-6095460D01*
X20735460Y-6095460D01*
X20505000Y-8365000D02*
X20775000Y-8635000D01*
X20775000Y-8365000D02*
X20505000Y-8635000D01*
X20735460Y-8595460D02*
X20735460Y-8404540D01*
X20544540Y-8404540D01*
X20544540Y-8595460D01*
X20735460Y-8595460D01*
X20505000Y-10865000D02*
X20775000Y-11135000D01*
X20775000Y-10865000D02*
X20505000Y-11135000D01*
X20735460Y-11095460D02*
X20735460Y-10904540D01*
X20544540Y-10904540D01*
X20544540Y-11095460D01*
X20735460Y-11095460D01*
X20505000Y-13365000D02*
X20775000Y-13635000D01*
X20775000Y-13365000D02*
X20505000Y-13635000D01*
X20735460Y-13595460D02*
X20735460Y-13404540D01*
X20544540Y-13404540D01*
X20544540Y-13595460D01*
X20735460Y-13595460D01*
X21725000Y-6165000D02*
X21995000Y-6435000D01*
X21995000Y-6165000D02*
X21725000Y-6435000D01*
X21955460Y-6395460D02*
X21955460Y-6204540D01*
X21764540Y-6204540D01*
X21764540Y-6395460D01*
X21955460Y-6395460D01*
X21725000Y-8665000D02*
X21995000Y-8935000D01*
X21995000Y-8665000D02*
X21725000Y-8935000D01*
X21955460Y-8895460D02*
X21955460Y-8704540D01*
X21764540Y-8704540D01*
X21764540Y-8895460D01*
X21955460Y-8895460D01*
X21725000Y-11165000D02*
X21995000Y-11435000D01*
X21995000Y-11165000D02*
X21725000Y-11435000D01*
X21955460Y-11395460D02*
X21955460Y-11204540D01*
X21764540Y-11204540D01*
X21764540Y-11395460D01*
X21955460Y-11395460D01*
X21725000Y-13665000D02*
X21995000Y-13935000D01*
X21995000Y-13665000D02*
X21725000Y-13935000D01*
X21955460Y-13895460D02*
X21955460Y-13704540D01*
X21764540Y-13704540D01*
X21764540Y-13895460D01*
X21955460Y-13895460D01*
X22115000Y-6755000D02*
X22385000Y-7025000D01*
X22385000Y-6755000D02*
X22115000Y-7025000D01*
X22345460Y-6985460D02*
X22345460Y-6794540D01*
X22154540Y-6794540D01*
X22154540Y-6985460D01*
X22345460Y-6985460D01*
X22115000Y-9255000D02*
X22385000Y-9525000D01*
X22385000Y-9255000D02*
X22115000Y-9525000D01*
X22345460Y-9485460D02*
X22345460Y-9294540D01*
X22154540Y-9294540D01*
X22154540Y-9485460D01*
X22345460Y-9485460D01*
X22115000Y-11755000D02*
X22385000Y-12025000D01*
X22385000Y-11755000D02*
X22115000Y-12025000D01*
X22345460Y-11985460D02*
X22345460Y-11794540D01*
X22154540Y-11794540D01*
X22154540Y-11985460D01*
X22345460Y-11985460D01*
X22115000Y-14255000D02*
X22385000Y-14525000D01*
X22385000Y-14255000D02*
X22115000Y-14525000D01*
X22345460Y-14485460D02*
X22345460Y-14294540D01*
X22154540Y-14294540D01*
X22154540Y-14485460D01*
X22345460Y-14485460D01*
X22415000Y-5475000D02*
X22685000Y-5745000D01*
X22685000Y-5475000D02*
X22415000Y-5745000D01*
X22645460Y-5705460D02*
X22645460Y-5514540D01*
X22454540Y-5514540D01*
X22454540Y-5705460D01*
X22645460Y-5705460D01*
X22415000Y-7975000D02*
X22685000Y-8245000D01*
X22685000Y-7975000D02*
X22415000Y-8245000D01*
X22645460Y-8205460D02*
X22645460Y-8014540D01*
X22454540Y-8014540D01*
X22454540Y-8205460D01*
X22645460Y-8205460D01*
X22415000Y-10475000D02*
X22685000Y-10745000D01*
X22685000Y-10475000D02*
X22415000Y-10745000D01*
X22645460Y-10705460D02*
X22645460Y-10514540D01*
X22454540Y-10514540D01*
X22454540Y-10705460D01*
X22645460Y-10705460D01*
X22415000Y-12975000D02*
X22685000Y-13245000D01*
X22685000Y-12975000D02*
X22415000Y-13245000D01*
X22645460Y-13205460D02*
X22645460Y-13014540D01*
X22454540Y-13014540D01*
X22454540Y-13205460D01*
X22645460Y-13205460D01*
X22839000Y-6589000D02*
X23109000Y-6859000D01*
X23109000Y-6589000D02*
X22839000Y-6859000D01*
X23069460Y-6819460D02*
X23069460Y-6628540D01*
X22878540Y-6628540D01*
X22878540Y-6819460D01*
X23069460Y-6819460D01*
X22839000Y-9089000D02*
X23109000Y-9359000D01*
X23109000Y-9089000D02*
X22839000Y-9359000D01*
X23069460Y-9319460D02*
X23069460Y-9128540D01*
X22878540Y-9128540D01*
X22878540Y-9319460D01*
X23069460Y-9319460D01*
X22839000Y-11589000D02*
X23109000Y-11859000D01*
X23109000Y-11589000D02*
X22839000Y-11859000D01*
X23069460Y-11819460D02*
X23069460Y-11628540D01*
X22878540Y-11628540D01*
X22878540Y-11819460D01*
X23069460Y-11819460D01*
X22839000Y-14089000D02*
X23109000Y-14359000D01*
X23109000Y-14089000D02*
X22839000Y-14359000D01*
X23069460Y-14319460D02*
X23069460Y-14128540D01*
X22878540Y-14128540D01*
X22878540Y-14319460D01*
X23069460Y-14319460D01*
X23005000Y-5865000D02*
X23275000Y-6135000D01*
X23275000Y-5865000D02*
X23005000Y-6135000D01*
X23235460Y-6095460D02*
X23235460Y-5904540D01*
X23044540Y-5904540D01*
X23044540Y-6095460D01*
X23235460Y-6095460D01*
X23005000Y-8365000D02*
X23275000Y-8635000D01*
X23275000Y-8365000D02*
X23005000Y-8635000D01*
X23235460Y-8595460D02*
X23235460Y-8404540D01*
X23044540Y-8404540D01*
X23044540Y-8595460D01*
X23235460Y-8595460D01*
X23005000Y-10865000D02*
X23275000Y-11135000D01*
X23275000Y-10865000D02*
X23005000Y-11135000D01*
X23235460Y-11095460D02*
X23235460Y-10904540D01*
X23044540Y-10904540D01*
X23044540Y-11095460D01*
X23235460Y-11095460D01*
X23005000Y-13365000D02*
X23275000Y-13635000D01*
X23275000Y-13365000D02*
X23005000Y-13635000D01*
X23235460Y-13595460D02*
X23235460Y-13404540D01*
X23044540Y-13404540D01*
X23044540Y-13595460D01*
X23235460Y-13595460D01*
D19*
X6840000Y-6840000D02*
X7160000Y-7160000D01*
X7160000Y-6840000D02*
X6840000Y-7160000D01*
X7000000Y-7160000D02*
X7160000Y-7000000D01*
X7000000Y-6840000D01*
X6840000Y-7000000D01*
X7000000Y-7160000D01*
X6840000Y-12840000D02*
X7160000Y-13160000D01*
X7160000Y-12840000D02*
X6840000Y-13160000D01*
X7000000Y-13160000D02*
X7160000Y-13000000D01*
X7000000Y-12840000D01*
X6840000Y-13000000D01*
X7000000Y-13160000D01*
X12840000Y-6840000D02*
X13160000Y-7160000D01*
X13160000Y-6840000D02*
X12840000Y-7160000D01*
X13000000Y-7160000D02*
X13160000Y-7000000D01*
X13000000Y-6840000D01*
X12840000Y-7000000D01*
X13000000Y-7160000D01*
X12840000Y-12840000D02*
X13160000Y-13160000D01*
X13160000Y-12840000D02*
X12840000Y-13160000D01*
X13000000Y-13160000D02*
X13160000Y-13000000D01*
X13000000Y-12840000D01*
X12840000Y-13000000D01*
X13000000Y-13160000D01*
D11*
X6755777Y-15066484D02*
X6755777Y-14866484D01*
X6755777Y-14866484D02*
X6803396Y-14866484D01*
X6803396Y-14866484D02*
X6831967Y-14876008D01*
X6831967Y-14876008D02*
X6851015Y-14895055D01*
X6851015Y-14895055D02*
X6860539Y-14914103D01*
X6860539Y-14914103D02*
X6870062Y-14952198D01*
X6870062Y-14952198D02*
X6870062Y-14980769D01*
X6870062Y-14980769D02*
X6860539Y-15018865D01*
X6860539Y-15018865D02*
X6851015Y-15037912D01*
X6851015Y-15037912D02*
X6831967Y-15056960D01*
X6831967Y-15056960D02*
X6803396Y-15066484D01*
X6803396Y-15066484D02*
X6755777Y-15066484D01*
X6955777Y-15066484D02*
X6955777Y-14933150D01*
X6955777Y-14971246D02*
X6965301Y-14952198D01*
X6965301Y-14952198D02*
X6974824Y-14942674D01*
X6974824Y-14942674D02*
X6993872Y-14933150D01*
X6993872Y-14933150D02*
X7012920Y-14933150D01*
X7079586Y-15066484D02*
X7079586Y-14933150D01*
X7079586Y-14866484D02*
X7070062Y-14876008D01*
X7070062Y-14876008D02*
X7079586Y-14885531D01*
X7079586Y-14885531D02*
X7089110Y-14876008D01*
X7089110Y-14876008D02*
X7079586Y-14866484D01*
X7079586Y-14866484D02*
X7079586Y-14885531D01*
X7203396Y-15066484D02*
X7184348Y-15056960D01*
X7184348Y-15056960D02*
X7174824Y-15037912D01*
X7174824Y-15037912D02*
X7174824Y-14866484D01*
X7308158Y-15066484D02*
X7289110Y-15056960D01*
X7289110Y-15056960D02*
X7279586Y-15037912D01*
X7279586Y-15037912D02*
X7279586Y-14866484D01*
X7536729Y-15066484D02*
X7536729Y-14866484D01*
X7536729Y-14866484D02*
X7603396Y-15009341D01*
X7603396Y-15009341D02*
X7670062Y-14866484D01*
X7670062Y-14866484D02*
X7670062Y-15066484D01*
X7851015Y-15066484D02*
X7851015Y-14961722D01*
X7851015Y-14961722D02*
X7841491Y-14942674D01*
X7841491Y-14942674D02*
X7822443Y-14933150D01*
X7822443Y-14933150D02*
X7784348Y-14933150D01*
X7784348Y-14933150D02*
X7765301Y-14942674D01*
X7851015Y-15056960D02*
X7831967Y-15066484D01*
X7831967Y-15066484D02*
X7784348Y-15066484D01*
X7784348Y-15066484D02*
X7765301Y-15056960D01*
X7765301Y-15056960D02*
X7755777Y-15037912D01*
X7755777Y-15037912D02*
X7755777Y-15018865D01*
X7755777Y-15018865D02*
X7765301Y-14999817D01*
X7765301Y-14999817D02*
X7784348Y-14990293D01*
X7784348Y-14990293D02*
X7831967Y-14990293D01*
X7831967Y-14990293D02*
X7851015Y-14980769D01*
X7946253Y-14933150D02*
X7946253Y-15133150D01*
X7946253Y-14942674D02*
X7965301Y-14933150D01*
X7965301Y-14933150D02*
X8003396Y-14933150D01*
X8003396Y-14933150D02*
X8022443Y-14942674D01*
X8022443Y-14942674D02*
X8031967Y-14952198D01*
X8031967Y-14952198D02*
X8041491Y-14971246D01*
X8041491Y-14971246D02*
X8041491Y-15028388D01*
X8041491Y-15028388D02*
X8031967Y-15047436D01*
X8031967Y-15047436D02*
X8022443Y-15056960D01*
X8022443Y-15056960D02*
X8003396Y-15066484D01*
X8003396Y-15066484D02*
X7965301Y-15066484D01*
X7965301Y-15066484D02*
X7946253Y-15056960D01*
X8127205Y-15047436D02*
X8136729Y-15056960D01*
X8136729Y-15056960D02*
X8127205Y-15066484D01*
X8127205Y-15066484D02*
X8117682Y-15056960D01*
X8117682Y-15056960D02*
X8127205Y-15047436D01*
X8127205Y-15047436D02*
X8127205Y-15066484D01*
X8127205Y-14942674D02*
X8136729Y-14952198D01*
X8136729Y-14952198D02*
X8127205Y-14961722D01*
X8127205Y-14961722D02*
X8117682Y-14952198D01*
X8117682Y-14952198D02*
X8127205Y-14942674D01*
X8127205Y-14942674D02*
X8127205Y-14961722D01*
D12*
X6455000Y-15375000D02*
X6495000Y-15415000D01*
X6495000Y-15375000D02*
X6455000Y-15415000D01*
D11*
X6793872Y-15286484D02*
X6812920Y-15286484D01*
X6812920Y-15286484D02*
X6831967Y-15296008D01*
X6831967Y-15296008D02*
X6841491Y-15305531D01*
X6841491Y-15305531D02*
X6851015Y-15324579D01*
X6851015Y-15324579D02*
X6860539Y-15362674D01*
X6860539Y-15362674D02*
X6860539Y-15410293D01*
X6860539Y-15410293D02*
X6851015Y-15448388D01*
X6851015Y-15448388D02*
X6841491Y-15467436D01*
X6841491Y-15467436D02*
X6831967Y-15476960D01*
X6831967Y-15476960D02*
X6812920Y-15486484D01*
X6812920Y-15486484D02*
X6793872Y-15486484D01*
X6793872Y-15486484D02*
X6774824Y-15476960D01*
X6774824Y-15476960D02*
X6765301Y-15467436D01*
X6765301Y-15467436D02*
X6755777Y-15448388D01*
X6755777Y-15448388D02*
X6746253Y-15410293D01*
X6746253Y-15410293D02*
X6746253Y-15362674D01*
X6746253Y-15362674D02*
X6755777Y-15324579D01*
X6755777Y-15324579D02*
X6765301Y-15305531D01*
X6765301Y-15305531D02*
X6774824Y-15296008D01*
X6774824Y-15296008D02*
X6793872Y-15286484D01*
X6946253Y-15467436D02*
X6955777Y-15476960D01*
X6955777Y-15476960D02*
X6946253Y-15486484D01*
X6946253Y-15486484D02*
X6936729Y-15476960D01*
X6936729Y-15476960D02*
X6946253Y-15467436D01*
X6946253Y-15467436D02*
X6946253Y-15486484D01*
X7127205Y-15353150D02*
X7127205Y-15486484D01*
X7079586Y-15276960D02*
X7031967Y-15419817D01*
X7031967Y-15419817D02*
X7155777Y-15419817D01*
X7270062Y-15286484D02*
X7289110Y-15286484D01*
X7289110Y-15286484D02*
X7308158Y-15296008D01*
X7308158Y-15296008D02*
X7317682Y-15305531D01*
X7317682Y-15305531D02*
X7327205Y-15324579D01*
X7327205Y-15324579D02*
X7336729Y-15362674D01*
X7336729Y-15362674D02*
X7336729Y-15410293D01*
X7336729Y-15410293D02*
X7327205Y-15448388D01*
X7327205Y-15448388D02*
X7317682Y-15467436D01*
X7317682Y-15467436D02*
X7308158Y-15476960D01*
X7308158Y-15476960D02*
X7289110Y-15486484D01*
X7289110Y-15486484D02*
X7270062Y-15486484D01*
X7270062Y-15486484D02*
X7251015Y-15476960D01*
X7251015Y-15476960D02*
X7241491Y-15467436D01*
X7241491Y-15467436D02*
X7231967Y-15448388D01*
X7231967Y-15448388D02*
X7222443Y-15410293D01*
X7222443Y-15410293D02*
X7222443Y-15362674D01*
X7222443Y-15362674D02*
X7231967Y-15324579D01*
X7231967Y-15324579D02*
X7241491Y-15305531D01*
X7241491Y-15305531D02*
X7251015Y-15296008D01*
X7251015Y-15296008D02*
X7270062Y-15286484D01*
X7460539Y-15286484D02*
X7479586Y-15286484D01*
X7479586Y-15286484D02*
X7498634Y-15296008D01*
X7498634Y-15296008D02*
X7508158Y-15305531D01*
X7508158Y-15305531D02*
X7517682Y-15324579D01*
X7517682Y-15324579D02*
X7527205Y-15362674D01*
X7527205Y-15362674D02*
X7527205Y-15410293D01*
X7527205Y-15410293D02*
X7517682Y-15448388D01*
X7517682Y-15448388D02*
X7508158Y-15467436D01*
X7508158Y-15467436D02*
X7498634Y-15476960D01*
X7498634Y-15476960D02*
X7479586Y-15486484D01*
X7479586Y-15486484D02*
X7460539Y-15486484D01*
X7460539Y-15486484D02*
X7441491Y-15476960D01*
X7441491Y-15476960D02*
X7431967Y-15467436D01*
X7431967Y-15467436D02*
X7422443Y-15448388D01*
X7422443Y-15448388D02*
X7412920Y-15410293D01*
X7412920Y-15410293D02*
X7412920Y-15362674D01*
X7412920Y-15362674D02*
X7422443Y-15324579D01*
X7422443Y-15324579D02*
X7431967Y-15305531D01*
X7431967Y-15305531D02*
X7441491Y-15296008D01*
X7441491Y-15296008D02*
X7460539Y-15286484D01*
X7612920Y-15486484D02*
X7612920Y-15353150D01*
X7612920Y-15372198D02*
X7622443Y-15362674D01*
X7622443Y-15362674D02*
X7641491Y-15353150D01*
X7641491Y-15353150D02*
X7670063Y-15353150D01*
X7670063Y-15353150D02*
X7689110Y-15362674D01*
X7689110Y-15362674D02*
X7698634Y-15381722D01*
X7698634Y-15381722D02*
X7698634Y-15486484D01*
X7698634Y-15381722D02*
X7708158Y-15362674D01*
X7708158Y-15362674D02*
X7727205Y-15353150D01*
X7727205Y-15353150D02*
X7755777Y-15353150D01*
X7755777Y-15353150D02*
X7774824Y-15362674D01*
X7774824Y-15362674D02*
X7784348Y-15381722D01*
X7784348Y-15381722D02*
X7784348Y-15486484D01*
X7879586Y-15486484D02*
X7879586Y-15353150D01*
X7879586Y-15372198D02*
X7889110Y-15362674D01*
X7889110Y-15362674D02*
X7908158Y-15353150D01*
X7908158Y-15353150D02*
X7936729Y-15353150D01*
X7936729Y-15353150D02*
X7955777Y-15362674D01*
X7955777Y-15362674D02*
X7965301Y-15381722D01*
X7965301Y-15381722D02*
X7965301Y-15486484D01*
X7965301Y-15381722D02*
X7974824Y-15362674D01*
X7974824Y-15362674D02*
X7993872Y-15353150D01*
X7993872Y-15353150D02*
X8022443Y-15353150D01*
X8022443Y-15353150D02*
X8041491Y-15362674D01*
X8041491Y-15362674D02*
X8051015Y-15381722D01*
X8051015Y-15381722D02*
X8051015Y-15486484D01*
X8441491Y-15276960D02*
X8270063Y-15534103D01*
X8698634Y-15286484D02*
X8717682Y-15286484D01*
X8717682Y-15286484D02*
X8736729Y-15296008D01*
X8736729Y-15296008D02*
X8746253Y-15305531D01*
X8746253Y-15305531D02*
X8755777Y-15324579D01*
X8755777Y-15324579D02*
X8765301Y-15362674D01*
X8765301Y-15362674D02*
X8765301Y-15410293D01*
X8765301Y-15410293D02*
X8755777Y-15448388D01*
X8755777Y-15448388D02*
X8746253Y-15467436D01*
X8746253Y-15467436D02*
X8736729Y-15476960D01*
X8736729Y-15476960D02*
X8717682Y-15486484D01*
X8717682Y-15486484D02*
X8698634Y-15486484D01*
X8698634Y-15486484D02*
X8679587Y-15476960D01*
X8679587Y-15476960D02*
X8670063Y-15467436D01*
X8670063Y-15467436D02*
X8660539Y-15448388D01*
X8660539Y-15448388D02*
X8651015Y-15410293D01*
X8651015Y-15410293D02*
X8651015Y-15362674D01*
X8651015Y-15362674D02*
X8660539Y-15324579D01*
X8660539Y-15324579D02*
X8670063Y-15305531D01*
X8670063Y-15305531D02*
X8679587Y-15296008D01*
X8679587Y-15296008D02*
X8698634Y-15286484D01*
X8851015Y-15467436D02*
X8860539Y-15476960D01*
X8860539Y-15476960D02*
X8851015Y-15486484D01*
X8851015Y-15486484D02*
X8841491Y-15476960D01*
X8841491Y-15476960D02*
X8851015Y-15467436D01*
X8851015Y-15467436D02*
X8851015Y-15486484D01*
X8984348Y-15286484D02*
X9003396Y-15286484D01*
X9003396Y-15286484D02*
X9022444Y-15296008D01*
X9022444Y-15296008D02*
X9031968Y-15305531D01*
X9031968Y-15305531D02*
X9041491Y-15324579D01*
X9041491Y-15324579D02*
X9051015Y-15362674D01*
X9051015Y-15362674D02*
X9051015Y-15410293D01*
X9051015Y-15410293D02*
X9041491Y-15448388D01*
X9041491Y-15448388D02*
X9031968Y-15467436D01*
X9031968Y-15467436D02*
X9022444Y-15476960D01*
X9022444Y-15476960D02*
X9003396Y-15486484D01*
X9003396Y-15486484D02*
X8984348Y-15486484D01*
X8984348Y-15486484D02*
X8965301Y-15476960D01*
X8965301Y-15476960D02*
X8955777Y-15467436D01*
X8955777Y-15467436D02*
X8946253Y-15448388D01*
X8946253Y-15448388D02*
X8936729Y-15410293D01*
X8936729Y-15410293D02*
X8936729Y-15362674D01*
X8936729Y-15362674D02*
X8946253Y-15324579D01*
X8946253Y-15324579D02*
X8955777Y-15305531D01*
X8955777Y-15305531D02*
X8965301Y-15296008D01*
X8965301Y-15296008D02*
X8984348Y-15286484D01*
X9241491Y-15486484D02*
X9127206Y-15486484D01*
X9184348Y-15486484D02*
X9184348Y-15286484D01*
X9184348Y-15286484D02*
X9165301Y-15315055D01*
X9165301Y-15315055D02*
X9146253Y-15334103D01*
X9146253Y-15334103D02*
X9127206Y-15343627D01*
X9422444Y-15286484D02*
X9327206Y-15286484D01*
X9327206Y-15286484D02*
X9317682Y-15381722D01*
X9317682Y-15381722D02*
X9327206Y-15372198D01*
X9327206Y-15372198D02*
X9346253Y-15362674D01*
X9346253Y-15362674D02*
X9393872Y-15362674D01*
X9393872Y-15362674D02*
X9412920Y-15372198D01*
X9412920Y-15372198D02*
X9422444Y-15381722D01*
X9422444Y-15381722D02*
X9431968Y-15400769D01*
X9431968Y-15400769D02*
X9431968Y-15448388D01*
X9431968Y-15448388D02*
X9422444Y-15467436D01*
X9422444Y-15467436D02*
X9412920Y-15476960D01*
X9412920Y-15476960D02*
X9393872Y-15486484D01*
X9393872Y-15486484D02*
X9346253Y-15486484D01*
X9346253Y-15486484D02*
X9327206Y-15476960D01*
X9327206Y-15476960D02*
X9317682Y-15467436D01*
X9498634Y-15286484D02*
X9631968Y-15286484D01*
X9631968Y-15286484D02*
X9546253Y-15486484D01*
X9698634Y-15286484D02*
X9698634Y-15324579D01*
X9774825Y-15286484D02*
X9774825Y-15324579D01*
X10070063Y-15562674D02*
X10060539Y-15553150D01*
X10060539Y-15553150D02*
X10041491Y-15524579D01*
X10041491Y-15524579D02*
X10031968Y-15505531D01*
X10031968Y-15505531D02*
X10022444Y-15476960D01*
X10022444Y-15476960D02*
X10012920Y-15429341D01*
X10012920Y-15429341D02*
X10012920Y-15391246D01*
X10012920Y-15391246D02*
X10022444Y-15343627D01*
X10022444Y-15343627D02*
X10031968Y-15315055D01*
X10031968Y-15315055D02*
X10041491Y-15296008D01*
X10041491Y-15296008D02*
X10060539Y-15267436D01*
X10060539Y-15267436D02*
X10070063Y-15257912D01*
X10251015Y-15486484D02*
X10136730Y-15486484D01*
X10193872Y-15486484D02*
X10193872Y-15286484D01*
X10193872Y-15286484D02*
X10174825Y-15315055D01*
X10174825Y-15315055D02*
X10155777Y-15334103D01*
X10155777Y-15334103D02*
X10136730Y-15343627D01*
X10422444Y-15353150D02*
X10422444Y-15486484D01*
X10374825Y-15276960D02*
X10327206Y-15419817D01*
X10327206Y-15419817D02*
X10451015Y-15419817D01*
X10679587Y-15486484D02*
X10679587Y-15286484D01*
X10765301Y-15486484D02*
X10765301Y-15381722D01*
X10765301Y-15381722D02*
X10755777Y-15362674D01*
X10755777Y-15362674D02*
X10736730Y-15353150D01*
X10736730Y-15353150D02*
X10708158Y-15353150D01*
X10708158Y-15353150D02*
X10689111Y-15362674D01*
X10689111Y-15362674D02*
X10679587Y-15372198D01*
X10889111Y-15486484D02*
X10870063Y-15476960D01*
X10870063Y-15476960D02*
X10860539Y-15467436D01*
X10860539Y-15467436D02*
X10851015Y-15448388D01*
X10851015Y-15448388D02*
X10851015Y-15391246D01*
X10851015Y-15391246D02*
X10860539Y-15372198D01*
X10860539Y-15372198D02*
X10870063Y-15362674D01*
X10870063Y-15362674D02*
X10889111Y-15353150D01*
X10889111Y-15353150D02*
X10917682Y-15353150D01*
X10917682Y-15353150D02*
X10936730Y-15362674D01*
X10936730Y-15362674D02*
X10946253Y-15372198D01*
X10946253Y-15372198D02*
X10955777Y-15391246D01*
X10955777Y-15391246D02*
X10955777Y-15448388D01*
X10955777Y-15448388D02*
X10946253Y-15467436D01*
X10946253Y-15467436D02*
X10936730Y-15476960D01*
X10936730Y-15476960D02*
X10917682Y-15486484D01*
X10917682Y-15486484D02*
X10889111Y-15486484D01*
X11070063Y-15486484D02*
X11051015Y-15476960D01*
X11051015Y-15476960D02*
X11041492Y-15457912D01*
X11041492Y-15457912D02*
X11041492Y-15286484D01*
X11222444Y-15476960D02*
X11203396Y-15486484D01*
X11203396Y-15486484D02*
X11165301Y-15486484D01*
X11165301Y-15486484D02*
X11146253Y-15476960D01*
X11146253Y-15476960D02*
X11136730Y-15457912D01*
X11136730Y-15457912D02*
X11136730Y-15381722D01*
X11136730Y-15381722D02*
X11146253Y-15362674D01*
X11146253Y-15362674D02*
X11165301Y-15353150D01*
X11165301Y-15353150D02*
X11203396Y-15353150D01*
X11203396Y-15353150D02*
X11222444Y-15362674D01*
X11222444Y-15362674D02*
X11231968Y-15381722D01*
X11231968Y-15381722D02*
X11231968Y-15400769D01*
X11231968Y-15400769D02*
X11136730Y-15419817D01*
X11308158Y-15476960D02*
X11327206Y-15486484D01*
X11327206Y-15486484D02*
X11365301Y-15486484D01*
X11365301Y-15486484D02*
X11384349Y-15476960D01*
X11384349Y-15476960D02*
X11393872Y-15457912D01*
X11393872Y-15457912D02*
X11393872Y-15448388D01*
X11393872Y-15448388D02*
X11384349Y-15429341D01*
X11384349Y-15429341D02*
X11365301Y-15419817D01*
X11365301Y-15419817D02*
X11336730Y-15419817D01*
X11336730Y-15419817D02*
X11317682Y-15410293D01*
X11317682Y-15410293D02*
X11308158Y-15391246D01*
X11308158Y-15391246D02*
X11308158Y-15381722D01*
X11308158Y-15381722D02*
X11317682Y-15362674D01*
X11317682Y-15362674D02*
X11336730Y-15353150D01*
X11336730Y-15353150D02*
X11365301Y-15353150D01*
X11365301Y-15353150D02*
X11384349Y-15362674D01*
X11460539Y-15562674D02*
X11470063Y-15553150D01*
X11470063Y-15553150D02*
X11489111Y-15524579D01*
X11489111Y-15524579D02*
X11498634Y-15505531D01*
X11498634Y-15505531D02*
X11508158Y-15476960D01*
X11508158Y-15476960D02*
X11517682Y-15429341D01*
X11517682Y-15429341D02*
X11517682Y-15391246D01*
X11517682Y-15391246D02*
X11508158Y-15343627D01*
X11508158Y-15343627D02*
X11498634Y-15315055D01*
X11498634Y-15315055D02*
X11489111Y-15296008D01*
X11489111Y-15296008D02*
X11470063Y-15267436D01*
X11470063Y-15267436D02*
X11460539Y-15257912D01*
D13*
X6495000Y-15659000D02*
G75*
G03*
X6495000Y-15659000I-37500J0D01*
G01*
D11*
X6793872Y-15550484D02*
X6812920Y-15550484D01*
X6812920Y-15550484D02*
X6831967Y-15560008D01*
X6831967Y-15560008D02*
X6841491Y-15569531D01*
X6841491Y-15569531D02*
X6851015Y-15588579D01*
X6851015Y-15588579D02*
X6860539Y-15626674D01*
X6860539Y-15626674D02*
X6860539Y-15674293D01*
X6860539Y-15674293D02*
X6851015Y-15712388D01*
X6851015Y-15712388D02*
X6841491Y-15731436D01*
X6841491Y-15731436D02*
X6831967Y-15740960D01*
X6831967Y-15740960D02*
X6812920Y-15750484D01*
X6812920Y-15750484D02*
X6793872Y-15750484D01*
X6793872Y-15750484D02*
X6774824Y-15740960D01*
X6774824Y-15740960D02*
X6765301Y-15731436D01*
X6765301Y-15731436D02*
X6755777Y-15712388D01*
X6755777Y-15712388D02*
X6746253Y-15674293D01*
X6746253Y-15674293D02*
X6746253Y-15626674D01*
X6746253Y-15626674D02*
X6755777Y-15588579D01*
X6755777Y-15588579D02*
X6765301Y-15569531D01*
X6765301Y-15569531D02*
X6774824Y-15560008D01*
X6774824Y-15560008D02*
X6793872Y-15550484D01*
X6946253Y-15731436D02*
X6955777Y-15740960D01*
X6955777Y-15740960D02*
X6946253Y-15750484D01*
X6946253Y-15750484D02*
X6936729Y-15740960D01*
X6936729Y-15740960D02*
X6946253Y-15731436D01*
X6946253Y-15731436D02*
X6946253Y-15750484D01*
X7022443Y-15550484D02*
X7155777Y-15550484D01*
X7155777Y-15550484D02*
X7070062Y-15750484D01*
X7327205Y-15550484D02*
X7231967Y-15550484D01*
X7231967Y-15550484D02*
X7222443Y-15645722D01*
X7222443Y-15645722D02*
X7231967Y-15636198D01*
X7231967Y-15636198D02*
X7251015Y-15626674D01*
X7251015Y-15626674D02*
X7298634Y-15626674D01*
X7298634Y-15626674D02*
X7317682Y-15636198D01*
X7317682Y-15636198D02*
X7327205Y-15645722D01*
X7327205Y-15645722D02*
X7336729Y-15664769D01*
X7336729Y-15664769D02*
X7336729Y-15712388D01*
X7336729Y-15712388D02*
X7327205Y-15731436D01*
X7327205Y-15731436D02*
X7317682Y-15740960D01*
X7317682Y-15740960D02*
X7298634Y-15750484D01*
X7298634Y-15750484D02*
X7251015Y-15750484D01*
X7251015Y-15750484D02*
X7231967Y-15740960D01*
X7231967Y-15740960D02*
X7222443Y-15731436D01*
X7460539Y-15550484D02*
X7479586Y-15550484D01*
X7479586Y-15550484D02*
X7498634Y-15560008D01*
X7498634Y-15560008D02*
X7508158Y-15569531D01*
X7508158Y-15569531D02*
X7517682Y-15588579D01*
X7517682Y-15588579D02*
X7527205Y-15626674D01*
X7527205Y-15626674D02*
X7527205Y-15674293D01*
X7527205Y-15674293D02*
X7517682Y-15712388D01*
X7517682Y-15712388D02*
X7508158Y-15731436D01*
X7508158Y-15731436D02*
X7498634Y-15740960D01*
X7498634Y-15740960D02*
X7479586Y-15750484D01*
X7479586Y-15750484D02*
X7460539Y-15750484D01*
X7460539Y-15750484D02*
X7441491Y-15740960D01*
X7441491Y-15740960D02*
X7431967Y-15731436D01*
X7431967Y-15731436D02*
X7422443Y-15712388D01*
X7422443Y-15712388D02*
X7412920Y-15674293D01*
X7412920Y-15674293D02*
X7412920Y-15626674D01*
X7412920Y-15626674D02*
X7422443Y-15588579D01*
X7422443Y-15588579D02*
X7431967Y-15569531D01*
X7431967Y-15569531D02*
X7441491Y-15560008D01*
X7441491Y-15560008D02*
X7460539Y-15550484D01*
X7612920Y-15750484D02*
X7612920Y-15617150D01*
X7612920Y-15636198D02*
X7622443Y-15626674D01*
X7622443Y-15626674D02*
X7641491Y-15617150D01*
X7641491Y-15617150D02*
X7670063Y-15617150D01*
X7670063Y-15617150D02*
X7689110Y-15626674D01*
X7689110Y-15626674D02*
X7698634Y-15645722D01*
X7698634Y-15645722D02*
X7698634Y-15750484D01*
X7698634Y-15645722D02*
X7708158Y-15626674D01*
X7708158Y-15626674D02*
X7727205Y-15617150D01*
X7727205Y-15617150D02*
X7755777Y-15617150D01*
X7755777Y-15617150D02*
X7774824Y-15626674D01*
X7774824Y-15626674D02*
X7784348Y-15645722D01*
X7784348Y-15645722D02*
X7784348Y-15750484D01*
X7879586Y-15750484D02*
X7879586Y-15617150D01*
X7879586Y-15636198D02*
X7889110Y-15626674D01*
X7889110Y-15626674D02*
X7908158Y-15617150D01*
X7908158Y-15617150D02*
X7936729Y-15617150D01*
X7936729Y-15617150D02*
X7955777Y-15626674D01*
X7955777Y-15626674D02*
X7965301Y-15645722D01*
X7965301Y-15645722D02*
X7965301Y-15750484D01*
X7965301Y-15645722D02*
X7974824Y-15626674D01*
X7974824Y-15626674D02*
X7993872Y-15617150D01*
X7993872Y-15617150D02*
X8022443Y-15617150D01*
X8022443Y-15617150D02*
X8041491Y-15626674D01*
X8041491Y-15626674D02*
X8051015Y-15645722D01*
X8051015Y-15645722D02*
X8051015Y-15750484D01*
X8441491Y-15540960D02*
X8270063Y-15798103D01*
X8698634Y-15550484D02*
X8717682Y-15550484D01*
X8717682Y-15550484D02*
X8736729Y-15560008D01*
X8736729Y-15560008D02*
X8746253Y-15569531D01*
X8746253Y-15569531D02*
X8755777Y-15588579D01*
X8755777Y-15588579D02*
X8765301Y-15626674D01*
X8765301Y-15626674D02*
X8765301Y-15674293D01*
X8765301Y-15674293D02*
X8755777Y-15712388D01*
X8755777Y-15712388D02*
X8746253Y-15731436D01*
X8746253Y-15731436D02*
X8736729Y-15740960D01*
X8736729Y-15740960D02*
X8717682Y-15750484D01*
X8717682Y-15750484D02*
X8698634Y-15750484D01*
X8698634Y-15750484D02*
X8679587Y-15740960D01*
X8679587Y-15740960D02*
X8670063Y-15731436D01*
X8670063Y-15731436D02*
X8660539Y-15712388D01*
X8660539Y-15712388D02*
X8651015Y-15674293D01*
X8651015Y-15674293D02*
X8651015Y-15626674D01*
X8651015Y-15626674D02*
X8660539Y-15588579D01*
X8660539Y-15588579D02*
X8670063Y-15569531D01*
X8670063Y-15569531D02*
X8679587Y-15560008D01*
X8679587Y-15560008D02*
X8698634Y-15550484D01*
X8851015Y-15731436D02*
X8860539Y-15740960D01*
X8860539Y-15740960D02*
X8851015Y-15750484D01*
X8851015Y-15750484D02*
X8841491Y-15740960D01*
X8841491Y-15740960D02*
X8851015Y-15731436D01*
X8851015Y-15731436D02*
X8851015Y-15750484D01*
X8984348Y-15550484D02*
X9003396Y-15550484D01*
X9003396Y-15550484D02*
X9022444Y-15560008D01*
X9022444Y-15560008D02*
X9031968Y-15569531D01*
X9031968Y-15569531D02*
X9041491Y-15588579D01*
X9041491Y-15588579D02*
X9051015Y-15626674D01*
X9051015Y-15626674D02*
X9051015Y-15674293D01*
X9051015Y-15674293D02*
X9041491Y-15712388D01*
X9041491Y-15712388D02*
X9031968Y-15731436D01*
X9031968Y-15731436D02*
X9022444Y-15740960D01*
X9022444Y-15740960D02*
X9003396Y-15750484D01*
X9003396Y-15750484D02*
X8984348Y-15750484D01*
X8984348Y-15750484D02*
X8965301Y-15740960D01*
X8965301Y-15740960D02*
X8955777Y-15731436D01*
X8955777Y-15731436D02*
X8946253Y-15712388D01*
X8946253Y-15712388D02*
X8936729Y-15674293D01*
X8936729Y-15674293D02*
X8936729Y-15626674D01*
X8936729Y-15626674D02*
X8946253Y-15588579D01*
X8946253Y-15588579D02*
X8955777Y-15569531D01*
X8955777Y-15569531D02*
X8965301Y-15560008D01*
X8965301Y-15560008D02*
X8984348Y-15550484D01*
X9127206Y-15569531D02*
X9136729Y-15560008D01*
X9136729Y-15560008D02*
X9155777Y-15550484D01*
X9155777Y-15550484D02*
X9203396Y-15550484D01*
X9203396Y-15550484D02*
X9222444Y-15560008D01*
X9222444Y-15560008D02*
X9231968Y-15569531D01*
X9231968Y-15569531D02*
X9241491Y-15588579D01*
X9241491Y-15588579D02*
X9241491Y-15607627D01*
X9241491Y-15607627D02*
X9231968Y-15636198D01*
X9231968Y-15636198D02*
X9117682Y-15750484D01*
X9117682Y-15750484D02*
X9241491Y-15750484D01*
X9336729Y-15750484D02*
X9374825Y-15750484D01*
X9374825Y-15750484D02*
X9393872Y-15740960D01*
X9393872Y-15740960D02*
X9403396Y-15731436D01*
X9403396Y-15731436D02*
X9422444Y-15702865D01*
X9422444Y-15702865D02*
X9431968Y-15664769D01*
X9431968Y-15664769D02*
X9431968Y-15588579D01*
X9431968Y-15588579D02*
X9422444Y-15569531D01*
X9422444Y-15569531D02*
X9412920Y-15560008D01*
X9412920Y-15560008D02*
X9393872Y-15550484D01*
X9393872Y-15550484D02*
X9355777Y-15550484D01*
X9355777Y-15550484D02*
X9336729Y-15560008D01*
X9336729Y-15560008D02*
X9327206Y-15569531D01*
X9327206Y-15569531D02*
X9317682Y-15588579D01*
X9317682Y-15588579D02*
X9317682Y-15636198D01*
X9317682Y-15636198D02*
X9327206Y-15655246D01*
X9327206Y-15655246D02*
X9336729Y-15664769D01*
X9336729Y-15664769D02*
X9355777Y-15674293D01*
X9355777Y-15674293D02*
X9393872Y-15674293D01*
X9393872Y-15674293D02*
X9412920Y-15664769D01*
X9412920Y-15664769D02*
X9422444Y-15655246D01*
X9422444Y-15655246D02*
X9431968Y-15636198D01*
X9612920Y-15550484D02*
X9517682Y-15550484D01*
X9517682Y-15550484D02*
X9508158Y-15645722D01*
X9508158Y-15645722D02*
X9517682Y-15636198D01*
X9517682Y-15636198D02*
X9536729Y-15626674D01*
X9536729Y-15626674D02*
X9584349Y-15626674D01*
X9584349Y-15626674D02*
X9603396Y-15636198D01*
X9603396Y-15636198D02*
X9612920Y-15645722D01*
X9612920Y-15645722D02*
X9622444Y-15664769D01*
X9622444Y-15664769D02*
X9622444Y-15712388D01*
X9622444Y-15712388D02*
X9612920Y-15731436D01*
X9612920Y-15731436D02*
X9603396Y-15740960D01*
X9603396Y-15740960D02*
X9584349Y-15750484D01*
X9584349Y-15750484D02*
X9536729Y-15750484D01*
X9536729Y-15750484D02*
X9517682Y-15740960D01*
X9517682Y-15740960D02*
X9508158Y-15731436D01*
X9698634Y-15550484D02*
X9698634Y-15588579D01*
X9774825Y-15550484D02*
X9774825Y-15588579D01*
X10070063Y-15826674D02*
X10060539Y-15817150D01*
X10060539Y-15817150D02*
X10041491Y-15788579D01*
X10041491Y-15788579D02*
X10031968Y-15769531D01*
X10031968Y-15769531D02*
X10022444Y-15740960D01*
X10022444Y-15740960D02*
X10012920Y-15693341D01*
X10012920Y-15693341D02*
X10012920Y-15655246D01*
X10012920Y-15655246D02*
X10022444Y-15607627D01*
X10022444Y-15607627D02*
X10031968Y-15579055D01*
X10031968Y-15579055D02*
X10041491Y-15560008D01*
X10041491Y-15560008D02*
X10060539Y-15531436D01*
X10060539Y-15531436D02*
X10070063Y-15521912D01*
X10127206Y-15550484D02*
X10251015Y-15550484D01*
X10251015Y-15550484D02*
X10184349Y-15626674D01*
X10184349Y-15626674D02*
X10212920Y-15626674D01*
X10212920Y-15626674D02*
X10231968Y-15636198D01*
X10231968Y-15636198D02*
X10241491Y-15645722D01*
X10241491Y-15645722D02*
X10251015Y-15664769D01*
X10251015Y-15664769D02*
X10251015Y-15712388D01*
X10251015Y-15712388D02*
X10241491Y-15731436D01*
X10241491Y-15731436D02*
X10231968Y-15740960D01*
X10231968Y-15740960D02*
X10212920Y-15750484D01*
X10212920Y-15750484D02*
X10155777Y-15750484D01*
X10155777Y-15750484D02*
X10136730Y-15740960D01*
X10136730Y-15740960D02*
X10127206Y-15731436D01*
X10489111Y-15750484D02*
X10489111Y-15550484D01*
X10574825Y-15750484D02*
X10574825Y-15645722D01*
X10574825Y-15645722D02*
X10565301Y-15626674D01*
X10565301Y-15626674D02*
X10546253Y-15617150D01*
X10546253Y-15617150D02*
X10517682Y-15617150D01*
X10517682Y-15617150D02*
X10498634Y-15626674D01*
X10498634Y-15626674D02*
X10489111Y-15636198D01*
X10698634Y-15750484D02*
X10679587Y-15740960D01*
X10679587Y-15740960D02*
X10670063Y-15731436D01*
X10670063Y-15731436D02*
X10660539Y-15712388D01*
X10660539Y-15712388D02*
X10660539Y-15655246D01*
X10660539Y-15655246D02*
X10670063Y-15636198D01*
X10670063Y-15636198D02*
X10679587Y-15626674D01*
X10679587Y-15626674D02*
X10698634Y-15617150D01*
X10698634Y-15617150D02*
X10727206Y-15617150D01*
X10727206Y-15617150D02*
X10746253Y-15626674D01*
X10746253Y-15626674D02*
X10755777Y-15636198D01*
X10755777Y-15636198D02*
X10765301Y-15655246D01*
X10765301Y-15655246D02*
X10765301Y-15712388D01*
X10765301Y-15712388D02*
X10755777Y-15731436D01*
X10755777Y-15731436D02*
X10746253Y-15740960D01*
X10746253Y-15740960D02*
X10727206Y-15750484D01*
X10727206Y-15750484D02*
X10698634Y-15750484D01*
X10879587Y-15750484D02*
X10860539Y-15740960D01*
X10860539Y-15740960D02*
X10851015Y-15721912D01*
X10851015Y-15721912D02*
X10851015Y-15550484D01*
X11031968Y-15740960D02*
X11012920Y-15750484D01*
X11012920Y-15750484D02*
X10974825Y-15750484D01*
X10974825Y-15750484D02*
X10955777Y-15740960D01*
X10955777Y-15740960D02*
X10946253Y-15721912D01*
X10946253Y-15721912D02*
X10946253Y-15645722D01*
X10946253Y-15645722D02*
X10955777Y-15626674D01*
X10955777Y-15626674D02*
X10974825Y-15617150D01*
X10974825Y-15617150D02*
X11012920Y-15617150D01*
X11012920Y-15617150D02*
X11031968Y-15626674D01*
X11031968Y-15626674D02*
X11041492Y-15645722D01*
X11041492Y-15645722D02*
X11041492Y-15664769D01*
X11041492Y-15664769D02*
X10946253Y-15683817D01*
X11117682Y-15740960D02*
X11136730Y-15750484D01*
X11136730Y-15750484D02*
X11174825Y-15750484D01*
X11174825Y-15750484D02*
X11193872Y-15740960D01*
X11193872Y-15740960D02*
X11203396Y-15721912D01*
X11203396Y-15721912D02*
X11203396Y-15712388D01*
X11203396Y-15712388D02*
X11193872Y-15693341D01*
X11193872Y-15693341D02*
X11174825Y-15683817D01*
X11174825Y-15683817D02*
X11146253Y-15683817D01*
X11146253Y-15683817D02*
X11127206Y-15674293D01*
X11127206Y-15674293D02*
X11117682Y-15655246D01*
X11117682Y-15655246D02*
X11117682Y-15645722D01*
X11117682Y-15645722D02*
X11127206Y-15626674D01*
X11127206Y-15626674D02*
X11146253Y-15617150D01*
X11146253Y-15617150D02*
X11174825Y-15617150D01*
X11174825Y-15617150D02*
X11193872Y-15626674D01*
X11270063Y-15826674D02*
X11279587Y-15817150D01*
X11279587Y-15817150D02*
X11298634Y-15788579D01*
X11298634Y-15788579D02*
X11308158Y-15769531D01*
X11308158Y-15769531D02*
X11317682Y-15740960D01*
X11317682Y-15740960D02*
X11327206Y-15693341D01*
X11327206Y-15693341D02*
X11327206Y-15655246D01*
X11327206Y-15655246D02*
X11317682Y-15607627D01*
X11317682Y-15607627D02*
X11308158Y-15579055D01*
X11308158Y-15579055D02*
X11298634Y-15560008D01*
X11298634Y-15560008D02*
X11279587Y-15531436D01*
X11279587Y-15531436D02*
X11270063Y-15521912D01*
D14*
X6455000Y-15883000D02*
X6455000Y-15963000D01*
X6415000Y-15923000D02*
X6495000Y-15923000D01*
D11*
X6793872Y-15814484D02*
X6812920Y-15814484D01*
X6812920Y-15814484D02*
X6831967Y-15824008D01*
X6831967Y-15824008D02*
X6841491Y-15833531D01*
X6841491Y-15833531D02*
X6851015Y-15852579D01*
X6851015Y-15852579D02*
X6860539Y-15890674D01*
X6860539Y-15890674D02*
X6860539Y-15938293D01*
X6860539Y-15938293D02*
X6851015Y-15976388D01*
X6851015Y-15976388D02*
X6841491Y-15995436D01*
X6841491Y-15995436D02*
X6831967Y-16004960D01*
X6831967Y-16004960D02*
X6812920Y-16014484D01*
X6812920Y-16014484D02*
X6793872Y-16014484D01*
X6793872Y-16014484D02*
X6774824Y-16004960D01*
X6774824Y-16004960D02*
X6765301Y-15995436D01*
X6765301Y-15995436D02*
X6755777Y-15976388D01*
X6755777Y-15976388D02*
X6746253Y-15938293D01*
X6746253Y-15938293D02*
X6746253Y-15890674D01*
X6746253Y-15890674D02*
X6755777Y-15852579D01*
X6755777Y-15852579D02*
X6765301Y-15833531D01*
X6765301Y-15833531D02*
X6774824Y-15824008D01*
X6774824Y-15824008D02*
X6793872Y-15814484D01*
X6946253Y-15995436D02*
X6955777Y-16004960D01*
X6955777Y-16004960D02*
X6946253Y-16014484D01*
X6946253Y-16014484D02*
X6936729Y-16004960D01*
X6936729Y-16004960D02*
X6946253Y-15995436D01*
X6946253Y-15995436D02*
X6946253Y-16014484D01*
X7070062Y-15900198D02*
X7051015Y-15890674D01*
X7051015Y-15890674D02*
X7041491Y-15881150D01*
X7041491Y-15881150D02*
X7031967Y-15862103D01*
X7031967Y-15862103D02*
X7031967Y-15852579D01*
X7031967Y-15852579D02*
X7041491Y-15833531D01*
X7041491Y-15833531D02*
X7051015Y-15824008D01*
X7051015Y-15824008D02*
X7070062Y-15814484D01*
X7070062Y-15814484D02*
X7108158Y-15814484D01*
X7108158Y-15814484D02*
X7127205Y-15824008D01*
X7127205Y-15824008D02*
X7136729Y-15833531D01*
X7136729Y-15833531D02*
X7146253Y-15852579D01*
X7146253Y-15852579D02*
X7146253Y-15862103D01*
X7146253Y-15862103D02*
X7136729Y-15881150D01*
X7136729Y-15881150D02*
X7127205Y-15890674D01*
X7127205Y-15890674D02*
X7108158Y-15900198D01*
X7108158Y-15900198D02*
X7070062Y-15900198D01*
X7070062Y-15900198D02*
X7051015Y-15909722D01*
X7051015Y-15909722D02*
X7041491Y-15919246D01*
X7041491Y-15919246D02*
X7031967Y-15938293D01*
X7031967Y-15938293D02*
X7031967Y-15976388D01*
X7031967Y-15976388D02*
X7041491Y-15995436D01*
X7041491Y-15995436D02*
X7051015Y-16004960D01*
X7051015Y-16004960D02*
X7070062Y-16014484D01*
X7070062Y-16014484D02*
X7108158Y-16014484D01*
X7108158Y-16014484D02*
X7127205Y-16004960D01*
X7127205Y-16004960D02*
X7136729Y-15995436D01*
X7136729Y-15995436D02*
X7146253Y-15976388D01*
X7146253Y-15976388D02*
X7146253Y-15938293D01*
X7146253Y-15938293D02*
X7136729Y-15919246D01*
X7136729Y-15919246D02*
X7127205Y-15909722D01*
X7127205Y-15909722D02*
X7108158Y-15900198D01*
X7270062Y-15814484D02*
X7289110Y-15814484D01*
X7289110Y-15814484D02*
X7308158Y-15824008D01*
X7308158Y-15824008D02*
X7317682Y-15833531D01*
X7317682Y-15833531D02*
X7327205Y-15852579D01*
X7327205Y-15852579D02*
X7336729Y-15890674D01*
X7336729Y-15890674D02*
X7336729Y-15938293D01*
X7336729Y-15938293D02*
X7327205Y-15976388D01*
X7327205Y-15976388D02*
X7317682Y-15995436D01*
X7317682Y-15995436D02*
X7308158Y-16004960D01*
X7308158Y-16004960D02*
X7289110Y-16014484D01*
X7289110Y-16014484D02*
X7270062Y-16014484D01*
X7270062Y-16014484D02*
X7251015Y-16004960D01*
X7251015Y-16004960D02*
X7241491Y-15995436D01*
X7241491Y-15995436D02*
X7231967Y-15976388D01*
X7231967Y-15976388D02*
X7222443Y-15938293D01*
X7222443Y-15938293D02*
X7222443Y-15890674D01*
X7222443Y-15890674D02*
X7231967Y-15852579D01*
X7231967Y-15852579D02*
X7241491Y-15833531D01*
X7241491Y-15833531D02*
X7251015Y-15824008D01*
X7251015Y-15824008D02*
X7270062Y-15814484D01*
X7460539Y-15814484D02*
X7479586Y-15814484D01*
X7479586Y-15814484D02*
X7498634Y-15824008D01*
X7498634Y-15824008D02*
X7508158Y-15833531D01*
X7508158Y-15833531D02*
X7517682Y-15852579D01*
X7517682Y-15852579D02*
X7527205Y-15890674D01*
X7527205Y-15890674D02*
X7527205Y-15938293D01*
X7527205Y-15938293D02*
X7517682Y-15976388D01*
X7517682Y-15976388D02*
X7508158Y-15995436D01*
X7508158Y-15995436D02*
X7498634Y-16004960D01*
X7498634Y-16004960D02*
X7479586Y-16014484D01*
X7479586Y-16014484D02*
X7460539Y-16014484D01*
X7460539Y-16014484D02*
X7441491Y-16004960D01*
X7441491Y-16004960D02*
X7431967Y-15995436D01*
X7431967Y-15995436D02*
X7422443Y-15976388D01*
X7422443Y-15976388D02*
X7412920Y-15938293D01*
X7412920Y-15938293D02*
X7412920Y-15890674D01*
X7412920Y-15890674D02*
X7422443Y-15852579D01*
X7422443Y-15852579D02*
X7431967Y-15833531D01*
X7431967Y-15833531D02*
X7441491Y-15824008D01*
X7441491Y-15824008D02*
X7460539Y-15814484D01*
X7612920Y-16014484D02*
X7612920Y-15881150D01*
X7612920Y-15900198D02*
X7622443Y-15890674D01*
X7622443Y-15890674D02*
X7641491Y-15881150D01*
X7641491Y-15881150D02*
X7670063Y-15881150D01*
X7670063Y-15881150D02*
X7689110Y-15890674D01*
X7689110Y-15890674D02*
X7698634Y-15909722D01*
X7698634Y-15909722D02*
X7698634Y-16014484D01*
X7698634Y-15909722D02*
X7708158Y-15890674D01*
X7708158Y-15890674D02*
X7727205Y-15881150D01*
X7727205Y-15881150D02*
X7755777Y-15881150D01*
X7755777Y-15881150D02*
X7774824Y-15890674D01*
X7774824Y-15890674D02*
X7784348Y-15909722D01*
X7784348Y-15909722D02*
X7784348Y-16014484D01*
X7879586Y-16014484D02*
X7879586Y-15881150D01*
X7879586Y-15900198D02*
X7889110Y-15890674D01*
X7889110Y-15890674D02*
X7908158Y-15881150D01*
X7908158Y-15881150D02*
X7936729Y-15881150D01*
X7936729Y-15881150D02*
X7955777Y-15890674D01*
X7955777Y-15890674D02*
X7965301Y-15909722D01*
X7965301Y-15909722D02*
X7965301Y-16014484D01*
X7965301Y-15909722D02*
X7974824Y-15890674D01*
X7974824Y-15890674D02*
X7993872Y-15881150D01*
X7993872Y-15881150D02*
X8022443Y-15881150D01*
X8022443Y-15881150D02*
X8041491Y-15890674D01*
X8041491Y-15890674D02*
X8051015Y-15909722D01*
X8051015Y-15909722D02*
X8051015Y-16014484D01*
X8441491Y-15804960D02*
X8270063Y-16062103D01*
X8698634Y-15814484D02*
X8717682Y-15814484D01*
X8717682Y-15814484D02*
X8736729Y-15824008D01*
X8736729Y-15824008D02*
X8746253Y-15833531D01*
X8746253Y-15833531D02*
X8755777Y-15852579D01*
X8755777Y-15852579D02*
X8765301Y-15890674D01*
X8765301Y-15890674D02*
X8765301Y-15938293D01*
X8765301Y-15938293D02*
X8755777Y-15976388D01*
X8755777Y-15976388D02*
X8746253Y-15995436D01*
X8746253Y-15995436D02*
X8736729Y-16004960D01*
X8736729Y-16004960D02*
X8717682Y-16014484D01*
X8717682Y-16014484D02*
X8698634Y-16014484D01*
X8698634Y-16014484D02*
X8679587Y-16004960D01*
X8679587Y-16004960D02*
X8670063Y-15995436D01*
X8670063Y-15995436D02*
X8660539Y-15976388D01*
X8660539Y-15976388D02*
X8651015Y-15938293D01*
X8651015Y-15938293D02*
X8651015Y-15890674D01*
X8651015Y-15890674D02*
X8660539Y-15852579D01*
X8660539Y-15852579D02*
X8670063Y-15833531D01*
X8670063Y-15833531D02*
X8679587Y-15824008D01*
X8679587Y-15824008D02*
X8698634Y-15814484D01*
X8851015Y-15995436D02*
X8860539Y-16004960D01*
X8860539Y-16004960D02*
X8851015Y-16014484D01*
X8851015Y-16014484D02*
X8841491Y-16004960D01*
X8841491Y-16004960D02*
X8851015Y-15995436D01*
X8851015Y-15995436D02*
X8851015Y-16014484D01*
X8984348Y-15814484D02*
X9003396Y-15814484D01*
X9003396Y-15814484D02*
X9022444Y-15824008D01*
X9022444Y-15824008D02*
X9031968Y-15833531D01*
X9031968Y-15833531D02*
X9041491Y-15852579D01*
X9041491Y-15852579D02*
X9051015Y-15890674D01*
X9051015Y-15890674D02*
X9051015Y-15938293D01*
X9051015Y-15938293D02*
X9041491Y-15976388D01*
X9041491Y-15976388D02*
X9031968Y-15995436D01*
X9031968Y-15995436D02*
X9022444Y-16004960D01*
X9022444Y-16004960D02*
X9003396Y-16014484D01*
X9003396Y-16014484D02*
X8984348Y-16014484D01*
X8984348Y-16014484D02*
X8965301Y-16004960D01*
X8965301Y-16004960D02*
X8955777Y-15995436D01*
X8955777Y-15995436D02*
X8946253Y-15976388D01*
X8946253Y-15976388D02*
X8936729Y-15938293D01*
X8936729Y-15938293D02*
X8936729Y-15890674D01*
X8936729Y-15890674D02*
X8946253Y-15852579D01*
X8946253Y-15852579D02*
X8955777Y-15833531D01*
X8955777Y-15833531D02*
X8965301Y-15824008D01*
X8965301Y-15824008D02*
X8984348Y-15814484D01*
X9117682Y-15814484D02*
X9241491Y-15814484D01*
X9241491Y-15814484D02*
X9174825Y-15890674D01*
X9174825Y-15890674D02*
X9203396Y-15890674D01*
X9203396Y-15890674D02*
X9222444Y-15900198D01*
X9222444Y-15900198D02*
X9231968Y-15909722D01*
X9231968Y-15909722D02*
X9241491Y-15928769D01*
X9241491Y-15928769D02*
X9241491Y-15976388D01*
X9241491Y-15976388D02*
X9231968Y-15995436D01*
X9231968Y-15995436D02*
X9222444Y-16004960D01*
X9222444Y-16004960D02*
X9203396Y-16014484D01*
X9203396Y-16014484D02*
X9146253Y-16014484D01*
X9146253Y-16014484D02*
X9127206Y-16004960D01*
X9127206Y-16004960D02*
X9117682Y-15995436D01*
X9431968Y-16014484D02*
X9317682Y-16014484D01*
X9374825Y-16014484D02*
X9374825Y-15814484D01*
X9374825Y-15814484D02*
X9355777Y-15843055D01*
X9355777Y-15843055D02*
X9336729Y-15862103D01*
X9336729Y-15862103D02*
X9317682Y-15871627D01*
X9612920Y-15814484D02*
X9517682Y-15814484D01*
X9517682Y-15814484D02*
X9508158Y-15909722D01*
X9508158Y-15909722D02*
X9517682Y-15900198D01*
X9517682Y-15900198D02*
X9536729Y-15890674D01*
X9536729Y-15890674D02*
X9584349Y-15890674D01*
X9584349Y-15890674D02*
X9603396Y-15900198D01*
X9603396Y-15900198D02*
X9612920Y-15909722D01*
X9612920Y-15909722D02*
X9622444Y-15928769D01*
X9622444Y-15928769D02*
X9622444Y-15976388D01*
X9622444Y-15976388D02*
X9612920Y-15995436D01*
X9612920Y-15995436D02*
X9603396Y-16004960D01*
X9603396Y-16004960D02*
X9584349Y-16014484D01*
X9584349Y-16014484D02*
X9536729Y-16014484D01*
X9536729Y-16014484D02*
X9517682Y-16004960D01*
X9517682Y-16004960D02*
X9508158Y-15995436D01*
X9698634Y-15814484D02*
X9698634Y-15852579D01*
X9774825Y-15814484D02*
X9774825Y-15852579D01*
X10070063Y-16090674D02*
X10060539Y-16081150D01*
X10060539Y-16081150D02*
X10041491Y-16052579D01*
X10041491Y-16052579D02*
X10031968Y-16033531D01*
X10031968Y-16033531D02*
X10022444Y-16004960D01*
X10022444Y-16004960D02*
X10012920Y-15957341D01*
X10012920Y-15957341D02*
X10012920Y-15919246D01*
X10012920Y-15919246D02*
X10022444Y-15871627D01*
X10022444Y-15871627D02*
X10031968Y-15843055D01*
X10031968Y-15843055D02*
X10041491Y-15824008D01*
X10041491Y-15824008D02*
X10060539Y-15795436D01*
X10060539Y-15795436D02*
X10070063Y-15785912D01*
X10136730Y-15833531D02*
X10146253Y-15824008D01*
X10146253Y-15824008D02*
X10165301Y-15814484D01*
X10165301Y-15814484D02*
X10212920Y-15814484D01*
X10212920Y-15814484D02*
X10231968Y-15824008D01*
X10231968Y-15824008D02*
X10241491Y-15833531D01*
X10241491Y-15833531D02*
X10251015Y-15852579D01*
X10251015Y-15852579D02*
X10251015Y-15871627D01*
X10251015Y-15871627D02*
X10241491Y-15900198D01*
X10241491Y-15900198D02*
X10127206Y-16014484D01*
X10127206Y-16014484D02*
X10251015Y-16014484D01*
X10365301Y-15900198D02*
X10346253Y-15890674D01*
X10346253Y-15890674D02*
X10336730Y-15881150D01*
X10336730Y-15881150D02*
X10327206Y-15862103D01*
X10327206Y-15862103D02*
X10327206Y-15852579D01*
X10327206Y-15852579D02*
X10336730Y-15833531D01*
X10336730Y-15833531D02*
X10346253Y-15824008D01*
X10346253Y-15824008D02*
X10365301Y-15814484D01*
X10365301Y-15814484D02*
X10403396Y-15814484D01*
X10403396Y-15814484D02*
X10422444Y-15824008D01*
X10422444Y-15824008D02*
X10431968Y-15833531D01*
X10431968Y-15833531D02*
X10441491Y-15852579D01*
X10441491Y-15852579D02*
X10441491Y-15862103D01*
X10441491Y-15862103D02*
X10431968Y-15881150D01*
X10431968Y-15881150D02*
X10422444Y-15890674D01*
X10422444Y-15890674D02*
X10403396Y-15900198D01*
X10403396Y-15900198D02*
X10365301Y-15900198D01*
X10365301Y-15900198D02*
X10346253Y-15909722D01*
X10346253Y-15909722D02*
X10336730Y-15919246D01*
X10336730Y-15919246D02*
X10327206Y-15938293D01*
X10327206Y-15938293D02*
X10327206Y-15976388D01*
X10327206Y-15976388D02*
X10336730Y-15995436D01*
X10336730Y-15995436D02*
X10346253Y-16004960D01*
X10346253Y-16004960D02*
X10365301Y-16014484D01*
X10365301Y-16014484D02*
X10403396Y-16014484D01*
X10403396Y-16014484D02*
X10422444Y-16004960D01*
X10422444Y-16004960D02*
X10431968Y-15995436D01*
X10431968Y-15995436D02*
X10441491Y-15976388D01*
X10441491Y-15976388D02*
X10441491Y-15938293D01*
X10441491Y-15938293D02*
X10431968Y-15919246D01*
X10431968Y-15919246D02*
X10422444Y-15909722D01*
X10422444Y-15909722D02*
X10403396Y-15900198D01*
X10631968Y-16014484D02*
X10517682Y-16014484D01*
X10574825Y-16014484D02*
X10574825Y-15814484D01*
X10574825Y-15814484D02*
X10555777Y-15843055D01*
X10555777Y-15843055D02*
X10536730Y-15862103D01*
X10536730Y-15862103D02*
X10517682Y-15871627D01*
X10870063Y-16014484D02*
X10870063Y-15814484D01*
X10955777Y-16014484D02*
X10955777Y-15909722D01*
X10955777Y-15909722D02*
X10946253Y-15890674D01*
X10946253Y-15890674D02*
X10927206Y-15881150D01*
X10927206Y-15881150D02*
X10898634Y-15881150D01*
X10898634Y-15881150D02*
X10879587Y-15890674D01*
X10879587Y-15890674D02*
X10870063Y-15900198D01*
X11079587Y-16014484D02*
X11060539Y-16004960D01*
X11060539Y-16004960D02*
X11051015Y-15995436D01*
X11051015Y-15995436D02*
X11041492Y-15976388D01*
X11041492Y-15976388D02*
X11041492Y-15919246D01*
X11041492Y-15919246D02*
X11051015Y-15900198D01*
X11051015Y-15900198D02*
X11060539Y-15890674D01*
X11060539Y-15890674D02*
X11079587Y-15881150D01*
X11079587Y-15881150D02*
X11108158Y-15881150D01*
X11108158Y-15881150D02*
X11127206Y-15890674D01*
X11127206Y-15890674D02*
X11136730Y-15900198D01*
X11136730Y-15900198D02*
X11146253Y-15919246D01*
X11146253Y-15919246D02*
X11146253Y-15976388D01*
X11146253Y-15976388D02*
X11136730Y-15995436D01*
X11136730Y-15995436D02*
X11127206Y-16004960D01*
X11127206Y-16004960D02*
X11108158Y-16014484D01*
X11108158Y-16014484D02*
X11079587Y-16014484D01*
X11260539Y-16014484D02*
X11241491Y-16004960D01*
X11241491Y-16004960D02*
X11231968Y-15985912D01*
X11231968Y-15985912D02*
X11231968Y-15814484D01*
X11412920Y-16004960D02*
X11393872Y-16014484D01*
X11393872Y-16014484D02*
X11355777Y-16014484D01*
X11355777Y-16014484D02*
X11336730Y-16004960D01*
X11336730Y-16004960D02*
X11327206Y-15985912D01*
X11327206Y-15985912D02*
X11327206Y-15909722D01*
X11327206Y-15909722D02*
X11336730Y-15890674D01*
X11336730Y-15890674D02*
X11355777Y-15881150D01*
X11355777Y-15881150D02*
X11393872Y-15881150D01*
X11393872Y-15881150D02*
X11412920Y-15890674D01*
X11412920Y-15890674D02*
X11422444Y-15909722D01*
X11422444Y-15909722D02*
X11422444Y-15928769D01*
X11422444Y-15928769D02*
X11327206Y-15947817D01*
X11498634Y-16004960D02*
X11517682Y-16014484D01*
X11517682Y-16014484D02*
X11555777Y-16014484D01*
X11555777Y-16014484D02*
X11574825Y-16004960D01*
X11574825Y-16004960D02*
X11584349Y-15985912D01*
X11584349Y-15985912D02*
X11584349Y-15976388D01*
X11584349Y-15976388D02*
X11574825Y-15957341D01*
X11574825Y-15957341D02*
X11555777Y-15947817D01*
X11555777Y-15947817D02*
X11527206Y-15947817D01*
X11527206Y-15947817D02*
X11508158Y-15938293D01*
X11508158Y-15938293D02*
X11498634Y-15919246D01*
X11498634Y-15919246D02*
X11498634Y-15909722D01*
X11498634Y-15909722D02*
X11508158Y-15890674D01*
X11508158Y-15890674D02*
X11527206Y-15881150D01*
X11527206Y-15881150D02*
X11555777Y-15881150D01*
X11555777Y-15881150D02*
X11574825Y-15890674D01*
X11651015Y-16090674D02*
X11660539Y-16081150D01*
X11660539Y-16081150D02*
X11679587Y-16052579D01*
X11679587Y-16052579D02*
X11689111Y-16033531D01*
X11689111Y-16033531D02*
X11698634Y-16004960D01*
X11698634Y-16004960D02*
X11708158Y-15957341D01*
X11708158Y-15957341D02*
X11708158Y-15919246D01*
X11708158Y-15919246D02*
X11698634Y-15871627D01*
X11698634Y-15871627D02*
X11689111Y-15843055D01*
X11689111Y-15843055D02*
X11679587Y-15824008D01*
X11679587Y-15824008D02*
X11660539Y-15795436D01*
X11660539Y-15795436D02*
X11651015Y-15785912D01*
D15*
X6482552Y-16217052D02*
X6482552Y-16156948D01*
X6422448Y-16156948D01*
X6422448Y-16217052D01*
X6482552Y-16217052D01*
D11*
X6793872Y-16078484D02*
X6812920Y-16078484D01*
X6812920Y-16078484D02*
X6831967Y-16088008D01*
X6831967Y-16088008D02*
X6841491Y-16097531D01*
X6841491Y-16097531D02*
X6851015Y-16116579D01*
X6851015Y-16116579D02*
X6860539Y-16154674D01*
X6860539Y-16154674D02*
X6860539Y-16202293D01*
X6860539Y-16202293D02*
X6851015Y-16240388D01*
X6851015Y-16240388D02*
X6841491Y-16259436D01*
X6841491Y-16259436D02*
X6831967Y-16268960D01*
X6831967Y-16268960D02*
X6812920Y-16278484D01*
X6812920Y-16278484D02*
X6793872Y-16278484D01*
X6793872Y-16278484D02*
X6774824Y-16268960D01*
X6774824Y-16268960D02*
X6765301Y-16259436D01*
X6765301Y-16259436D02*
X6755777Y-16240388D01*
X6755777Y-16240388D02*
X6746253Y-16202293D01*
X6746253Y-16202293D02*
X6746253Y-16154674D01*
X6746253Y-16154674D02*
X6755777Y-16116579D01*
X6755777Y-16116579D02*
X6765301Y-16097531D01*
X6765301Y-16097531D02*
X6774824Y-16088008D01*
X6774824Y-16088008D02*
X6793872Y-16078484D01*
X6946253Y-16259436D02*
X6955777Y-16268960D01*
X6955777Y-16268960D02*
X6946253Y-16278484D01*
X6946253Y-16278484D02*
X6936729Y-16268960D01*
X6936729Y-16268960D02*
X6946253Y-16259436D01*
X6946253Y-16259436D02*
X6946253Y-16278484D01*
X7070062Y-16164198D02*
X7051015Y-16154674D01*
X7051015Y-16154674D02*
X7041491Y-16145150D01*
X7041491Y-16145150D02*
X7031967Y-16126103D01*
X7031967Y-16126103D02*
X7031967Y-16116579D01*
X7031967Y-16116579D02*
X7041491Y-16097531D01*
X7041491Y-16097531D02*
X7051015Y-16088008D01*
X7051015Y-16088008D02*
X7070062Y-16078484D01*
X7070062Y-16078484D02*
X7108158Y-16078484D01*
X7108158Y-16078484D02*
X7127205Y-16088008D01*
X7127205Y-16088008D02*
X7136729Y-16097531D01*
X7136729Y-16097531D02*
X7146253Y-16116579D01*
X7146253Y-16116579D02*
X7146253Y-16126103D01*
X7146253Y-16126103D02*
X7136729Y-16145150D01*
X7136729Y-16145150D02*
X7127205Y-16154674D01*
X7127205Y-16154674D02*
X7108158Y-16164198D01*
X7108158Y-16164198D02*
X7070062Y-16164198D01*
X7070062Y-16164198D02*
X7051015Y-16173722D01*
X7051015Y-16173722D02*
X7041491Y-16183246D01*
X7041491Y-16183246D02*
X7031967Y-16202293D01*
X7031967Y-16202293D02*
X7031967Y-16240388D01*
X7031967Y-16240388D02*
X7041491Y-16259436D01*
X7041491Y-16259436D02*
X7051015Y-16268960D01*
X7051015Y-16268960D02*
X7070062Y-16278484D01*
X7070062Y-16278484D02*
X7108158Y-16278484D01*
X7108158Y-16278484D02*
X7127205Y-16268960D01*
X7127205Y-16268960D02*
X7136729Y-16259436D01*
X7136729Y-16259436D02*
X7146253Y-16240388D01*
X7146253Y-16240388D02*
X7146253Y-16202293D01*
X7146253Y-16202293D02*
X7136729Y-16183246D01*
X7136729Y-16183246D02*
X7127205Y-16173722D01*
X7127205Y-16173722D02*
X7108158Y-16164198D01*
X7327205Y-16078484D02*
X7231967Y-16078484D01*
X7231967Y-16078484D02*
X7222443Y-16173722D01*
X7222443Y-16173722D02*
X7231967Y-16164198D01*
X7231967Y-16164198D02*
X7251015Y-16154674D01*
X7251015Y-16154674D02*
X7298634Y-16154674D01*
X7298634Y-16154674D02*
X7317682Y-16164198D01*
X7317682Y-16164198D02*
X7327205Y-16173722D01*
X7327205Y-16173722D02*
X7336729Y-16192769D01*
X7336729Y-16192769D02*
X7336729Y-16240388D01*
X7336729Y-16240388D02*
X7327205Y-16259436D01*
X7327205Y-16259436D02*
X7317682Y-16268960D01*
X7317682Y-16268960D02*
X7298634Y-16278484D01*
X7298634Y-16278484D02*
X7251015Y-16278484D01*
X7251015Y-16278484D02*
X7231967Y-16268960D01*
X7231967Y-16268960D02*
X7222443Y-16259436D01*
X7460539Y-16078484D02*
X7479586Y-16078484D01*
X7479586Y-16078484D02*
X7498634Y-16088008D01*
X7498634Y-16088008D02*
X7508158Y-16097531D01*
X7508158Y-16097531D02*
X7517682Y-16116579D01*
X7517682Y-16116579D02*
X7527205Y-16154674D01*
X7527205Y-16154674D02*
X7527205Y-16202293D01*
X7527205Y-16202293D02*
X7517682Y-16240388D01*
X7517682Y-16240388D02*
X7508158Y-16259436D01*
X7508158Y-16259436D02*
X7498634Y-16268960D01*
X7498634Y-16268960D02*
X7479586Y-16278484D01*
X7479586Y-16278484D02*
X7460539Y-16278484D01*
X7460539Y-16278484D02*
X7441491Y-16268960D01*
X7441491Y-16268960D02*
X7431967Y-16259436D01*
X7431967Y-16259436D02*
X7422443Y-16240388D01*
X7422443Y-16240388D02*
X7412920Y-16202293D01*
X7412920Y-16202293D02*
X7412920Y-16154674D01*
X7412920Y-16154674D02*
X7422443Y-16116579D01*
X7422443Y-16116579D02*
X7431967Y-16097531D01*
X7431967Y-16097531D02*
X7441491Y-16088008D01*
X7441491Y-16088008D02*
X7460539Y-16078484D01*
X7612920Y-16278484D02*
X7612920Y-16145150D01*
X7612920Y-16164198D02*
X7622443Y-16154674D01*
X7622443Y-16154674D02*
X7641491Y-16145150D01*
X7641491Y-16145150D02*
X7670063Y-16145150D01*
X7670063Y-16145150D02*
X7689110Y-16154674D01*
X7689110Y-16154674D02*
X7698634Y-16173722D01*
X7698634Y-16173722D02*
X7698634Y-16278484D01*
X7698634Y-16173722D02*
X7708158Y-16154674D01*
X7708158Y-16154674D02*
X7727205Y-16145150D01*
X7727205Y-16145150D02*
X7755777Y-16145150D01*
X7755777Y-16145150D02*
X7774824Y-16154674D01*
X7774824Y-16154674D02*
X7784348Y-16173722D01*
X7784348Y-16173722D02*
X7784348Y-16278484D01*
X7879586Y-16278484D02*
X7879586Y-16145150D01*
X7879586Y-16164198D02*
X7889110Y-16154674D01*
X7889110Y-16154674D02*
X7908158Y-16145150D01*
X7908158Y-16145150D02*
X7936729Y-16145150D01*
X7936729Y-16145150D02*
X7955777Y-16154674D01*
X7955777Y-16154674D02*
X7965301Y-16173722D01*
X7965301Y-16173722D02*
X7965301Y-16278484D01*
X7965301Y-16173722D02*
X7974824Y-16154674D01*
X7974824Y-16154674D02*
X7993872Y-16145150D01*
X7993872Y-16145150D02*
X8022443Y-16145150D01*
X8022443Y-16145150D02*
X8041491Y-16154674D01*
X8041491Y-16154674D02*
X8051015Y-16173722D01*
X8051015Y-16173722D02*
X8051015Y-16278484D01*
X8441491Y-16068960D02*
X8270063Y-16326103D01*
X8698634Y-16078484D02*
X8717682Y-16078484D01*
X8717682Y-16078484D02*
X8736729Y-16088008D01*
X8736729Y-16088008D02*
X8746253Y-16097531D01*
X8746253Y-16097531D02*
X8755777Y-16116579D01*
X8755777Y-16116579D02*
X8765301Y-16154674D01*
X8765301Y-16154674D02*
X8765301Y-16202293D01*
X8765301Y-16202293D02*
X8755777Y-16240388D01*
X8755777Y-16240388D02*
X8746253Y-16259436D01*
X8746253Y-16259436D02*
X8736729Y-16268960D01*
X8736729Y-16268960D02*
X8717682Y-16278484D01*
X8717682Y-16278484D02*
X8698634Y-16278484D01*
X8698634Y-16278484D02*
X8679587Y-16268960D01*
X8679587Y-16268960D02*
X8670063Y-16259436D01*
X8670063Y-16259436D02*
X8660539Y-16240388D01*
X8660539Y-16240388D02*
X8651015Y-16202293D01*
X8651015Y-16202293D02*
X8651015Y-16154674D01*
X8651015Y-16154674D02*
X8660539Y-16116579D01*
X8660539Y-16116579D02*
X8670063Y-16097531D01*
X8670063Y-16097531D02*
X8679587Y-16088008D01*
X8679587Y-16088008D02*
X8698634Y-16078484D01*
X8851015Y-16259436D02*
X8860539Y-16268960D01*
X8860539Y-16268960D02*
X8851015Y-16278484D01*
X8851015Y-16278484D02*
X8841491Y-16268960D01*
X8841491Y-16268960D02*
X8851015Y-16259436D01*
X8851015Y-16259436D02*
X8851015Y-16278484D01*
X8984348Y-16078484D02*
X9003396Y-16078484D01*
X9003396Y-16078484D02*
X9022444Y-16088008D01*
X9022444Y-16088008D02*
X9031968Y-16097531D01*
X9031968Y-16097531D02*
X9041491Y-16116579D01*
X9041491Y-16116579D02*
X9051015Y-16154674D01*
X9051015Y-16154674D02*
X9051015Y-16202293D01*
X9051015Y-16202293D02*
X9041491Y-16240388D01*
X9041491Y-16240388D02*
X9031968Y-16259436D01*
X9031968Y-16259436D02*
X9022444Y-16268960D01*
X9022444Y-16268960D02*
X9003396Y-16278484D01*
X9003396Y-16278484D02*
X8984348Y-16278484D01*
X8984348Y-16278484D02*
X8965301Y-16268960D01*
X8965301Y-16268960D02*
X8955777Y-16259436D01*
X8955777Y-16259436D02*
X8946253Y-16240388D01*
X8946253Y-16240388D02*
X8936729Y-16202293D01*
X8936729Y-16202293D02*
X8936729Y-16154674D01*
X8936729Y-16154674D02*
X8946253Y-16116579D01*
X8946253Y-16116579D02*
X8955777Y-16097531D01*
X8955777Y-16097531D02*
X8965301Y-16088008D01*
X8965301Y-16088008D02*
X8984348Y-16078484D01*
X9117682Y-16078484D02*
X9241491Y-16078484D01*
X9241491Y-16078484D02*
X9174825Y-16154674D01*
X9174825Y-16154674D02*
X9203396Y-16154674D01*
X9203396Y-16154674D02*
X9222444Y-16164198D01*
X9222444Y-16164198D02*
X9231968Y-16173722D01*
X9231968Y-16173722D02*
X9241491Y-16192769D01*
X9241491Y-16192769D02*
X9241491Y-16240388D01*
X9241491Y-16240388D02*
X9231968Y-16259436D01*
X9231968Y-16259436D02*
X9222444Y-16268960D01*
X9222444Y-16268960D02*
X9203396Y-16278484D01*
X9203396Y-16278484D02*
X9146253Y-16278484D01*
X9146253Y-16278484D02*
X9127206Y-16268960D01*
X9127206Y-16268960D02*
X9117682Y-16259436D01*
X9308158Y-16078484D02*
X9431968Y-16078484D01*
X9431968Y-16078484D02*
X9365301Y-16154674D01*
X9365301Y-16154674D02*
X9393872Y-16154674D01*
X9393872Y-16154674D02*
X9412920Y-16164198D01*
X9412920Y-16164198D02*
X9422444Y-16173722D01*
X9422444Y-16173722D02*
X9431968Y-16192769D01*
X9431968Y-16192769D02*
X9431968Y-16240388D01*
X9431968Y-16240388D02*
X9422444Y-16259436D01*
X9422444Y-16259436D02*
X9412920Y-16268960D01*
X9412920Y-16268960D02*
X9393872Y-16278484D01*
X9393872Y-16278484D02*
X9336729Y-16278484D01*
X9336729Y-16278484D02*
X9317682Y-16268960D01*
X9317682Y-16268960D02*
X9308158Y-16259436D01*
X9612920Y-16078484D02*
X9517682Y-16078484D01*
X9517682Y-16078484D02*
X9508158Y-16173722D01*
X9508158Y-16173722D02*
X9517682Y-16164198D01*
X9517682Y-16164198D02*
X9536729Y-16154674D01*
X9536729Y-16154674D02*
X9584349Y-16154674D01*
X9584349Y-16154674D02*
X9603396Y-16164198D01*
X9603396Y-16164198D02*
X9612920Y-16173722D01*
X9612920Y-16173722D02*
X9622444Y-16192769D01*
X9622444Y-16192769D02*
X9622444Y-16240388D01*
X9622444Y-16240388D02*
X9612920Y-16259436D01*
X9612920Y-16259436D02*
X9603396Y-16268960D01*
X9603396Y-16268960D02*
X9584349Y-16278484D01*
X9584349Y-16278484D02*
X9536729Y-16278484D01*
X9536729Y-16278484D02*
X9517682Y-16268960D01*
X9517682Y-16268960D02*
X9508158Y-16259436D01*
X9698634Y-16078484D02*
X9698634Y-16116579D01*
X9774825Y-16078484D02*
X9774825Y-16116579D01*
X10070063Y-16354674D02*
X10060539Y-16345150D01*
X10060539Y-16345150D02*
X10041491Y-16316579D01*
X10041491Y-16316579D02*
X10031968Y-16297531D01*
X10031968Y-16297531D02*
X10022444Y-16268960D01*
X10022444Y-16268960D02*
X10012920Y-16221341D01*
X10012920Y-16221341D02*
X10012920Y-16183246D01*
X10012920Y-16183246D02*
X10022444Y-16135627D01*
X10022444Y-16135627D02*
X10031968Y-16107055D01*
X10031968Y-16107055D02*
X10041491Y-16088008D01*
X10041491Y-16088008D02*
X10060539Y-16059436D01*
X10060539Y-16059436D02*
X10070063Y-16049912D01*
X10231968Y-16145150D02*
X10231968Y-16278484D01*
X10184349Y-16068960D02*
X10136730Y-16211817D01*
X10136730Y-16211817D02*
X10260539Y-16211817D01*
X10489111Y-16278484D02*
X10489111Y-16078484D01*
X10574825Y-16278484D02*
X10574825Y-16173722D01*
X10574825Y-16173722D02*
X10565301Y-16154674D01*
X10565301Y-16154674D02*
X10546253Y-16145150D01*
X10546253Y-16145150D02*
X10517682Y-16145150D01*
X10517682Y-16145150D02*
X10498634Y-16154674D01*
X10498634Y-16154674D02*
X10489111Y-16164198D01*
X10698634Y-16278484D02*
X10679587Y-16268960D01*
X10679587Y-16268960D02*
X10670063Y-16259436D01*
X10670063Y-16259436D02*
X10660539Y-16240388D01*
X10660539Y-16240388D02*
X10660539Y-16183246D01*
X10660539Y-16183246D02*
X10670063Y-16164198D01*
X10670063Y-16164198D02*
X10679587Y-16154674D01*
X10679587Y-16154674D02*
X10698634Y-16145150D01*
X10698634Y-16145150D02*
X10727206Y-16145150D01*
X10727206Y-16145150D02*
X10746253Y-16154674D01*
X10746253Y-16154674D02*
X10755777Y-16164198D01*
X10755777Y-16164198D02*
X10765301Y-16183246D01*
X10765301Y-16183246D02*
X10765301Y-16240388D01*
X10765301Y-16240388D02*
X10755777Y-16259436D01*
X10755777Y-16259436D02*
X10746253Y-16268960D01*
X10746253Y-16268960D02*
X10727206Y-16278484D01*
X10727206Y-16278484D02*
X10698634Y-16278484D01*
X10879587Y-16278484D02*
X10860539Y-16268960D01*
X10860539Y-16268960D02*
X10851015Y-16249912D01*
X10851015Y-16249912D02*
X10851015Y-16078484D01*
X11031968Y-16268960D02*
X11012920Y-16278484D01*
X11012920Y-16278484D02*
X10974825Y-16278484D01*
X10974825Y-16278484D02*
X10955777Y-16268960D01*
X10955777Y-16268960D02*
X10946253Y-16249912D01*
X10946253Y-16249912D02*
X10946253Y-16173722D01*
X10946253Y-16173722D02*
X10955777Y-16154674D01*
X10955777Y-16154674D02*
X10974825Y-16145150D01*
X10974825Y-16145150D02*
X11012920Y-16145150D01*
X11012920Y-16145150D02*
X11031968Y-16154674D01*
X11031968Y-16154674D02*
X11041492Y-16173722D01*
X11041492Y-16173722D02*
X11041492Y-16192769D01*
X11041492Y-16192769D02*
X10946253Y-16211817D01*
X11117682Y-16268960D02*
X11136730Y-16278484D01*
X11136730Y-16278484D02*
X11174825Y-16278484D01*
X11174825Y-16278484D02*
X11193872Y-16268960D01*
X11193872Y-16268960D02*
X11203396Y-16249912D01*
X11203396Y-16249912D02*
X11203396Y-16240388D01*
X11203396Y-16240388D02*
X11193872Y-16221341D01*
X11193872Y-16221341D02*
X11174825Y-16211817D01*
X11174825Y-16211817D02*
X11146253Y-16211817D01*
X11146253Y-16211817D02*
X11127206Y-16202293D01*
X11127206Y-16202293D02*
X11117682Y-16183246D01*
X11117682Y-16183246D02*
X11117682Y-16173722D01*
X11117682Y-16173722D02*
X11127206Y-16154674D01*
X11127206Y-16154674D02*
X11146253Y-16145150D01*
X11146253Y-16145150D02*
X11174825Y-16145150D01*
X11174825Y-16145150D02*
X11193872Y-16154674D01*
X11270063Y-16354674D02*
X11279587Y-16345150D01*
X11279587Y-16345150D02*
X11298634Y-16316579D01*
X11298634Y-16316579D02*
X11308158Y-16297531D01*
X11308158Y-16297531D02*
X11317682Y-16268960D01*
X11317682Y-16268960D02*
X11327206Y-16221341D01*
X11327206Y-16221341D02*
X11327206Y-16183246D01*
X11327206Y-16183246D02*
X11317682Y-16135627D01*
X11317682Y-16135627D02*
X11308158Y-16107055D01*
X11308158Y-16107055D02*
X11298634Y-16088008D01*
X11298634Y-16088008D02*
X11279587Y-16059436D01*
X11279587Y-16059436D02*
X11270063Y-16049912D01*
D16*
X6450000Y-16496000D02*
X6495000Y-16451000D01*
X6450000Y-16406000D01*
X6405000Y-16451000D01*
X6450000Y-16496000D01*
D11*
X6793872Y-16342484D02*
X6812920Y-16342484D01*
X6812920Y-16342484D02*
X6831967Y-16352008D01*
X6831967Y-16352008D02*
X6841491Y-16361531D01*
X6841491Y-16361531D02*
X6851015Y-16380579D01*
X6851015Y-16380579D02*
X6860539Y-16418674D01*
X6860539Y-16418674D02*
X6860539Y-16466293D01*
X6860539Y-16466293D02*
X6851015Y-16504388D01*
X6851015Y-16504388D02*
X6841491Y-16523436D01*
X6841491Y-16523436D02*
X6831967Y-16532960D01*
X6831967Y-16532960D02*
X6812920Y-16542484D01*
X6812920Y-16542484D02*
X6793872Y-16542484D01*
X6793872Y-16542484D02*
X6774824Y-16532960D01*
X6774824Y-16532960D02*
X6765301Y-16523436D01*
X6765301Y-16523436D02*
X6755777Y-16504388D01*
X6755777Y-16504388D02*
X6746253Y-16466293D01*
X6746253Y-16466293D02*
X6746253Y-16418674D01*
X6746253Y-16418674D02*
X6755777Y-16380579D01*
X6755777Y-16380579D02*
X6765301Y-16361531D01*
X6765301Y-16361531D02*
X6774824Y-16352008D01*
X6774824Y-16352008D02*
X6793872Y-16342484D01*
X6946253Y-16523436D02*
X6955777Y-16532960D01*
X6955777Y-16532960D02*
X6946253Y-16542484D01*
X6946253Y-16542484D02*
X6936729Y-16532960D01*
X6936729Y-16532960D02*
X6946253Y-16523436D01*
X6946253Y-16523436D02*
X6946253Y-16542484D01*
X7051015Y-16542484D02*
X7089110Y-16542484D01*
X7089110Y-16542484D02*
X7108158Y-16532960D01*
X7108158Y-16532960D02*
X7117682Y-16523436D01*
X7117682Y-16523436D02*
X7136729Y-16494865D01*
X7136729Y-16494865D02*
X7146253Y-16456769D01*
X7146253Y-16456769D02*
X7146253Y-16380579D01*
X7146253Y-16380579D02*
X7136729Y-16361531D01*
X7136729Y-16361531D02*
X7127205Y-16352008D01*
X7127205Y-16352008D02*
X7108158Y-16342484D01*
X7108158Y-16342484D02*
X7070062Y-16342484D01*
X7070062Y-16342484D02*
X7051015Y-16352008D01*
X7051015Y-16352008D02*
X7041491Y-16361531D01*
X7041491Y-16361531D02*
X7031967Y-16380579D01*
X7031967Y-16380579D02*
X7031967Y-16428198D01*
X7031967Y-16428198D02*
X7041491Y-16447246D01*
X7041491Y-16447246D02*
X7051015Y-16456769D01*
X7051015Y-16456769D02*
X7070062Y-16466293D01*
X7070062Y-16466293D02*
X7108158Y-16466293D01*
X7108158Y-16466293D02*
X7127205Y-16456769D01*
X7127205Y-16456769D02*
X7136729Y-16447246D01*
X7136729Y-16447246D02*
X7146253Y-16428198D01*
X7270062Y-16342484D02*
X7289110Y-16342484D01*
X7289110Y-16342484D02*
X7308158Y-16352008D01*
X7308158Y-16352008D02*
X7317682Y-16361531D01*
X7317682Y-16361531D02*
X7327205Y-16380579D01*
X7327205Y-16380579D02*
X7336729Y-16418674D01*
X7336729Y-16418674D02*
X7336729Y-16466293D01*
X7336729Y-16466293D02*
X7327205Y-16504388D01*
X7327205Y-16504388D02*
X7317682Y-16523436D01*
X7317682Y-16523436D02*
X7308158Y-16532960D01*
X7308158Y-16532960D02*
X7289110Y-16542484D01*
X7289110Y-16542484D02*
X7270062Y-16542484D01*
X7270062Y-16542484D02*
X7251015Y-16532960D01*
X7251015Y-16532960D02*
X7241491Y-16523436D01*
X7241491Y-16523436D02*
X7231967Y-16504388D01*
X7231967Y-16504388D02*
X7222443Y-16466293D01*
X7222443Y-16466293D02*
X7222443Y-16418674D01*
X7222443Y-16418674D02*
X7231967Y-16380579D01*
X7231967Y-16380579D02*
X7241491Y-16361531D01*
X7241491Y-16361531D02*
X7251015Y-16352008D01*
X7251015Y-16352008D02*
X7270062Y-16342484D01*
X7460539Y-16342484D02*
X7479586Y-16342484D01*
X7479586Y-16342484D02*
X7498634Y-16352008D01*
X7498634Y-16352008D02*
X7508158Y-16361531D01*
X7508158Y-16361531D02*
X7517682Y-16380579D01*
X7517682Y-16380579D02*
X7527205Y-16418674D01*
X7527205Y-16418674D02*
X7527205Y-16466293D01*
X7527205Y-16466293D02*
X7517682Y-16504388D01*
X7517682Y-16504388D02*
X7508158Y-16523436D01*
X7508158Y-16523436D02*
X7498634Y-16532960D01*
X7498634Y-16532960D02*
X7479586Y-16542484D01*
X7479586Y-16542484D02*
X7460539Y-16542484D01*
X7460539Y-16542484D02*
X7441491Y-16532960D01*
X7441491Y-16532960D02*
X7431967Y-16523436D01*
X7431967Y-16523436D02*
X7422443Y-16504388D01*
X7422443Y-16504388D02*
X7412920Y-16466293D01*
X7412920Y-16466293D02*
X7412920Y-16418674D01*
X7412920Y-16418674D02*
X7422443Y-16380579D01*
X7422443Y-16380579D02*
X7431967Y-16361531D01*
X7431967Y-16361531D02*
X7441491Y-16352008D01*
X7441491Y-16352008D02*
X7460539Y-16342484D01*
X7612920Y-16542484D02*
X7612920Y-16409150D01*
X7612920Y-16428198D02*
X7622443Y-16418674D01*
X7622443Y-16418674D02*
X7641491Y-16409150D01*
X7641491Y-16409150D02*
X7670063Y-16409150D01*
X7670063Y-16409150D02*
X7689110Y-16418674D01*
X7689110Y-16418674D02*
X7698634Y-16437722D01*
X7698634Y-16437722D02*
X7698634Y-16542484D01*
X7698634Y-16437722D02*
X7708158Y-16418674D01*
X7708158Y-16418674D02*
X7727205Y-16409150D01*
X7727205Y-16409150D02*
X7755777Y-16409150D01*
X7755777Y-16409150D02*
X7774824Y-16418674D01*
X7774824Y-16418674D02*
X7784348Y-16437722D01*
X7784348Y-16437722D02*
X7784348Y-16542484D01*
X7879586Y-16542484D02*
X7879586Y-16409150D01*
X7879586Y-16428198D02*
X7889110Y-16418674D01*
X7889110Y-16418674D02*
X7908158Y-16409150D01*
X7908158Y-16409150D02*
X7936729Y-16409150D01*
X7936729Y-16409150D02*
X7955777Y-16418674D01*
X7955777Y-16418674D02*
X7965301Y-16437722D01*
X7965301Y-16437722D02*
X7965301Y-16542484D01*
X7965301Y-16437722D02*
X7974824Y-16418674D01*
X7974824Y-16418674D02*
X7993872Y-16409150D01*
X7993872Y-16409150D02*
X8022443Y-16409150D01*
X8022443Y-16409150D02*
X8041491Y-16418674D01*
X8041491Y-16418674D02*
X8051015Y-16437722D01*
X8051015Y-16437722D02*
X8051015Y-16542484D01*
X8441491Y-16332960D02*
X8270063Y-16590103D01*
X8698634Y-16342484D02*
X8717682Y-16342484D01*
X8717682Y-16342484D02*
X8736729Y-16352008D01*
X8736729Y-16352008D02*
X8746253Y-16361531D01*
X8746253Y-16361531D02*
X8755777Y-16380579D01*
X8755777Y-16380579D02*
X8765301Y-16418674D01*
X8765301Y-16418674D02*
X8765301Y-16466293D01*
X8765301Y-16466293D02*
X8755777Y-16504388D01*
X8755777Y-16504388D02*
X8746253Y-16523436D01*
X8746253Y-16523436D02*
X8736729Y-16532960D01*
X8736729Y-16532960D02*
X8717682Y-16542484D01*
X8717682Y-16542484D02*
X8698634Y-16542484D01*
X8698634Y-16542484D02*
X8679587Y-16532960D01*
X8679587Y-16532960D02*
X8670063Y-16523436D01*
X8670063Y-16523436D02*
X8660539Y-16504388D01*
X8660539Y-16504388D02*
X8651015Y-16466293D01*
X8651015Y-16466293D02*
X8651015Y-16418674D01*
X8651015Y-16418674D02*
X8660539Y-16380579D01*
X8660539Y-16380579D02*
X8670063Y-16361531D01*
X8670063Y-16361531D02*
X8679587Y-16352008D01*
X8679587Y-16352008D02*
X8698634Y-16342484D01*
X8851015Y-16523436D02*
X8860539Y-16532960D01*
X8860539Y-16532960D02*
X8851015Y-16542484D01*
X8851015Y-16542484D02*
X8841491Y-16532960D01*
X8841491Y-16532960D02*
X8851015Y-16523436D01*
X8851015Y-16523436D02*
X8851015Y-16542484D01*
X8984348Y-16342484D02*
X9003396Y-16342484D01*
X9003396Y-16342484D02*
X9022444Y-16352008D01*
X9022444Y-16352008D02*
X9031968Y-16361531D01*
X9031968Y-16361531D02*
X9041491Y-16380579D01*
X9041491Y-16380579D02*
X9051015Y-16418674D01*
X9051015Y-16418674D02*
X9051015Y-16466293D01*
X9051015Y-16466293D02*
X9041491Y-16504388D01*
X9041491Y-16504388D02*
X9031968Y-16523436D01*
X9031968Y-16523436D02*
X9022444Y-16532960D01*
X9022444Y-16532960D02*
X9003396Y-16542484D01*
X9003396Y-16542484D02*
X8984348Y-16542484D01*
X8984348Y-16542484D02*
X8965301Y-16532960D01*
X8965301Y-16532960D02*
X8955777Y-16523436D01*
X8955777Y-16523436D02*
X8946253Y-16504388D01*
X8946253Y-16504388D02*
X8936729Y-16466293D01*
X8936729Y-16466293D02*
X8936729Y-16418674D01*
X8936729Y-16418674D02*
X8946253Y-16380579D01*
X8946253Y-16380579D02*
X8955777Y-16361531D01*
X8955777Y-16361531D02*
X8965301Y-16352008D01*
X8965301Y-16352008D02*
X8984348Y-16342484D01*
X9117682Y-16342484D02*
X9241491Y-16342484D01*
X9241491Y-16342484D02*
X9174825Y-16418674D01*
X9174825Y-16418674D02*
X9203396Y-16418674D01*
X9203396Y-16418674D02*
X9222444Y-16428198D01*
X9222444Y-16428198D02*
X9231968Y-16437722D01*
X9231968Y-16437722D02*
X9241491Y-16456769D01*
X9241491Y-16456769D02*
X9241491Y-16504388D01*
X9241491Y-16504388D02*
X9231968Y-16523436D01*
X9231968Y-16523436D02*
X9222444Y-16532960D01*
X9222444Y-16532960D02*
X9203396Y-16542484D01*
X9203396Y-16542484D02*
X9146253Y-16542484D01*
X9146253Y-16542484D02*
X9127206Y-16532960D01*
X9127206Y-16532960D02*
X9117682Y-16523436D01*
X9422444Y-16342484D02*
X9327206Y-16342484D01*
X9327206Y-16342484D02*
X9317682Y-16437722D01*
X9317682Y-16437722D02*
X9327206Y-16428198D01*
X9327206Y-16428198D02*
X9346253Y-16418674D01*
X9346253Y-16418674D02*
X9393872Y-16418674D01*
X9393872Y-16418674D02*
X9412920Y-16428198D01*
X9412920Y-16428198D02*
X9422444Y-16437722D01*
X9422444Y-16437722D02*
X9431968Y-16456769D01*
X9431968Y-16456769D02*
X9431968Y-16504388D01*
X9431968Y-16504388D02*
X9422444Y-16523436D01*
X9422444Y-16523436D02*
X9412920Y-16532960D01*
X9412920Y-16532960D02*
X9393872Y-16542484D01*
X9393872Y-16542484D02*
X9346253Y-16542484D01*
X9346253Y-16542484D02*
X9327206Y-16532960D01*
X9327206Y-16532960D02*
X9317682Y-16523436D01*
X9603396Y-16409150D02*
X9603396Y-16542484D01*
X9555777Y-16332960D02*
X9508158Y-16475817D01*
X9508158Y-16475817D02*
X9631968Y-16475817D01*
X9698634Y-16342484D02*
X9698634Y-16380579D01*
X9774825Y-16342484D02*
X9774825Y-16380579D01*
X10070063Y-16618674D02*
X10060539Y-16609150D01*
X10060539Y-16609150D02*
X10041491Y-16580579D01*
X10041491Y-16580579D02*
X10031968Y-16561531D01*
X10031968Y-16561531D02*
X10022444Y-16532960D01*
X10022444Y-16532960D02*
X10012920Y-16485341D01*
X10012920Y-16485341D02*
X10012920Y-16447246D01*
X10012920Y-16447246D02*
X10022444Y-16399627D01*
X10022444Y-16399627D02*
X10031968Y-16371055D01*
X10031968Y-16371055D02*
X10041491Y-16352008D01*
X10041491Y-16352008D02*
X10060539Y-16323436D01*
X10060539Y-16323436D02*
X10070063Y-16313912D01*
X10231968Y-16409150D02*
X10231968Y-16542484D01*
X10184349Y-16332960D02*
X10136730Y-16475817D01*
X10136730Y-16475817D02*
X10260539Y-16475817D01*
X10489111Y-16542484D02*
X10489111Y-16342484D01*
X10574825Y-16542484D02*
X10574825Y-16437722D01*
X10574825Y-16437722D02*
X10565301Y-16418674D01*
X10565301Y-16418674D02*
X10546253Y-16409150D01*
X10546253Y-16409150D02*
X10517682Y-16409150D01*
X10517682Y-16409150D02*
X10498634Y-16418674D01*
X10498634Y-16418674D02*
X10489111Y-16428198D01*
X10698634Y-16542484D02*
X10679587Y-16532960D01*
X10679587Y-16532960D02*
X10670063Y-16523436D01*
X10670063Y-16523436D02*
X10660539Y-16504388D01*
X10660539Y-16504388D02*
X10660539Y-16447246D01*
X10660539Y-16447246D02*
X10670063Y-16428198D01*
X10670063Y-16428198D02*
X10679587Y-16418674D01*
X10679587Y-16418674D02*
X10698634Y-16409150D01*
X10698634Y-16409150D02*
X10727206Y-16409150D01*
X10727206Y-16409150D02*
X10746253Y-16418674D01*
X10746253Y-16418674D02*
X10755777Y-16428198D01*
X10755777Y-16428198D02*
X10765301Y-16447246D01*
X10765301Y-16447246D02*
X10765301Y-16504388D01*
X10765301Y-16504388D02*
X10755777Y-16523436D01*
X10755777Y-16523436D02*
X10746253Y-16532960D01*
X10746253Y-16532960D02*
X10727206Y-16542484D01*
X10727206Y-16542484D02*
X10698634Y-16542484D01*
X10879587Y-16542484D02*
X10860539Y-16532960D01*
X10860539Y-16532960D02*
X10851015Y-16513912D01*
X10851015Y-16513912D02*
X10851015Y-16342484D01*
X11031968Y-16532960D02*
X11012920Y-16542484D01*
X11012920Y-16542484D02*
X10974825Y-16542484D01*
X10974825Y-16542484D02*
X10955777Y-16532960D01*
X10955777Y-16532960D02*
X10946253Y-16513912D01*
X10946253Y-16513912D02*
X10946253Y-16437722D01*
X10946253Y-16437722D02*
X10955777Y-16418674D01*
X10955777Y-16418674D02*
X10974825Y-16409150D01*
X10974825Y-16409150D02*
X11012920Y-16409150D01*
X11012920Y-16409150D02*
X11031968Y-16418674D01*
X11031968Y-16418674D02*
X11041492Y-16437722D01*
X11041492Y-16437722D02*
X11041492Y-16456769D01*
X11041492Y-16456769D02*
X10946253Y-16475817D01*
X11117682Y-16532960D02*
X11136730Y-16542484D01*
X11136730Y-16542484D02*
X11174825Y-16542484D01*
X11174825Y-16542484D02*
X11193872Y-16532960D01*
X11193872Y-16532960D02*
X11203396Y-16513912D01*
X11203396Y-16513912D02*
X11203396Y-16504388D01*
X11203396Y-16504388D02*
X11193872Y-16485341D01*
X11193872Y-16485341D02*
X11174825Y-16475817D01*
X11174825Y-16475817D02*
X11146253Y-16475817D01*
X11146253Y-16475817D02*
X11127206Y-16466293D01*
X11127206Y-16466293D02*
X11117682Y-16447246D01*
X11117682Y-16447246D02*
X11117682Y-16437722D01*
X11117682Y-16437722D02*
X11127206Y-16418674D01*
X11127206Y-16418674D02*
X11146253Y-16409150D01*
X11146253Y-16409150D02*
X11174825Y-16409150D01*
X11174825Y-16409150D02*
X11193872Y-16418674D01*
X11270063Y-16618674D02*
X11279587Y-16609150D01*
X11279587Y-16609150D02*
X11298634Y-16580579D01*
X11298634Y-16580579D02*
X11308158Y-16561531D01*
X11308158Y-16561531D02*
X11317682Y-16532960D01*
X11317682Y-16532960D02*
X11327206Y-16485341D01*
X11327206Y-16485341D02*
X11327206Y-16447246D01*
X11327206Y-16447246D02*
X11317682Y-16399627D01*
X11317682Y-16399627D02*
X11308158Y-16371055D01*
X11308158Y-16371055D02*
X11298634Y-16352008D01*
X11298634Y-16352008D02*
X11279587Y-16323436D01*
X11279587Y-16323436D02*
X11270063Y-16313912D01*
D10*
X6395000Y-16665000D02*
X6495000Y-16765000D01*
X6495000Y-16665000D02*
X6395000Y-16765000D01*
X6495000Y-16715000D02*
G75*
G03*
X6495000Y-16715000I-50000J0D01*
G01*
D11*
X6860539Y-16806484D02*
X6746253Y-16806484D01*
X6803396Y-16806484D02*
X6803396Y-16606484D01*
X6803396Y-16606484D02*
X6784348Y-16635055D01*
X6784348Y-16635055D02*
X6765301Y-16654103D01*
X6765301Y-16654103D02*
X6746253Y-16663627D01*
X6946253Y-16787436D02*
X6955777Y-16796960D01*
X6955777Y-16796960D02*
X6946253Y-16806484D01*
X6946253Y-16806484D02*
X6936729Y-16796960D01*
X6936729Y-16796960D02*
X6946253Y-16787436D01*
X6946253Y-16787436D02*
X6946253Y-16806484D01*
X7079586Y-16606484D02*
X7098634Y-16606484D01*
X7098634Y-16606484D02*
X7117682Y-16616008D01*
X7117682Y-16616008D02*
X7127205Y-16625531D01*
X7127205Y-16625531D02*
X7136729Y-16644579D01*
X7136729Y-16644579D02*
X7146253Y-16682674D01*
X7146253Y-16682674D02*
X7146253Y-16730293D01*
X7146253Y-16730293D02*
X7136729Y-16768388D01*
X7136729Y-16768388D02*
X7127205Y-16787436D01*
X7127205Y-16787436D02*
X7117682Y-16796960D01*
X7117682Y-16796960D02*
X7098634Y-16806484D01*
X7098634Y-16806484D02*
X7079586Y-16806484D01*
X7079586Y-16806484D02*
X7060539Y-16796960D01*
X7060539Y-16796960D02*
X7051015Y-16787436D01*
X7051015Y-16787436D02*
X7041491Y-16768388D01*
X7041491Y-16768388D02*
X7031967Y-16730293D01*
X7031967Y-16730293D02*
X7031967Y-16682674D01*
X7031967Y-16682674D02*
X7041491Y-16644579D01*
X7041491Y-16644579D02*
X7051015Y-16625531D01*
X7051015Y-16625531D02*
X7060539Y-16616008D01*
X7060539Y-16616008D02*
X7079586Y-16606484D01*
X7270062Y-16606484D02*
X7289110Y-16606484D01*
X7289110Y-16606484D02*
X7308158Y-16616008D01*
X7308158Y-16616008D02*
X7317682Y-16625531D01*
X7317682Y-16625531D02*
X7327205Y-16644579D01*
X7327205Y-16644579D02*
X7336729Y-16682674D01*
X7336729Y-16682674D02*
X7336729Y-16730293D01*
X7336729Y-16730293D02*
X7327205Y-16768388D01*
X7327205Y-16768388D02*
X7317682Y-16787436D01*
X7317682Y-16787436D02*
X7308158Y-16796960D01*
X7308158Y-16796960D02*
X7289110Y-16806484D01*
X7289110Y-16806484D02*
X7270062Y-16806484D01*
X7270062Y-16806484D02*
X7251015Y-16796960D01*
X7251015Y-16796960D02*
X7241491Y-16787436D01*
X7241491Y-16787436D02*
X7231967Y-16768388D01*
X7231967Y-16768388D02*
X7222443Y-16730293D01*
X7222443Y-16730293D02*
X7222443Y-16682674D01*
X7222443Y-16682674D02*
X7231967Y-16644579D01*
X7231967Y-16644579D02*
X7241491Y-16625531D01*
X7241491Y-16625531D02*
X7251015Y-16616008D01*
X7251015Y-16616008D02*
X7270062Y-16606484D01*
X7460539Y-16606484D02*
X7479586Y-16606484D01*
X7479586Y-16606484D02*
X7498634Y-16616008D01*
X7498634Y-16616008D02*
X7508158Y-16625531D01*
X7508158Y-16625531D02*
X7517682Y-16644579D01*
X7517682Y-16644579D02*
X7527205Y-16682674D01*
X7527205Y-16682674D02*
X7527205Y-16730293D01*
X7527205Y-16730293D02*
X7517682Y-16768388D01*
X7517682Y-16768388D02*
X7508158Y-16787436D01*
X7508158Y-16787436D02*
X7498634Y-16796960D01*
X7498634Y-16796960D02*
X7479586Y-16806484D01*
X7479586Y-16806484D02*
X7460539Y-16806484D01*
X7460539Y-16806484D02*
X7441491Y-16796960D01*
X7441491Y-16796960D02*
X7431967Y-16787436D01*
X7431967Y-16787436D02*
X7422443Y-16768388D01*
X7422443Y-16768388D02*
X7412920Y-16730293D01*
X7412920Y-16730293D02*
X7412920Y-16682674D01*
X7412920Y-16682674D02*
X7422443Y-16644579D01*
X7422443Y-16644579D02*
X7431967Y-16625531D01*
X7431967Y-16625531D02*
X7441491Y-16616008D01*
X7441491Y-16616008D02*
X7460539Y-16606484D01*
X7612920Y-16806484D02*
X7612920Y-16673150D01*
X7612920Y-16692198D02*
X7622443Y-16682674D01*
X7622443Y-16682674D02*
X7641491Y-16673150D01*
X7641491Y-16673150D02*
X7670063Y-16673150D01*
X7670063Y-16673150D02*
X7689110Y-16682674D01*
X7689110Y-16682674D02*
X7698634Y-16701722D01*
X7698634Y-16701722D02*
X7698634Y-16806484D01*
X7698634Y-16701722D02*
X7708158Y-16682674D01*
X7708158Y-16682674D02*
X7727205Y-16673150D01*
X7727205Y-16673150D02*
X7755777Y-16673150D01*
X7755777Y-16673150D02*
X7774824Y-16682674D01*
X7774824Y-16682674D02*
X7784348Y-16701722D01*
X7784348Y-16701722D02*
X7784348Y-16806484D01*
X7879586Y-16806484D02*
X7879586Y-16673150D01*
X7879586Y-16692198D02*
X7889110Y-16682674D01*
X7889110Y-16682674D02*
X7908158Y-16673150D01*
X7908158Y-16673150D02*
X7936729Y-16673150D01*
X7936729Y-16673150D02*
X7955777Y-16682674D01*
X7955777Y-16682674D02*
X7965301Y-16701722D01*
X7965301Y-16701722D02*
X7965301Y-16806484D01*
X7965301Y-16701722D02*
X7974824Y-16682674D01*
X7974824Y-16682674D02*
X7993872Y-16673150D01*
X7993872Y-16673150D02*
X8022443Y-16673150D01*
X8022443Y-16673150D02*
X8041491Y-16682674D01*
X8041491Y-16682674D02*
X8051015Y-16701722D01*
X8051015Y-16701722D02*
X8051015Y-16806484D01*
X8441491Y-16596960D02*
X8270063Y-16854103D01*
X8698634Y-16606484D02*
X8717682Y-16606484D01*
X8717682Y-16606484D02*
X8736729Y-16616008D01*
X8736729Y-16616008D02*
X8746253Y-16625531D01*
X8746253Y-16625531D02*
X8755777Y-16644579D01*
X8755777Y-16644579D02*
X8765301Y-16682674D01*
X8765301Y-16682674D02*
X8765301Y-16730293D01*
X8765301Y-16730293D02*
X8755777Y-16768388D01*
X8755777Y-16768388D02*
X8746253Y-16787436D01*
X8746253Y-16787436D02*
X8736729Y-16796960D01*
X8736729Y-16796960D02*
X8717682Y-16806484D01*
X8717682Y-16806484D02*
X8698634Y-16806484D01*
X8698634Y-16806484D02*
X8679587Y-16796960D01*
X8679587Y-16796960D02*
X8670063Y-16787436D01*
X8670063Y-16787436D02*
X8660539Y-16768388D01*
X8660539Y-16768388D02*
X8651015Y-16730293D01*
X8651015Y-16730293D02*
X8651015Y-16682674D01*
X8651015Y-16682674D02*
X8660539Y-16644579D01*
X8660539Y-16644579D02*
X8670063Y-16625531D01*
X8670063Y-16625531D02*
X8679587Y-16616008D01*
X8679587Y-16616008D02*
X8698634Y-16606484D01*
X8851015Y-16787436D02*
X8860539Y-16796960D01*
X8860539Y-16796960D02*
X8851015Y-16806484D01*
X8851015Y-16806484D02*
X8841491Y-16796960D01*
X8841491Y-16796960D02*
X8851015Y-16787436D01*
X8851015Y-16787436D02*
X8851015Y-16806484D01*
X8984348Y-16606484D02*
X9003396Y-16606484D01*
X9003396Y-16606484D02*
X9022444Y-16616008D01*
X9022444Y-16616008D02*
X9031968Y-16625531D01*
X9031968Y-16625531D02*
X9041491Y-16644579D01*
X9041491Y-16644579D02*
X9051015Y-16682674D01*
X9051015Y-16682674D02*
X9051015Y-16730293D01*
X9051015Y-16730293D02*
X9041491Y-16768388D01*
X9041491Y-16768388D02*
X9031968Y-16787436D01*
X9031968Y-16787436D02*
X9022444Y-16796960D01*
X9022444Y-16796960D02*
X9003396Y-16806484D01*
X9003396Y-16806484D02*
X8984348Y-16806484D01*
X8984348Y-16806484D02*
X8965301Y-16796960D01*
X8965301Y-16796960D02*
X8955777Y-16787436D01*
X8955777Y-16787436D02*
X8946253Y-16768388D01*
X8946253Y-16768388D02*
X8936729Y-16730293D01*
X8936729Y-16730293D02*
X8936729Y-16682674D01*
X8936729Y-16682674D02*
X8946253Y-16644579D01*
X8946253Y-16644579D02*
X8955777Y-16625531D01*
X8955777Y-16625531D02*
X8965301Y-16616008D01*
X8965301Y-16616008D02*
X8984348Y-16606484D01*
X9117682Y-16606484D02*
X9241491Y-16606484D01*
X9241491Y-16606484D02*
X9174825Y-16682674D01*
X9174825Y-16682674D02*
X9203396Y-16682674D01*
X9203396Y-16682674D02*
X9222444Y-16692198D01*
X9222444Y-16692198D02*
X9231968Y-16701722D01*
X9231968Y-16701722D02*
X9241491Y-16720769D01*
X9241491Y-16720769D02*
X9241491Y-16768388D01*
X9241491Y-16768388D02*
X9231968Y-16787436D01*
X9231968Y-16787436D02*
X9222444Y-16796960D01*
X9222444Y-16796960D02*
X9203396Y-16806484D01*
X9203396Y-16806484D02*
X9146253Y-16806484D01*
X9146253Y-16806484D02*
X9127206Y-16796960D01*
X9127206Y-16796960D02*
X9117682Y-16787436D01*
X9336729Y-16806484D02*
X9374825Y-16806484D01*
X9374825Y-16806484D02*
X9393872Y-16796960D01*
X9393872Y-16796960D02*
X9403396Y-16787436D01*
X9403396Y-16787436D02*
X9422444Y-16758865D01*
X9422444Y-16758865D02*
X9431968Y-16720769D01*
X9431968Y-16720769D02*
X9431968Y-16644579D01*
X9431968Y-16644579D02*
X9422444Y-16625531D01*
X9422444Y-16625531D02*
X9412920Y-16616008D01*
X9412920Y-16616008D02*
X9393872Y-16606484D01*
X9393872Y-16606484D02*
X9355777Y-16606484D01*
X9355777Y-16606484D02*
X9336729Y-16616008D01*
X9336729Y-16616008D02*
X9327206Y-16625531D01*
X9327206Y-16625531D02*
X9317682Y-16644579D01*
X9317682Y-16644579D02*
X9317682Y-16692198D01*
X9317682Y-16692198D02*
X9327206Y-16711246D01*
X9327206Y-16711246D02*
X9336729Y-16720769D01*
X9336729Y-16720769D02*
X9355777Y-16730293D01*
X9355777Y-16730293D02*
X9393872Y-16730293D01*
X9393872Y-16730293D02*
X9412920Y-16720769D01*
X9412920Y-16720769D02*
X9422444Y-16711246D01*
X9422444Y-16711246D02*
X9431968Y-16692198D01*
X9603396Y-16673150D02*
X9603396Y-16806484D01*
X9555777Y-16596960D02*
X9508158Y-16739817D01*
X9508158Y-16739817D02*
X9631968Y-16739817D01*
X9698634Y-16606484D02*
X9698634Y-16644579D01*
X9774825Y-16606484D02*
X9774825Y-16644579D01*
X10070063Y-16882674D02*
X10060539Y-16873150D01*
X10060539Y-16873150D02*
X10041491Y-16844579D01*
X10041491Y-16844579D02*
X10031968Y-16825531D01*
X10031968Y-16825531D02*
X10022444Y-16796960D01*
X10022444Y-16796960D02*
X10012920Y-16749341D01*
X10012920Y-16749341D02*
X10012920Y-16711246D01*
X10012920Y-16711246D02*
X10022444Y-16663627D01*
X10022444Y-16663627D02*
X10031968Y-16635055D01*
X10031968Y-16635055D02*
X10041491Y-16616008D01*
X10041491Y-16616008D02*
X10060539Y-16587436D01*
X10060539Y-16587436D02*
X10070063Y-16577912D01*
X10251015Y-16806484D02*
X10136730Y-16806484D01*
X10193872Y-16806484D02*
X10193872Y-16606484D01*
X10193872Y-16606484D02*
X10174825Y-16635055D01*
X10174825Y-16635055D02*
X10155777Y-16654103D01*
X10155777Y-16654103D02*
X10136730Y-16663627D01*
X10346253Y-16806484D02*
X10384349Y-16806484D01*
X10384349Y-16806484D02*
X10403396Y-16796960D01*
X10403396Y-16796960D02*
X10412920Y-16787436D01*
X10412920Y-16787436D02*
X10431968Y-16758865D01*
X10431968Y-16758865D02*
X10441491Y-16720769D01*
X10441491Y-16720769D02*
X10441491Y-16644579D01*
X10441491Y-16644579D02*
X10431968Y-16625531D01*
X10431968Y-16625531D02*
X10422444Y-16616008D01*
X10422444Y-16616008D02*
X10403396Y-16606484D01*
X10403396Y-16606484D02*
X10365301Y-16606484D01*
X10365301Y-16606484D02*
X10346253Y-16616008D01*
X10346253Y-16616008D02*
X10336730Y-16625531D01*
X10336730Y-16625531D02*
X10327206Y-16644579D01*
X10327206Y-16644579D02*
X10327206Y-16692198D01*
X10327206Y-16692198D02*
X10336730Y-16711246D01*
X10336730Y-16711246D02*
X10346253Y-16720769D01*
X10346253Y-16720769D02*
X10365301Y-16730293D01*
X10365301Y-16730293D02*
X10403396Y-16730293D01*
X10403396Y-16730293D02*
X10422444Y-16720769D01*
X10422444Y-16720769D02*
X10431968Y-16711246D01*
X10431968Y-16711246D02*
X10441491Y-16692198D01*
X10679587Y-16806484D02*
X10679587Y-16606484D01*
X10765301Y-16806484D02*
X10765301Y-16701722D01*
X10765301Y-16701722D02*
X10755777Y-16682674D01*
X10755777Y-16682674D02*
X10736730Y-16673150D01*
X10736730Y-16673150D02*
X10708158Y-16673150D01*
X10708158Y-16673150D02*
X10689111Y-16682674D01*
X10689111Y-16682674D02*
X10679587Y-16692198D01*
X10889111Y-16806484D02*
X10870063Y-16796960D01*
X10870063Y-16796960D02*
X10860539Y-16787436D01*
X10860539Y-16787436D02*
X10851015Y-16768388D01*
X10851015Y-16768388D02*
X10851015Y-16711246D01*
X10851015Y-16711246D02*
X10860539Y-16692198D01*
X10860539Y-16692198D02*
X10870063Y-16682674D01*
X10870063Y-16682674D02*
X10889111Y-16673150D01*
X10889111Y-16673150D02*
X10917682Y-16673150D01*
X10917682Y-16673150D02*
X10936730Y-16682674D01*
X10936730Y-16682674D02*
X10946253Y-16692198D01*
X10946253Y-16692198D02*
X10955777Y-16711246D01*
X10955777Y-16711246D02*
X10955777Y-16768388D01*
X10955777Y-16768388D02*
X10946253Y-16787436D01*
X10946253Y-16787436D02*
X10936730Y-16796960D01*
X10936730Y-16796960D02*
X10917682Y-16806484D01*
X10917682Y-16806484D02*
X10889111Y-16806484D01*
X11070063Y-16806484D02*
X11051015Y-16796960D01*
X11051015Y-16796960D02*
X11041492Y-16777912D01*
X11041492Y-16777912D02*
X11041492Y-16606484D01*
X11222444Y-16796960D02*
X11203396Y-16806484D01*
X11203396Y-16806484D02*
X11165301Y-16806484D01*
X11165301Y-16806484D02*
X11146253Y-16796960D01*
X11146253Y-16796960D02*
X11136730Y-16777912D01*
X11136730Y-16777912D02*
X11136730Y-16701722D01*
X11136730Y-16701722D02*
X11146253Y-16682674D01*
X11146253Y-16682674D02*
X11165301Y-16673150D01*
X11165301Y-16673150D02*
X11203396Y-16673150D01*
X11203396Y-16673150D02*
X11222444Y-16682674D01*
X11222444Y-16682674D02*
X11231968Y-16701722D01*
X11231968Y-16701722D02*
X11231968Y-16720769D01*
X11231968Y-16720769D02*
X11136730Y-16739817D01*
X11308158Y-16796960D02*
X11327206Y-16806484D01*
X11327206Y-16806484D02*
X11365301Y-16806484D01*
X11365301Y-16806484D02*
X11384349Y-16796960D01*
X11384349Y-16796960D02*
X11393872Y-16777912D01*
X11393872Y-16777912D02*
X11393872Y-16768388D01*
X11393872Y-16768388D02*
X11384349Y-16749341D01*
X11384349Y-16749341D02*
X11365301Y-16739817D01*
X11365301Y-16739817D02*
X11336730Y-16739817D01*
X11336730Y-16739817D02*
X11317682Y-16730293D01*
X11317682Y-16730293D02*
X11308158Y-16711246D01*
X11308158Y-16711246D02*
X11308158Y-16701722D01*
X11308158Y-16701722D02*
X11317682Y-16682674D01*
X11317682Y-16682674D02*
X11336730Y-16673150D01*
X11336730Y-16673150D02*
X11365301Y-16673150D01*
X11365301Y-16673150D02*
X11384349Y-16682674D01*
X11460539Y-16882674D02*
X11470063Y-16873150D01*
X11470063Y-16873150D02*
X11489111Y-16844579D01*
X11489111Y-16844579D02*
X11498634Y-16825531D01*
X11498634Y-16825531D02*
X11508158Y-16796960D01*
X11508158Y-16796960D02*
X11517682Y-16749341D01*
X11517682Y-16749341D02*
X11517682Y-16711246D01*
X11517682Y-16711246D02*
X11508158Y-16663627D01*
X11508158Y-16663627D02*
X11498634Y-16635055D01*
X11498634Y-16635055D02*
X11489111Y-16616008D01*
X11489111Y-16616008D02*
X11470063Y-16587436D01*
X11470063Y-16587436D02*
X11460539Y-16577912D01*
D17*
X6393400Y-16928200D02*
X6495000Y-17029800D01*
X6495000Y-16928200D02*
X6393400Y-17029800D01*
X6444200Y-16928200D02*
X6444200Y-17029800D01*
X6393400Y-16979000D02*
X6495000Y-16979000D01*
D11*
X6860539Y-17070484D02*
X6746253Y-17070484D01*
X6803396Y-17070484D02*
X6803396Y-16870484D01*
X6803396Y-16870484D02*
X6784348Y-16899055D01*
X6784348Y-16899055D02*
X6765301Y-16918103D01*
X6765301Y-16918103D02*
X6746253Y-16927627D01*
X6946253Y-17051436D02*
X6955777Y-17060960D01*
X6955777Y-17060960D02*
X6946253Y-17070484D01*
X6946253Y-17070484D02*
X6936729Y-17060960D01*
X6936729Y-17060960D02*
X6946253Y-17051436D01*
X6946253Y-17051436D02*
X6946253Y-17070484D01*
X7079586Y-16870484D02*
X7098634Y-16870484D01*
X7098634Y-16870484D02*
X7117682Y-16880008D01*
X7117682Y-16880008D02*
X7127205Y-16889531D01*
X7127205Y-16889531D02*
X7136729Y-16908579D01*
X7136729Y-16908579D02*
X7146253Y-16946674D01*
X7146253Y-16946674D02*
X7146253Y-16994293D01*
X7146253Y-16994293D02*
X7136729Y-17032389D01*
X7136729Y-17032389D02*
X7127205Y-17051436D01*
X7127205Y-17051436D02*
X7117682Y-17060960D01*
X7117682Y-17060960D02*
X7098634Y-17070484D01*
X7098634Y-17070484D02*
X7079586Y-17070484D01*
X7079586Y-17070484D02*
X7060539Y-17060960D01*
X7060539Y-17060960D02*
X7051015Y-17051436D01*
X7051015Y-17051436D02*
X7041491Y-17032389D01*
X7041491Y-17032389D02*
X7031967Y-16994293D01*
X7031967Y-16994293D02*
X7031967Y-16946674D01*
X7031967Y-16946674D02*
X7041491Y-16908579D01*
X7041491Y-16908579D02*
X7051015Y-16889531D01*
X7051015Y-16889531D02*
X7060539Y-16880008D01*
X7060539Y-16880008D02*
X7079586Y-16870484D01*
X7336729Y-17070484D02*
X7222443Y-17070484D01*
X7279586Y-17070484D02*
X7279586Y-16870484D01*
X7279586Y-16870484D02*
X7260539Y-16899055D01*
X7260539Y-16899055D02*
X7241491Y-16918103D01*
X7241491Y-16918103D02*
X7222443Y-16927627D01*
X7508158Y-16870484D02*
X7470062Y-16870484D01*
X7470062Y-16870484D02*
X7451015Y-16880008D01*
X7451015Y-16880008D02*
X7441491Y-16889531D01*
X7441491Y-16889531D02*
X7422443Y-16918103D01*
X7422443Y-16918103D02*
X7412920Y-16956198D01*
X7412920Y-16956198D02*
X7412920Y-17032389D01*
X7412920Y-17032389D02*
X7422443Y-17051436D01*
X7422443Y-17051436D02*
X7431967Y-17060960D01*
X7431967Y-17060960D02*
X7451015Y-17070484D01*
X7451015Y-17070484D02*
X7489110Y-17070484D01*
X7489110Y-17070484D02*
X7508158Y-17060960D01*
X7508158Y-17060960D02*
X7517682Y-17051436D01*
X7517682Y-17051436D02*
X7527205Y-17032389D01*
X7527205Y-17032389D02*
X7527205Y-16984770D01*
X7527205Y-16984770D02*
X7517682Y-16965722D01*
X7517682Y-16965722D02*
X7508158Y-16956198D01*
X7508158Y-16956198D02*
X7489110Y-16946674D01*
X7489110Y-16946674D02*
X7451015Y-16946674D01*
X7451015Y-16946674D02*
X7431967Y-16956198D01*
X7431967Y-16956198D02*
X7422443Y-16965722D01*
X7422443Y-16965722D02*
X7412920Y-16984770D01*
X7612920Y-17070484D02*
X7612920Y-16937150D01*
X7612920Y-16956198D02*
X7622443Y-16946674D01*
X7622443Y-16946674D02*
X7641491Y-16937150D01*
X7641491Y-16937150D02*
X7670063Y-16937150D01*
X7670063Y-16937150D02*
X7689110Y-16946674D01*
X7689110Y-16946674D02*
X7698634Y-16965722D01*
X7698634Y-16965722D02*
X7698634Y-17070484D01*
X7698634Y-16965722D02*
X7708158Y-16946674D01*
X7708158Y-16946674D02*
X7727205Y-16937150D01*
X7727205Y-16937150D02*
X7755777Y-16937150D01*
X7755777Y-16937150D02*
X7774824Y-16946674D01*
X7774824Y-16946674D02*
X7784348Y-16965722D01*
X7784348Y-16965722D02*
X7784348Y-17070484D01*
X7879586Y-17070484D02*
X7879586Y-16937150D01*
X7879586Y-16956198D02*
X7889110Y-16946674D01*
X7889110Y-16946674D02*
X7908158Y-16937150D01*
X7908158Y-16937150D02*
X7936729Y-16937150D01*
X7936729Y-16937150D02*
X7955777Y-16946674D01*
X7955777Y-16946674D02*
X7965301Y-16965722D01*
X7965301Y-16965722D02*
X7965301Y-17070484D01*
X7965301Y-16965722D02*
X7974824Y-16946674D01*
X7974824Y-16946674D02*
X7993872Y-16937150D01*
X7993872Y-16937150D02*
X8022443Y-16937150D01*
X8022443Y-16937150D02*
X8041491Y-16946674D01*
X8041491Y-16946674D02*
X8051015Y-16965722D01*
X8051015Y-16965722D02*
X8051015Y-17070484D01*
X8441491Y-16860960D02*
X8270063Y-17118103D01*
X8698634Y-16870484D02*
X8717682Y-16870484D01*
X8717682Y-16870484D02*
X8736729Y-16880008D01*
X8736729Y-16880008D02*
X8746253Y-16889531D01*
X8746253Y-16889531D02*
X8755777Y-16908579D01*
X8755777Y-16908579D02*
X8765301Y-16946674D01*
X8765301Y-16946674D02*
X8765301Y-16994293D01*
X8765301Y-16994293D02*
X8755777Y-17032389D01*
X8755777Y-17032389D02*
X8746253Y-17051436D01*
X8746253Y-17051436D02*
X8736729Y-17060960D01*
X8736729Y-17060960D02*
X8717682Y-17070484D01*
X8717682Y-17070484D02*
X8698634Y-17070484D01*
X8698634Y-17070484D02*
X8679587Y-17060960D01*
X8679587Y-17060960D02*
X8670063Y-17051436D01*
X8670063Y-17051436D02*
X8660539Y-17032389D01*
X8660539Y-17032389D02*
X8651015Y-16994293D01*
X8651015Y-16994293D02*
X8651015Y-16946674D01*
X8651015Y-16946674D02*
X8660539Y-16908579D01*
X8660539Y-16908579D02*
X8670063Y-16889531D01*
X8670063Y-16889531D02*
X8679587Y-16880008D01*
X8679587Y-16880008D02*
X8698634Y-16870484D01*
X8851015Y-17051436D02*
X8860539Y-17060960D01*
X8860539Y-17060960D02*
X8851015Y-17070484D01*
X8851015Y-17070484D02*
X8841491Y-17060960D01*
X8841491Y-17060960D02*
X8851015Y-17051436D01*
X8851015Y-17051436D02*
X8851015Y-17070484D01*
X8984348Y-16870484D02*
X9003396Y-16870484D01*
X9003396Y-16870484D02*
X9022444Y-16880008D01*
X9022444Y-16880008D02*
X9031968Y-16889531D01*
X9031968Y-16889531D02*
X9041491Y-16908579D01*
X9041491Y-16908579D02*
X9051015Y-16946674D01*
X9051015Y-16946674D02*
X9051015Y-16994293D01*
X9051015Y-16994293D02*
X9041491Y-17032389D01*
X9041491Y-17032389D02*
X9031968Y-17051436D01*
X9031968Y-17051436D02*
X9022444Y-17060960D01*
X9022444Y-17060960D02*
X9003396Y-17070484D01*
X9003396Y-17070484D02*
X8984348Y-17070484D01*
X8984348Y-17070484D02*
X8965301Y-17060960D01*
X8965301Y-17060960D02*
X8955777Y-17051436D01*
X8955777Y-17051436D02*
X8946253Y-17032389D01*
X8946253Y-17032389D02*
X8936729Y-16994293D01*
X8936729Y-16994293D02*
X8936729Y-16946674D01*
X8936729Y-16946674D02*
X8946253Y-16908579D01*
X8946253Y-16908579D02*
X8955777Y-16889531D01*
X8955777Y-16889531D02*
X8965301Y-16880008D01*
X8965301Y-16880008D02*
X8984348Y-16870484D01*
X9222444Y-16937150D02*
X9222444Y-17070484D01*
X9174825Y-16860960D02*
X9127206Y-17003817D01*
X9127206Y-17003817D02*
X9251015Y-17003817D01*
X9365301Y-16870484D02*
X9384349Y-16870484D01*
X9384349Y-16870484D02*
X9403396Y-16880008D01*
X9403396Y-16880008D02*
X9412920Y-16889531D01*
X9412920Y-16889531D02*
X9422444Y-16908579D01*
X9422444Y-16908579D02*
X9431968Y-16946674D01*
X9431968Y-16946674D02*
X9431968Y-16994293D01*
X9431968Y-16994293D02*
X9422444Y-17032389D01*
X9422444Y-17032389D02*
X9412920Y-17051436D01*
X9412920Y-17051436D02*
X9403396Y-17060960D01*
X9403396Y-17060960D02*
X9384349Y-17070484D01*
X9384349Y-17070484D02*
X9365301Y-17070484D01*
X9365301Y-17070484D02*
X9346253Y-17060960D01*
X9346253Y-17060960D02*
X9336729Y-17051436D01*
X9336729Y-17051436D02*
X9327206Y-17032389D01*
X9327206Y-17032389D02*
X9317682Y-16994293D01*
X9317682Y-16994293D02*
X9317682Y-16946674D01*
X9317682Y-16946674D02*
X9327206Y-16908579D01*
X9327206Y-16908579D02*
X9336729Y-16889531D01*
X9336729Y-16889531D02*
X9346253Y-16880008D01*
X9346253Y-16880008D02*
X9365301Y-16870484D01*
X9555777Y-16870484D02*
X9574825Y-16870484D01*
X9574825Y-16870484D02*
X9593872Y-16880008D01*
X9593872Y-16880008D02*
X9603396Y-16889531D01*
X9603396Y-16889531D02*
X9612920Y-16908579D01*
X9612920Y-16908579D02*
X9622444Y-16946674D01*
X9622444Y-16946674D02*
X9622444Y-16994293D01*
X9622444Y-16994293D02*
X9612920Y-17032389D01*
X9612920Y-17032389D02*
X9603396Y-17051436D01*
X9603396Y-17051436D02*
X9593872Y-17060960D01*
X9593872Y-17060960D02*
X9574825Y-17070484D01*
X9574825Y-17070484D02*
X9555777Y-17070484D01*
X9555777Y-17070484D02*
X9536729Y-17060960D01*
X9536729Y-17060960D02*
X9527206Y-17051436D01*
X9527206Y-17051436D02*
X9517682Y-17032389D01*
X9517682Y-17032389D02*
X9508158Y-16994293D01*
X9508158Y-16994293D02*
X9508158Y-16946674D01*
X9508158Y-16946674D02*
X9517682Y-16908579D01*
X9517682Y-16908579D02*
X9527206Y-16889531D01*
X9527206Y-16889531D02*
X9536729Y-16880008D01*
X9536729Y-16880008D02*
X9555777Y-16870484D01*
X9698634Y-16870484D02*
X9698634Y-16908579D01*
X9774825Y-16870484D02*
X9774825Y-16908579D01*
X10070063Y-17146674D02*
X10060539Y-17137150D01*
X10060539Y-17137150D02*
X10041491Y-17108579D01*
X10041491Y-17108579D02*
X10031968Y-17089531D01*
X10031968Y-17089531D02*
X10022444Y-17060960D01*
X10022444Y-17060960D02*
X10012920Y-17013341D01*
X10012920Y-17013341D02*
X10012920Y-16975246D01*
X10012920Y-16975246D02*
X10022444Y-16927627D01*
X10022444Y-16927627D02*
X10031968Y-16899055D01*
X10031968Y-16899055D02*
X10041491Y-16880008D01*
X10041491Y-16880008D02*
X10060539Y-16851436D01*
X10060539Y-16851436D02*
X10070063Y-16841912D01*
X10251015Y-17070484D02*
X10136730Y-17070484D01*
X10193872Y-17070484D02*
X10193872Y-16870484D01*
X10193872Y-16870484D02*
X10174825Y-16899055D01*
X10174825Y-16899055D02*
X10155777Y-16918103D01*
X10155777Y-16918103D02*
X10136730Y-16927627D01*
X10374825Y-16870484D02*
X10393872Y-16870484D01*
X10393872Y-16870484D02*
X10412920Y-16880008D01*
X10412920Y-16880008D02*
X10422444Y-16889531D01*
X10422444Y-16889531D02*
X10431968Y-16908579D01*
X10431968Y-16908579D02*
X10441491Y-16946674D01*
X10441491Y-16946674D02*
X10441491Y-16994293D01*
X10441491Y-16994293D02*
X10431968Y-17032389D01*
X10431968Y-17032389D02*
X10422444Y-17051436D01*
X10422444Y-17051436D02*
X10412920Y-17060960D01*
X10412920Y-17060960D02*
X10393872Y-17070484D01*
X10393872Y-17070484D02*
X10374825Y-17070484D01*
X10374825Y-17070484D02*
X10355777Y-17060960D01*
X10355777Y-17060960D02*
X10346253Y-17051436D01*
X10346253Y-17051436D02*
X10336730Y-17032389D01*
X10336730Y-17032389D02*
X10327206Y-16994293D01*
X10327206Y-16994293D02*
X10327206Y-16946674D01*
X10327206Y-16946674D02*
X10336730Y-16908579D01*
X10336730Y-16908579D02*
X10346253Y-16889531D01*
X10346253Y-16889531D02*
X10355777Y-16880008D01*
X10355777Y-16880008D02*
X10374825Y-16870484D01*
X10679587Y-17070484D02*
X10679587Y-16870484D01*
X10765301Y-17070484D02*
X10765301Y-16965722D01*
X10765301Y-16965722D02*
X10755777Y-16946674D01*
X10755777Y-16946674D02*
X10736730Y-16937150D01*
X10736730Y-16937150D02*
X10708158Y-16937150D01*
X10708158Y-16937150D02*
X10689111Y-16946674D01*
X10689111Y-16946674D02*
X10679587Y-16956198D01*
X10889111Y-17070484D02*
X10870063Y-17060960D01*
X10870063Y-17060960D02*
X10860539Y-17051436D01*
X10860539Y-17051436D02*
X10851015Y-17032389D01*
X10851015Y-17032389D02*
X10851015Y-16975246D01*
X10851015Y-16975246D02*
X10860539Y-16956198D01*
X10860539Y-16956198D02*
X10870063Y-16946674D01*
X10870063Y-16946674D02*
X10889111Y-16937150D01*
X10889111Y-16937150D02*
X10917682Y-16937150D01*
X10917682Y-16937150D02*
X10936730Y-16946674D01*
X10936730Y-16946674D02*
X10946253Y-16956198D01*
X10946253Y-16956198D02*
X10955777Y-16975246D01*
X10955777Y-16975246D02*
X10955777Y-17032389D01*
X10955777Y-17032389D02*
X10946253Y-17051436D01*
X10946253Y-17051436D02*
X10936730Y-17060960D01*
X10936730Y-17060960D02*
X10917682Y-17070484D01*
X10917682Y-17070484D02*
X10889111Y-17070484D01*
X11070063Y-17070484D02*
X11051015Y-17060960D01*
X11051015Y-17060960D02*
X11041492Y-17041912D01*
X11041492Y-17041912D02*
X11041492Y-16870484D01*
X11222444Y-17060960D02*
X11203396Y-17070484D01*
X11203396Y-17070484D02*
X11165301Y-17070484D01*
X11165301Y-17070484D02*
X11146253Y-17060960D01*
X11146253Y-17060960D02*
X11136730Y-17041912D01*
X11136730Y-17041912D02*
X11136730Y-16965722D01*
X11136730Y-16965722D02*
X11146253Y-16946674D01*
X11146253Y-16946674D02*
X11165301Y-16937150D01*
X11165301Y-16937150D02*
X11203396Y-16937150D01*
X11203396Y-16937150D02*
X11222444Y-16946674D01*
X11222444Y-16946674D02*
X11231968Y-16965722D01*
X11231968Y-16965722D02*
X11231968Y-16984770D01*
X11231968Y-16984770D02*
X11136730Y-17003817D01*
X11308158Y-17060960D02*
X11327206Y-17070484D01*
X11327206Y-17070484D02*
X11365301Y-17070484D01*
X11365301Y-17070484D02*
X11384349Y-17060960D01*
X11384349Y-17060960D02*
X11393872Y-17041912D01*
X11393872Y-17041912D02*
X11393872Y-17032389D01*
X11393872Y-17032389D02*
X11384349Y-17013341D01*
X11384349Y-17013341D02*
X11365301Y-17003817D01*
X11365301Y-17003817D02*
X11336730Y-17003817D01*
X11336730Y-17003817D02*
X11317682Y-16994293D01*
X11317682Y-16994293D02*
X11308158Y-16975246D01*
X11308158Y-16975246D02*
X11308158Y-16965722D01*
X11308158Y-16965722D02*
X11317682Y-16946674D01*
X11317682Y-16946674D02*
X11336730Y-16937150D01*
X11336730Y-16937150D02*
X11365301Y-16937150D01*
X11365301Y-16937150D02*
X11384349Y-16946674D01*
X11460539Y-17146674D02*
X11470063Y-17137150D01*
X11470063Y-17137150D02*
X11489111Y-17108579D01*
X11489111Y-17108579D02*
X11498634Y-17089531D01*
X11498634Y-17089531D02*
X11508158Y-17060960D01*
X11508158Y-17060960D02*
X11517682Y-17013341D01*
X11517682Y-17013341D02*
X11517682Y-16975246D01*
X11517682Y-16975246D02*
X11508158Y-16927627D01*
X11508158Y-16927627D02*
X11498634Y-16899055D01*
X11498634Y-16899055D02*
X11489111Y-16880008D01*
X11489111Y-16880008D02*
X11470063Y-16851436D01*
X11470063Y-16851436D02*
X11460539Y-16841912D01*
X6295000Y-17143000D02*
X6495000Y-17343000D01*
X6495000Y-17143000D02*
X6295000Y-17343000D01*
X6465711Y-17313711D02*
X6465711Y-17172289D01*
X6324289Y-17172289D01*
X6324289Y-17313711D01*
X6465711Y-17313711D01*
X6746253Y-17153531D02*
X6755777Y-17144008D01*
X6755777Y-17144008D02*
X6774824Y-17134484D01*
X6774824Y-17134484D02*
X6822443Y-17134484D01*
X6822443Y-17134484D02*
X6841491Y-17144008D01*
X6841491Y-17144008D02*
X6851015Y-17153531D01*
X6851015Y-17153531D02*
X6860539Y-17172579D01*
X6860539Y-17172579D02*
X6860539Y-17191627D01*
X6860539Y-17191627D02*
X6851015Y-17220198D01*
X6851015Y-17220198D02*
X6736729Y-17334484D01*
X6736729Y-17334484D02*
X6860539Y-17334484D01*
X6946253Y-17315436D02*
X6955777Y-17324960D01*
X6955777Y-17324960D02*
X6946253Y-17334484D01*
X6946253Y-17334484D02*
X6936729Y-17324960D01*
X6936729Y-17324960D02*
X6946253Y-17315436D01*
X6946253Y-17315436D02*
X6946253Y-17334484D01*
X7022443Y-17134484D02*
X7155777Y-17134484D01*
X7155777Y-17134484D02*
X7070062Y-17334484D01*
X7270062Y-17134484D02*
X7289110Y-17134484D01*
X7289110Y-17134484D02*
X7308158Y-17144008D01*
X7308158Y-17144008D02*
X7317682Y-17153531D01*
X7317682Y-17153531D02*
X7327205Y-17172579D01*
X7327205Y-17172579D02*
X7336729Y-17210674D01*
X7336729Y-17210674D02*
X7336729Y-17258293D01*
X7336729Y-17258293D02*
X7327205Y-17296389D01*
X7327205Y-17296389D02*
X7317682Y-17315436D01*
X7317682Y-17315436D02*
X7308158Y-17324960D01*
X7308158Y-17324960D02*
X7289110Y-17334484D01*
X7289110Y-17334484D02*
X7270062Y-17334484D01*
X7270062Y-17334484D02*
X7251015Y-17324960D01*
X7251015Y-17324960D02*
X7241491Y-17315436D01*
X7241491Y-17315436D02*
X7231967Y-17296389D01*
X7231967Y-17296389D02*
X7222443Y-17258293D01*
X7222443Y-17258293D02*
X7222443Y-17210674D01*
X7222443Y-17210674D02*
X7231967Y-17172579D01*
X7231967Y-17172579D02*
X7241491Y-17153531D01*
X7241491Y-17153531D02*
X7251015Y-17144008D01*
X7251015Y-17144008D02*
X7270062Y-17134484D01*
X7460539Y-17134484D02*
X7479586Y-17134484D01*
X7479586Y-17134484D02*
X7498634Y-17144008D01*
X7498634Y-17144008D02*
X7508158Y-17153531D01*
X7508158Y-17153531D02*
X7517682Y-17172579D01*
X7517682Y-17172579D02*
X7527205Y-17210674D01*
X7527205Y-17210674D02*
X7527205Y-17258293D01*
X7527205Y-17258293D02*
X7517682Y-17296389D01*
X7517682Y-17296389D02*
X7508158Y-17315436D01*
X7508158Y-17315436D02*
X7498634Y-17324960D01*
X7498634Y-17324960D02*
X7479586Y-17334484D01*
X7479586Y-17334484D02*
X7460539Y-17334484D01*
X7460539Y-17334484D02*
X7441491Y-17324960D01*
X7441491Y-17324960D02*
X7431967Y-17315436D01*
X7431967Y-17315436D02*
X7422443Y-17296389D01*
X7422443Y-17296389D02*
X7412920Y-17258293D01*
X7412920Y-17258293D02*
X7412920Y-17210674D01*
X7412920Y-17210674D02*
X7422443Y-17172579D01*
X7422443Y-17172579D02*
X7431967Y-17153531D01*
X7431967Y-17153531D02*
X7441491Y-17144008D01*
X7441491Y-17144008D02*
X7460539Y-17134484D01*
X7612920Y-17334484D02*
X7612920Y-17201150D01*
X7612920Y-17220198D02*
X7622443Y-17210674D01*
X7622443Y-17210674D02*
X7641491Y-17201150D01*
X7641491Y-17201150D02*
X7670063Y-17201150D01*
X7670063Y-17201150D02*
X7689110Y-17210674D01*
X7689110Y-17210674D02*
X7698634Y-17229722D01*
X7698634Y-17229722D02*
X7698634Y-17334484D01*
X7698634Y-17229722D02*
X7708158Y-17210674D01*
X7708158Y-17210674D02*
X7727205Y-17201150D01*
X7727205Y-17201150D02*
X7755777Y-17201150D01*
X7755777Y-17201150D02*
X7774824Y-17210674D01*
X7774824Y-17210674D02*
X7784348Y-17229722D01*
X7784348Y-17229722D02*
X7784348Y-17334484D01*
X7879586Y-17334484D02*
X7879586Y-17201150D01*
X7879586Y-17220198D02*
X7889110Y-17210674D01*
X7889110Y-17210674D02*
X7908158Y-17201150D01*
X7908158Y-17201150D02*
X7936729Y-17201150D01*
X7936729Y-17201150D02*
X7955777Y-17210674D01*
X7955777Y-17210674D02*
X7965301Y-17229722D01*
X7965301Y-17229722D02*
X7965301Y-17334484D01*
X7965301Y-17229722D02*
X7974824Y-17210674D01*
X7974824Y-17210674D02*
X7993872Y-17201150D01*
X7993872Y-17201150D02*
X8022443Y-17201150D01*
X8022443Y-17201150D02*
X8041491Y-17210674D01*
X8041491Y-17210674D02*
X8051015Y-17229722D01*
X8051015Y-17229722D02*
X8051015Y-17334484D01*
X8441491Y-17124960D02*
X8270063Y-17382103D01*
X8698634Y-17134484D02*
X8717682Y-17134484D01*
X8717682Y-17134484D02*
X8736729Y-17144008D01*
X8736729Y-17144008D02*
X8746253Y-17153531D01*
X8746253Y-17153531D02*
X8755777Y-17172579D01*
X8755777Y-17172579D02*
X8765301Y-17210674D01*
X8765301Y-17210674D02*
X8765301Y-17258293D01*
X8765301Y-17258293D02*
X8755777Y-17296389D01*
X8755777Y-17296389D02*
X8746253Y-17315436D01*
X8746253Y-17315436D02*
X8736729Y-17324960D01*
X8736729Y-17324960D02*
X8717682Y-17334484D01*
X8717682Y-17334484D02*
X8698634Y-17334484D01*
X8698634Y-17334484D02*
X8679587Y-17324960D01*
X8679587Y-17324960D02*
X8670063Y-17315436D01*
X8670063Y-17315436D02*
X8660539Y-17296389D01*
X8660539Y-17296389D02*
X8651015Y-17258293D01*
X8651015Y-17258293D02*
X8651015Y-17210674D01*
X8651015Y-17210674D02*
X8660539Y-17172579D01*
X8660539Y-17172579D02*
X8670063Y-17153531D01*
X8670063Y-17153531D02*
X8679587Y-17144008D01*
X8679587Y-17144008D02*
X8698634Y-17134484D01*
X8851015Y-17315436D02*
X8860539Y-17324960D01*
X8860539Y-17324960D02*
X8851015Y-17334484D01*
X8851015Y-17334484D02*
X8841491Y-17324960D01*
X8841491Y-17324960D02*
X8851015Y-17315436D01*
X8851015Y-17315436D02*
X8851015Y-17334484D01*
X9051015Y-17334484D02*
X8936729Y-17334484D01*
X8993872Y-17334484D02*
X8993872Y-17134484D01*
X8993872Y-17134484D02*
X8974825Y-17163055D01*
X8974825Y-17163055D02*
X8955777Y-17182103D01*
X8955777Y-17182103D02*
X8936729Y-17191627D01*
X9174825Y-17134484D02*
X9193872Y-17134484D01*
X9193872Y-17134484D02*
X9212920Y-17144008D01*
X9212920Y-17144008D02*
X9222444Y-17153531D01*
X9222444Y-17153531D02*
X9231968Y-17172579D01*
X9231968Y-17172579D02*
X9241491Y-17210674D01*
X9241491Y-17210674D02*
X9241491Y-17258293D01*
X9241491Y-17258293D02*
X9231968Y-17296389D01*
X9231968Y-17296389D02*
X9222444Y-17315436D01*
X9222444Y-17315436D02*
X9212920Y-17324960D01*
X9212920Y-17324960D02*
X9193872Y-17334484D01*
X9193872Y-17334484D02*
X9174825Y-17334484D01*
X9174825Y-17334484D02*
X9155777Y-17324960D01*
X9155777Y-17324960D02*
X9146253Y-17315436D01*
X9146253Y-17315436D02*
X9136729Y-17296389D01*
X9136729Y-17296389D02*
X9127206Y-17258293D01*
X9127206Y-17258293D02*
X9127206Y-17210674D01*
X9127206Y-17210674D02*
X9136729Y-17172579D01*
X9136729Y-17172579D02*
X9146253Y-17153531D01*
X9146253Y-17153531D02*
X9155777Y-17144008D01*
X9155777Y-17144008D02*
X9174825Y-17134484D01*
X9412920Y-17134484D02*
X9374825Y-17134484D01*
X9374825Y-17134484D02*
X9355777Y-17144008D01*
X9355777Y-17144008D02*
X9346253Y-17153531D01*
X9346253Y-17153531D02*
X9327206Y-17182103D01*
X9327206Y-17182103D02*
X9317682Y-17220198D01*
X9317682Y-17220198D02*
X9317682Y-17296389D01*
X9317682Y-17296389D02*
X9327206Y-17315436D01*
X9327206Y-17315436D02*
X9336729Y-17324960D01*
X9336729Y-17324960D02*
X9355777Y-17334484D01*
X9355777Y-17334484D02*
X9393872Y-17334484D01*
X9393872Y-17334484D02*
X9412920Y-17324960D01*
X9412920Y-17324960D02*
X9422444Y-17315436D01*
X9422444Y-17315436D02*
X9431968Y-17296389D01*
X9431968Y-17296389D02*
X9431968Y-17248770D01*
X9431968Y-17248770D02*
X9422444Y-17229722D01*
X9422444Y-17229722D02*
X9412920Y-17220198D01*
X9412920Y-17220198D02*
X9393872Y-17210674D01*
X9393872Y-17210674D02*
X9355777Y-17210674D01*
X9355777Y-17210674D02*
X9336729Y-17220198D01*
X9336729Y-17220198D02*
X9327206Y-17229722D01*
X9327206Y-17229722D02*
X9317682Y-17248770D01*
X9498634Y-17134484D02*
X9622444Y-17134484D01*
X9622444Y-17134484D02*
X9555777Y-17210674D01*
X9555777Y-17210674D02*
X9584349Y-17210674D01*
X9584349Y-17210674D02*
X9603396Y-17220198D01*
X9603396Y-17220198D02*
X9612920Y-17229722D01*
X9612920Y-17229722D02*
X9622444Y-17248770D01*
X9622444Y-17248770D02*
X9622444Y-17296389D01*
X9622444Y-17296389D02*
X9612920Y-17315436D01*
X9612920Y-17315436D02*
X9603396Y-17324960D01*
X9603396Y-17324960D02*
X9584349Y-17334484D01*
X9584349Y-17334484D02*
X9527206Y-17334484D01*
X9527206Y-17334484D02*
X9508158Y-17324960D01*
X9508158Y-17324960D02*
X9498634Y-17315436D01*
X9698634Y-17134484D02*
X9698634Y-17172579D01*
X9774825Y-17134484D02*
X9774825Y-17172579D01*
X10070063Y-17410674D02*
X10060539Y-17401150D01*
X10060539Y-17401150D02*
X10041491Y-17372579D01*
X10041491Y-17372579D02*
X10031968Y-17353531D01*
X10031968Y-17353531D02*
X10022444Y-17324960D01*
X10022444Y-17324960D02*
X10012920Y-17277341D01*
X10012920Y-17277341D02*
X10012920Y-17239246D01*
X10012920Y-17239246D02*
X10022444Y-17191627D01*
X10022444Y-17191627D02*
X10031968Y-17163055D01*
X10031968Y-17163055D02*
X10041491Y-17144008D01*
X10041491Y-17144008D02*
X10060539Y-17115436D01*
X10060539Y-17115436D02*
X10070063Y-17105912D01*
X10241491Y-17134484D02*
X10146253Y-17134484D01*
X10146253Y-17134484D02*
X10136730Y-17229722D01*
X10136730Y-17229722D02*
X10146253Y-17220198D01*
X10146253Y-17220198D02*
X10165301Y-17210674D01*
X10165301Y-17210674D02*
X10212920Y-17210674D01*
X10212920Y-17210674D02*
X10231968Y-17220198D01*
X10231968Y-17220198D02*
X10241491Y-17229722D01*
X10241491Y-17229722D02*
X10251015Y-17248770D01*
X10251015Y-17248770D02*
X10251015Y-17296389D01*
X10251015Y-17296389D02*
X10241491Y-17315436D01*
X10241491Y-17315436D02*
X10231968Y-17324960D01*
X10231968Y-17324960D02*
X10212920Y-17334484D01*
X10212920Y-17334484D02*
X10165301Y-17334484D01*
X10165301Y-17334484D02*
X10146253Y-17324960D01*
X10146253Y-17324960D02*
X10136730Y-17315436D01*
X10374825Y-17134484D02*
X10393872Y-17134484D01*
X10393872Y-17134484D02*
X10412920Y-17144008D01*
X10412920Y-17144008D02*
X10422444Y-17153531D01*
X10422444Y-17153531D02*
X10431968Y-17172579D01*
X10431968Y-17172579D02*
X10441491Y-17210674D01*
X10441491Y-17210674D02*
X10441491Y-17258293D01*
X10441491Y-17258293D02*
X10431968Y-17296389D01*
X10431968Y-17296389D02*
X10422444Y-17315436D01*
X10422444Y-17315436D02*
X10412920Y-17324960D01*
X10412920Y-17324960D02*
X10393872Y-17334484D01*
X10393872Y-17334484D02*
X10374825Y-17334484D01*
X10374825Y-17334484D02*
X10355777Y-17324960D01*
X10355777Y-17324960D02*
X10346253Y-17315436D01*
X10346253Y-17315436D02*
X10336730Y-17296389D01*
X10336730Y-17296389D02*
X10327206Y-17258293D01*
X10327206Y-17258293D02*
X10327206Y-17210674D01*
X10327206Y-17210674D02*
X10336730Y-17172579D01*
X10336730Y-17172579D02*
X10346253Y-17153531D01*
X10346253Y-17153531D02*
X10355777Y-17144008D01*
X10355777Y-17144008D02*
X10374825Y-17134484D01*
X10679587Y-17334484D02*
X10679587Y-17134484D01*
X10765301Y-17334484D02*
X10765301Y-17229722D01*
X10765301Y-17229722D02*
X10755777Y-17210674D01*
X10755777Y-17210674D02*
X10736730Y-17201150D01*
X10736730Y-17201150D02*
X10708158Y-17201150D01*
X10708158Y-17201150D02*
X10689111Y-17210674D01*
X10689111Y-17210674D02*
X10679587Y-17220198D01*
X10889111Y-17334484D02*
X10870063Y-17324960D01*
X10870063Y-17324960D02*
X10860539Y-17315436D01*
X10860539Y-17315436D02*
X10851015Y-17296389D01*
X10851015Y-17296389D02*
X10851015Y-17239246D01*
X10851015Y-17239246D02*
X10860539Y-17220198D01*
X10860539Y-17220198D02*
X10870063Y-17210674D01*
X10870063Y-17210674D02*
X10889111Y-17201150D01*
X10889111Y-17201150D02*
X10917682Y-17201150D01*
X10917682Y-17201150D02*
X10936730Y-17210674D01*
X10936730Y-17210674D02*
X10946253Y-17220198D01*
X10946253Y-17220198D02*
X10955777Y-17239246D01*
X10955777Y-17239246D02*
X10955777Y-17296389D01*
X10955777Y-17296389D02*
X10946253Y-17315436D01*
X10946253Y-17315436D02*
X10936730Y-17324960D01*
X10936730Y-17324960D02*
X10917682Y-17334484D01*
X10917682Y-17334484D02*
X10889111Y-17334484D01*
X11070063Y-17334484D02*
X11051015Y-17324960D01*
X11051015Y-17324960D02*
X11041492Y-17305912D01*
X11041492Y-17305912D02*
X11041492Y-17134484D01*
X11222444Y-17324960D02*
X11203396Y-17334484D01*
X11203396Y-17334484D02*
X11165301Y-17334484D01*
X11165301Y-17334484D02*
X11146253Y-17324960D01*
X11146253Y-17324960D02*
X11136730Y-17305912D01*
X11136730Y-17305912D02*
X11136730Y-17229722D01*
X11136730Y-17229722D02*
X11146253Y-17210674D01*
X11146253Y-17210674D02*
X11165301Y-17201150D01*
X11165301Y-17201150D02*
X11203396Y-17201150D01*
X11203396Y-17201150D02*
X11222444Y-17210674D01*
X11222444Y-17210674D02*
X11231968Y-17229722D01*
X11231968Y-17229722D02*
X11231968Y-17248770D01*
X11231968Y-17248770D02*
X11136730Y-17267817D01*
X11308158Y-17324960D02*
X11327206Y-17334484D01*
X11327206Y-17334484D02*
X11365301Y-17334484D01*
X11365301Y-17334484D02*
X11384349Y-17324960D01*
X11384349Y-17324960D02*
X11393872Y-17305912D01*
X11393872Y-17305912D02*
X11393872Y-17296389D01*
X11393872Y-17296389D02*
X11384349Y-17277341D01*
X11384349Y-17277341D02*
X11365301Y-17267817D01*
X11365301Y-17267817D02*
X11336730Y-17267817D01*
X11336730Y-17267817D02*
X11317682Y-17258293D01*
X11317682Y-17258293D02*
X11308158Y-17239246D01*
X11308158Y-17239246D02*
X11308158Y-17229722D01*
X11308158Y-17229722D02*
X11317682Y-17210674D01*
X11317682Y-17210674D02*
X11336730Y-17201150D01*
X11336730Y-17201150D02*
X11365301Y-17201150D01*
X11365301Y-17201150D02*
X11384349Y-17210674D01*
X11460539Y-17410674D02*
X11470063Y-17401150D01*
X11470063Y-17401150D02*
X11489111Y-17372579D01*
X11489111Y-17372579D02*
X11498634Y-17353531D01*
X11498634Y-17353531D02*
X11508158Y-17324960D01*
X11508158Y-17324960D02*
X11517682Y-17277341D01*
X11517682Y-17277341D02*
X11517682Y-17239246D01*
X11517682Y-17239246D02*
X11508158Y-17191627D01*
X11508158Y-17191627D02*
X11498634Y-17163055D01*
X11498634Y-17163055D02*
X11489111Y-17144008D01*
X11489111Y-17144008D02*
X11470063Y-17115436D01*
X11470063Y-17115436D02*
X11460539Y-17105912D01*
X6295000Y-17463000D02*
X6495000Y-17663000D01*
X6495000Y-17463000D02*
X6295000Y-17663000D01*
X6395000Y-17663000D02*
X6495000Y-17563000D01*
X6395000Y-17463000D01*
X6295000Y-17563000D01*
X6395000Y-17663000D01*
X6736729Y-17454484D02*
X6860539Y-17454484D01*
X6860539Y-17454484D02*
X6793872Y-17530674D01*
X6793872Y-17530674D02*
X6822443Y-17530674D01*
X6822443Y-17530674D02*
X6841491Y-17540198D01*
X6841491Y-17540198D02*
X6851015Y-17549722D01*
X6851015Y-17549722D02*
X6860539Y-17568770D01*
X6860539Y-17568770D02*
X6860539Y-17616389D01*
X6860539Y-17616389D02*
X6851015Y-17635436D01*
X6851015Y-17635436D02*
X6841491Y-17644960D01*
X6841491Y-17644960D02*
X6822443Y-17654484D01*
X6822443Y-17654484D02*
X6765301Y-17654484D01*
X6765301Y-17654484D02*
X6746253Y-17644960D01*
X6746253Y-17644960D02*
X6736729Y-17635436D01*
X6946253Y-17635436D02*
X6955777Y-17644960D01*
X6955777Y-17644960D02*
X6946253Y-17654484D01*
X6946253Y-17654484D02*
X6936729Y-17644960D01*
X6936729Y-17644960D02*
X6946253Y-17635436D01*
X6946253Y-17635436D02*
X6946253Y-17654484D01*
X7031967Y-17473531D02*
X7041491Y-17464008D01*
X7041491Y-17464008D02*
X7060539Y-17454484D01*
X7060539Y-17454484D02*
X7108158Y-17454484D01*
X7108158Y-17454484D02*
X7127205Y-17464008D01*
X7127205Y-17464008D02*
X7136729Y-17473531D01*
X7136729Y-17473531D02*
X7146253Y-17492579D01*
X7146253Y-17492579D02*
X7146253Y-17511627D01*
X7146253Y-17511627D02*
X7136729Y-17540198D01*
X7136729Y-17540198D02*
X7022443Y-17654484D01*
X7022443Y-17654484D02*
X7146253Y-17654484D01*
X7270062Y-17454484D02*
X7289110Y-17454484D01*
X7289110Y-17454484D02*
X7308158Y-17464008D01*
X7308158Y-17464008D02*
X7317682Y-17473531D01*
X7317682Y-17473531D02*
X7327205Y-17492579D01*
X7327205Y-17492579D02*
X7336729Y-17530674D01*
X7336729Y-17530674D02*
X7336729Y-17578293D01*
X7336729Y-17578293D02*
X7327205Y-17616389D01*
X7327205Y-17616389D02*
X7317682Y-17635436D01*
X7317682Y-17635436D02*
X7308158Y-17644960D01*
X7308158Y-17644960D02*
X7289110Y-17654484D01*
X7289110Y-17654484D02*
X7270062Y-17654484D01*
X7270062Y-17654484D02*
X7251015Y-17644960D01*
X7251015Y-17644960D02*
X7241491Y-17635436D01*
X7241491Y-17635436D02*
X7231967Y-17616389D01*
X7231967Y-17616389D02*
X7222443Y-17578293D01*
X7222443Y-17578293D02*
X7222443Y-17530674D01*
X7222443Y-17530674D02*
X7231967Y-17492579D01*
X7231967Y-17492579D02*
X7241491Y-17473531D01*
X7241491Y-17473531D02*
X7251015Y-17464008D01*
X7251015Y-17464008D02*
X7270062Y-17454484D01*
X7460539Y-17454484D02*
X7479586Y-17454484D01*
X7479586Y-17454484D02*
X7498634Y-17464008D01*
X7498634Y-17464008D02*
X7508158Y-17473531D01*
X7508158Y-17473531D02*
X7517682Y-17492579D01*
X7517682Y-17492579D02*
X7527205Y-17530674D01*
X7527205Y-17530674D02*
X7527205Y-17578293D01*
X7527205Y-17578293D02*
X7517682Y-17616389D01*
X7517682Y-17616389D02*
X7508158Y-17635436D01*
X7508158Y-17635436D02*
X7498634Y-17644960D01*
X7498634Y-17644960D02*
X7479586Y-17654484D01*
X7479586Y-17654484D02*
X7460539Y-17654484D01*
X7460539Y-17654484D02*
X7441491Y-17644960D01*
X7441491Y-17644960D02*
X7431967Y-17635436D01*
X7431967Y-17635436D02*
X7422443Y-17616389D01*
X7422443Y-17616389D02*
X7412920Y-17578293D01*
X7412920Y-17578293D02*
X7412920Y-17530674D01*
X7412920Y-17530674D02*
X7422443Y-17492579D01*
X7422443Y-17492579D02*
X7431967Y-17473531D01*
X7431967Y-17473531D02*
X7441491Y-17464008D01*
X7441491Y-17464008D02*
X7460539Y-17454484D01*
X7612920Y-17654484D02*
X7612920Y-17521150D01*
X7612920Y-17540198D02*
X7622443Y-17530674D01*
X7622443Y-17530674D02*
X7641491Y-17521150D01*
X7641491Y-17521150D02*
X7670063Y-17521150D01*
X7670063Y-17521150D02*
X7689110Y-17530674D01*
X7689110Y-17530674D02*
X7698634Y-17549722D01*
X7698634Y-17549722D02*
X7698634Y-17654484D01*
X7698634Y-17549722D02*
X7708158Y-17530674D01*
X7708158Y-17530674D02*
X7727205Y-17521150D01*
X7727205Y-17521150D02*
X7755777Y-17521150D01*
X7755777Y-17521150D02*
X7774824Y-17530674D01*
X7774824Y-17530674D02*
X7784348Y-17549722D01*
X7784348Y-17549722D02*
X7784348Y-17654484D01*
X7879586Y-17654484D02*
X7879586Y-17521150D01*
X7879586Y-17540198D02*
X7889110Y-17530674D01*
X7889110Y-17530674D02*
X7908158Y-17521150D01*
X7908158Y-17521150D02*
X7936729Y-17521150D01*
X7936729Y-17521150D02*
X7955777Y-17530674D01*
X7955777Y-17530674D02*
X7965301Y-17549722D01*
X7965301Y-17549722D02*
X7965301Y-17654484D01*
X7965301Y-17549722D02*
X7974824Y-17530674D01*
X7974824Y-17530674D02*
X7993872Y-17521150D01*
X7993872Y-17521150D02*
X8022443Y-17521150D01*
X8022443Y-17521150D02*
X8041491Y-17530674D01*
X8041491Y-17530674D02*
X8051015Y-17549722D01*
X8051015Y-17549722D02*
X8051015Y-17654484D01*
X8441491Y-17444960D02*
X8270063Y-17702103D01*
X8698634Y-17454484D02*
X8717682Y-17454484D01*
X8717682Y-17454484D02*
X8736729Y-17464008D01*
X8736729Y-17464008D02*
X8746253Y-17473531D01*
X8746253Y-17473531D02*
X8755777Y-17492579D01*
X8755777Y-17492579D02*
X8765301Y-17530674D01*
X8765301Y-17530674D02*
X8765301Y-17578293D01*
X8765301Y-17578293D02*
X8755777Y-17616389D01*
X8755777Y-17616389D02*
X8746253Y-17635436D01*
X8746253Y-17635436D02*
X8736729Y-17644960D01*
X8736729Y-17644960D02*
X8717682Y-17654484D01*
X8717682Y-17654484D02*
X8698634Y-17654484D01*
X8698634Y-17654484D02*
X8679587Y-17644960D01*
X8679587Y-17644960D02*
X8670063Y-17635436D01*
X8670063Y-17635436D02*
X8660539Y-17616389D01*
X8660539Y-17616389D02*
X8651015Y-17578293D01*
X8651015Y-17578293D02*
X8651015Y-17530674D01*
X8651015Y-17530674D02*
X8660539Y-17492579D01*
X8660539Y-17492579D02*
X8670063Y-17473531D01*
X8670063Y-17473531D02*
X8679587Y-17464008D01*
X8679587Y-17464008D02*
X8698634Y-17454484D01*
X8851015Y-17635436D02*
X8860539Y-17644960D01*
X8860539Y-17644960D02*
X8851015Y-17654484D01*
X8851015Y-17654484D02*
X8841491Y-17644960D01*
X8841491Y-17644960D02*
X8851015Y-17635436D01*
X8851015Y-17635436D02*
X8851015Y-17654484D01*
X9051015Y-17654484D02*
X8936729Y-17654484D01*
X8993872Y-17654484D02*
X8993872Y-17454484D01*
X8993872Y-17454484D02*
X8974825Y-17483055D01*
X8974825Y-17483055D02*
X8955777Y-17502103D01*
X8955777Y-17502103D02*
X8936729Y-17511627D01*
X9127206Y-17473531D02*
X9136729Y-17464008D01*
X9136729Y-17464008D02*
X9155777Y-17454484D01*
X9155777Y-17454484D02*
X9203396Y-17454484D01*
X9203396Y-17454484D02*
X9222444Y-17464008D01*
X9222444Y-17464008D02*
X9231968Y-17473531D01*
X9231968Y-17473531D02*
X9241491Y-17492579D01*
X9241491Y-17492579D02*
X9241491Y-17511627D01*
X9241491Y-17511627D02*
X9231968Y-17540198D01*
X9231968Y-17540198D02*
X9117682Y-17654484D01*
X9117682Y-17654484D02*
X9241491Y-17654484D01*
X9412920Y-17454484D02*
X9374825Y-17454484D01*
X9374825Y-17454484D02*
X9355777Y-17464008D01*
X9355777Y-17464008D02*
X9346253Y-17473531D01*
X9346253Y-17473531D02*
X9327206Y-17502103D01*
X9327206Y-17502103D02*
X9317682Y-17540198D01*
X9317682Y-17540198D02*
X9317682Y-17616389D01*
X9317682Y-17616389D02*
X9327206Y-17635436D01*
X9327206Y-17635436D02*
X9336729Y-17644960D01*
X9336729Y-17644960D02*
X9355777Y-17654484D01*
X9355777Y-17654484D02*
X9393872Y-17654484D01*
X9393872Y-17654484D02*
X9412920Y-17644960D01*
X9412920Y-17644960D02*
X9422444Y-17635436D01*
X9422444Y-17635436D02*
X9431968Y-17616389D01*
X9431968Y-17616389D02*
X9431968Y-17568770D01*
X9431968Y-17568770D02*
X9422444Y-17549722D01*
X9422444Y-17549722D02*
X9412920Y-17540198D01*
X9412920Y-17540198D02*
X9393872Y-17530674D01*
X9393872Y-17530674D02*
X9355777Y-17530674D01*
X9355777Y-17530674D02*
X9336729Y-17540198D01*
X9336729Y-17540198D02*
X9327206Y-17549722D01*
X9327206Y-17549722D02*
X9317682Y-17568770D01*
X9555777Y-17454484D02*
X9574825Y-17454484D01*
X9574825Y-17454484D02*
X9593872Y-17464008D01*
X9593872Y-17464008D02*
X9603396Y-17473531D01*
X9603396Y-17473531D02*
X9612920Y-17492579D01*
X9612920Y-17492579D02*
X9622444Y-17530674D01*
X9622444Y-17530674D02*
X9622444Y-17578293D01*
X9622444Y-17578293D02*
X9612920Y-17616389D01*
X9612920Y-17616389D02*
X9603396Y-17635436D01*
X9603396Y-17635436D02*
X9593872Y-17644960D01*
X9593872Y-17644960D02*
X9574825Y-17654484D01*
X9574825Y-17654484D02*
X9555777Y-17654484D01*
X9555777Y-17654484D02*
X9536729Y-17644960D01*
X9536729Y-17644960D02*
X9527206Y-17635436D01*
X9527206Y-17635436D02*
X9517682Y-17616389D01*
X9517682Y-17616389D02*
X9508158Y-17578293D01*
X9508158Y-17578293D02*
X9508158Y-17530674D01*
X9508158Y-17530674D02*
X9517682Y-17492579D01*
X9517682Y-17492579D02*
X9527206Y-17473531D01*
X9527206Y-17473531D02*
X9536729Y-17464008D01*
X9536729Y-17464008D02*
X9555777Y-17454484D01*
X9698634Y-17454484D02*
X9698634Y-17492579D01*
X9774825Y-17454484D02*
X9774825Y-17492579D01*
X10070063Y-17730674D02*
X10060539Y-17721150D01*
X10060539Y-17721150D02*
X10041491Y-17692579D01*
X10041491Y-17692579D02*
X10031968Y-17673531D01*
X10031968Y-17673531D02*
X10022444Y-17644960D01*
X10022444Y-17644960D02*
X10012920Y-17597341D01*
X10012920Y-17597341D02*
X10012920Y-17559246D01*
X10012920Y-17559246D02*
X10022444Y-17511627D01*
X10022444Y-17511627D02*
X10031968Y-17483055D01*
X10031968Y-17483055D02*
X10041491Y-17464008D01*
X10041491Y-17464008D02*
X10060539Y-17435436D01*
X10060539Y-17435436D02*
X10070063Y-17425912D01*
X10231968Y-17521150D02*
X10231968Y-17654484D01*
X10184349Y-17444960D02*
X10136730Y-17587817D01*
X10136730Y-17587817D02*
X10260539Y-17587817D01*
X10489111Y-17654484D02*
X10489111Y-17454484D01*
X10574825Y-17654484D02*
X10574825Y-17549722D01*
X10574825Y-17549722D02*
X10565301Y-17530674D01*
X10565301Y-17530674D02*
X10546253Y-17521150D01*
X10546253Y-17521150D02*
X10517682Y-17521150D01*
X10517682Y-17521150D02*
X10498634Y-17530674D01*
X10498634Y-17530674D02*
X10489111Y-17540198D01*
X10698634Y-17654484D02*
X10679587Y-17644960D01*
X10679587Y-17644960D02*
X10670063Y-17635436D01*
X10670063Y-17635436D02*
X10660539Y-17616389D01*
X10660539Y-17616389D02*
X10660539Y-17559246D01*
X10660539Y-17559246D02*
X10670063Y-17540198D01*
X10670063Y-17540198D02*
X10679587Y-17530674D01*
X10679587Y-17530674D02*
X10698634Y-17521150D01*
X10698634Y-17521150D02*
X10727206Y-17521150D01*
X10727206Y-17521150D02*
X10746253Y-17530674D01*
X10746253Y-17530674D02*
X10755777Y-17540198D01*
X10755777Y-17540198D02*
X10765301Y-17559246D01*
X10765301Y-17559246D02*
X10765301Y-17616389D01*
X10765301Y-17616389D02*
X10755777Y-17635436D01*
X10755777Y-17635436D02*
X10746253Y-17644960D01*
X10746253Y-17644960D02*
X10727206Y-17654484D01*
X10727206Y-17654484D02*
X10698634Y-17654484D01*
X10879587Y-17654484D02*
X10860539Y-17644960D01*
X10860539Y-17644960D02*
X10851015Y-17625912D01*
X10851015Y-17625912D02*
X10851015Y-17454484D01*
X11031968Y-17644960D02*
X11012920Y-17654484D01*
X11012920Y-17654484D02*
X10974825Y-17654484D01*
X10974825Y-17654484D02*
X10955777Y-17644960D01*
X10955777Y-17644960D02*
X10946253Y-17625912D01*
X10946253Y-17625912D02*
X10946253Y-17549722D01*
X10946253Y-17549722D02*
X10955777Y-17530674D01*
X10955777Y-17530674D02*
X10974825Y-17521150D01*
X10974825Y-17521150D02*
X11012920Y-17521150D01*
X11012920Y-17521150D02*
X11031968Y-17530674D01*
X11031968Y-17530674D02*
X11041492Y-17549722D01*
X11041492Y-17549722D02*
X11041492Y-17568770D01*
X11041492Y-17568770D02*
X10946253Y-17587817D01*
X11117682Y-17644960D02*
X11136730Y-17654484D01*
X11136730Y-17654484D02*
X11174825Y-17654484D01*
X11174825Y-17654484D02*
X11193872Y-17644960D01*
X11193872Y-17644960D02*
X11203396Y-17625912D01*
X11203396Y-17625912D02*
X11203396Y-17616389D01*
X11203396Y-17616389D02*
X11193872Y-17597341D01*
X11193872Y-17597341D02*
X11174825Y-17587817D01*
X11174825Y-17587817D02*
X11146253Y-17587817D01*
X11146253Y-17587817D02*
X11127206Y-17578293D01*
X11127206Y-17578293D02*
X11117682Y-17559246D01*
X11117682Y-17559246D02*
X11117682Y-17549722D01*
X11117682Y-17549722D02*
X11127206Y-17530674D01*
X11127206Y-17530674D02*
X11146253Y-17521150D01*
X11146253Y-17521150D02*
X11174825Y-17521150D01*
X11174825Y-17521150D02*
X11193872Y-17530674D01*
X11270063Y-17730674D02*
X11279587Y-17721150D01*
X11279587Y-17721150D02*
X11298634Y-17692579D01*
X11298634Y-17692579D02*
X11308158Y-17673531D01*
X11308158Y-17673531D02*
X11317682Y-17644960D01*
X11317682Y-17644960D02*
X11327206Y-17597341D01*
X11327206Y-17597341D02*
X11327206Y-17559246D01*
X11327206Y-17559246D02*
X11317682Y-17511627D01*
X11317682Y-17511627D02*
X11308158Y-17483055D01*
X11308158Y-17483055D02*
X11298634Y-17464008D01*
X11298634Y-17464008D02*
X11279587Y-17435436D01*
X11279587Y-17435436D02*
X11270063Y-17425912D01*
M02*
