G04 #@! TF.GenerationSoftware,KiCad,Pcbnew,(6.0.5)*
G04 #@! TF.CreationDate,2022-07-13T23:04:47-05:00*
G04 #@! TF.ProjectId,QuantizerBack,5175616e-7469-47a6-9572-4261636b2e6b,rev?*
G04 #@! TF.SameCoordinates,Original*
G04 #@! TF.FileFunction,Soldermask,Bot*
G04 #@! TF.FilePolarity,Negative*
%FSLAX46Y46*%
G04 Gerber Fmt 4.6, Leading zero omitted, Abs format (unit mm)*
G04 Created by KiCad (PCBNEW (6.0.5)) date 2022-07-13 23:04:47*
%MOMM*%
%LPD*%
G01*
G04 APERTURE LIST*
%ADD10C,4.500001*%
%ADD11R,4.500001X4.500001*%
%ADD12C,4.500000*%
%ADD13R,1.800000X1.800000*%
%ADD14C,1.800000*%
%ADD15C,4.000000*%
%ADD16R,1.700000X1.700000*%
%ADD17O,1.700000X1.700000*%
%ADD18C,1.600000*%
%ADD19O,1.600000X1.600000*%
%ADD20R,1.600000X1.600000*%
%ADD21C,1.500000*%
%ADD22R,1.600000X2.400000*%
%ADD23O,1.600000X2.400000*%
%ADD24C,1.440000*%
%ADD25R,1.050000X1.500000*%
%ADD26O,1.050000X1.500000*%
%ADD27R,1.500000X1.500000*%
%ADD28R,1.727200X1.727200*%
%ADD29O,1.727200X1.727200*%
G04 APERTURE END LIST*
D10*
G04 #@! TO.C,J8*
X225500000Y-106100000D03*
X231400000Y-110000000D03*
D11*
X229740000Y-117240000D03*
D12*
X218600000Y-113000000D03*
X222500000Y-118900000D03*
G04 #@! TD*
D13*
G04 #@! TO.C,D1*
X187500000Y-113775000D03*
D14*
X187500000Y-111235000D03*
G04 #@! TD*
D10*
G04 #@! TO.C,J13*
X175500000Y-131100000D03*
X181400000Y-135000000D03*
D11*
X179740000Y-142240000D03*
D12*
X168600000Y-138000000D03*
X172500000Y-143900000D03*
G04 #@! TD*
D10*
G04 #@! TO.C,J9*
X200500000Y-81100000D03*
X206400000Y-85000000D03*
D11*
X204740000Y-92240000D03*
D12*
X193600000Y-88000000D03*
X197500000Y-93900000D03*
G04 #@! TD*
D15*
G04 #@! TO.C,H4*
X70000000Y-130000000D03*
G04 #@! TD*
D10*
G04 #@! TO.C,J6*
X200500000Y-106100000D03*
X206400000Y-110000000D03*
D11*
X204740000Y-117240000D03*
D12*
X193600000Y-113000000D03*
X197500000Y-118900000D03*
G04 #@! TD*
D15*
G04 #@! TO.C,H3*
X130000000Y-130000000D03*
G04 #@! TD*
D10*
G04 #@! TO.C,J10*
X200500000Y-56100000D03*
X206400000Y-60000000D03*
D11*
X204740000Y-67240000D03*
D12*
X193600000Y-63000000D03*
X197500000Y-68900000D03*
G04 #@! TD*
D13*
G04 #@! TO.C,D3*
X187500000Y-63775000D03*
D14*
X187500000Y-61235000D03*
G04 #@! TD*
D16*
G04 #@! TO.C,J17*
X160000000Y-92375000D03*
D17*
X160000000Y-94915000D03*
X160000000Y-97455000D03*
X160000000Y-99995000D03*
X160000000Y-102535000D03*
X160000000Y-105075000D03*
X160000000Y-107615000D03*
G04 #@! TD*
D10*
G04 #@! TO.C,J11*
X225500000Y-81100000D03*
X231400000Y-85000000D03*
D11*
X229740000Y-92240000D03*
D12*
X218600000Y-88000000D03*
X222500000Y-93900000D03*
G04 #@! TD*
D10*
G04 #@! TO.C,J5*
X200500000Y-131100000D03*
X206400000Y-135000000D03*
D11*
X204740000Y-142240000D03*
D12*
X193600000Y-138000000D03*
X197500000Y-143900000D03*
G04 #@! TD*
D15*
G04 #@! TO.C,H2*
X70000000Y-70000000D03*
G04 #@! TD*
G04 #@! TO.C,H1*
X130000000Y-70000000D03*
G04 #@! TD*
D10*
G04 #@! TO.C,J14*
X175500000Y-81100000D03*
X181400000Y-85000000D03*
D11*
X179740000Y-92240000D03*
D12*
X168600000Y-88000000D03*
X172500000Y-93900000D03*
G04 #@! TD*
D10*
G04 #@! TO.C,J7*
X225500000Y-131100000D03*
X231400000Y-135000000D03*
D11*
X229740000Y-142240000D03*
D12*
X218600000Y-138000000D03*
X222500000Y-143900000D03*
G04 #@! TD*
D10*
G04 #@! TO.C,J12*
X225500000Y-56100000D03*
X231400000Y-60000000D03*
D11*
X229740000Y-67240000D03*
D12*
X218600000Y-63000000D03*
X222500000Y-68900000D03*
G04 #@! TD*
D18*
G04 #@! TO.C,R70*
X69500000Y-94580000D03*
D19*
X69500000Y-84420000D03*
G04 #@! TD*
D18*
G04 #@! TO.C,C33*
X72000000Y-99500000D03*
X72000000Y-104500000D03*
G04 #@! TD*
G04 #@! TO.C,R75*
X100000000Y-55420000D03*
D19*
X100000000Y-65580000D03*
G04 #@! TD*
D18*
G04 #@! TO.C,R2*
X96000000Y-109420000D03*
D19*
X96000000Y-119580000D03*
G04 #@! TD*
D20*
G04 #@! TO.C,D5*
X134310000Y-94500000D03*
D19*
X126690000Y-94500000D03*
G04 #@! TD*
D20*
G04 #@! TO.C,U1*
X82500000Y-98200000D03*
D19*
X85040000Y-98200000D03*
X87580000Y-98200000D03*
X90120000Y-98200000D03*
X92660000Y-98200000D03*
X95200000Y-98200000D03*
X97740000Y-98200000D03*
X100280000Y-98200000D03*
X102820000Y-98200000D03*
X105360000Y-98200000D03*
X107900000Y-98200000D03*
X110440000Y-98200000D03*
X112980000Y-98200000D03*
X115520000Y-98200000D03*
X115520000Y-105820000D03*
X112980000Y-105820000D03*
X110440000Y-105820000D03*
X107900000Y-105820000D03*
X105360000Y-105820000D03*
X102820000Y-105820000D03*
X100280000Y-105820000D03*
X97740000Y-105820000D03*
X95200000Y-105820000D03*
X92660000Y-105820000D03*
X90120000Y-105820000D03*
X87580000Y-105820000D03*
X85040000Y-105820000D03*
X82500000Y-105820000D03*
G04 #@! TD*
D21*
G04 #@! TO.C,Y1*
X122000000Y-99550000D03*
X122000000Y-104430000D03*
G04 #@! TD*
D18*
G04 #@! TO.C,R79*
X143420000Y-90000000D03*
D19*
X153580000Y-90000000D03*
G04 #@! TD*
D22*
G04 #@! TO.C,U6*
X108375000Y-73200000D03*
D23*
X110915000Y-73200000D03*
X113455000Y-73200000D03*
X115995000Y-73200000D03*
X118535000Y-73200000D03*
X121075000Y-73200000D03*
X123615000Y-73200000D03*
X123615000Y-80820000D03*
X121075000Y-80820000D03*
X118535000Y-80820000D03*
X115995000Y-80820000D03*
X113455000Y-80820000D03*
X110915000Y-80820000D03*
X108375000Y-80820000D03*
G04 #@! TD*
D20*
G04 #@! TO.C,C39*
X123000000Y-135182400D03*
D18*
X123000000Y-132682400D03*
G04 #@! TD*
G04 #@! TO.C,L1*
X158420000Y-123730000D03*
D19*
X158420000Y-133730000D03*
G04 #@! TD*
D18*
G04 #@! TO.C,R62*
X112500000Y-109420000D03*
D19*
X112500000Y-119580000D03*
G04 #@! TD*
D18*
G04 #@! TO.C,C20*
X122500000Y-85500000D03*
X122500000Y-90500000D03*
G04 #@! TD*
G04 #@! TO.C,R63*
X120500000Y-119580000D03*
D19*
X120500000Y-109420000D03*
G04 #@! TD*
D18*
G04 #@! TO.C,C21*
X126000000Y-118500000D03*
X126000000Y-113500000D03*
G04 #@! TD*
G04 #@! TO.C,R53*
X106500000Y-84420000D03*
D19*
X106500000Y-94580000D03*
G04 #@! TD*
D22*
G04 #@! TO.C,U7*
X78875000Y-73200000D03*
D23*
X81415000Y-73200000D03*
X83955000Y-73200000D03*
X86495000Y-73200000D03*
X89035000Y-73200000D03*
X91575000Y-73200000D03*
X94115000Y-73200000D03*
X94115000Y-80820000D03*
X91575000Y-80820000D03*
X89035000Y-80820000D03*
X86495000Y-80820000D03*
X83955000Y-80820000D03*
X81415000Y-80820000D03*
X78875000Y-80820000D03*
G04 #@! TD*
D18*
G04 #@! TO.C,R55*
X114500000Y-84420000D03*
D19*
X114500000Y-94580000D03*
G04 #@! TD*
D18*
G04 #@! TO.C,R85*
X107080000Y-143000000D03*
D19*
X96920000Y-143000000D03*
G04 #@! TD*
D18*
G04 #@! TO.C,C38*
X104000000Y-131500000D03*
X104000000Y-136500000D03*
G04 #@! TD*
G04 #@! TO.C,R68*
X73500000Y-94580000D03*
D19*
X73500000Y-84420000D03*
G04 #@! TD*
D18*
G04 #@! TO.C,R7*
X187500000Y-107080000D03*
D19*
X187500000Y-96920000D03*
G04 #@! TD*
D18*
G04 #@! TO.C,R82*
X89500000Y-84420000D03*
D19*
X89500000Y-94580000D03*
G04 #@! TD*
D24*
G04 #@! TO.C,RV1*
X82000000Y-62550000D03*
X82000000Y-60010000D03*
X82000000Y-57470000D03*
G04 #@! TD*
D20*
G04 #@! TO.C,C24*
X153102400Y-130230000D03*
D18*
X150602400Y-130230000D03*
G04 #@! TD*
D24*
G04 #@! TO.C,RV2*
X74000000Y-62550000D03*
X74000000Y-60010000D03*
X74000000Y-57470000D03*
G04 #@! TD*
D18*
G04 #@! TO.C,C26*
X126500000Y-90500000D03*
X126500000Y-85500000D03*
G04 #@! TD*
G04 #@! TO.C,R42*
X163500000Y-55420000D03*
D19*
X163500000Y-65580000D03*
G04 #@! TD*
D18*
G04 #@! TO.C,C18*
X165500000Y-75000000D03*
X165500000Y-70000000D03*
G04 #@! TD*
G04 #@! TO.C,R88*
X116000000Y-55420000D03*
D19*
X116000000Y-65580000D03*
G04 #@! TD*
D18*
G04 #@! TO.C,C30*
X177000000Y-104000000D03*
X172000000Y-104000000D03*
G04 #@! TD*
G04 #@! TO.C,C34*
X126000000Y-58500000D03*
X121000000Y-58500000D03*
G04 #@! TD*
G04 #@! TO.C,L2*
X137920000Y-123230000D03*
D19*
X137920000Y-133230000D03*
G04 #@! TD*
D18*
G04 #@! TO.C,C19*
X173500000Y-75000000D03*
X173500000Y-70000000D03*
G04 #@! TD*
G04 #@! TO.C,R69*
X92000000Y-55420000D03*
D19*
X92000000Y-65580000D03*
G04 #@! TD*
D25*
G04 #@! TO.C,U9*
X175770000Y-110860000D03*
D26*
X174500000Y-110860000D03*
X173230000Y-110860000D03*
G04 #@! TD*
D18*
G04 #@! TO.C,R83*
X108000000Y-65580000D03*
D19*
X108000000Y-55420000D03*
G04 #@! TD*
D18*
G04 #@! TO.C,R64*
X77500000Y-94580000D03*
D19*
X77500000Y-84420000D03*
G04 #@! TD*
D18*
G04 #@! TO.C,R87*
X112000000Y-65580000D03*
D19*
X112000000Y-55420000D03*
G04 #@! TD*
D18*
G04 #@! TO.C,C14*
X177500000Y-75000000D03*
X177500000Y-70000000D03*
G04 #@! TD*
G04 #@! TO.C,R81*
X104000000Y-55420000D03*
D19*
X104000000Y-65580000D03*
G04 #@! TD*
D18*
G04 #@! TO.C,R1*
X143420000Y-122000000D03*
D19*
X153580000Y-122000000D03*
G04 #@! TD*
D18*
G04 #@! TO.C,R44*
X143420000Y-110000000D03*
D19*
X153580000Y-110000000D03*
G04 #@! TD*
D16*
G04 #@! TO.C,J1*
X87775000Y-132975000D03*
D17*
X85235000Y-132975000D03*
X87775000Y-135515000D03*
X85235000Y-135515000D03*
X87775000Y-138055000D03*
X85235000Y-138055000D03*
G04 #@! TD*
D18*
G04 #@! TO.C,R66*
X153580000Y-94000000D03*
D19*
X143420000Y-94000000D03*
G04 #@! TD*
D20*
G04 #@! TO.C,U10*
X109200000Y-130200000D03*
D19*
X111740000Y-130200000D03*
X114280000Y-130200000D03*
X116820000Y-130200000D03*
X116820000Y-137820000D03*
X114280000Y-137820000D03*
X111740000Y-137820000D03*
X109200000Y-137820000D03*
G04 #@! TD*
D18*
G04 #@! TO.C,R67*
X88000000Y-55420000D03*
D19*
X88000000Y-65580000D03*
G04 #@! TD*
D18*
G04 #@! TO.C,R6*
X108500000Y-109420000D03*
D19*
X108500000Y-119580000D03*
G04 #@! TD*
D18*
G04 #@! TO.C,C35*
X68000000Y-104500000D03*
X68000000Y-99500000D03*
G04 #@! TD*
G04 #@! TO.C,R80*
X179500000Y-65580000D03*
D19*
X179500000Y-55420000D03*
G04 #@! TD*
D18*
G04 #@! TO.C,R50*
X155500000Y-55420000D03*
D19*
X155500000Y-65580000D03*
G04 #@! TD*
D16*
G04 #@! TO.C,J2*
X77235000Y-129165000D03*
D17*
X77235000Y-131705000D03*
X77235000Y-134245000D03*
X77235000Y-136785000D03*
X77235000Y-139325000D03*
X77235000Y-141865000D03*
G04 #@! TD*
D18*
G04 #@! TO.C,R56*
X84000000Y-119580000D03*
D19*
X84000000Y-109420000D03*
G04 #@! TD*
D18*
G04 #@! TO.C,R52*
X153580000Y-102000000D03*
D19*
X143420000Y-102000000D03*
G04 #@! TD*
D18*
G04 #@! TO.C,R41*
X167500000Y-55420000D03*
D19*
X167500000Y-65580000D03*
G04 #@! TD*
D18*
G04 #@! TO.C,R51*
X143500000Y-55420000D03*
D19*
X143500000Y-65580000D03*
G04 #@! TD*
D18*
G04 #@! TO.C,R45*
X171500000Y-65580000D03*
D19*
X171500000Y-55420000D03*
G04 #@! TD*
D18*
G04 #@! TO.C,C1*
X97500000Y-89000000D03*
X97500000Y-94000000D03*
G04 #@! TD*
G04 #@! TO.C,C37*
X130500000Y-90500000D03*
X130500000Y-85500000D03*
G04 #@! TD*
G04 #@! TO.C,C32*
X126000000Y-54500000D03*
X121000000Y-54500000D03*
G04 #@! TD*
G04 #@! TO.C,R46*
X159500000Y-55420000D03*
D19*
X159500000Y-65580000D03*
G04 #@! TD*
D18*
G04 #@! TO.C,R58*
X80000000Y-109420000D03*
D19*
X80000000Y-119580000D03*
G04 #@! TD*
D20*
G04 #@! TO.C,C31*
X175682400Y-118000000D03*
D18*
X173182400Y-118000000D03*
G04 #@! TD*
G04 #@! TO.C,R47*
X147500000Y-65580000D03*
D19*
X147500000Y-55420000D03*
G04 #@! TD*
D18*
G04 #@! TO.C,R72*
X81500000Y-84420000D03*
D19*
X81500000Y-94580000D03*
G04 #@! TD*
D22*
G04 #@! TO.C,U8*
X142200000Y-73200000D03*
D23*
X144740000Y-73200000D03*
X147280000Y-73200000D03*
X149820000Y-73200000D03*
X149820000Y-80820000D03*
X147280000Y-80820000D03*
X144740000Y-80820000D03*
X142200000Y-80820000D03*
G04 #@! TD*
D18*
G04 #@! TO.C,R57*
X110500000Y-94500000D03*
D19*
X110500000Y-84340000D03*
G04 #@! TD*
D18*
G04 #@! TO.C,R59*
X118500000Y-94580000D03*
D19*
X118500000Y-84420000D03*
G04 #@! TD*
D18*
G04 #@! TO.C,C3*
X132500000Y-104500000D03*
X127500000Y-104500000D03*
G04 #@! TD*
G04 #@! TO.C,R71*
X96000000Y-65580000D03*
D19*
X96000000Y-55420000D03*
G04 #@! TD*
D18*
G04 #@! TO.C,C36*
X126000000Y-62500000D03*
X121000000Y-62500000D03*
G04 #@! TD*
D24*
G04 #@! TO.C,RV3*
X96500000Y-131950000D03*
X96500000Y-134490000D03*
X96500000Y-137030000D03*
G04 #@! TD*
D18*
G04 #@! TO.C,C5*
X76000000Y-110500000D03*
X76000000Y-115500000D03*
G04 #@! TD*
G04 #@! TO.C,C23*
X153500000Y-74500000D03*
X153500000Y-79500000D03*
G04 #@! TD*
G04 #@! TO.C,R4*
X92000000Y-109420000D03*
D19*
X92000000Y-119580000D03*
G04 #@! TD*
D18*
G04 #@! TO.C,R76*
X85500000Y-94580000D03*
D19*
X85500000Y-84420000D03*
G04 #@! TD*
D18*
G04 #@! TO.C,R86*
X122080000Y-143000000D03*
D19*
X111920000Y-143000000D03*
G04 #@! TD*
D18*
G04 #@! TO.C,C22*
X137500000Y-79500000D03*
X137500000Y-74500000D03*
G04 #@! TD*
D27*
G04 #@! TO.C,Q2*
X138860000Y-94960000D03*
D21*
X138860000Y-97500000D03*
X138860000Y-100040000D03*
G04 #@! TD*
D18*
G04 #@! TO.C,R74*
X153580000Y-86000000D03*
D19*
X143420000Y-86000000D03*
G04 #@! TD*
D18*
G04 #@! TO.C,C27*
X134000000Y-113500000D03*
X134000000Y-118500000D03*
G04 #@! TD*
G04 #@! TO.C,C2*
X103000000Y-110000000D03*
X103000000Y-115000000D03*
G04 #@! TD*
G04 #@! TO.C,R43*
X151500000Y-55420000D03*
D19*
X151500000Y-65580000D03*
G04 #@! TD*
D28*
G04 #@! TO.C,J15*
X142920000Y-139230000D03*
D29*
X142920000Y-141770000D03*
X145460000Y-139230000D03*
X145460000Y-141770000D03*
X148000000Y-139230000D03*
X148000000Y-141770000D03*
X150540000Y-139230000D03*
X150540000Y-141770000D03*
X153080000Y-139230000D03*
X153080000Y-141770000D03*
G04 #@! TD*
D18*
G04 #@! TO.C,R48*
X153580000Y-106000000D03*
D19*
X143420000Y-106000000D03*
G04 #@! TD*
D18*
G04 #@! TO.C,R65*
X153580000Y-98000000D03*
D19*
X143420000Y-98000000D03*
G04 #@! TD*
D18*
G04 #@! TO.C,C4*
X132500000Y-99500000D03*
X127500000Y-99500000D03*
G04 #@! TD*
G04 #@! TO.C,R73*
X139500000Y-55420000D03*
D19*
X139500000Y-65580000D03*
G04 #@! TD*
D18*
G04 #@! TO.C,R78*
X131500000Y-55420000D03*
D19*
X131500000Y-65580000D03*
G04 #@! TD*
D18*
G04 #@! TO.C,C11*
X127500000Y-80000000D03*
X127500000Y-75000000D03*
G04 #@! TD*
G04 #@! TO.C,C28*
X126000000Y-66500000D03*
X121000000Y-66500000D03*
G04 #@! TD*
G04 #@! TO.C,R49*
X175500000Y-55420000D03*
D19*
X175500000Y-65580000D03*
G04 #@! TD*
D18*
G04 #@! TO.C,R84*
X93500000Y-94580000D03*
D19*
X93500000Y-84420000D03*
G04 #@! TD*
D18*
G04 #@! TO.C,R54*
X102500000Y-84420000D03*
D19*
X102500000Y-94580000D03*
G04 #@! TD*
D18*
G04 #@! TO.C,C17*
X98000000Y-79500000D03*
X98000000Y-74500000D03*
G04 #@! TD*
G04 #@! TO.C,R3*
X143420000Y-118000000D03*
D19*
X153580000Y-118000000D03*
G04 #@! TD*
D20*
G04 #@! TO.C,C25*
X145602400Y-130230000D03*
D18*
X143102400Y-130230000D03*
G04 #@! TD*
G04 #@! TO.C,R77*
X135500000Y-55420000D03*
D19*
X135500000Y-65580000D03*
G04 #@! TD*
D18*
G04 #@! TO.C,C15*
X130000000Y-113500000D03*
X130000000Y-118500000D03*
G04 #@! TD*
G04 #@! TO.C,R5*
X143420000Y-114000000D03*
D19*
X153580000Y-114000000D03*
G04 #@! TD*
D18*
G04 #@! TO.C,C13*
X169500000Y-75000000D03*
X169500000Y-70000000D03*
G04 #@! TD*
D20*
G04 #@! TO.C,D2*
X71500000Y-117310000D03*
D19*
X71500000Y-109690000D03*
G04 #@! TD*
D18*
G04 #@! TO.C,C10*
X104000000Y-74500000D03*
X104000000Y-79500000D03*
G04 #@! TD*
D27*
G04 #@! TO.C,Q1*
X138860000Y-102960000D03*
D21*
X138860000Y-105500000D03*
X138860000Y-108040000D03*
G04 #@! TD*
D18*
G04 #@! TO.C,C12*
X161500000Y-75000000D03*
X161500000Y-70000000D03*
G04 #@! TD*
D20*
G04 #@! TO.C,D4*
X134310000Y-109500000D03*
D19*
X126690000Y-109500000D03*
G04 #@! TD*
D18*
G04 #@! TO.C,C29*
X76000000Y-99500000D03*
X76000000Y-104500000D03*
G04 #@! TD*
G04 #@! TO.C,R61*
X116500000Y-109420000D03*
D19*
X116500000Y-119580000D03*
G04 #@! TD*
D18*
G04 #@! TO.C,C16*
X74500000Y-74500000D03*
X74500000Y-79500000D03*
G04 #@! TD*
G04 #@! TO.C,R8*
X187500000Y-67920000D03*
D19*
X187500000Y-78080000D03*
G04 #@! TD*
D18*
G04 #@! TO.C,R60*
X88000000Y-109420000D03*
D19*
X88000000Y-119580000D03*
G04 #@! TD*
M02*
