M48
INCH,TZ
T1C0.0157
T2C0.0315
T3C0.0394
T4C0.0472
T5C0.1260
%
G90
G05
T1
X33465Y-40669
X36403Y-44342
X36417Y-38976
X36654Y-40906
X39049Y-36103
X39685Y-32913
X42846Y-43962
X43269Y-44095
X43363Y-31943
X45957Y-41779
X46181Y-43268
X47094Y-35285
X50456Y-36678
X52104Y-39166
X53622Y-32520
T2
X26969Y-53039
X26969Y-57039
X27598Y-21661
X27598Y-25661
X28606Y-53039
X28606Y-57039
X29244Y-21661
X29244Y-25661
X30244Y-53039
X30244Y-57039
X30890Y-21661
X30890Y-25661
X31882Y-53039
X31882Y-57039
X32008Y-35835
X32008Y-36835
X32008Y-37835
X32008Y-38835
X32008Y-39835
X32008Y-40835
X32008Y-41835
X32008Y-42835
X32535Y-21661
X32535Y-25661
X33071Y-44606
X33520Y-53039
X33520Y-57039
X34181Y-21661
X34181Y-25661
X35008Y-35835
X35008Y-36835
X35008Y-37835
X35008Y-38835
X35008Y-39835
X35008Y-40835
X35008Y-41835
X35008Y-42835
X35039Y-44606
X35157Y-53039
X35157Y-57039
X35827Y-21661
X35827Y-25661
X37874Y-30913
X37874Y-31913
X37874Y-32913
X37874Y-33913
X37874Y-34913
X37874Y-35913
X37874Y-36913
X37874Y-37913
X37874Y-40717
X37874Y-41717
X37874Y-42717
X37874Y-43717
X37874Y-44717
X37874Y-45717
X37874Y-46717
X37874Y-47717
X40874Y-30913
X40874Y-31913
X40874Y-32913
X40874Y-33913
X40874Y-34913
X40874Y-35913
X40874Y-36913
X40874Y-37913
X40874Y-40717
X40874Y-41717
X40874Y-42717
X40874Y-43717
X40874Y-44717
X40874Y-45717
X40874Y-46717
X40874Y-47717
X42480Y-35945
X42480Y-37913
X42520Y-45669
X42520Y-47638
X43228Y-52921
X43228Y-56921
X43273Y-21661
X43273Y-25661
X44134Y-44724
X44213Y-35913
X44213Y-36913
X44213Y-37913
X44213Y-38913
X44213Y-39913
X44213Y-40913
X44213Y-41913
X44213Y-42913
X44693Y-52921
X44693Y-56921
X44792Y-21661
X44792Y-25661
X46102Y-44724
X46157Y-52921
X46157Y-56921
X46310Y-21661
X46310Y-25661
X47213Y-35913
X47213Y-36913
X47213Y-37913
X47213Y-38913
X47213Y-39913
X47213Y-40913
X47213Y-41913
X47213Y-42913
X47622Y-52921
X47622Y-56921
X47829Y-21661
X47829Y-25661
X49087Y-52921
X49087Y-56921
X49348Y-21661
X49348Y-25661
X50551Y-52921
X50551Y-56921
X50866Y-21661
X50866Y-25661
X52385Y-21661
X52385Y-25661
X53465Y-42921
X53465Y-46921
X53543Y-31346
X53543Y-35346
X53903Y-21661
X53903Y-25661
X54724Y-37370
X54724Y-41370
X54961Y-42921
X54961Y-46921
X55118Y-31346
X55118Y-35346
X56220Y-37409
X56220Y-41409
T3
X63002Y-36378
X63002Y-37378
X63002Y-38378
X63002Y-39378
X63002Y-40378
X63002Y-41378
X63002Y-42378
T4
X26575Y-38386
X26575Y-40354
X27559Y-38150
X27559Y-40591
X28150Y-32520
X28150Y-34488
X28150Y-44291
X28150Y-46260
X28543Y-38386
X28543Y-40354
X29134Y-32283
X29134Y-34724
X29134Y-44055
X29134Y-46496
X30118Y-32520
X30118Y-34488
X30118Y-44291
X30118Y-46260
X32441Y-48583
X32441Y-50551
X32480Y-28189
X32480Y-30157
X33425Y-48346
X33425Y-50787
X33465Y-27953
X33465Y-30394
X34409Y-48583
X34409Y-50551
X34449Y-28189
X34449Y-30157
X38386Y-26575
X38386Y-28543
X38386Y-50157
X38386Y-52126
X39370Y-26339
X39370Y-28780
X39370Y-49921
X39370Y-52362
X40354Y-26575
X40354Y-28543
X40354Y-50157
X40354Y-52126
X44291Y-28150
X44291Y-30118
X44291Y-48583
X44291Y-50551
X45276Y-27913
X45276Y-30354
X45276Y-48346
X45276Y-50787
X46260Y-28150
X46260Y-30118
X46260Y-48583
X46260Y-50551
X48583Y-44291
X48583Y-46260
X48622Y-32480
X48622Y-34449
X49567Y-44055
X49567Y-46496
X49606Y-32244
X49606Y-34685
X50197Y-38386
X50197Y-40354
X50551Y-44291
X50551Y-46260
X50591Y-32480
X50591Y-34449
X51181Y-38150
X51181Y-40591
X52165Y-38386
X52165Y-40354
X58071Y-26575
X58071Y-28543
X58071Y-42323
X58071Y-44291
X58071Y-50197
X58071Y-52165
X58110Y-34488
X58110Y-36457
X59055Y-26339
X59055Y-28780
X59055Y-42087
X59055Y-44528
X59055Y-49961
X59055Y-52402
X59094Y-34252
X59094Y-36693
X60039Y-26575
X60039Y-28543
X60039Y-42323
X60039Y-44291
X60039Y-50197
X60039Y-52165
X60079Y-34488
X60079Y-36457
T5
X27559Y-27559
X27559Y-51181
X51181Y-27559
X51181Y-51181
T0
M30
