G04 #@! TF.GenerationSoftware,KiCad,Pcbnew,(6.0.5)*
G04 #@! TF.CreationDate,2022-07-13T23:11:19-05:00*
G04 #@! TF.ProjectId,QuantizerPanel,5175616e-7469-47a6-9572-50616e656c2e,rev?*
G04 #@! TF.SameCoordinates,Original*
G04 #@! TF.FileFunction,Copper,L1,Top*
G04 #@! TF.FilePolarity,Positive*
%FSLAX46Y46*%
G04 Gerber Fmt 4.6, Leading zero omitted, Abs format (unit mm)*
G04 Created by KiCad (PCBNEW (6.0.5)) date 2022-07-13 23:11:19*
%MOMM*%
%LPD*%
G01*
G04 APERTURE LIST*
G04 #@! TA.AperFunction,ComponentPad*
%ADD10C,4.000000*%
G04 #@! TD*
G04 #@! TA.AperFunction,ComponentPad*
%ADD11C,14.000000*%
G04 #@! TD*
G04 APERTURE END LIST*
D10*
G04 #@! TO.P,H14,1,1*
G04 #@! TO.N,GND*
X53000000Y-53000000D03*
G04 #@! TD*
D11*
G04 #@! TO.P,H5,1*
G04 #@! TO.N,GND*
X225000000Y-62500000D03*
G04 #@! TD*
G04 #@! TO.P,H6,1*
G04 #@! TO.N,GND*
X200000000Y-87500000D03*
G04 #@! TD*
D10*
G04 #@! TO.P,H19,1,1*
G04 #@! TO.N,GND*
X53000000Y-147000000D03*
G04 #@! TD*
D11*
G04 #@! TO.P,H11,1*
G04 #@! TO.N,GND*
X225000000Y-87500000D03*
G04 #@! TD*
G04 #@! TO.P,H3,1*
G04 #@! TO.N,GND*
X200000000Y-137500000D03*
G04 #@! TD*
G04 #@! TO.P,H16,1*
G04 #@! TO.N,GND*
X175000000Y-137500000D03*
G04 #@! TD*
D10*
G04 #@! TO.P,H20,1,1*
G04 #@! TO.N,GND*
X247000000Y-53000000D03*
G04 #@! TD*
G04 #@! TO.P,H15,1,1*
G04 #@! TO.N,GND*
X70000000Y-70000000D03*
G04 #@! TD*
D11*
G04 #@! TO.P,H7,1*
G04 #@! TO.N,GND*
X200000000Y-112500000D03*
G04 #@! TD*
D10*
G04 #@! TO.P,H8,1,1*
G04 #@! TO.N,GND*
X70000000Y-130000000D03*
G04 #@! TD*
D11*
G04 #@! TO.P,H4,1*
G04 #@! TO.N,GND*
X200000000Y-62500000D03*
G04 #@! TD*
D10*
G04 #@! TO.P,H1,1,1*
G04 #@! TO.N,GND*
X130000000Y-130000000D03*
G04 #@! TD*
G04 #@! TO.P,H9,1,1*
G04 #@! TO.N,GND*
X247000000Y-147000000D03*
G04 #@! TD*
D11*
G04 #@! TO.P,H12,1*
G04 #@! TO.N,GND*
X225000000Y-137500000D03*
G04 #@! TD*
D10*
G04 #@! TO.P,H2,1,1*
G04 #@! TO.N,GND*
X130000000Y-70000000D03*
G04 #@! TD*
D11*
G04 #@! TO.P,H18,1*
G04 #@! TO.N,GND*
X175000000Y-87500000D03*
G04 #@! TD*
G04 #@! TO.P,H13,1*
G04 #@! TO.N,GND*
X225000000Y-112500000D03*
G04 #@! TD*
G04 #@! TA.AperFunction,Conductor*
G04 #@! TO.N,GND*
G36*
X51903424Y-50528502D02*
G01*
X51949917Y-50582158D01*
X51960021Y-50652432D01*
X51930527Y-50717012D01*
X51896004Y-50744915D01*
X51656961Y-50876330D01*
X51650281Y-50880570D01*
X51427177Y-51042664D01*
X51418754Y-51053587D01*
X51425658Y-51066448D01*
X52987188Y-52627978D01*
X53001132Y-52635592D01*
X53002965Y-52635461D01*
X53009580Y-52631210D01*
X54574666Y-51066124D01*
X54581279Y-51054013D01*
X54572452Y-51042395D01*
X54349719Y-50880570D01*
X54343039Y-50876330D01*
X54103996Y-50744915D01*
X54053937Y-50694569D01*
X54039044Y-50625152D01*
X54064045Y-50558703D01*
X54121002Y-50516319D01*
X54164697Y-50508500D01*
X245835303Y-50508500D01*
X245903424Y-50528502D01*
X245949917Y-50582158D01*
X245960021Y-50652432D01*
X245930527Y-50717012D01*
X245896004Y-50744915D01*
X245656961Y-50876330D01*
X245650281Y-50880570D01*
X245427177Y-51042664D01*
X245418754Y-51053587D01*
X245425658Y-51066448D01*
X246987188Y-52627978D01*
X247001132Y-52635592D01*
X247002965Y-52635461D01*
X247009580Y-52631210D01*
X248574666Y-51066124D01*
X248581279Y-51054013D01*
X248572452Y-51042395D01*
X248349719Y-50880570D01*
X248343039Y-50876330D01*
X248103996Y-50744915D01*
X248053937Y-50694569D01*
X248039044Y-50625152D01*
X248064045Y-50558703D01*
X248121002Y-50516319D01*
X248164697Y-50508500D01*
X249365500Y-50508500D01*
X249433621Y-50528502D01*
X249480114Y-50582158D01*
X249491500Y-50634500D01*
X249491500Y-51840640D01*
X249471498Y-51908761D01*
X249417842Y-51955254D01*
X249347568Y-51965358D01*
X249282988Y-51935864D01*
X249251492Y-51894288D01*
X249203810Y-51792959D01*
X249199999Y-51786026D01*
X249035149Y-51526264D01*
X249030505Y-51519871D01*
X248955503Y-51429210D01*
X248942986Y-51420755D01*
X248932248Y-51426962D01*
X247372022Y-52987188D01*
X247364408Y-53001132D01*
X247364539Y-53002965D01*
X247368790Y-53009580D01*
X248931145Y-54571935D01*
X248944407Y-54579177D01*
X248954512Y-54571988D01*
X249030505Y-54480129D01*
X249035149Y-54473736D01*
X249199999Y-54213974D01*
X249203810Y-54207041D01*
X249251492Y-54105712D01*
X249298594Y-54052591D01*
X249366939Y-54033368D01*
X249434827Y-54054147D01*
X249480704Y-54108330D01*
X249491500Y-54159360D01*
X249491500Y-145840640D01*
X249471498Y-145908761D01*
X249417842Y-145955254D01*
X249347568Y-145965358D01*
X249282988Y-145935864D01*
X249251492Y-145894288D01*
X249203810Y-145792959D01*
X249199999Y-145786026D01*
X249035149Y-145526264D01*
X249030505Y-145519871D01*
X248955503Y-145429210D01*
X248942986Y-145420755D01*
X248932248Y-145426962D01*
X247372022Y-146987188D01*
X247364408Y-147001132D01*
X247364539Y-147002965D01*
X247368790Y-147009580D01*
X248931145Y-148571935D01*
X248944407Y-148579177D01*
X248954512Y-148571988D01*
X249030505Y-148480129D01*
X249035149Y-148473736D01*
X249199999Y-148213974D01*
X249203810Y-148207041D01*
X249251492Y-148105712D01*
X249298594Y-148052591D01*
X249366939Y-148033368D01*
X249434827Y-148054147D01*
X249480704Y-148108330D01*
X249491500Y-148159360D01*
X249491500Y-149365500D01*
X249471498Y-149433621D01*
X249417842Y-149480114D01*
X249365500Y-149491500D01*
X248164697Y-149491500D01*
X248096576Y-149471498D01*
X248050083Y-149417842D01*
X248039979Y-149347568D01*
X248069473Y-149282988D01*
X248103996Y-149255085D01*
X248343039Y-149123670D01*
X248349719Y-149119430D01*
X248572823Y-148957336D01*
X248581246Y-148946413D01*
X248574342Y-148933552D01*
X247012812Y-147372022D01*
X246998868Y-147364408D01*
X246997035Y-147364539D01*
X246990420Y-147368790D01*
X245425334Y-148933876D01*
X245418721Y-148945987D01*
X245427548Y-148957605D01*
X245650281Y-149119430D01*
X245656961Y-149123670D01*
X245896004Y-149255085D01*
X245946063Y-149305431D01*
X245960956Y-149374848D01*
X245935955Y-149441297D01*
X245878998Y-149483681D01*
X245835303Y-149491500D01*
X54164697Y-149491500D01*
X54096576Y-149471498D01*
X54050083Y-149417842D01*
X54039979Y-149347568D01*
X54069473Y-149282988D01*
X54103996Y-149255085D01*
X54343039Y-149123670D01*
X54349719Y-149119430D01*
X54572823Y-148957336D01*
X54581246Y-148946413D01*
X54574342Y-148933552D01*
X53012812Y-147372022D01*
X52998868Y-147364408D01*
X52997035Y-147364539D01*
X52990420Y-147368790D01*
X51425334Y-148933876D01*
X51418721Y-148945987D01*
X51427548Y-148957605D01*
X51650281Y-149119430D01*
X51656961Y-149123670D01*
X51896004Y-149255085D01*
X51946063Y-149305431D01*
X51960956Y-149374848D01*
X51935955Y-149441297D01*
X51878998Y-149483681D01*
X51835303Y-149491500D01*
X50634500Y-149491500D01*
X50566379Y-149471498D01*
X50519886Y-149417842D01*
X50508500Y-149365500D01*
X50508500Y-148159360D01*
X50528502Y-148091239D01*
X50582158Y-148044746D01*
X50652432Y-148034642D01*
X50717012Y-148064136D01*
X50748508Y-148105712D01*
X50796190Y-148207041D01*
X50800001Y-148213974D01*
X50964851Y-148473736D01*
X50969495Y-148480129D01*
X51044497Y-148570790D01*
X51057014Y-148579245D01*
X51067752Y-148573038D01*
X52627978Y-147012812D01*
X52634356Y-147001132D01*
X53364408Y-147001132D01*
X53364539Y-147002965D01*
X53368790Y-147009580D01*
X54931145Y-148571935D01*
X54944407Y-148579177D01*
X54954512Y-148571988D01*
X55030505Y-148480129D01*
X55035149Y-148473736D01*
X55199999Y-148213974D01*
X55203811Y-148207041D01*
X55334801Y-147928672D01*
X55337716Y-147921309D01*
X55432783Y-147628723D01*
X55434754Y-147621046D01*
X55492400Y-147318855D01*
X55493393Y-147310994D01*
X55512710Y-147003958D01*
X244487290Y-147003958D01*
X244506607Y-147310994D01*
X244507600Y-147318855D01*
X244565246Y-147621046D01*
X244567217Y-147628723D01*
X244662284Y-147921309D01*
X244665199Y-147928672D01*
X244796189Y-148207041D01*
X244800001Y-148213974D01*
X244964851Y-148473736D01*
X244969495Y-148480129D01*
X245044497Y-148570790D01*
X245057014Y-148579245D01*
X245067752Y-148573038D01*
X246627978Y-147012812D01*
X246635592Y-146998868D01*
X246635461Y-146997035D01*
X246631210Y-146990420D01*
X245068855Y-145428065D01*
X245055593Y-145420823D01*
X245045488Y-145428012D01*
X244969495Y-145519871D01*
X244964851Y-145526264D01*
X244800001Y-145786026D01*
X244796189Y-145792959D01*
X244665199Y-146071328D01*
X244662284Y-146078691D01*
X244567217Y-146371277D01*
X244565246Y-146378954D01*
X244507600Y-146681145D01*
X244506607Y-146689006D01*
X244487290Y-146996042D01*
X244487290Y-147003958D01*
X55512710Y-147003958D01*
X55512710Y-146996042D01*
X55493393Y-146689006D01*
X55492400Y-146681145D01*
X55434754Y-146378954D01*
X55432783Y-146371277D01*
X55337716Y-146078691D01*
X55334801Y-146071328D01*
X55203811Y-145792959D01*
X55199999Y-145786026D01*
X55035149Y-145526264D01*
X55030505Y-145519871D01*
X54955503Y-145429210D01*
X54942986Y-145420755D01*
X54932248Y-145426962D01*
X53372022Y-146987188D01*
X53364408Y-147001132D01*
X52634356Y-147001132D01*
X52635592Y-146998868D01*
X52635461Y-146997035D01*
X52631210Y-146990420D01*
X51068855Y-145428065D01*
X51055593Y-145420823D01*
X51045488Y-145428012D01*
X50969495Y-145519871D01*
X50964851Y-145526264D01*
X50800001Y-145786026D01*
X50796190Y-145792959D01*
X50748508Y-145894288D01*
X50701406Y-145947409D01*
X50633061Y-145966632D01*
X50565173Y-145945853D01*
X50519296Y-145891670D01*
X50508500Y-145840640D01*
X50508500Y-145053587D01*
X51418754Y-145053587D01*
X51425658Y-145066448D01*
X52987188Y-146627978D01*
X53001132Y-146635592D01*
X53002965Y-146635461D01*
X53009580Y-146631210D01*
X54574666Y-145066124D01*
X54581279Y-145054013D01*
X54580955Y-145053587D01*
X245418754Y-145053587D01*
X245425658Y-145066448D01*
X246987188Y-146627978D01*
X247001132Y-146635592D01*
X247002965Y-146635461D01*
X247009580Y-146631210D01*
X248574666Y-145066124D01*
X248581279Y-145054013D01*
X248572452Y-145042395D01*
X248349719Y-144880570D01*
X248343039Y-144876330D01*
X248073428Y-144728110D01*
X248066293Y-144724753D01*
X247780230Y-144611492D01*
X247772704Y-144609047D01*
X247474721Y-144532538D01*
X247466950Y-144531055D01*
X247161722Y-144492497D01*
X247153831Y-144492000D01*
X246846169Y-144492000D01*
X246838278Y-144492497D01*
X246533050Y-144531055D01*
X246525279Y-144532538D01*
X246227296Y-144609047D01*
X246219770Y-144611492D01*
X245933707Y-144724753D01*
X245926572Y-144728110D01*
X245656961Y-144876330D01*
X245650281Y-144880570D01*
X245427177Y-145042664D01*
X245418754Y-145053587D01*
X54580955Y-145053587D01*
X54572452Y-145042395D01*
X54349719Y-144880570D01*
X54343039Y-144876330D01*
X54073428Y-144728110D01*
X54066293Y-144724753D01*
X53780230Y-144611492D01*
X53772704Y-144609047D01*
X53474721Y-144532538D01*
X53466950Y-144531055D01*
X53161722Y-144492497D01*
X53153831Y-144492000D01*
X52846169Y-144492000D01*
X52838278Y-144492497D01*
X52533050Y-144531055D01*
X52525279Y-144532538D01*
X52227296Y-144609047D01*
X52219770Y-144611492D01*
X51933707Y-144724753D01*
X51926572Y-144728110D01*
X51656961Y-144876330D01*
X51650281Y-144880570D01*
X51427177Y-145042664D01*
X51418754Y-145053587D01*
X50508500Y-145053587D01*
X50508500Y-142987102D01*
X169878438Y-142987102D01*
X169878462Y-142987441D01*
X169884285Y-142996073D01*
X170128991Y-143219913D01*
X170132445Y-143222852D01*
X170550430Y-143553550D01*
X170554067Y-143556222D01*
X170994618Y-143856182D01*
X170998446Y-143858593D01*
X171459337Y-144126300D01*
X171463309Y-144128421D01*
X171942148Y-144362483D01*
X171946284Y-144364325D01*
X172440627Y-144563551D01*
X172444871Y-144565087D01*
X172952218Y-144728467D01*
X172956539Y-144729689D01*
X173474254Y-144856374D01*
X173478695Y-144857294D01*
X174004141Y-144946637D01*
X174008595Y-144947232D01*
X174539106Y-144998782D01*
X174543579Y-144999056D01*
X175076427Y-145012543D01*
X175080930Y-145012496D01*
X175613352Y-144987853D01*
X175617836Y-144987485D01*
X176147152Y-144924836D01*
X176151591Y-144924149D01*
X176675087Y-144823814D01*
X176679446Y-144822815D01*
X177194414Y-144685311D01*
X177198727Y-144683992D01*
X177702525Y-144510028D01*
X177706740Y-144508402D01*
X178196805Y-144298866D01*
X178200892Y-144296943D01*
X178674731Y-144052900D01*
X178678658Y-144050696D01*
X179133828Y-143773404D01*
X179137624Y-143770901D01*
X179571786Y-143461788D01*
X179575372Y-143459036D01*
X179986362Y-143119640D01*
X179989705Y-143116672D01*
X180113630Y-142998453D01*
X180120179Y-142987102D01*
X194878438Y-142987102D01*
X194878462Y-142987441D01*
X194884285Y-142996073D01*
X195128991Y-143219913D01*
X195132445Y-143222852D01*
X195550430Y-143553550D01*
X195554067Y-143556222D01*
X195994618Y-143856182D01*
X195998446Y-143858593D01*
X196459337Y-144126300D01*
X196463309Y-144128421D01*
X196942148Y-144362483D01*
X196946284Y-144364325D01*
X197440627Y-144563551D01*
X197444871Y-144565087D01*
X197952218Y-144728467D01*
X197956539Y-144729689D01*
X198474254Y-144856374D01*
X198478695Y-144857294D01*
X199004141Y-144946637D01*
X199008595Y-144947232D01*
X199539106Y-144998782D01*
X199543579Y-144999056D01*
X200076427Y-145012543D01*
X200080930Y-145012496D01*
X200613352Y-144987853D01*
X200617836Y-144987485D01*
X201147152Y-144924836D01*
X201151591Y-144924149D01*
X201675087Y-144823814D01*
X201679446Y-144822815D01*
X202194414Y-144685311D01*
X202198727Y-144683992D01*
X202702525Y-144510028D01*
X202706740Y-144508402D01*
X203196805Y-144298866D01*
X203200892Y-144296943D01*
X203674731Y-144052900D01*
X203678658Y-144050696D01*
X204133828Y-143773404D01*
X204137624Y-143770901D01*
X204571786Y-143461788D01*
X204575372Y-143459036D01*
X204986362Y-143119640D01*
X204989705Y-143116672D01*
X205113630Y-142998453D01*
X205120179Y-142987102D01*
X219878438Y-142987102D01*
X219878462Y-142987441D01*
X219884285Y-142996073D01*
X220128991Y-143219913D01*
X220132445Y-143222852D01*
X220550430Y-143553550D01*
X220554067Y-143556222D01*
X220994618Y-143856182D01*
X220998446Y-143858593D01*
X221459337Y-144126300D01*
X221463309Y-144128421D01*
X221942148Y-144362483D01*
X221946284Y-144364325D01*
X222440627Y-144563551D01*
X222444871Y-144565087D01*
X222952218Y-144728467D01*
X222956539Y-144729689D01*
X223474254Y-144856374D01*
X223478695Y-144857294D01*
X224004141Y-144946637D01*
X224008595Y-144947232D01*
X224539106Y-144998782D01*
X224543579Y-144999056D01*
X225076427Y-145012543D01*
X225080930Y-145012496D01*
X225613352Y-144987853D01*
X225617836Y-144987485D01*
X226147152Y-144924836D01*
X226151591Y-144924149D01*
X226675087Y-144823814D01*
X226679446Y-144822815D01*
X227194414Y-144685311D01*
X227198727Y-144683992D01*
X227702525Y-144510028D01*
X227706740Y-144508402D01*
X228196805Y-144298866D01*
X228200892Y-144296943D01*
X228674731Y-144052900D01*
X228678658Y-144050696D01*
X229133828Y-143773404D01*
X229137624Y-143770901D01*
X229571786Y-143461788D01*
X229575372Y-143459036D01*
X229986362Y-143119640D01*
X229989705Y-143116672D01*
X230113630Y-142998453D01*
X230121568Y-142984695D01*
X230121518Y-142983649D01*
X230116625Y-142975835D01*
X225012812Y-137872022D01*
X224998868Y-137864408D01*
X224997035Y-137864539D01*
X224990420Y-137868790D01*
X219886052Y-142973158D01*
X219878438Y-142987102D01*
X205120179Y-142987102D01*
X205121568Y-142984695D01*
X205121518Y-142983649D01*
X205116625Y-142975835D01*
X200012812Y-137872022D01*
X199998868Y-137864408D01*
X199997035Y-137864539D01*
X199990420Y-137868790D01*
X194886052Y-142973158D01*
X194878438Y-142987102D01*
X180120179Y-142987102D01*
X180121568Y-142984695D01*
X180121518Y-142983649D01*
X180116625Y-142975835D01*
X175012812Y-137872022D01*
X174998868Y-137864408D01*
X174997035Y-137864539D01*
X174990420Y-137868790D01*
X169886052Y-142973158D01*
X169878438Y-142987102D01*
X50508500Y-142987102D01*
X50508500Y-137550201D01*
X167487236Y-137550201D01*
X167487267Y-137554699D01*
X167510052Y-138087215D01*
X167510404Y-138091696D01*
X167571206Y-138621240D01*
X167571874Y-138625659D01*
X167670381Y-139149497D01*
X167671370Y-139153884D01*
X167807070Y-139669308D01*
X167808381Y-139673648D01*
X167980581Y-140178039D01*
X167982188Y-140182249D01*
X168190028Y-140673079D01*
X168191917Y-140677129D01*
X168434314Y-141151836D01*
X168436507Y-141155776D01*
X168712217Y-141611925D01*
X168714678Y-141615685D01*
X169022290Y-142050947D01*
X169025036Y-142054552D01*
X169362987Y-142466712D01*
X169365944Y-142470066D01*
X169501751Y-142613428D01*
X169515482Y-142621415D01*
X169516410Y-142621374D01*
X169524399Y-142616391D01*
X174627978Y-137512812D01*
X174634356Y-137501132D01*
X175364408Y-137501132D01*
X175364539Y-137502965D01*
X175368790Y-137509580D01*
X180473389Y-142614179D01*
X180487333Y-142621793D01*
X180487556Y-142621778D01*
X180496338Y-142615831D01*
X180736905Y-142350987D01*
X180739793Y-142347570D01*
X181069044Y-141928414D01*
X181071701Y-141924771D01*
X181370130Y-141483164D01*
X181372526Y-141479329D01*
X181638617Y-141017514D01*
X181640726Y-141013531D01*
X181873116Y-140533878D01*
X181874941Y-140529741D01*
X182072446Y-140034690D01*
X182073961Y-140030460D01*
X182235567Y-139522549D01*
X182236781Y-139518202D01*
X182361661Y-139000034D01*
X182362555Y-138995638D01*
X182450064Y-138469885D01*
X182450649Y-138465380D01*
X182500363Y-137934517D01*
X182500613Y-137930439D01*
X182511566Y-137550201D01*
X192487236Y-137550201D01*
X192487267Y-137554699D01*
X192510052Y-138087215D01*
X192510404Y-138091696D01*
X192571206Y-138621240D01*
X192571874Y-138625659D01*
X192670381Y-139149497D01*
X192671370Y-139153884D01*
X192807070Y-139669308D01*
X192808381Y-139673648D01*
X192980581Y-140178039D01*
X192982188Y-140182249D01*
X193190028Y-140673079D01*
X193191917Y-140677129D01*
X193434314Y-141151836D01*
X193436507Y-141155776D01*
X193712217Y-141611925D01*
X193714678Y-141615685D01*
X194022290Y-142050947D01*
X194025036Y-142054552D01*
X194362987Y-142466712D01*
X194365944Y-142470066D01*
X194501751Y-142613428D01*
X194515482Y-142621415D01*
X194516410Y-142621374D01*
X194524399Y-142616391D01*
X199627978Y-137512812D01*
X199634356Y-137501132D01*
X200364408Y-137501132D01*
X200364539Y-137502965D01*
X200368790Y-137509580D01*
X205473389Y-142614179D01*
X205487333Y-142621793D01*
X205487556Y-142621778D01*
X205496338Y-142615831D01*
X205736905Y-142350987D01*
X205739793Y-142347570D01*
X206069044Y-141928414D01*
X206071701Y-141924771D01*
X206370130Y-141483164D01*
X206372526Y-141479329D01*
X206638617Y-141017514D01*
X206640726Y-141013531D01*
X206873116Y-140533878D01*
X206874941Y-140529741D01*
X207072446Y-140034690D01*
X207073961Y-140030460D01*
X207235567Y-139522549D01*
X207236781Y-139518202D01*
X207361661Y-139000034D01*
X207362555Y-138995638D01*
X207450064Y-138469885D01*
X207450649Y-138465380D01*
X207500363Y-137934517D01*
X207500613Y-137930439D01*
X207511566Y-137550201D01*
X217487236Y-137550201D01*
X217487267Y-137554699D01*
X217510052Y-138087215D01*
X217510404Y-138091696D01*
X217571206Y-138621240D01*
X217571874Y-138625659D01*
X217670381Y-139149497D01*
X217671370Y-139153884D01*
X217807070Y-139669308D01*
X217808381Y-139673648D01*
X217980581Y-140178039D01*
X217982188Y-140182249D01*
X218190028Y-140673079D01*
X218191917Y-140677129D01*
X218434314Y-141151836D01*
X218436507Y-141155776D01*
X218712217Y-141611925D01*
X218714678Y-141615685D01*
X219022290Y-142050947D01*
X219025036Y-142054552D01*
X219362987Y-142466712D01*
X219365944Y-142470066D01*
X219501751Y-142613428D01*
X219515482Y-142621415D01*
X219516410Y-142621374D01*
X219524399Y-142616391D01*
X224627978Y-137512812D01*
X224634356Y-137501132D01*
X225364408Y-137501132D01*
X225364539Y-137502965D01*
X225368790Y-137509580D01*
X230473389Y-142614179D01*
X230487333Y-142621793D01*
X230487556Y-142621778D01*
X230496338Y-142615831D01*
X230736905Y-142350987D01*
X230739793Y-142347570D01*
X231069044Y-141928414D01*
X231071701Y-141924771D01*
X231370130Y-141483164D01*
X231372526Y-141479329D01*
X231638617Y-141017514D01*
X231640726Y-141013531D01*
X231873116Y-140533878D01*
X231874941Y-140529741D01*
X232072446Y-140034690D01*
X232073961Y-140030460D01*
X232235567Y-139522549D01*
X232236781Y-139518202D01*
X232361661Y-139000034D01*
X232362555Y-138995638D01*
X232450064Y-138469885D01*
X232450649Y-138465380D01*
X232500363Y-137934517D01*
X232500613Y-137930439D01*
X232512954Y-137502024D01*
X232512939Y-137497967D01*
X232493866Y-136965096D01*
X232493544Y-136960601D01*
X232436442Y-136430662D01*
X232435800Y-136426211D01*
X232340955Y-135901710D01*
X232339999Y-135897327D01*
X232207892Y-135380933D01*
X232206630Y-135376645D01*
X232037938Y-134871015D01*
X232036370Y-134866818D01*
X231831966Y-134374558D01*
X231830088Y-134370456D01*
X231591023Y-133894094D01*
X231588855Y-133890133D01*
X231316347Y-133432090D01*
X231313891Y-133428279D01*
X231009331Y-132990890D01*
X231006624Y-132987284D01*
X230671552Y-132572765D01*
X230668609Y-132569380D01*
X230498034Y-132386780D01*
X230484361Y-132378698D01*
X230483667Y-132378724D01*
X230475320Y-132383890D01*
X225372022Y-137487188D01*
X225364408Y-137501132D01*
X224634356Y-137501132D01*
X224635592Y-137498868D01*
X224635461Y-137497035D01*
X224631210Y-137490420D01*
X219527007Y-132386217D01*
X219513063Y-132378603D01*
X219512606Y-132378635D01*
X219504130Y-132384332D01*
X219297104Y-132609077D01*
X219294190Y-132612477D01*
X218962015Y-133029331D01*
X218959344Y-133032941D01*
X218657831Y-133472465D01*
X218655409Y-133476283D01*
X218386107Y-133936216D01*
X218383964Y-133940196D01*
X218148233Y-134418211D01*
X218146376Y-134422343D01*
X217945427Y-134915984D01*
X217943874Y-134920230D01*
X217778729Y-135426984D01*
X217777484Y-135431326D01*
X217648991Y-135948608D01*
X217648067Y-135952991D01*
X217556885Y-136478152D01*
X217556274Y-136482609D01*
X217502873Y-137012930D01*
X217502583Y-137017413D01*
X217487236Y-137550201D01*
X207511566Y-137550201D01*
X207512954Y-137502024D01*
X207512939Y-137497967D01*
X207493866Y-136965096D01*
X207493544Y-136960601D01*
X207436442Y-136430662D01*
X207435800Y-136426211D01*
X207340955Y-135901710D01*
X207339999Y-135897327D01*
X207207892Y-135380933D01*
X207206630Y-135376645D01*
X207037938Y-134871015D01*
X207036370Y-134866818D01*
X206831966Y-134374558D01*
X206830088Y-134370456D01*
X206591023Y-133894094D01*
X206588855Y-133890133D01*
X206316347Y-133432090D01*
X206313891Y-133428279D01*
X206009331Y-132990890D01*
X206006624Y-132987284D01*
X205671552Y-132572765D01*
X205668609Y-132569380D01*
X205498034Y-132386780D01*
X205484361Y-132378698D01*
X205483667Y-132378724D01*
X205475320Y-132383890D01*
X200372022Y-137487188D01*
X200364408Y-137501132D01*
X199634356Y-137501132D01*
X199635592Y-137498868D01*
X199635461Y-137497035D01*
X199631210Y-137490420D01*
X194527007Y-132386217D01*
X194513063Y-132378603D01*
X194512606Y-132378635D01*
X194504130Y-132384332D01*
X194297104Y-132609077D01*
X194294190Y-132612477D01*
X193962015Y-133029331D01*
X193959344Y-133032941D01*
X193657831Y-133472465D01*
X193655409Y-133476283D01*
X193386107Y-133936216D01*
X193383964Y-133940196D01*
X193148233Y-134418211D01*
X193146376Y-134422343D01*
X192945427Y-134915984D01*
X192943874Y-134920230D01*
X192778729Y-135426984D01*
X192777484Y-135431326D01*
X192648991Y-135948608D01*
X192648067Y-135952991D01*
X192556885Y-136478152D01*
X192556274Y-136482609D01*
X192502873Y-137012930D01*
X192502583Y-137017413D01*
X192487236Y-137550201D01*
X182511566Y-137550201D01*
X182512954Y-137502024D01*
X182512939Y-137497967D01*
X182493866Y-136965096D01*
X182493544Y-136960601D01*
X182436442Y-136430662D01*
X182435800Y-136426211D01*
X182340955Y-135901710D01*
X182339999Y-135897327D01*
X182207892Y-135380933D01*
X182206630Y-135376645D01*
X182037938Y-134871015D01*
X182036370Y-134866818D01*
X181831966Y-134374558D01*
X181830088Y-134370456D01*
X181591023Y-133894094D01*
X181588855Y-133890133D01*
X181316347Y-133432090D01*
X181313891Y-133428279D01*
X181009331Y-132990890D01*
X181006624Y-132987284D01*
X180671552Y-132572765D01*
X180668609Y-132569380D01*
X180498034Y-132386780D01*
X180484361Y-132378698D01*
X180483667Y-132378724D01*
X180475320Y-132383890D01*
X175372022Y-137487188D01*
X175364408Y-137501132D01*
X174634356Y-137501132D01*
X174635592Y-137498868D01*
X174635461Y-137497035D01*
X174631210Y-137490420D01*
X169527007Y-132386217D01*
X169513063Y-132378603D01*
X169512606Y-132378635D01*
X169504130Y-132384332D01*
X169297104Y-132609077D01*
X169294190Y-132612477D01*
X168962015Y-133029331D01*
X168959344Y-133032941D01*
X168657831Y-133472465D01*
X168655409Y-133476283D01*
X168386107Y-133936216D01*
X168383964Y-133940196D01*
X168148233Y-134418211D01*
X168146376Y-134422343D01*
X167945427Y-134915984D01*
X167943874Y-134920230D01*
X167778729Y-135426984D01*
X167777484Y-135431326D01*
X167648991Y-135948608D01*
X167648067Y-135952991D01*
X167556885Y-136478152D01*
X167556274Y-136482609D01*
X167502873Y-137012930D01*
X167502583Y-137017413D01*
X167487236Y-137550201D01*
X50508500Y-137550201D01*
X50508500Y-131945987D01*
X68418721Y-131945987D01*
X68427548Y-131957605D01*
X68650281Y-132119430D01*
X68656961Y-132123670D01*
X68926572Y-132271890D01*
X68933707Y-132275247D01*
X69219770Y-132388508D01*
X69227296Y-132390953D01*
X69525279Y-132467462D01*
X69533050Y-132468945D01*
X69838278Y-132507503D01*
X69846169Y-132508000D01*
X70153831Y-132508000D01*
X70161722Y-132507503D01*
X70466950Y-132468945D01*
X70474721Y-132467462D01*
X70772704Y-132390953D01*
X70780230Y-132388508D01*
X71066293Y-132275247D01*
X71073428Y-132271890D01*
X71343039Y-132123670D01*
X71349719Y-132119430D01*
X71572823Y-131957336D01*
X71581246Y-131946413D01*
X71574342Y-131933552D01*
X70012812Y-130372022D01*
X69998868Y-130364408D01*
X69997035Y-130364539D01*
X69990420Y-130368790D01*
X68425334Y-131933876D01*
X68418721Y-131945987D01*
X50508500Y-131945987D01*
X50508500Y-130003958D01*
X67487290Y-130003958D01*
X67506607Y-130310994D01*
X67507600Y-130318855D01*
X67565246Y-130621046D01*
X67567217Y-130628723D01*
X67662284Y-130921309D01*
X67665199Y-130928672D01*
X67796189Y-131207041D01*
X67800001Y-131213974D01*
X67964851Y-131473736D01*
X67969495Y-131480129D01*
X68044497Y-131570790D01*
X68057014Y-131579245D01*
X68067752Y-131573038D01*
X69627978Y-130012812D01*
X69634356Y-130001132D01*
X70364408Y-130001132D01*
X70364539Y-130002965D01*
X70368790Y-130009580D01*
X71931145Y-131571935D01*
X71944407Y-131579177D01*
X71954512Y-131571988D01*
X72030505Y-131480129D01*
X72035149Y-131473736D01*
X72199999Y-131213974D01*
X72203811Y-131207041D01*
X72334801Y-130928672D01*
X72337716Y-130921309D01*
X72432783Y-130628723D01*
X72434754Y-130621046D01*
X72492400Y-130318855D01*
X72493393Y-130310994D01*
X72512710Y-130003958D01*
X72512710Y-129996042D01*
X72493393Y-129689006D01*
X72492400Y-129681145D01*
X72434754Y-129378954D01*
X72432783Y-129371277D01*
X72337716Y-129078691D01*
X72334801Y-129071328D01*
X72203811Y-128792959D01*
X72199999Y-128786026D01*
X72035149Y-128526264D01*
X72030505Y-128519871D01*
X71955503Y-128429210D01*
X71942986Y-128420755D01*
X71932248Y-128426962D01*
X70372022Y-129987188D01*
X70364408Y-130001132D01*
X69634356Y-130001132D01*
X69635592Y-129998868D01*
X69635461Y-129997035D01*
X69631210Y-129990420D01*
X68068855Y-128428065D01*
X68055593Y-128420823D01*
X68045488Y-128428012D01*
X67969495Y-128519871D01*
X67964851Y-128526264D01*
X67800001Y-128786026D01*
X67796189Y-128792959D01*
X67665199Y-129071328D01*
X67662284Y-129078691D01*
X67567217Y-129371277D01*
X67565246Y-129378954D01*
X67507600Y-129681145D01*
X67506607Y-129689006D01*
X67487290Y-129996042D01*
X67487290Y-130003958D01*
X50508500Y-130003958D01*
X50508500Y-128053587D01*
X68418754Y-128053587D01*
X68425658Y-128066448D01*
X69987188Y-129627978D01*
X70001132Y-129635592D01*
X70002965Y-129635461D01*
X70009580Y-129631210D01*
X71574666Y-128066124D01*
X71581279Y-128054013D01*
X71572452Y-128042395D01*
X71349719Y-127880570D01*
X71343039Y-127876330D01*
X71073428Y-127728110D01*
X71066293Y-127724753D01*
X70780230Y-127611492D01*
X70772704Y-127609047D01*
X70474721Y-127532538D01*
X70466950Y-127531055D01*
X70161722Y-127492497D01*
X70153831Y-127492000D01*
X69846169Y-127492000D01*
X69838278Y-127492497D01*
X69533050Y-127531055D01*
X69525279Y-127532538D01*
X69227296Y-127609047D01*
X69219770Y-127611492D01*
X68933707Y-127724753D01*
X68926572Y-127728110D01*
X68656961Y-127876330D01*
X68650281Y-127880570D01*
X68427177Y-128042664D01*
X68418754Y-128053587D01*
X50508500Y-128053587D01*
X50508500Y-126000000D01*
X79886495Y-126000000D01*
X79905953Y-126445671D01*
X79964181Y-126887951D01*
X80060733Y-127323472D01*
X80061561Y-127326097D01*
X80061562Y-127326102D01*
X80187257Y-127724753D01*
X80194877Y-127748922D01*
X80365591Y-128161061D01*
X80571575Y-128556752D01*
X80811262Y-128932986D01*
X81082828Y-129286898D01*
X81384206Y-129615794D01*
X81713102Y-129917172D01*
X81715264Y-129918831D01*
X81715270Y-129918836D01*
X81817463Y-129997251D01*
X82067014Y-130188738D01*
X82443248Y-130428425D01*
X82838939Y-130634409D01*
X83251078Y-130805123D01*
X83253698Y-130805949D01*
X83253706Y-130805952D01*
X83673898Y-130938438D01*
X83673903Y-130938439D01*
X83676528Y-130939267D01*
X83679221Y-130939864D01*
X84109355Y-131035222D01*
X84109360Y-131035223D01*
X84112049Y-131035819D01*
X84485517Y-131084988D01*
X84551594Y-131093687D01*
X84551596Y-131093687D01*
X84554329Y-131094047D01*
X84804113Y-131104953D01*
X84883987Y-131108440D01*
X84883992Y-131108440D01*
X84885364Y-131108500D01*
X85114636Y-131108500D01*
X85116008Y-131108440D01*
X85116013Y-131108440D01*
X85195887Y-131104953D01*
X85445671Y-131094047D01*
X85448404Y-131093687D01*
X85448406Y-131093687D01*
X85514483Y-131084988D01*
X85887951Y-131035819D01*
X85890640Y-131035223D01*
X85890645Y-131035222D01*
X86320779Y-130939864D01*
X86323472Y-130939267D01*
X86326097Y-130938439D01*
X86326102Y-130938438D01*
X86746294Y-130805952D01*
X86746302Y-130805949D01*
X86748922Y-130805123D01*
X87161061Y-130634409D01*
X87556752Y-130428425D01*
X87932986Y-130188738D01*
X88178954Y-130000000D01*
X94886495Y-130000000D01*
X94905953Y-130445671D01*
X94964181Y-130887951D01*
X94964777Y-130890640D01*
X94964778Y-130890645D01*
X94975557Y-130939267D01*
X95060733Y-131323472D01*
X95061561Y-131326097D01*
X95061562Y-131326102D01*
X95141357Y-131579177D01*
X95194877Y-131748922D01*
X95365591Y-132161061D01*
X95571575Y-132556752D01*
X95811262Y-132932986D01*
X96082828Y-133286898D01*
X96384206Y-133615794D01*
X96713102Y-133917172D01*
X96715264Y-133918831D01*
X96715270Y-133918836D01*
X96743107Y-133940196D01*
X97067014Y-134188738D01*
X97443248Y-134428425D01*
X97838939Y-134634409D01*
X98251078Y-134805123D01*
X98253698Y-134805949D01*
X98253706Y-134805952D01*
X98673898Y-134938438D01*
X98673903Y-134938439D01*
X98676528Y-134939267D01*
X98679221Y-134939864D01*
X99109355Y-135035222D01*
X99109360Y-135035223D01*
X99112049Y-135035819D01*
X99485517Y-135084988D01*
X99551594Y-135093687D01*
X99551596Y-135093687D01*
X99554329Y-135094047D01*
X99804113Y-135104953D01*
X99883987Y-135108440D01*
X99883992Y-135108440D01*
X99885364Y-135108500D01*
X100114636Y-135108500D01*
X100116008Y-135108440D01*
X100116013Y-135108440D01*
X100195887Y-135104953D01*
X100445671Y-135094047D01*
X100448404Y-135093687D01*
X100448406Y-135093687D01*
X100514483Y-135084988D01*
X100887951Y-135035819D01*
X100890640Y-135035223D01*
X100890645Y-135035222D01*
X101320779Y-134939864D01*
X101323472Y-134939267D01*
X101326097Y-134938439D01*
X101326102Y-134938438D01*
X101746294Y-134805952D01*
X101746302Y-134805949D01*
X101748922Y-134805123D01*
X102161061Y-134634409D01*
X102556752Y-134428425D01*
X102932986Y-134188738D01*
X103256893Y-133940196D01*
X103284730Y-133918836D01*
X103284736Y-133918831D01*
X103286898Y-133917172D01*
X103615794Y-133615794D01*
X103917172Y-133286898D01*
X104188738Y-132932986D01*
X104428425Y-132556753D01*
X104634409Y-132161061D01*
X104723496Y-131945987D01*
X128418721Y-131945987D01*
X128427548Y-131957605D01*
X128650281Y-132119430D01*
X128656961Y-132123670D01*
X128926572Y-132271890D01*
X128933707Y-132275247D01*
X129219770Y-132388508D01*
X129227296Y-132390953D01*
X129525279Y-132467462D01*
X129533050Y-132468945D01*
X129838278Y-132507503D01*
X129846169Y-132508000D01*
X130153831Y-132508000D01*
X130161722Y-132507503D01*
X130466950Y-132468945D01*
X130474721Y-132467462D01*
X130772704Y-132390953D01*
X130780230Y-132388508D01*
X131066293Y-132275247D01*
X131073428Y-132271890D01*
X131343039Y-132123670D01*
X131349719Y-132119430D01*
X131572823Y-131957336D01*
X131581246Y-131946413D01*
X131574342Y-131933552D01*
X130012812Y-130372022D01*
X129998868Y-130364408D01*
X129997035Y-130364539D01*
X129990420Y-130368790D01*
X128425334Y-131933876D01*
X128418721Y-131945987D01*
X104723496Y-131945987D01*
X104805123Y-131748922D01*
X104858644Y-131579177D01*
X104938438Y-131326102D01*
X104938439Y-131326097D01*
X104939267Y-131323472D01*
X105024443Y-130939267D01*
X105035222Y-130890645D01*
X105035223Y-130890640D01*
X105035819Y-130887951D01*
X105094047Y-130445671D01*
X105113505Y-130000000D01*
X105094047Y-129554329D01*
X105035819Y-129112049D01*
X105026792Y-129071328D01*
X104939864Y-128679221D01*
X104939267Y-128676528D01*
X104902235Y-128559077D01*
X104805952Y-128253706D01*
X104805949Y-128253698D01*
X104805123Y-128251078D01*
X104634409Y-127838939D01*
X104428425Y-127443248D01*
X104188738Y-127067014D01*
X103917172Y-126713102D01*
X103615794Y-126384206D01*
X103286898Y-126082828D01*
X103284736Y-126081169D01*
X103284730Y-126081164D01*
X103178954Y-126000000D01*
X109886495Y-126000000D01*
X109905953Y-126445671D01*
X109964181Y-126887951D01*
X110060733Y-127323472D01*
X110061561Y-127326097D01*
X110061562Y-127326102D01*
X110187257Y-127724753D01*
X110194877Y-127748922D01*
X110365591Y-128161061D01*
X110571575Y-128556752D01*
X110811262Y-128932986D01*
X111082828Y-129286898D01*
X111384206Y-129615794D01*
X111713102Y-129917172D01*
X111715264Y-129918831D01*
X111715270Y-129918836D01*
X111817463Y-129997251D01*
X112067014Y-130188738D01*
X112443248Y-130428425D01*
X112838939Y-130634409D01*
X113251078Y-130805123D01*
X113253698Y-130805949D01*
X113253706Y-130805952D01*
X113673898Y-130938438D01*
X113673903Y-130938439D01*
X113676528Y-130939267D01*
X113679221Y-130939864D01*
X114109355Y-131035222D01*
X114109360Y-131035223D01*
X114112049Y-131035819D01*
X114485517Y-131084988D01*
X114551594Y-131093687D01*
X114551596Y-131093687D01*
X114554329Y-131094047D01*
X114804113Y-131104953D01*
X114883987Y-131108440D01*
X114883992Y-131108440D01*
X114885364Y-131108500D01*
X115114636Y-131108500D01*
X115116008Y-131108440D01*
X115116013Y-131108440D01*
X115195887Y-131104953D01*
X115445671Y-131094047D01*
X115448404Y-131093687D01*
X115448406Y-131093687D01*
X115514483Y-131084988D01*
X115887951Y-131035819D01*
X115890640Y-131035223D01*
X115890645Y-131035222D01*
X116320779Y-130939864D01*
X116323472Y-130939267D01*
X116326097Y-130938439D01*
X116326102Y-130938438D01*
X116746294Y-130805952D01*
X116746302Y-130805949D01*
X116748922Y-130805123D01*
X117161061Y-130634409D01*
X117556752Y-130428425D01*
X117932986Y-130188738D01*
X118173796Y-130003958D01*
X127487290Y-130003958D01*
X127506607Y-130310994D01*
X127507600Y-130318855D01*
X127565246Y-130621046D01*
X127567217Y-130628723D01*
X127662284Y-130921309D01*
X127665199Y-130928672D01*
X127796189Y-131207041D01*
X127800001Y-131213974D01*
X127964851Y-131473736D01*
X127969495Y-131480129D01*
X128044497Y-131570790D01*
X128057014Y-131579245D01*
X128067752Y-131573038D01*
X129627978Y-130012812D01*
X129634356Y-130001132D01*
X130364408Y-130001132D01*
X130364539Y-130002965D01*
X130368790Y-130009580D01*
X131931145Y-131571935D01*
X131944407Y-131579177D01*
X131954512Y-131571988D01*
X132030505Y-131480129D01*
X132035149Y-131473736D01*
X132199999Y-131213974D01*
X132203811Y-131207041D01*
X132334801Y-130928672D01*
X132337716Y-130921309D01*
X132432783Y-130628723D01*
X132434754Y-130621046D01*
X132492400Y-130318855D01*
X132493393Y-130310994D01*
X132512710Y-130003958D01*
X132512710Y-130000000D01*
X144886495Y-130000000D01*
X144905953Y-130445671D01*
X144964181Y-130887951D01*
X144964777Y-130890640D01*
X144964778Y-130890645D01*
X144975557Y-130939267D01*
X145060733Y-131323472D01*
X145061561Y-131326097D01*
X145061562Y-131326102D01*
X145141357Y-131579177D01*
X145194877Y-131748922D01*
X145365591Y-132161061D01*
X145571575Y-132556752D01*
X145811262Y-132932986D01*
X146082828Y-133286898D01*
X146384206Y-133615794D01*
X146713102Y-133917172D01*
X146715264Y-133918831D01*
X146715270Y-133918836D01*
X146743107Y-133940196D01*
X147067014Y-134188738D01*
X147443248Y-134428425D01*
X147838939Y-134634409D01*
X148251078Y-134805123D01*
X148253698Y-134805949D01*
X148253706Y-134805952D01*
X148673898Y-134938438D01*
X148673903Y-134938439D01*
X148676528Y-134939267D01*
X148679221Y-134939864D01*
X149109355Y-135035222D01*
X149109360Y-135035223D01*
X149112049Y-135035819D01*
X149485517Y-135084988D01*
X149551594Y-135093687D01*
X149551596Y-135093687D01*
X149554329Y-135094047D01*
X149804113Y-135104953D01*
X149883987Y-135108440D01*
X149883992Y-135108440D01*
X149885364Y-135108500D01*
X150114636Y-135108500D01*
X150116008Y-135108440D01*
X150116013Y-135108440D01*
X150195887Y-135104953D01*
X150445671Y-135094047D01*
X150448404Y-135093687D01*
X150448406Y-135093687D01*
X150514483Y-135084988D01*
X150887951Y-135035819D01*
X150890640Y-135035223D01*
X150890645Y-135035222D01*
X151320779Y-134939864D01*
X151323472Y-134939267D01*
X151326097Y-134938439D01*
X151326102Y-134938438D01*
X151746294Y-134805952D01*
X151746302Y-134805949D01*
X151748922Y-134805123D01*
X152161061Y-134634409D01*
X152556752Y-134428425D01*
X152932986Y-134188738D01*
X153256893Y-133940196D01*
X153284730Y-133918836D01*
X153284736Y-133918831D01*
X153286898Y-133917172D01*
X153615794Y-133615794D01*
X153917172Y-133286898D01*
X154188738Y-132932986D01*
X154428425Y-132556753D01*
X154634409Y-132161061D01*
X154694665Y-132015591D01*
X169878674Y-132015591D01*
X169878707Y-132016404D01*
X169883783Y-132024573D01*
X174987188Y-137127978D01*
X175001132Y-137135592D01*
X175002965Y-137135461D01*
X175009580Y-137131210D01*
X180113682Y-132027108D01*
X180119971Y-132015591D01*
X194878674Y-132015591D01*
X194878707Y-132016404D01*
X194883783Y-132024573D01*
X199987188Y-137127978D01*
X200001132Y-137135592D01*
X200002965Y-137135461D01*
X200009580Y-137131210D01*
X205113682Y-132027108D01*
X205119971Y-132015591D01*
X219878674Y-132015591D01*
X219878707Y-132016404D01*
X219883783Y-132024573D01*
X224987188Y-137127978D01*
X225001132Y-137135592D01*
X225002965Y-137135461D01*
X225009580Y-137131210D01*
X230113682Y-132027108D01*
X230121296Y-132013164D01*
X230121255Y-132012590D01*
X230115684Y-132004268D01*
X229910818Y-131814228D01*
X229907387Y-131811267D01*
X229491729Y-131477666D01*
X229488115Y-131474972D01*
X229049654Y-131171933D01*
X229045835Y-131169490D01*
X228586846Y-130898585D01*
X228582877Y-130896430D01*
X228105679Y-130659028D01*
X228101575Y-130657166D01*
X227608610Y-130454483D01*
X227604395Y-130452924D01*
X227098199Y-130286006D01*
X227093883Y-130284752D01*
X226577042Y-130154451D01*
X226572665Y-130153513D01*
X226047822Y-130060496D01*
X226043365Y-130059870D01*
X225513241Y-130004620D01*
X225508747Y-130004313D01*
X224976027Y-129987107D01*
X224971530Y-129987122D01*
X224438927Y-130008048D01*
X224434451Y-130008384D01*
X223904713Y-130067336D01*
X223900261Y-130067994D01*
X223376106Y-130164667D01*
X223371701Y-130165643D01*
X222855801Y-130299545D01*
X222851490Y-130300830D01*
X222346471Y-130471278D01*
X222342259Y-130472870D01*
X221850723Y-130678988D01*
X221846647Y-130680871D01*
X221371109Y-130921605D01*
X221367158Y-130923786D01*
X220910063Y-131197893D01*
X220906267Y-131200358D01*
X220469930Y-131506452D01*
X220466347Y-131509162D01*
X220053007Y-131845674D01*
X220049617Y-131848642D01*
X219886708Y-132001891D01*
X219878674Y-132015591D01*
X205119971Y-132015591D01*
X205121296Y-132013164D01*
X205121255Y-132012590D01*
X205115684Y-132004268D01*
X204910818Y-131814228D01*
X204907387Y-131811267D01*
X204491729Y-131477666D01*
X204488115Y-131474972D01*
X204049654Y-131171933D01*
X204045835Y-131169490D01*
X203586846Y-130898585D01*
X203582877Y-130896430D01*
X203105679Y-130659028D01*
X203101575Y-130657166D01*
X202608610Y-130454483D01*
X202604395Y-130452924D01*
X202098199Y-130286006D01*
X202093883Y-130284752D01*
X201577042Y-130154451D01*
X201572665Y-130153513D01*
X201047822Y-130060496D01*
X201043365Y-130059870D01*
X200513241Y-130004620D01*
X200508747Y-130004313D01*
X199976027Y-129987107D01*
X199971530Y-129987122D01*
X199438927Y-130008048D01*
X199434451Y-130008384D01*
X198904713Y-130067336D01*
X198900261Y-130067994D01*
X198376106Y-130164667D01*
X198371701Y-130165643D01*
X197855801Y-130299545D01*
X197851490Y-130300830D01*
X197346471Y-130471278D01*
X197342259Y-130472870D01*
X196850723Y-130678988D01*
X196846647Y-130680871D01*
X196371109Y-130921605D01*
X196367158Y-130923786D01*
X195910063Y-131197893D01*
X195906267Y-131200358D01*
X195469930Y-131506452D01*
X195466347Y-131509162D01*
X195053007Y-131845674D01*
X195049617Y-131848642D01*
X194886708Y-132001891D01*
X194878674Y-132015591D01*
X180119971Y-132015591D01*
X180121296Y-132013164D01*
X180121255Y-132012590D01*
X180115684Y-132004268D01*
X179910818Y-131814228D01*
X179907387Y-131811267D01*
X179491729Y-131477666D01*
X179488115Y-131474972D01*
X179049654Y-131171933D01*
X179045835Y-131169490D01*
X178586846Y-130898585D01*
X178582877Y-130896430D01*
X178105679Y-130659028D01*
X178101575Y-130657166D01*
X177608610Y-130454483D01*
X177604395Y-130452924D01*
X177098199Y-130286006D01*
X177093883Y-130284752D01*
X176577042Y-130154451D01*
X176572665Y-130153513D01*
X176047822Y-130060496D01*
X176043365Y-130059870D01*
X175513241Y-130004620D01*
X175508747Y-130004313D01*
X174976027Y-129987107D01*
X174971530Y-129987122D01*
X174438927Y-130008048D01*
X174434451Y-130008384D01*
X173904713Y-130067336D01*
X173900261Y-130067994D01*
X173376106Y-130164667D01*
X173371701Y-130165643D01*
X172855801Y-130299545D01*
X172851490Y-130300830D01*
X172346471Y-130471278D01*
X172342259Y-130472870D01*
X171850723Y-130678988D01*
X171846647Y-130680871D01*
X171371109Y-130921605D01*
X171367158Y-130923786D01*
X170910063Y-131197893D01*
X170906267Y-131200358D01*
X170469930Y-131506452D01*
X170466347Y-131509162D01*
X170053007Y-131845674D01*
X170049617Y-131848642D01*
X169886708Y-132001891D01*
X169878674Y-132015591D01*
X154694665Y-132015591D01*
X154805123Y-131748922D01*
X154858644Y-131579177D01*
X154938438Y-131326102D01*
X154938439Y-131326097D01*
X154939267Y-131323472D01*
X155024443Y-130939267D01*
X155035222Y-130890645D01*
X155035223Y-130890640D01*
X155035819Y-130887951D01*
X155094047Y-130445671D01*
X155113505Y-130000000D01*
X155094047Y-129554329D01*
X155035819Y-129112049D01*
X155026792Y-129071328D01*
X154939864Y-128679221D01*
X154939267Y-128676528D01*
X154902235Y-128559077D01*
X154805952Y-128253706D01*
X154805949Y-128253698D01*
X154805123Y-128251078D01*
X154634409Y-127838939D01*
X154428425Y-127443248D01*
X154188738Y-127067014D01*
X153917172Y-126713102D01*
X153615794Y-126384206D01*
X153286898Y-126082828D01*
X153284736Y-126081169D01*
X153284730Y-126081164D01*
X153164492Y-125988903D01*
X152932986Y-125811262D01*
X152556752Y-125571575D01*
X152161061Y-125365591D01*
X151748922Y-125194877D01*
X151746302Y-125194051D01*
X151746294Y-125194048D01*
X151326102Y-125061562D01*
X151326097Y-125061561D01*
X151323472Y-125060733D01*
X151288584Y-125052999D01*
X150890645Y-124964778D01*
X150890640Y-124964777D01*
X150887951Y-124964181D01*
X150514483Y-124915012D01*
X150448406Y-124906313D01*
X150448404Y-124906313D01*
X150445671Y-124905953D01*
X150195887Y-124895047D01*
X150116013Y-124891560D01*
X150116008Y-124891560D01*
X150114636Y-124891500D01*
X149885364Y-124891500D01*
X149883992Y-124891560D01*
X149883987Y-124891560D01*
X149804113Y-124895047D01*
X149554329Y-124905953D01*
X149551596Y-124906313D01*
X149551594Y-124906313D01*
X149485517Y-124915012D01*
X149112049Y-124964181D01*
X149109360Y-124964777D01*
X149109355Y-124964778D01*
X148711416Y-125052999D01*
X148676528Y-125060733D01*
X148673903Y-125061561D01*
X148673898Y-125061562D01*
X148253706Y-125194048D01*
X148253698Y-125194051D01*
X148251078Y-125194877D01*
X147838939Y-125365591D01*
X147443248Y-125571575D01*
X147067014Y-125811262D01*
X146835508Y-125988903D01*
X146715270Y-126081164D01*
X146715264Y-126081169D01*
X146713102Y-126082828D01*
X146384206Y-126384206D01*
X146082828Y-126713102D01*
X145811262Y-127067014D01*
X145571575Y-127443247D01*
X145365591Y-127838939D01*
X145194877Y-128251078D01*
X145194051Y-128253698D01*
X145194048Y-128253706D01*
X145097765Y-128559077D01*
X145060733Y-128676528D01*
X145060136Y-128679221D01*
X144973209Y-129071328D01*
X144964181Y-129112049D01*
X144905953Y-129554329D01*
X144886495Y-130000000D01*
X132512710Y-130000000D01*
X132512710Y-129996042D01*
X132493393Y-129689006D01*
X132492400Y-129681145D01*
X132434754Y-129378954D01*
X132432783Y-129371277D01*
X132337716Y-129078691D01*
X132334801Y-129071328D01*
X132203811Y-128792959D01*
X132199999Y-128786026D01*
X132035149Y-128526264D01*
X132030505Y-128519871D01*
X131955503Y-128429210D01*
X131942986Y-128420755D01*
X131932248Y-128426962D01*
X130372022Y-129987188D01*
X130364408Y-130001132D01*
X129634356Y-130001132D01*
X129635592Y-129998868D01*
X129635461Y-129997035D01*
X129631210Y-129990420D01*
X128068855Y-128428065D01*
X128055593Y-128420823D01*
X128045488Y-128428012D01*
X127969495Y-128519871D01*
X127964851Y-128526264D01*
X127800001Y-128786026D01*
X127796189Y-128792959D01*
X127665199Y-129071328D01*
X127662284Y-129078691D01*
X127567217Y-129371277D01*
X127565246Y-129378954D01*
X127507600Y-129681145D01*
X127506607Y-129689006D01*
X127487290Y-129996042D01*
X127487290Y-130003958D01*
X118173796Y-130003958D01*
X118182537Y-129997251D01*
X118284730Y-129918836D01*
X118284736Y-129918831D01*
X118286898Y-129917172D01*
X118615794Y-129615794D01*
X118917172Y-129286898D01*
X119188738Y-128932986D01*
X119428425Y-128556753D01*
X119634409Y-128161061D01*
X119678926Y-128053587D01*
X128418754Y-128053587D01*
X128425658Y-128066448D01*
X129987188Y-129627978D01*
X130001132Y-129635592D01*
X130002965Y-129635461D01*
X130009580Y-129631210D01*
X131574666Y-128066124D01*
X131581279Y-128054013D01*
X131572452Y-128042395D01*
X131349719Y-127880570D01*
X131343039Y-127876330D01*
X131073428Y-127728110D01*
X131066293Y-127724753D01*
X130780230Y-127611492D01*
X130772704Y-127609047D01*
X130474721Y-127532538D01*
X130466950Y-127531055D01*
X130161722Y-127492497D01*
X130153831Y-127492000D01*
X129846169Y-127492000D01*
X129838278Y-127492497D01*
X129533050Y-127531055D01*
X129525279Y-127532538D01*
X129227296Y-127609047D01*
X129219770Y-127611492D01*
X128933707Y-127724753D01*
X128926572Y-127728110D01*
X128656961Y-127876330D01*
X128650281Y-127880570D01*
X128427177Y-128042664D01*
X128418754Y-128053587D01*
X119678926Y-128053587D01*
X119805123Y-127748922D01*
X119812744Y-127724753D01*
X119938438Y-127326102D01*
X119938439Y-127326097D01*
X119939267Y-127323472D01*
X120035819Y-126887951D01*
X120094047Y-126445671D01*
X120113505Y-126000000D01*
X120094047Y-125554329D01*
X120035819Y-125112049D01*
X120024627Y-125061562D01*
X119939864Y-124679221D01*
X119939267Y-124676528D01*
X119805123Y-124251078D01*
X119634409Y-123838939D01*
X119428425Y-123443248D01*
X119188738Y-123067014D01*
X118917172Y-122713102D01*
X118615794Y-122384206D01*
X118286898Y-122082828D01*
X118284736Y-122081169D01*
X118284730Y-122081164D01*
X118164492Y-121988903D01*
X117932986Y-121811262D01*
X117556752Y-121571575D01*
X117161061Y-121365591D01*
X116748922Y-121194877D01*
X116746302Y-121194051D01*
X116746294Y-121194048D01*
X116326102Y-121061562D01*
X116326097Y-121061561D01*
X116323472Y-121060733D01*
X116288584Y-121052999D01*
X115890645Y-120964778D01*
X115890640Y-120964777D01*
X115887951Y-120964181D01*
X115514483Y-120915012D01*
X115448406Y-120906313D01*
X115448404Y-120906313D01*
X115445671Y-120905953D01*
X115195887Y-120895047D01*
X115116013Y-120891560D01*
X115116008Y-120891560D01*
X115114636Y-120891500D01*
X114885364Y-120891500D01*
X114883992Y-120891560D01*
X114883987Y-120891560D01*
X114804113Y-120895047D01*
X114554329Y-120905953D01*
X114551596Y-120906313D01*
X114551594Y-120906313D01*
X114485517Y-120915012D01*
X114112049Y-120964181D01*
X114109360Y-120964777D01*
X114109355Y-120964778D01*
X113711416Y-121052999D01*
X113676528Y-121060733D01*
X113673903Y-121061561D01*
X113673898Y-121061562D01*
X113253706Y-121194048D01*
X113253698Y-121194051D01*
X113251078Y-121194877D01*
X112838939Y-121365591D01*
X112443248Y-121571575D01*
X112067014Y-121811262D01*
X111835508Y-121988903D01*
X111715270Y-122081164D01*
X111715264Y-122081169D01*
X111713102Y-122082828D01*
X111384206Y-122384206D01*
X111082828Y-122713102D01*
X110811262Y-123067014D01*
X110571575Y-123443247D01*
X110365591Y-123838939D01*
X110194877Y-124251078D01*
X110060733Y-124676528D01*
X110060136Y-124679221D01*
X109975374Y-125061562D01*
X109964181Y-125112049D01*
X109905953Y-125554329D01*
X109886495Y-126000000D01*
X103178954Y-126000000D01*
X103164492Y-125988903D01*
X102932986Y-125811262D01*
X102556752Y-125571575D01*
X102161061Y-125365591D01*
X101748922Y-125194877D01*
X101746302Y-125194051D01*
X101746294Y-125194048D01*
X101326102Y-125061562D01*
X101326097Y-125061561D01*
X101323472Y-125060733D01*
X101288584Y-125052999D01*
X100890645Y-124964778D01*
X100890640Y-124964777D01*
X100887951Y-124964181D01*
X100514483Y-124915012D01*
X100448406Y-124906313D01*
X100448404Y-124906313D01*
X100445671Y-124905953D01*
X100195887Y-124895047D01*
X100116013Y-124891560D01*
X100116008Y-124891560D01*
X100114636Y-124891500D01*
X99885364Y-124891500D01*
X99883992Y-124891560D01*
X99883987Y-124891560D01*
X99804113Y-124895047D01*
X99554329Y-124905953D01*
X99551596Y-124906313D01*
X99551594Y-124906313D01*
X99485517Y-124915012D01*
X99112049Y-124964181D01*
X99109360Y-124964777D01*
X99109355Y-124964778D01*
X98711416Y-125052999D01*
X98676528Y-125060733D01*
X98673903Y-125061561D01*
X98673898Y-125061562D01*
X98253706Y-125194048D01*
X98253698Y-125194051D01*
X98251078Y-125194877D01*
X97838939Y-125365591D01*
X97443248Y-125571575D01*
X97067014Y-125811262D01*
X96835508Y-125988903D01*
X96715270Y-126081164D01*
X96715264Y-126081169D01*
X96713102Y-126082828D01*
X96384206Y-126384206D01*
X96082828Y-126713102D01*
X95811262Y-127067014D01*
X95571575Y-127443247D01*
X95365591Y-127838939D01*
X95194877Y-128251078D01*
X95194051Y-128253698D01*
X95194048Y-128253706D01*
X95097765Y-128559077D01*
X95060733Y-128676528D01*
X95060136Y-128679221D01*
X94973209Y-129071328D01*
X94964181Y-129112049D01*
X94905953Y-129554329D01*
X94886495Y-130000000D01*
X88178954Y-130000000D01*
X88182537Y-129997251D01*
X88284730Y-129918836D01*
X88284736Y-129918831D01*
X88286898Y-129917172D01*
X88615794Y-129615794D01*
X88917172Y-129286898D01*
X89188738Y-128932986D01*
X89428425Y-128556753D01*
X89634409Y-128161061D01*
X89805123Y-127748922D01*
X89812744Y-127724753D01*
X89938438Y-127326102D01*
X89938439Y-127326097D01*
X89939267Y-127323472D01*
X90035819Y-126887951D01*
X90094047Y-126445671D01*
X90113505Y-126000000D01*
X90094047Y-125554329D01*
X90035819Y-125112049D01*
X90024627Y-125061562D01*
X89939864Y-124679221D01*
X89939267Y-124676528D01*
X89805123Y-124251078D01*
X89634409Y-123838939D01*
X89428425Y-123443248D01*
X89188738Y-123067014D01*
X88917172Y-122713102D01*
X88615794Y-122384206D01*
X88286898Y-122082828D01*
X88284736Y-122081169D01*
X88284730Y-122081164D01*
X88164492Y-121988903D01*
X87932986Y-121811262D01*
X87556752Y-121571575D01*
X87161061Y-121365591D01*
X86748922Y-121194877D01*
X86746302Y-121194051D01*
X86746294Y-121194048D01*
X86326102Y-121061562D01*
X86326097Y-121061561D01*
X86323472Y-121060733D01*
X86288584Y-121052999D01*
X85890645Y-120964778D01*
X85890640Y-120964777D01*
X85887951Y-120964181D01*
X85514483Y-120915012D01*
X85448406Y-120906313D01*
X85448404Y-120906313D01*
X85445671Y-120905953D01*
X85195887Y-120895047D01*
X85116013Y-120891560D01*
X85116008Y-120891560D01*
X85114636Y-120891500D01*
X84885364Y-120891500D01*
X84883992Y-120891560D01*
X84883987Y-120891560D01*
X84804113Y-120895047D01*
X84554329Y-120905953D01*
X84551596Y-120906313D01*
X84551594Y-120906313D01*
X84485517Y-120915012D01*
X84112049Y-120964181D01*
X84109360Y-120964777D01*
X84109355Y-120964778D01*
X83711416Y-121052999D01*
X83676528Y-121060733D01*
X83673903Y-121061561D01*
X83673898Y-121061562D01*
X83253706Y-121194048D01*
X83253698Y-121194051D01*
X83251078Y-121194877D01*
X82838939Y-121365591D01*
X82443248Y-121571575D01*
X82067014Y-121811262D01*
X81835508Y-121988903D01*
X81715270Y-122081164D01*
X81715264Y-122081169D01*
X81713102Y-122082828D01*
X81384206Y-122384206D01*
X81082828Y-122713102D01*
X80811262Y-123067014D01*
X80571575Y-123443247D01*
X80365591Y-123838939D01*
X80194877Y-124251078D01*
X80060733Y-124676528D01*
X80060136Y-124679221D01*
X79975374Y-125061562D01*
X79964181Y-125112049D01*
X79905953Y-125554329D01*
X79886495Y-126000000D01*
X50508500Y-126000000D01*
X50508500Y-115000000D01*
X68886495Y-115000000D01*
X68905953Y-115445671D01*
X68964181Y-115887951D01*
X69060733Y-116323472D01*
X69061561Y-116326097D01*
X69061562Y-116326102D01*
X69111084Y-116483164D01*
X69194877Y-116748922D01*
X69365591Y-117161061D01*
X69571575Y-117556752D01*
X69811262Y-117932986D01*
X69861497Y-117998453D01*
X70031429Y-118219913D01*
X70082828Y-118286898D01*
X70384206Y-118615794D01*
X70713102Y-118917172D01*
X70715264Y-118918831D01*
X70715270Y-118918836D01*
X70835508Y-119011097D01*
X71067014Y-119188738D01*
X71443248Y-119428425D01*
X71838939Y-119634409D01*
X72251078Y-119805123D01*
X72253698Y-119805949D01*
X72253706Y-119805952D01*
X72673898Y-119938438D01*
X72673903Y-119938439D01*
X72676528Y-119939267D01*
X72679221Y-119939864D01*
X73109355Y-120035222D01*
X73109360Y-120035223D01*
X73112049Y-120035819D01*
X73485517Y-120084988D01*
X73551594Y-120093687D01*
X73551596Y-120093687D01*
X73554329Y-120094047D01*
X73804113Y-120104953D01*
X73883987Y-120108440D01*
X73883992Y-120108440D01*
X73885364Y-120108500D01*
X74114636Y-120108500D01*
X74116008Y-120108440D01*
X74116013Y-120108440D01*
X74195887Y-120104953D01*
X74445671Y-120094047D01*
X74448404Y-120093687D01*
X74448406Y-120093687D01*
X74514483Y-120084988D01*
X74887951Y-120035819D01*
X74890640Y-120035223D01*
X74890645Y-120035222D01*
X75320779Y-119939864D01*
X75323472Y-119939267D01*
X75326097Y-119938439D01*
X75326102Y-119938438D01*
X75746294Y-119805952D01*
X75746302Y-119805949D01*
X75748922Y-119805123D01*
X76161061Y-119634409D01*
X76556752Y-119428425D01*
X76932986Y-119188738D01*
X77164492Y-119011097D01*
X77284730Y-118918836D01*
X77284736Y-118918831D01*
X77286898Y-118917172D01*
X77615794Y-118615794D01*
X77917172Y-118286898D01*
X77968572Y-118219913D01*
X78138503Y-117998453D01*
X78188738Y-117932986D01*
X78428425Y-117556753D01*
X78634409Y-117161061D01*
X78805123Y-116748922D01*
X78888917Y-116483164D01*
X78938438Y-116326102D01*
X78938439Y-116326097D01*
X78939267Y-116323472D01*
X79035819Y-115887951D01*
X79094047Y-115445671D01*
X79113505Y-115000000D01*
X120886495Y-115000000D01*
X120905953Y-115445671D01*
X120964181Y-115887951D01*
X121060733Y-116323472D01*
X121061561Y-116326097D01*
X121061562Y-116326102D01*
X121111084Y-116483164D01*
X121194877Y-116748922D01*
X121365591Y-117161061D01*
X121571575Y-117556752D01*
X121811262Y-117932986D01*
X121861497Y-117998453D01*
X122031429Y-118219913D01*
X122082828Y-118286898D01*
X122384206Y-118615794D01*
X122713102Y-118917172D01*
X122715264Y-118918831D01*
X122715270Y-118918836D01*
X122835508Y-119011097D01*
X123067014Y-119188738D01*
X123443248Y-119428425D01*
X123838939Y-119634409D01*
X124251078Y-119805123D01*
X124253698Y-119805949D01*
X124253706Y-119805952D01*
X124673898Y-119938438D01*
X124673903Y-119938439D01*
X124676528Y-119939267D01*
X124679221Y-119939864D01*
X125109355Y-120035222D01*
X125109360Y-120035223D01*
X125112049Y-120035819D01*
X125485517Y-120084988D01*
X125551594Y-120093687D01*
X125551596Y-120093687D01*
X125554329Y-120094047D01*
X125804113Y-120104953D01*
X125883987Y-120108440D01*
X125883992Y-120108440D01*
X125885364Y-120108500D01*
X126114636Y-120108500D01*
X126116008Y-120108440D01*
X126116013Y-120108440D01*
X126195887Y-120104953D01*
X126445671Y-120094047D01*
X126448404Y-120093687D01*
X126448406Y-120093687D01*
X126514483Y-120084988D01*
X126887951Y-120035819D01*
X126890640Y-120035223D01*
X126890645Y-120035222D01*
X127320779Y-119939864D01*
X127323472Y-119939267D01*
X127326097Y-119938439D01*
X127326102Y-119938438D01*
X127746294Y-119805952D01*
X127746302Y-119805949D01*
X127748922Y-119805123D01*
X128161061Y-119634409D01*
X128556752Y-119428425D01*
X128932986Y-119188738D01*
X129164492Y-119011097D01*
X129284730Y-118918836D01*
X129284736Y-118918831D01*
X129286898Y-118917172D01*
X129615794Y-118615794D01*
X129917172Y-118286898D01*
X129968572Y-118219913D01*
X130138503Y-117998453D01*
X130147213Y-117987102D01*
X194878438Y-117987102D01*
X194878462Y-117987441D01*
X194884285Y-117996073D01*
X195128991Y-118219913D01*
X195132445Y-118222852D01*
X195550430Y-118553550D01*
X195554067Y-118556222D01*
X195994618Y-118856182D01*
X195998446Y-118858593D01*
X196459337Y-119126300D01*
X196463309Y-119128421D01*
X196942148Y-119362483D01*
X196946284Y-119364325D01*
X197440627Y-119563551D01*
X197444871Y-119565087D01*
X197952218Y-119728467D01*
X197956539Y-119729689D01*
X198474254Y-119856374D01*
X198478695Y-119857294D01*
X199004141Y-119946637D01*
X199008595Y-119947232D01*
X199539106Y-119998782D01*
X199543579Y-119999056D01*
X200076427Y-120012543D01*
X200080930Y-120012496D01*
X200613352Y-119987853D01*
X200617836Y-119987485D01*
X201147152Y-119924836D01*
X201151591Y-119924149D01*
X201675087Y-119823814D01*
X201679446Y-119822815D01*
X202194414Y-119685311D01*
X202198727Y-119683992D01*
X202702525Y-119510028D01*
X202706740Y-119508402D01*
X203196805Y-119298866D01*
X203200892Y-119296943D01*
X203674731Y-119052900D01*
X203678658Y-119050696D01*
X204133828Y-118773404D01*
X204137624Y-118770901D01*
X204571786Y-118461788D01*
X204575372Y-118459036D01*
X204986362Y-118119640D01*
X204989705Y-118116672D01*
X205113630Y-117998453D01*
X205120179Y-117987102D01*
X219878438Y-117987102D01*
X219878462Y-117987441D01*
X219884285Y-117996073D01*
X220128991Y-118219913D01*
X220132445Y-118222852D01*
X220550430Y-118553550D01*
X220554067Y-118556222D01*
X220994618Y-118856182D01*
X220998446Y-118858593D01*
X221459337Y-119126300D01*
X221463309Y-119128421D01*
X221942148Y-119362483D01*
X221946284Y-119364325D01*
X222440627Y-119563551D01*
X222444871Y-119565087D01*
X222952218Y-119728467D01*
X222956539Y-119729689D01*
X223474254Y-119856374D01*
X223478695Y-119857294D01*
X224004141Y-119946637D01*
X224008595Y-119947232D01*
X224539106Y-119998782D01*
X224543579Y-119999056D01*
X225076427Y-120012543D01*
X225080930Y-120012496D01*
X225613352Y-119987853D01*
X225617836Y-119987485D01*
X226147152Y-119924836D01*
X226151591Y-119924149D01*
X226675087Y-119823814D01*
X226679446Y-119822815D01*
X227194414Y-119685311D01*
X227198727Y-119683992D01*
X227702525Y-119510028D01*
X227706740Y-119508402D01*
X228196805Y-119298866D01*
X228200892Y-119296943D01*
X228674731Y-119052900D01*
X228678658Y-119050696D01*
X229133828Y-118773404D01*
X229137624Y-118770901D01*
X229571786Y-118461788D01*
X229575372Y-118459036D01*
X229986362Y-118119640D01*
X229989705Y-118116672D01*
X230113630Y-117998453D01*
X230121568Y-117984695D01*
X230121518Y-117983649D01*
X230116625Y-117975835D01*
X225012812Y-112872022D01*
X224998868Y-112864408D01*
X224997035Y-112864539D01*
X224990420Y-112868790D01*
X219886052Y-117973158D01*
X219878438Y-117987102D01*
X205120179Y-117987102D01*
X205121568Y-117984695D01*
X205121518Y-117983649D01*
X205116625Y-117975835D01*
X200012812Y-112872022D01*
X199998868Y-112864408D01*
X199997035Y-112864539D01*
X199990420Y-112868790D01*
X194886052Y-117973158D01*
X194878438Y-117987102D01*
X130147213Y-117987102D01*
X130188738Y-117932986D01*
X130428425Y-117556753D01*
X130634409Y-117161061D01*
X130805123Y-116748922D01*
X130888917Y-116483164D01*
X130938438Y-116326102D01*
X130938439Y-116326097D01*
X130939267Y-116323472D01*
X131035819Y-115887951D01*
X131094047Y-115445671D01*
X131113505Y-115000000D01*
X131094047Y-114554329D01*
X131089066Y-114516491D01*
X131053011Y-114242636D01*
X131035819Y-114112049D01*
X131019193Y-114037051D01*
X130939864Y-113679221D01*
X130939267Y-113676528D01*
X130927328Y-113638661D01*
X130805952Y-113253706D01*
X130805949Y-113253698D01*
X130805123Y-113251078D01*
X130634409Y-112838939D01*
X130428425Y-112443248D01*
X130188738Y-112067014D01*
X130011097Y-111835508D01*
X129918836Y-111715270D01*
X129918831Y-111715264D01*
X129917172Y-111713102D01*
X129615794Y-111384206D01*
X129286898Y-111082828D01*
X129284736Y-111081169D01*
X129284730Y-111081164D01*
X129134583Y-110965953D01*
X128932986Y-110811262D01*
X128556752Y-110571575D01*
X128161061Y-110365591D01*
X127748922Y-110194877D01*
X127746302Y-110194051D01*
X127746294Y-110194048D01*
X127326102Y-110061562D01*
X127326097Y-110061561D01*
X127323472Y-110060733D01*
X127155483Y-110023491D01*
X127049522Y-110000000D01*
X144886495Y-110000000D01*
X144905953Y-110445671D01*
X144906313Y-110448404D01*
X144906313Y-110448406D01*
X144911308Y-110486345D01*
X144964181Y-110887951D01*
X144964777Y-110890640D01*
X144964778Y-110890645D01*
X144999704Y-111048188D01*
X145060733Y-111323472D01*
X145061561Y-111326097D01*
X145061562Y-111326102D01*
X145184267Y-111715270D01*
X145194877Y-111748922D01*
X145365591Y-112161061D01*
X145571575Y-112556752D01*
X145811262Y-112932986D01*
X145988903Y-113164492D01*
X146053393Y-113248537D01*
X146082828Y-113286898D01*
X146384206Y-113615794D01*
X146713102Y-113917172D01*
X146715264Y-113918831D01*
X146715270Y-113918836D01*
X146815361Y-113995638D01*
X147067014Y-114188738D01*
X147443248Y-114428425D01*
X147838939Y-114634409D01*
X148251078Y-114805123D01*
X148253698Y-114805949D01*
X148253706Y-114805952D01*
X148673898Y-114938438D01*
X148673903Y-114938439D01*
X148676528Y-114939267D01*
X148679221Y-114939864D01*
X149109355Y-115035222D01*
X149109360Y-115035223D01*
X149112049Y-115035819D01*
X149485517Y-115084988D01*
X149551594Y-115093687D01*
X149551596Y-115093687D01*
X149554329Y-115094047D01*
X149804113Y-115104953D01*
X149883987Y-115108440D01*
X149883992Y-115108440D01*
X149885364Y-115108500D01*
X150114636Y-115108500D01*
X150116008Y-115108440D01*
X150116013Y-115108440D01*
X150195887Y-115104953D01*
X150445671Y-115094047D01*
X150448404Y-115093687D01*
X150448406Y-115093687D01*
X150514483Y-115084988D01*
X150887951Y-115035819D01*
X150890640Y-115035223D01*
X150890645Y-115035222D01*
X151320779Y-114939864D01*
X151323472Y-114939267D01*
X151326097Y-114938439D01*
X151326102Y-114938438D01*
X151746294Y-114805952D01*
X151746302Y-114805949D01*
X151748922Y-114805123D01*
X152161061Y-114634409D01*
X152556752Y-114428425D01*
X152932986Y-114188738D01*
X153184639Y-113995638D01*
X153284730Y-113918836D01*
X153284736Y-113918831D01*
X153286898Y-113917172D01*
X153615794Y-113615794D01*
X153917172Y-113286898D01*
X153946608Y-113248537D01*
X154011097Y-113164492D01*
X154188738Y-112932986D01*
X154384185Y-112626196D01*
X184489044Y-112626196D01*
X184489405Y-112629810D01*
X184489405Y-112629816D01*
X184510034Y-112836493D01*
X184523503Y-112971431D01*
X184597414Y-113310417D01*
X184598587Y-113313844D01*
X184598589Y-113313850D01*
X184652012Y-113469885D01*
X184709797Y-113638661D01*
X184859163Y-113951812D01*
X185043532Y-114245721D01*
X185045804Y-114248557D01*
X185045809Y-114248564D01*
X185189905Y-114428425D01*
X185260459Y-114516491D01*
X185507071Y-114760534D01*
X185509929Y-114762775D01*
X185735780Y-114939864D01*
X185780098Y-114974614D01*
X186075921Y-115155895D01*
X186079206Y-115157420D01*
X186079210Y-115157422D01*
X186318653Y-115268567D01*
X186390620Y-115301973D01*
X186494926Y-115336469D01*
X186716578Y-115409774D01*
X186716583Y-115409775D01*
X186720023Y-115410913D01*
X186723578Y-115411649D01*
X186723581Y-115411650D01*
X187056214Y-115480535D01*
X187056217Y-115480535D01*
X187059764Y-115481270D01*
X187198221Y-115493627D01*
X187362076Y-115508251D01*
X187362082Y-115508251D01*
X187364869Y-115508500D01*
X187588432Y-115508500D01*
X187590251Y-115508395D01*
X187590255Y-115508395D01*
X187842754Y-115493836D01*
X187842759Y-115493835D01*
X187846374Y-115493627D01*
X187921388Y-115480535D01*
X188184585Y-115434600D01*
X188184592Y-115434598D01*
X188188158Y-115433976D01*
X188191633Y-115432947D01*
X188191640Y-115432945D01*
X188324863Y-115393482D01*
X188520820Y-115335437D01*
X188524159Y-115334013D01*
X188836614Y-115200740D01*
X188836617Y-115200738D01*
X188839952Y-115199316D01*
X188843099Y-115197521D01*
X188843103Y-115197519D01*
X189138184Y-115029208D01*
X189141324Y-115027417D01*
X189174906Y-115002749D01*
X189262454Y-114938438D01*
X189420940Y-114822018D01*
X189440255Y-114804070D01*
X189621698Y-114635462D01*
X189675096Y-114585842D01*
X189900422Y-114322019D01*
X190093931Y-114034047D01*
X190111487Y-114000034D01*
X190251398Y-113728961D01*
X190253060Y-113725741D01*
X190375698Y-113401189D01*
X190403899Y-113288918D01*
X190453437Y-113091696D01*
X190460220Y-113064692D01*
X190477358Y-112934517D01*
X190505032Y-112724315D01*
X190505033Y-112724307D01*
X190505506Y-112720711D01*
X190508185Y-112550201D01*
X192487236Y-112550201D01*
X192487267Y-112554699D01*
X192510052Y-113087215D01*
X192510404Y-113091696D01*
X192571206Y-113621240D01*
X192571874Y-113625659D01*
X192670381Y-114149497D01*
X192671370Y-114153884D01*
X192807070Y-114669308D01*
X192808381Y-114673648D01*
X192980581Y-115178039D01*
X192982188Y-115182249D01*
X193190028Y-115673079D01*
X193191917Y-115677129D01*
X193434314Y-116151836D01*
X193436507Y-116155776D01*
X193712217Y-116611925D01*
X193714678Y-116615685D01*
X194022290Y-117050947D01*
X194025036Y-117054552D01*
X194362987Y-117466712D01*
X194365944Y-117470066D01*
X194501751Y-117613428D01*
X194515482Y-117621415D01*
X194516410Y-117621374D01*
X194524399Y-117616391D01*
X199627978Y-112512812D01*
X199634356Y-112501132D01*
X200364408Y-112501132D01*
X200364539Y-112502965D01*
X200368790Y-112509580D01*
X205473389Y-117614179D01*
X205487333Y-117621793D01*
X205487556Y-117621778D01*
X205496338Y-117615831D01*
X205736905Y-117350987D01*
X205739793Y-117347570D01*
X206069044Y-116928414D01*
X206071701Y-116924771D01*
X206370130Y-116483164D01*
X206372526Y-116479329D01*
X206638617Y-116017514D01*
X206640726Y-116013531D01*
X206873116Y-115533878D01*
X206874941Y-115529741D01*
X207072446Y-115034690D01*
X207073961Y-115030460D01*
X207235567Y-114522549D01*
X207236781Y-114518202D01*
X207361661Y-114000034D01*
X207362555Y-113995638D01*
X207450064Y-113469885D01*
X207450649Y-113465380D01*
X207500363Y-112934517D01*
X207500613Y-112930439D01*
X207511566Y-112550201D01*
X217487236Y-112550201D01*
X217487267Y-112554699D01*
X217510052Y-113087215D01*
X217510404Y-113091696D01*
X217571206Y-113621240D01*
X217571874Y-113625659D01*
X217670381Y-114149497D01*
X217671370Y-114153884D01*
X217807070Y-114669308D01*
X217808381Y-114673648D01*
X217980581Y-115178039D01*
X217982188Y-115182249D01*
X218190028Y-115673079D01*
X218191917Y-115677129D01*
X218434314Y-116151836D01*
X218436507Y-116155776D01*
X218712217Y-116611925D01*
X218714678Y-116615685D01*
X219022290Y-117050947D01*
X219025036Y-117054552D01*
X219362987Y-117466712D01*
X219365944Y-117470066D01*
X219501751Y-117613428D01*
X219515482Y-117621415D01*
X219516410Y-117621374D01*
X219524399Y-117616391D01*
X224627978Y-112512812D01*
X224634356Y-112501132D01*
X225364408Y-112501132D01*
X225364539Y-112502965D01*
X225368790Y-112509580D01*
X230473389Y-117614179D01*
X230487333Y-117621793D01*
X230487556Y-117621778D01*
X230496338Y-117615831D01*
X230736905Y-117350987D01*
X230739793Y-117347570D01*
X231069044Y-116928414D01*
X231071701Y-116924771D01*
X231370130Y-116483164D01*
X231372526Y-116479329D01*
X231638617Y-116017514D01*
X231640726Y-116013531D01*
X231873116Y-115533878D01*
X231874941Y-115529741D01*
X232072446Y-115034690D01*
X232073961Y-115030460D01*
X232235567Y-114522549D01*
X232236781Y-114518202D01*
X232361661Y-114000034D01*
X232362555Y-113995638D01*
X232450064Y-113469885D01*
X232450649Y-113465380D01*
X232500363Y-112934517D01*
X232500613Y-112930439D01*
X232512954Y-112502024D01*
X232512939Y-112497967D01*
X232493866Y-111965096D01*
X232493544Y-111960601D01*
X232436442Y-111430662D01*
X232435800Y-111426211D01*
X232340955Y-110901710D01*
X232339999Y-110897327D01*
X232207892Y-110380933D01*
X232206630Y-110376645D01*
X232037938Y-109871015D01*
X232036370Y-109866818D01*
X231831966Y-109374558D01*
X231830088Y-109370456D01*
X231591023Y-108894094D01*
X231588855Y-108890133D01*
X231316347Y-108432090D01*
X231313891Y-108428279D01*
X231009331Y-107990890D01*
X231006624Y-107987284D01*
X230671552Y-107572765D01*
X230668609Y-107569380D01*
X230498034Y-107386780D01*
X230484361Y-107378698D01*
X230483667Y-107378724D01*
X230475320Y-107383890D01*
X225372022Y-112487188D01*
X225364408Y-112501132D01*
X224634356Y-112501132D01*
X224635592Y-112498868D01*
X224635461Y-112497035D01*
X224631210Y-112490420D01*
X219527007Y-107386217D01*
X219513063Y-107378603D01*
X219512606Y-107378635D01*
X219504130Y-107384332D01*
X219297104Y-107609077D01*
X219294190Y-107612477D01*
X218962015Y-108029331D01*
X218959344Y-108032941D01*
X218657831Y-108472465D01*
X218655409Y-108476283D01*
X218386107Y-108936216D01*
X218383964Y-108940196D01*
X218148233Y-109418211D01*
X218146376Y-109422343D01*
X217945427Y-109915984D01*
X217943874Y-109920230D01*
X217778729Y-110426984D01*
X217777484Y-110431326D01*
X217648991Y-110948608D01*
X217648067Y-110952991D01*
X217556885Y-111478152D01*
X217556274Y-111482609D01*
X217502873Y-112012930D01*
X217502583Y-112017413D01*
X217487236Y-112550201D01*
X207511566Y-112550201D01*
X207512954Y-112502024D01*
X207512939Y-112497967D01*
X207493866Y-111965096D01*
X207493544Y-111960601D01*
X207436442Y-111430662D01*
X207435800Y-111426211D01*
X207340955Y-110901710D01*
X207339999Y-110897327D01*
X207207892Y-110380933D01*
X207206630Y-110376645D01*
X207037938Y-109871015D01*
X207036370Y-109866818D01*
X206831966Y-109374558D01*
X206830088Y-109370456D01*
X206591023Y-108894094D01*
X206588855Y-108890133D01*
X206316347Y-108432090D01*
X206313891Y-108428279D01*
X206009331Y-107990890D01*
X206006624Y-107987284D01*
X205671552Y-107572765D01*
X205668609Y-107569380D01*
X205498034Y-107386780D01*
X205484361Y-107378698D01*
X205483667Y-107378724D01*
X205475320Y-107383890D01*
X200372022Y-112487188D01*
X200364408Y-112501132D01*
X199634356Y-112501132D01*
X199635592Y-112498868D01*
X199635461Y-112497035D01*
X199631210Y-112490420D01*
X194527007Y-107386217D01*
X194513063Y-107378603D01*
X194512606Y-107378635D01*
X194504130Y-107384332D01*
X194297104Y-107609077D01*
X194294190Y-107612477D01*
X193962015Y-108029331D01*
X193959344Y-108032941D01*
X193657831Y-108472465D01*
X193655409Y-108476283D01*
X193386107Y-108936216D01*
X193383964Y-108940196D01*
X193148233Y-109418211D01*
X193146376Y-109422343D01*
X192945427Y-109915984D01*
X192943874Y-109920230D01*
X192778729Y-110426984D01*
X192777484Y-110431326D01*
X192648991Y-110948608D01*
X192648067Y-110952991D01*
X192556885Y-111478152D01*
X192556274Y-111482609D01*
X192502873Y-112012930D01*
X192502583Y-112017413D01*
X192487236Y-112550201D01*
X190508185Y-112550201D01*
X190510956Y-112373804D01*
X190501163Y-112275685D01*
X190476857Y-112032177D01*
X190476497Y-112028569D01*
X190402586Y-111689583D01*
X190290203Y-111361339D01*
X190140837Y-111048188D01*
X189956468Y-110754279D01*
X189954196Y-110751443D01*
X189954191Y-110751436D01*
X189741813Y-110486345D01*
X189739541Y-110483509D01*
X189492929Y-110239466D01*
X189264982Y-110060733D01*
X189222759Y-110027626D01*
X189222757Y-110027625D01*
X189219902Y-110025386D01*
X188924079Y-109844105D01*
X188920794Y-109842580D01*
X188920790Y-109842578D01*
X188612663Y-109699551D01*
X188609380Y-109698027D01*
X188439112Y-109641716D01*
X188283422Y-109590226D01*
X188283417Y-109590225D01*
X188279977Y-109589087D01*
X188276422Y-109588351D01*
X188276419Y-109588350D01*
X187943786Y-109519465D01*
X187943783Y-109519465D01*
X187940236Y-109518730D01*
X187785947Y-109504960D01*
X187637924Y-109491749D01*
X187637918Y-109491749D01*
X187635131Y-109491500D01*
X187411568Y-109491500D01*
X187409749Y-109491605D01*
X187409745Y-109491605D01*
X187157246Y-109506164D01*
X187157241Y-109506165D01*
X187153626Y-109506373D01*
X187084669Y-109518408D01*
X186815415Y-109565400D01*
X186815408Y-109565402D01*
X186811842Y-109566024D01*
X186808367Y-109567053D01*
X186808360Y-109567055D01*
X186730137Y-109590226D01*
X186479180Y-109664563D01*
X186475844Y-109665986D01*
X186475841Y-109665987D01*
X186163386Y-109799260D01*
X186163383Y-109799262D01*
X186160048Y-109800684D01*
X186156901Y-109802479D01*
X186156897Y-109802481D01*
X185975491Y-109905953D01*
X185858676Y-109972583D01*
X185855764Y-109974722D01*
X185855761Y-109974724D01*
X185821352Y-110000000D01*
X185579060Y-110177982D01*
X185576407Y-110180448D01*
X185576405Y-110180449D01*
X185515307Y-110237225D01*
X185324904Y-110414158D01*
X185099578Y-110677981D01*
X184906069Y-110965953D01*
X184746940Y-111274259D01*
X184624302Y-111598811D01*
X184623418Y-111602332D01*
X184623416Y-111602337D01*
X184587257Y-111746294D01*
X184539780Y-111935308D01*
X184539307Y-111938901D01*
X184510394Y-112158519D01*
X184494494Y-112279289D01*
X184494437Y-112282927D01*
X184491059Y-112497967D01*
X184489044Y-112626196D01*
X154384185Y-112626196D01*
X154428425Y-112556753D01*
X154634409Y-112161061D01*
X154805123Y-111748922D01*
X154815734Y-111715270D01*
X154938438Y-111326102D01*
X154938439Y-111326097D01*
X154939267Y-111323472D01*
X155000296Y-111048188D01*
X155035222Y-110890645D01*
X155035223Y-110890640D01*
X155035819Y-110887951D01*
X155088692Y-110486345D01*
X155093687Y-110448406D01*
X155093687Y-110448404D01*
X155094047Y-110445671D01*
X155113505Y-110000000D01*
X155094047Y-109554329D01*
X155035819Y-109112049D01*
X154997721Y-108940196D01*
X154939864Y-108679221D01*
X154939267Y-108676528D01*
X154862196Y-108432090D01*
X154805952Y-108253706D01*
X154805949Y-108253698D01*
X154805123Y-108251078D01*
X154634409Y-107838939D01*
X154428425Y-107443248D01*
X154188738Y-107067014D01*
X154149280Y-107015591D01*
X194878674Y-107015591D01*
X194878707Y-107016404D01*
X194883783Y-107024573D01*
X199987188Y-112127978D01*
X200001132Y-112135592D01*
X200002965Y-112135461D01*
X200009580Y-112131210D01*
X205113682Y-107027108D01*
X205119971Y-107015591D01*
X219878674Y-107015591D01*
X219878707Y-107016404D01*
X219883783Y-107024573D01*
X224987188Y-112127978D01*
X225001132Y-112135592D01*
X225002965Y-112135461D01*
X225009580Y-112131210D01*
X230113682Y-107027108D01*
X230121296Y-107013164D01*
X230121255Y-107012590D01*
X230115684Y-107004268D01*
X229910818Y-106814228D01*
X229907387Y-106811267D01*
X229491729Y-106477666D01*
X229488115Y-106474972D01*
X229049654Y-106171933D01*
X229045835Y-106169490D01*
X228586846Y-105898585D01*
X228582877Y-105896430D01*
X228105679Y-105659028D01*
X228101575Y-105657166D01*
X227608610Y-105454483D01*
X227604395Y-105452924D01*
X227098199Y-105286006D01*
X227093883Y-105284752D01*
X226577042Y-105154451D01*
X226572665Y-105153513D01*
X226047822Y-105060496D01*
X226043365Y-105059870D01*
X225513241Y-105004620D01*
X225508747Y-105004313D01*
X224976027Y-104987107D01*
X224971530Y-104987122D01*
X224438927Y-105008048D01*
X224434451Y-105008384D01*
X223904713Y-105067336D01*
X223900261Y-105067994D01*
X223376106Y-105164667D01*
X223371701Y-105165643D01*
X222855801Y-105299545D01*
X222851490Y-105300830D01*
X222346471Y-105471278D01*
X222342259Y-105472870D01*
X221850723Y-105678988D01*
X221846647Y-105680871D01*
X221371109Y-105921605D01*
X221367158Y-105923786D01*
X220910063Y-106197893D01*
X220906267Y-106200358D01*
X220469930Y-106506452D01*
X220466347Y-106509162D01*
X220053007Y-106845674D01*
X220049617Y-106848642D01*
X219886708Y-107001891D01*
X219878674Y-107015591D01*
X205119971Y-107015591D01*
X205121296Y-107013164D01*
X205121255Y-107012590D01*
X205115684Y-107004268D01*
X204910818Y-106814228D01*
X204907387Y-106811267D01*
X204491729Y-106477666D01*
X204488115Y-106474972D01*
X204049654Y-106171933D01*
X204045835Y-106169490D01*
X203586846Y-105898585D01*
X203582877Y-105896430D01*
X203105679Y-105659028D01*
X203101575Y-105657166D01*
X202608610Y-105454483D01*
X202604395Y-105452924D01*
X202098199Y-105286006D01*
X202093883Y-105284752D01*
X201577042Y-105154451D01*
X201572665Y-105153513D01*
X201047822Y-105060496D01*
X201043365Y-105059870D01*
X200513241Y-105004620D01*
X200508747Y-105004313D01*
X199976027Y-104987107D01*
X199971530Y-104987122D01*
X199438927Y-105008048D01*
X199434451Y-105008384D01*
X198904713Y-105067336D01*
X198900261Y-105067994D01*
X198376106Y-105164667D01*
X198371701Y-105165643D01*
X197855801Y-105299545D01*
X197851490Y-105300830D01*
X197346471Y-105471278D01*
X197342259Y-105472870D01*
X196850723Y-105678988D01*
X196846647Y-105680871D01*
X196371109Y-105921605D01*
X196367158Y-105923786D01*
X195910063Y-106197893D01*
X195906267Y-106200358D01*
X195469930Y-106506452D01*
X195466347Y-106509162D01*
X195053007Y-106845674D01*
X195049617Y-106848642D01*
X194886708Y-107001891D01*
X194878674Y-107015591D01*
X154149280Y-107015591D01*
X153917172Y-106713102D01*
X153615794Y-106384206D01*
X153286898Y-106082828D01*
X153284736Y-106081169D01*
X153284730Y-106081164D01*
X153076788Y-105921605D01*
X152932986Y-105811262D01*
X152556752Y-105571575D01*
X152161061Y-105365591D01*
X151748922Y-105194877D01*
X151746302Y-105194051D01*
X151746294Y-105194048D01*
X151326102Y-105061562D01*
X151326097Y-105061561D01*
X151323472Y-105060733D01*
X151212711Y-105036178D01*
X150890645Y-104964778D01*
X150890640Y-104964777D01*
X150887951Y-104964181D01*
X150514483Y-104915012D01*
X150448406Y-104906313D01*
X150448404Y-104906313D01*
X150445671Y-104905953D01*
X150195887Y-104895047D01*
X150116013Y-104891560D01*
X150116008Y-104891560D01*
X150114636Y-104891500D01*
X149885364Y-104891500D01*
X149883992Y-104891560D01*
X149883987Y-104891560D01*
X149804113Y-104895047D01*
X149554329Y-104905953D01*
X149551596Y-104906313D01*
X149551594Y-104906313D01*
X149485517Y-104915012D01*
X149112049Y-104964181D01*
X149109360Y-104964777D01*
X149109355Y-104964778D01*
X148787289Y-105036178D01*
X148676528Y-105060733D01*
X148673903Y-105061561D01*
X148673898Y-105061562D01*
X148253706Y-105194048D01*
X148253698Y-105194051D01*
X148251078Y-105194877D01*
X147838939Y-105365591D01*
X147443248Y-105571575D01*
X147067014Y-105811262D01*
X146923212Y-105921605D01*
X146715270Y-106081164D01*
X146715264Y-106081169D01*
X146713102Y-106082828D01*
X146384206Y-106384206D01*
X146082828Y-106713102D01*
X145811262Y-107067014D01*
X145571575Y-107443247D01*
X145365591Y-107838939D01*
X145194877Y-108251078D01*
X145194051Y-108253698D01*
X145194048Y-108253706D01*
X145137804Y-108432090D01*
X145060733Y-108676528D01*
X145060136Y-108679221D01*
X145002280Y-108940196D01*
X144964181Y-109112049D01*
X144905953Y-109554329D01*
X144886495Y-110000000D01*
X127049522Y-110000000D01*
X126890645Y-109964778D01*
X126890640Y-109964777D01*
X126887951Y-109964181D01*
X126514483Y-109915012D01*
X126448406Y-109906313D01*
X126448404Y-109906313D01*
X126445671Y-109905953D01*
X126195887Y-109895047D01*
X126116013Y-109891560D01*
X126116008Y-109891560D01*
X126114636Y-109891500D01*
X125885364Y-109891500D01*
X125883992Y-109891560D01*
X125883987Y-109891560D01*
X125804113Y-109895047D01*
X125554329Y-109905953D01*
X125551596Y-109906313D01*
X125551594Y-109906313D01*
X125485517Y-109915012D01*
X125112049Y-109964181D01*
X125109360Y-109964777D01*
X125109355Y-109964778D01*
X124844517Y-110023491D01*
X124676528Y-110060733D01*
X124673903Y-110061561D01*
X124673898Y-110061562D01*
X124253706Y-110194048D01*
X124253698Y-110194051D01*
X124251078Y-110194877D01*
X123838939Y-110365591D01*
X123443248Y-110571575D01*
X123067014Y-110811262D01*
X122865417Y-110965953D01*
X122715270Y-111081164D01*
X122715264Y-111081169D01*
X122713102Y-111082828D01*
X122384206Y-111384206D01*
X122082828Y-111713102D01*
X122081169Y-111715264D01*
X122081164Y-111715270D01*
X121988903Y-111835508D01*
X121811262Y-112067014D01*
X121571575Y-112443247D01*
X121365591Y-112838939D01*
X121194877Y-113251078D01*
X121194051Y-113253698D01*
X121194048Y-113253706D01*
X121072672Y-113638661D01*
X121060733Y-113676528D01*
X121060136Y-113679221D01*
X120980808Y-114037051D01*
X120964181Y-114112049D01*
X120946989Y-114242636D01*
X120910935Y-114516491D01*
X120905953Y-114554329D01*
X120886495Y-115000000D01*
X79113505Y-115000000D01*
X79094047Y-114554329D01*
X79089066Y-114516491D01*
X79053011Y-114242636D01*
X79035819Y-114112049D01*
X79019193Y-114037051D01*
X78939864Y-113679221D01*
X78939267Y-113676528D01*
X78927328Y-113638661D01*
X78805952Y-113253706D01*
X78805949Y-113253698D01*
X78805123Y-113251078D01*
X78634409Y-112838939D01*
X78428425Y-112443248D01*
X78188738Y-112067014D01*
X78011097Y-111835508D01*
X77918836Y-111715270D01*
X77918831Y-111715264D01*
X77917172Y-111713102D01*
X77615794Y-111384206D01*
X77286898Y-111082828D01*
X77284736Y-111081169D01*
X77284730Y-111081164D01*
X77134583Y-110965953D01*
X76932986Y-110811262D01*
X76556752Y-110571575D01*
X76161061Y-110365591D01*
X75748922Y-110194877D01*
X75746302Y-110194051D01*
X75746294Y-110194048D01*
X75326102Y-110061562D01*
X75326097Y-110061561D01*
X75323472Y-110060733D01*
X75155483Y-110023491D01*
X74890645Y-109964778D01*
X74890640Y-109964777D01*
X74887951Y-109964181D01*
X74514483Y-109915012D01*
X74448406Y-109906313D01*
X74448404Y-109906313D01*
X74445671Y-109905953D01*
X74195887Y-109895047D01*
X74116013Y-109891560D01*
X74116008Y-109891560D01*
X74114636Y-109891500D01*
X73885364Y-109891500D01*
X73883992Y-109891560D01*
X73883987Y-109891560D01*
X73804113Y-109895047D01*
X73554329Y-109905953D01*
X73551596Y-109906313D01*
X73551594Y-109906313D01*
X73485517Y-109915012D01*
X73112049Y-109964181D01*
X73109360Y-109964777D01*
X73109355Y-109964778D01*
X72844517Y-110023491D01*
X72676528Y-110060733D01*
X72673903Y-110061561D01*
X72673898Y-110061562D01*
X72253706Y-110194048D01*
X72253698Y-110194051D01*
X72251078Y-110194877D01*
X71838939Y-110365591D01*
X71443248Y-110571575D01*
X71067014Y-110811262D01*
X70865417Y-110965953D01*
X70715270Y-111081164D01*
X70715264Y-111081169D01*
X70713102Y-111082828D01*
X70384206Y-111384206D01*
X70082828Y-111713102D01*
X70081169Y-111715264D01*
X70081164Y-111715270D01*
X69988903Y-111835508D01*
X69811262Y-112067014D01*
X69571575Y-112443247D01*
X69365591Y-112838939D01*
X69194877Y-113251078D01*
X69194051Y-113253698D01*
X69194048Y-113253706D01*
X69072672Y-113638661D01*
X69060733Y-113676528D01*
X69060136Y-113679221D01*
X68980808Y-114037051D01*
X68964181Y-114112049D01*
X68946989Y-114242636D01*
X68910935Y-114516491D01*
X68905953Y-114554329D01*
X68886495Y-115000000D01*
X50508500Y-115000000D01*
X50508500Y-100000000D01*
X64886495Y-100000000D01*
X64905953Y-100445671D01*
X64964181Y-100887951D01*
X65060733Y-101323472D01*
X65194877Y-101748922D01*
X65365591Y-102161061D01*
X65571575Y-102556752D01*
X65811262Y-102932986D01*
X66082828Y-103286898D01*
X66384206Y-103615794D01*
X66713102Y-103917172D01*
X66715264Y-103918831D01*
X66715270Y-103918836D01*
X66835508Y-104011097D01*
X67067014Y-104188738D01*
X67443248Y-104428425D01*
X67838939Y-104634409D01*
X68251078Y-104805123D01*
X68253698Y-104805949D01*
X68253706Y-104805952D01*
X68673898Y-104938438D01*
X68673903Y-104938439D01*
X68676528Y-104939267D01*
X68679221Y-104939864D01*
X69109355Y-105035222D01*
X69109360Y-105035223D01*
X69112049Y-105035819D01*
X69485517Y-105084988D01*
X69551594Y-105093687D01*
X69551596Y-105093687D01*
X69554329Y-105094047D01*
X69804113Y-105104953D01*
X69883987Y-105108440D01*
X69883992Y-105108440D01*
X69885364Y-105108500D01*
X70114636Y-105108500D01*
X70116008Y-105108440D01*
X70116013Y-105108440D01*
X70195887Y-105104953D01*
X70445671Y-105094047D01*
X70448404Y-105093687D01*
X70448406Y-105093687D01*
X70514483Y-105084988D01*
X70887951Y-105035819D01*
X70890640Y-105035223D01*
X70890645Y-105035222D01*
X71320779Y-104939864D01*
X71323472Y-104939267D01*
X71326097Y-104938439D01*
X71326102Y-104938438D01*
X71746294Y-104805952D01*
X71746302Y-104805949D01*
X71748922Y-104805123D01*
X72161061Y-104634409D01*
X72556752Y-104428425D01*
X72932986Y-104188738D01*
X73164492Y-104011097D01*
X73284730Y-103918836D01*
X73284736Y-103918831D01*
X73286898Y-103917172D01*
X73615794Y-103615794D01*
X73917172Y-103286898D01*
X74188738Y-102932986D01*
X74428425Y-102556753D01*
X74634409Y-102161061D01*
X74805123Y-101748922D01*
X74939267Y-101323472D01*
X75035819Y-100887951D01*
X75094047Y-100445671D01*
X75113505Y-100000000D01*
X124886495Y-100000000D01*
X124905953Y-100445671D01*
X124964181Y-100887951D01*
X125060733Y-101323472D01*
X125194877Y-101748922D01*
X125365591Y-102161061D01*
X125571575Y-102556752D01*
X125811262Y-102932986D01*
X126082828Y-103286898D01*
X126384206Y-103615794D01*
X126713102Y-103917172D01*
X126715264Y-103918831D01*
X126715270Y-103918836D01*
X126835508Y-104011097D01*
X127067014Y-104188738D01*
X127443248Y-104428425D01*
X127838939Y-104634409D01*
X128251078Y-104805123D01*
X128253698Y-104805949D01*
X128253706Y-104805952D01*
X128673898Y-104938438D01*
X128673903Y-104938439D01*
X128676528Y-104939267D01*
X128679221Y-104939864D01*
X129109355Y-105035222D01*
X129109360Y-105035223D01*
X129112049Y-105035819D01*
X129485517Y-105084988D01*
X129551594Y-105093687D01*
X129551596Y-105093687D01*
X129554329Y-105094047D01*
X129804113Y-105104953D01*
X129883987Y-105108440D01*
X129883992Y-105108440D01*
X129885364Y-105108500D01*
X130114636Y-105108500D01*
X130116008Y-105108440D01*
X130116013Y-105108440D01*
X130195887Y-105104953D01*
X130445671Y-105094047D01*
X130448404Y-105093687D01*
X130448406Y-105093687D01*
X130514483Y-105084988D01*
X130887951Y-105035819D01*
X130890640Y-105035223D01*
X130890645Y-105035222D01*
X131320779Y-104939864D01*
X131323472Y-104939267D01*
X131326097Y-104938439D01*
X131326102Y-104938438D01*
X131746294Y-104805952D01*
X131746302Y-104805949D01*
X131748922Y-104805123D01*
X132161061Y-104634409D01*
X132556752Y-104428425D01*
X132932986Y-104188738D01*
X133164492Y-104011097D01*
X133284730Y-103918836D01*
X133284736Y-103918831D01*
X133286898Y-103917172D01*
X133615794Y-103615794D01*
X133917172Y-103286898D01*
X134188738Y-102932986D01*
X134428425Y-102556753D01*
X134634409Y-102161061D01*
X134805123Y-101748922D01*
X134939267Y-101323472D01*
X135035819Y-100887951D01*
X135094047Y-100445671D01*
X135113505Y-100000000D01*
X135094047Y-99554329D01*
X135035819Y-99112049D01*
X134939267Y-98676528D01*
X134805123Y-98251078D01*
X134634409Y-97838939D01*
X134428425Y-97443248D01*
X134188738Y-97067014D01*
X133917172Y-96713102D01*
X133615794Y-96384206D01*
X133286898Y-96082828D01*
X133284736Y-96081169D01*
X133284730Y-96081164D01*
X133164492Y-95988903D01*
X132932986Y-95811262D01*
X132556752Y-95571575D01*
X132161061Y-95365591D01*
X131748922Y-95194877D01*
X131746302Y-95194051D01*
X131746294Y-95194048D01*
X131326102Y-95061562D01*
X131326097Y-95061561D01*
X131323472Y-95060733D01*
X131212711Y-95036178D01*
X130890645Y-94964778D01*
X130890640Y-94964777D01*
X130887951Y-94964181D01*
X130514483Y-94915012D01*
X130448406Y-94906313D01*
X130448404Y-94906313D01*
X130445671Y-94905953D01*
X130195887Y-94895047D01*
X130116013Y-94891560D01*
X130116008Y-94891560D01*
X130114636Y-94891500D01*
X129885364Y-94891500D01*
X129883992Y-94891560D01*
X129883987Y-94891560D01*
X129804113Y-94895047D01*
X129554329Y-94905953D01*
X129551596Y-94906313D01*
X129551594Y-94906313D01*
X129485517Y-94915012D01*
X129112049Y-94964181D01*
X129109360Y-94964777D01*
X129109355Y-94964778D01*
X128787289Y-95036178D01*
X128676528Y-95060733D01*
X128673903Y-95061561D01*
X128673898Y-95061562D01*
X128253706Y-95194048D01*
X128253698Y-95194051D01*
X128251078Y-95194877D01*
X127838939Y-95365591D01*
X127443248Y-95571575D01*
X127067014Y-95811262D01*
X126835508Y-95988903D01*
X126715270Y-96081164D01*
X126715264Y-96081169D01*
X126713102Y-96082828D01*
X126384206Y-96384206D01*
X126082828Y-96713102D01*
X125811262Y-97067014D01*
X125571575Y-97443247D01*
X125365591Y-97838939D01*
X125194877Y-98251078D01*
X125060733Y-98676528D01*
X124964181Y-99112049D01*
X124905953Y-99554329D01*
X124886495Y-100000000D01*
X75113505Y-100000000D01*
X75094047Y-99554329D01*
X75035819Y-99112049D01*
X74939267Y-98676528D01*
X74805123Y-98251078D01*
X74634409Y-97838939D01*
X74428425Y-97443248D01*
X74188738Y-97067014D01*
X73917172Y-96713102D01*
X73615794Y-96384206D01*
X73286898Y-96082828D01*
X73284736Y-96081169D01*
X73284730Y-96081164D01*
X73164492Y-95988903D01*
X72932986Y-95811262D01*
X72556752Y-95571575D01*
X72161061Y-95365591D01*
X71748922Y-95194877D01*
X71746302Y-95194051D01*
X71746294Y-95194048D01*
X71326102Y-95061562D01*
X71326097Y-95061561D01*
X71323472Y-95060733D01*
X71212711Y-95036178D01*
X70890645Y-94964778D01*
X70890640Y-94964777D01*
X70887951Y-94964181D01*
X70514483Y-94915012D01*
X70448406Y-94906313D01*
X70448404Y-94906313D01*
X70445671Y-94905953D01*
X70195887Y-94895047D01*
X70116013Y-94891560D01*
X70116008Y-94891560D01*
X70114636Y-94891500D01*
X69885364Y-94891500D01*
X69883992Y-94891560D01*
X69883987Y-94891560D01*
X69804113Y-94895047D01*
X69554329Y-94905953D01*
X69551596Y-94906313D01*
X69551594Y-94906313D01*
X69485517Y-94915012D01*
X69112049Y-94964181D01*
X69109360Y-94964777D01*
X69109355Y-94964778D01*
X68787289Y-95036178D01*
X68676528Y-95060733D01*
X68673903Y-95061561D01*
X68673898Y-95061562D01*
X68253706Y-95194048D01*
X68253698Y-95194051D01*
X68251078Y-95194877D01*
X67838939Y-95365591D01*
X67443248Y-95571575D01*
X67067014Y-95811262D01*
X66835508Y-95988903D01*
X66715270Y-96081164D01*
X66715264Y-96081169D01*
X66713102Y-96082828D01*
X66384206Y-96384206D01*
X66082828Y-96713102D01*
X65811262Y-97067014D01*
X65571575Y-97443247D01*
X65365591Y-97838939D01*
X65194877Y-98251078D01*
X65060733Y-98676528D01*
X64964181Y-99112049D01*
X64905953Y-99554329D01*
X64886495Y-100000000D01*
X50508500Y-100000000D01*
X50508500Y-85000000D01*
X68886495Y-85000000D01*
X68905953Y-85445671D01*
X68964181Y-85887951D01*
X68964777Y-85890640D01*
X68964778Y-85890645D01*
X68967231Y-85901710D01*
X69060733Y-86323472D01*
X69061561Y-86326097D01*
X69061562Y-86326102D01*
X69184267Y-86715270D01*
X69194877Y-86748922D01*
X69365591Y-87161061D01*
X69571575Y-87556752D01*
X69811262Y-87932986D01*
X69988903Y-88164492D01*
X70053393Y-88248537D01*
X70082828Y-88286898D01*
X70384206Y-88615794D01*
X70713102Y-88917172D01*
X70715264Y-88918831D01*
X70715270Y-88918836D01*
X70815361Y-88995638D01*
X71067014Y-89188738D01*
X71443248Y-89428425D01*
X71838939Y-89634409D01*
X72251078Y-89805123D01*
X72253698Y-89805949D01*
X72253706Y-89805952D01*
X72673898Y-89938438D01*
X72673903Y-89938439D01*
X72676528Y-89939267D01*
X72679221Y-89939864D01*
X73109355Y-90035222D01*
X73109360Y-90035223D01*
X73112049Y-90035819D01*
X73485517Y-90084988D01*
X73551594Y-90093687D01*
X73551596Y-90093687D01*
X73554329Y-90094047D01*
X73804113Y-90104953D01*
X73883987Y-90108440D01*
X73883992Y-90108440D01*
X73885364Y-90108500D01*
X74114636Y-90108500D01*
X74116008Y-90108440D01*
X74116013Y-90108440D01*
X74195887Y-90104953D01*
X74445671Y-90094047D01*
X74448404Y-90093687D01*
X74448406Y-90093687D01*
X74514483Y-90084988D01*
X74887951Y-90035819D01*
X74890640Y-90035223D01*
X74890645Y-90035222D01*
X75320779Y-89939864D01*
X75323472Y-89939267D01*
X75326097Y-89938439D01*
X75326102Y-89938438D01*
X75746294Y-89805952D01*
X75746302Y-89805949D01*
X75748922Y-89805123D01*
X76161061Y-89634409D01*
X76556752Y-89428425D01*
X76932986Y-89188738D01*
X77184639Y-88995638D01*
X77284730Y-88918836D01*
X77284736Y-88918831D01*
X77286898Y-88917172D01*
X77615794Y-88615794D01*
X77917172Y-88286898D01*
X77946608Y-88248537D01*
X78011097Y-88164492D01*
X78188738Y-87932986D01*
X78428425Y-87556753D01*
X78634409Y-87161061D01*
X78805123Y-86748922D01*
X78815734Y-86715270D01*
X78938438Y-86326102D01*
X78938439Y-86326097D01*
X78939267Y-86323472D01*
X79032769Y-85901710D01*
X79035222Y-85890645D01*
X79035223Y-85890640D01*
X79035819Y-85887951D01*
X79094047Y-85445671D01*
X79113505Y-85000000D01*
X120886495Y-85000000D01*
X120905953Y-85445671D01*
X120964181Y-85887951D01*
X120964777Y-85890640D01*
X120964778Y-85890645D01*
X120967231Y-85901710D01*
X121060733Y-86323472D01*
X121061561Y-86326097D01*
X121061562Y-86326102D01*
X121184267Y-86715270D01*
X121194877Y-86748922D01*
X121365591Y-87161061D01*
X121571575Y-87556752D01*
X121811262Y-87932986D01*
X121988903Y-88164492D01*
X122053393Y-88248537D01*
X122082828Y-88286898D01*
X122384206Y-88615794D01*
X122713102Y-88917172D01*
X122715264Y-88918831D01*
X122715270Y-88918836D01*
X122815361Y-88995638D01*
X123067014Y-89188738D01*
X123443248Y-89428425D01*
X123838939Y-89634409D01*
X124251078Y-89805123D01*
X124253698Y-89805949D01*
X124253706Y-89805952D01*
X124673898Y-89938438D01*
X124673903Y-89938439D01*
X124676528Y-89939267D01*
X124679221Y-89939864D01*
X125109355Y-90035222D01*
X125109360Y-90035223D01*
X125112049Y-90035819D01*
X125485517Y-90084988D01*
X125551594Y-90093687D01*
X125551596Y-90093687D01*
X125554329Y-90094047D01*
X125804113Y-90104953D01*
X125883987Y-90108440D01*
X125883992Y-90108440D01*
X125885364Y-90108500D01*
X126114636Y-90108500D01*
X126116008Y-90108440D01*
X126116013Y-90108440D01*
X126195887Y-90104953D01*
X126445671Y-90094047D01*
X126448404Y-90093687D01*
X126448406Y-90093687D01*
X126514483Y-90084988D01*
X126887951Y-90035819D01*
X126890640Y-90035223D01*
X126890645Y-90035222D01*
X127049522Y-90000000D01*
X144886495Y-90000000D01*
X144905953Y-90445671D01*
X144964181Y-90887951D01*
X145060733Y-91323472D01*
X145061561Y-91326097D01*
X145061562Y-91326102D01*
X145111084Y-91483164D01*
X145194877Y-91748922D01*
X145365591Y-92161061D01*
X145571575Y-92556752D01*
X145811262Y-92932986D01*
X145861497Y-92998453D01*
X146031429Y-93219913D01*
X146082828Y-93286898D01*
X146384206Y-93615794D01*
X146713102Y-93917172D01*
X146715264Y-93918831D01*
X146715270Y-93918836D01*
X146835508Y-94011097D01*
X147067014Y-94188738D01*
X147443248Y-94428425D01*
X147838939Y-94634409D01*
X148251078Y-94805123D01*
X148253698Y-94805949D01*
X148253706Y-94805952D01*
X148673898Y-94938438D01*
X148673903Y-94938439D01*
X148676528Y-94939267D01*
X148679221Y-94939864D01*
X149109355Y-95035222D01*
X149109360Y-95035223D01*
X149112049Y-95035819D01*
X149485517Y-95084988D01*
X149551594Y-95093687D01*
X149551596Y-95093687D01*
X149554329Y-95094047D01*
X149804113Y-95104953D01*
X149883987Y-95108440D01*
X149883992Y-95108440D01*
X149885364Y-95108500D01*
X150114636Y-95108500D01*
X150116008Y-95108440D01*
X150116013Y-95108440D01*
X150195887Y-95104953D01*
X150445671Y-95094047D01*
X150448404Y-95093687D01*
X150448406Y-95093687D01*
X150514483Y-95084988D01*
X150887951Y-95035819D01*
X150890640Y-95035223D01*
X150890645Y-95035222D01*
X151320779Y-94939864D01*
X151323472Y-94939267D01*
X151326097Y-94938439D01*
X151326102Y-94938438D01*
X151746294Y-94805952D01*
X151746302Y-94805949D01*
X151748922Y-94805123D01*
X152161061Y-94634409D01*
X152556752Y-94428425D01*
X152932986Y-94188738D01*
X153164492Y-94011097D01*
X153284730Y-93918836D01*
X153284736Y-93918831D01*
X153286898Y-93917172D01*
X153615794Y-93615794D01*
X153917172Y-93286898D01*
X153968572Y-93219913D01*
X154138503Y-92998453D01*
X154147213Y-92987102D01*
X169878438Y-92987102D01*
X169878462Y-92987441D01*
X169884285Y-92996073D01*
X170128991Y-93219913D01*
X170132445Y-93222852D01*
X170550430Y-93553550D01*
X170554067Y-93556222D01*
X170994618Y-93856182D01*
X170998446Y-93858593D01*
X171459337Y-94126300D01*
X171463309Y-94128421D01*
X171942148Y-94362483D01*
X171946284Y-94364325D01*
X172440627Y-94563551D01*
X172444871Y-94565087D01*
X172952218Y-94728467D01*
X172956539Y-94729689D01*
X173474254Y-94856374D01*
X173478695Y-94857294D01*
X174004141Y-94946637D01*
X174008595Y-94947232D01*
X174539106Y-94998782D01*
X174543579Y-94999056D01*
X175076427Y-95012543D01*
X175080930Y-95012496D01*
X175613352Y-94987853D01*
X175617836Y-94987485D01*
X176147152Y-94924836D01*
X176151591Y-94924149D01*
X176675087Y-94823814D01*
X176679446Y-94822815D01*
X177194414Y-94685311D01*
X177198727Y-94683992D01*
X177702525Y-94510028D01*
X177706740Y-94508402D01*
X178196805Y-94298866D01*
X178200892Y-94296943D01*
X178674731Y-94052900D01*
X178678658Y-94050696D01*
X179133828Y-93773404D01*
X179137624Y-93770901D01*
X179571786Y-93461788D01*
X179575372Y-93459036D01*
X179986362Y-93119640D01*
X179989705Y-93116672D01*
X180113630Y-92998453D01*
X180120179Y-92987102D01*
X194878438Y-92987102D01*
X194878462Y-92987441D01*
X194884285Y-92996073D01*
X195128991Y-93219913D01*
X195132445Y-93222852D01*
X195550430Y-93553550D01*
X195554067Y-93556222D01*
X195994618Y-93856182D01*
X195998446Y-93858593D01*
X196459337Y-94126300D01*
X196463309Y-94128421D01*
X196942148Y-94362483D01*
X196946284Y-94364325D01*
X197440627Y-94563551D01*
X197444871Y-94565087D01*
X197952218Y-94728467D01*
X197956539Y-94729689D01*
X198474254Y-94856374D01*
X198478695Y-94857294D01*
X199004141Y-94946637D01*
X199008595Y-94947232D01*
X199539106Y-94998782D01*
X199543579Y-94999056D01*
X200076427Y-95012543D01*
X200080930Y-95012496D01*
X200613352Y-94987853D01*
X200617836Y-94987485D01*
X201147152Y-94924836D01*
X201151591Y-94924149D01*
X201675087Y-94823814D01*
X201679446Y-94822815D01*
X202194414Y-94685311D01*
X202198727Y-94683992D01*
X202702525Y-94510028D01*
X202706740Y-94508402D01*
X203196805Y-94298866D01*
X203200892Y-94296943D01*
X203674731Y-94052900D01*
X203678658Y-94050696D01*
X204133828Y-93773404D01*
X204137624Y-93770901D01*
X204571786Y-93461788D01*
X204575372Y-93459036D01*
X204986362Y-93119640D01*
X204989705Y-93116672D01*
X205113630Y-92998453D01*
X205120179Y-92987102D01*
X219878438Y-92987102D01*
X219878462Y-92987441D01*
X219884285Y-92996073D01*
X220128991Y-93219913D01*
X220132445Y-93222852D01*
X220550430Y-93553550D01*
X220554067Y-93556222D01*
X220994618Y-93856182D01*
X220998446Y-93858593D01*
X221459337Y-94126300D01*
X221463309Y-94128421D01*
X221942148Y-94362483D01*
X221946284Y-94364325D01*
X222440627Y-94563551D01*
X222444871Y-94565087D01*
X222952218Y-94728467D01*
X222956539Y-94729689D01*
X223474254Y-94856374D01*
X223478695Y-94857294D01*
X224004141Y-94946637D01*
X224008595Y-94947232D01*
X224539106Y-94998782D01*
X224543579Y-94999056D01*
X225076427Y-95012543D01*
X225080930Y-95012496D01*
X225613352Y-94987853D01*
X225617836Y-94987485D01*
X226147152Y-94924836D01*
X226151591Y-94924149D01*
X226675087Y-94823814D01*
X226679446Y-94822815D01*
X227194414Y-94685311D01*
X227198727Y-94683992D01*
X227702525Y-94510028D01*
X227706740Y-94508402D01*
X228196805Y-94298866D01*
X228200892Y-94296943D01*
X228674731Y-94052900D01*
X228678658Y-94050696D01*
X229133828Y-93773404D01*
X229137624Y-93770901D01*
X229571786Y-93461788D01*
X229575372Y-93459036D01*
X229986362Y-93119640D01*
X229989705Y-93116672D01*
X230113630Y-92998453D01*
X230121568Y-92984695D01*
X230121518Y-92983649D01*
X230116625Y-92975835D01*
X225012812Y-87872022D01*
X224998868Y-87864408D01*
X224997035Y-87864539D01*
X224990420Y-87868790D01*
X219886052Y-92973158D01*
X219878438Y-92987102D01*
X205120179Y-92987102D01*
X205121568Y-92984695D01*
X205121518Y-92983649D01*
X205116625Y-92975835D01*
X200012812Y-87872022D01*
X199998868Y-87864408D01*
X199997035Y-87864539D01*
X199990420Y-87868790D01*
X194886052Y-92973158D01*
X194878438Y-92987102D01*
X180120179Y-92987102D01*
X180121568Y-92984695D01*
X180121518Y-92983649D01*
X180116625Y-92975835D01*
X175012812Y-87872022D01*
X174998868Y-87864408D01*
X174997035Y-87864539D01*
X174990420Y-87868790D01*
X169886052Y-92973158D01*
X169878438Y-92987102D01*
X154147213Y-92987102D01*
X154188738Y-92932986D01*
X154428425Y-92556753D01*
X154634409Y-92161061D01*
X154805123Y-91748922D01*
X154888917Y-91483164D01*
X154938438Y-91326102D01*
X154938439Y-91326097D01*
X154939267Y-91323472D01*
X155035819Y-90887951D01*
X155094047Y-90445671D01*
X155113505Y-90000000D01*
X155094047Y-89554329D01*
X155035819Y-89112049D01*
X155010012Y-88995638D01*
X154939864Y-88679221D01*
X154939267Y-88676528D01*
X154921835Y-88621240D01*
X154805952Y-88253706D01*
X154805949Y-88253698D01*
X154805123Y-88251078D01*
X154634409Y-87838939D01*
X154484101Y-87550201D01*
X167487236Y-87550201D01*
X167487267Y-87554699D01*
X167510052Y-88087215D01*
X167510404Y-88091696D01*
X167571206Y-88621240D01*
X167571874Y-88625659D01*
X167670381Y-89149497D01*
X167671370Y-89153884D01*
X167807070Y-89669308D01*
X167808381Y-89673648D01*
X167980581Y-90178039D01*
X167982188Y-90182249D01*
X168190028Y-90673079D01*
X168191917Y-90677129D01*
X168434314Y-91151836D01*
X168436507Y-91155776D01*
X168712217Y-91611925D01*
X168714678Y-91615685D01*
X169022290Y-92050947D01*
X169025036Y-92054552D01*
X169362987Y-92466712D01*
X169365944Y-92470066D01*
X169501751Y-92613428D01*
X169515482Y-92621415D01*
X169516410Y-92621374D01*
X169524399Y-92616391D01*
X174627978Y-87512812D01*
X174634356Y-87501132D01*
X175364408Y-87501132D01*
X175364539Y-87502965D01*
X175368790Y-87509580D01*
X180473389Y-92614179D01*
X180487333Y-92621793D01*
X180487556Y-92621778D01*
X180496338Y-92615831D01*
X180736905Y-92350987D01*
X180739793Y-92347570D01*
X181069044Y-91928414D01*
X181071701Y-91924771D01*
X181370130Y-91483164D01*
X181372526Y-91479329D01*
X181638617Y-91017514D01*
X181640726Y-91013531D01*
X181873116Y-90533878D01*
X181874941Y-90529741D01*
X182072446Y-90034690D01*
X182073961Y-90030460D01*
X182235567Y-89522549D01*
X182236781Y-89518202D01*
X182361661Y-89000034D01*
X182362555Y-88995638D01*
X182450064Y-88469885D01*
X182450649Y-88465380D01*
X182500363Y-87934517D01*
X182500613Y-87930439D01*
X182511566Y-87550201D01*
X192487236Y-87550201D01*
X192487267Y-87554699D01*
X192510052Y-88087215D01*
X192510404Y-88091696D01*
X192571206Y-88621240D01*
X192571874Y-88625659D01*
X192670381Y-89149497D01*
X192671370Y-89153884D01*
X192807070Y-89669308D01*
X192808381Y-89673648D01*
X192980581Y-90178039D01*
X192982188Y-90182249D01*
X193190028Y-90673079D01*
X193191917Y-90677129D01*
X193434314Y-91151836D01*
X193436507Y-91155776D01*
X193712217Y-91611925D01*
X193714678Y-91615685D01*
X194022290Y-92050947D01*
X194025036Y-92054552D01*
X194362987Y-92466712D01*
X194365944Y-92470066D01*
X194501751Y-92613428D01*
X194515482Y-92621415D01*
X194516410Y-92621374D01*
X194524399Y-92616391D01*
X199627978Y-87512812D01*
X199634356Y-87501132D01*
X200364408Y-87501132D01*
X200364539Y-87502965D01*
X200368790Y-87509580D01*
X205473389Y-92614179D01*
X205487333Y-92621793D01*
X205487556Y-92621778D01*
X205496338Y-92615831D01*
X205736905Y-92350987D01*
X205739793Y-92347570D01*
X206069044Y-91928414D01*
X206071701Y-91924771D01*
X206370130Y-91483164D01*
X206372526Y-91479329D01*
X206638617Y-91017514D01*
X206640726Y-91013531D01*
X206873116Y-90533878D01*
X206874941Y-90529741D01*
X207072446Y-90034690D01*
X207073961Y-90030460D01*
X207235567Y-89522549D01*
X207236781Y-89518202D01*
X207361661Y-89000034D01*
X207362555Y-88995638D01*
X207450064Y-88469885D01*
X207450649Y-88465380D01*
X207500363Y-87934517D01*
X207500613Y-87930439D01*
X207511566Y-87550201D01*
X217487236Y-87550201D01*
X217487267Y-87554699D01*
X217510052Y-88087215D01*
X217510404Y-88091696D01*
X217571206Y-88621240D01*
X217571874Y-88625659D01*
X217670381Y-89149497D01*
X217671370Y-89153884D01*
X217807070Y-89669308D01*
X217808381Y-89673648D01*
X217980581Y-90178039D01*
X217982188Y-90182249D01*
X218190028Y-90673079D01*
X218191917Y-90677129D01*
X218434314Y-91151836D01*
X218436507Y-91155776D01*
X218712217Y-91611925D01*
X218714678Y-91615685D01*
X219022290Y-92050947D01*
X219025036Y-92054552D01*
X219362987Y-92466712D01*
X219365944Y-92470066D01*
X219501751Y-92613428D01*
X219515482Y-92621415D01*
X219516410Y-92621374D01*
X219524399Y-92616391D01*
X224627978Y-87512812D01*
X224634356Y-87501132D01*
X225364408Y-87501132D01*
X225364539Y-87502965D01*
X225368790Y-87509580D01*
X230473389Y-92614179D01*
X230487333Y-92621793D01*
X230487556Y-92621778D01*
X230496338Y-92615831D01*
X230736905Y-92350987D01*
X230739793Y-92347570D01*
X231069044Y-91928414D01*
X231071701Y-91924771D01*
X231370130Y-91483164D01*
X231372526Y-91479329D01*
X231638617Y-91017514D01*
X231640726Y-91013531D01*
X231873116Y-90533878D01*
X231874941Y-90529741D01*
X232072446Y-90034690D01*
X232073961Y-90030460D01*
X232235567Y-89522549D01*
X232236781Y-89518202D01*
X232361661Y-89000034D01*
X232362555Y-88995638D01*
X232450064Y-88469885D01*
X232450649Y-88465380D01*
X232500363Y-87934517D01*
X232500613Y-87930439D01*
X232512954Y-87502024D01*
X232512939Y-87497967D01*
X232493866Y-86965096D01*
X232493544Y-86960601D01*
X232436442Y-86430662D01*
X232435800Y-86426211D01*
X232340955Y-85901710D01*
X232339999Y-85897327D01*
X232207892Y-85380933D01*
X232206630Y-85376645D01*
X232037938Y-84871015D01*
X232036370Y-84866818D01*
X231831966Y-84374558D01*
X231830088Y-84370456D01*
X231591023Y-83894094D01*
X231588855Y-83890133D01*
X231316347Y-83432090D01*
X231313891Y-83428279D01*
X231009331Y-82990890D01*
X231006624Y-82987284D01*
X230671552Y-82572765D01*
X230668609Y-82569380D01*
X230498034Y-82386780D01*
X230484361Y-82378698D01*
X230483667Y-82378724D01*
X230475320Y-82383890D01*
X225372022Y-87487188D01*
X225364408Y-87501132D01*
X224634356Y-87501132D01*
X224635592Y-87498868D01*
X224635461Y-87497035D01*
X224631210Y-87490420D01*
X219527007Y-82386217D01*
X219513063Y-82378603D01*
X219512606Y-82378635D01*
X219504130Y-82384332D01*
X219297104Y-82609077D01*
X219294190Y-82612477D01*
X218962015Y-83029331D01*
X218959344Y-83032941D01*
X218657831Y-83472465D01*
X218655409Y-83476283D01*
X218386107Y-83936216D01*
X218383964Y-83940196D01*
X218148233Y-84418211D01*
X218146376Y-84422343D01*
X217945427Y-84915984D01*
X217943874Y-84920230D01*
X217778729Y-85426984D01*
X217777484Y-85431326D01*
X217648991Y-85948608D01*
X217648067Y-85952991D01*
X217556885Y-86478152D01*
X217556274Y-86482609D01*
X217502873Y-87012930D01*
X217502583Y-87017413D01*
X217487236Y-87550201D01*
X207511566Y-87550201D01*
X207512954Y-87502024D01*
X207512939Y-87497967D01*
X207493866Y-86965096D01*
X207493544Y-86960601D01*
X207436442Y-86430662D01*
X207435800Y-86426211D01*
X207340955Y-85901710D01*
X207339999Y-85897327D01*
X207207892Y-85380933D01*
X207206630Y-85376645D01*
X207037938Y-84871015D01*
X207036370Y-84866818D01*
X206831966Y-84374558D01*
X206830088Y-84370456D01*
X206591023Y-83894094D01*
X206588855Y-83890133D01*
X206316347Y-83432090D01*
X206313891Y-83428279D01*
X206009331Y-82990890D01*
X206006624Y-82987284D01*
X205671552Y-82572765D01*
X205668609Y-82569380D01*
X205498034Y-82386780D01*
X205484361Y-82378698D01*
X205483667Y-82378724D01*
X205475320Y-82383890D01*
X200372022Y-87487188D01*
X200364408Y-87501132D01*
X199634356Y-87501132D01*
X199635592Y-87498868D01*
X199635461Y-87497035D01*
X199631210Y-87490420D01*
X194527007Y-82386217D01*
X194513063Y-82378603D01*
X194512606Y-82378635D01*
X194504130Y-82384332D01*
X194297104Y-82609077D01*
X194294190Y-82612477D01*
X193962015Y-83029331D01*
X193959344Y-83032941D01*
X193657831Y-83472465D01*
X193655409Y-83476283D01*
X193386107Y-83936216D01*
X193383964Y-83940196D01*
X193148233Y-84418211D01*
X193146376Y-84422343D01*
X192945427Y-84915984D01*
X192943874Y-84920230D01*
X192778729Y-85426984D01*
X192777484Y-85431326D01*
X192648991Y-85948608D01*
X192648067Y-85952991D01*
X192556885Y-86478152D01*
X192556274Y-86482609D01*
X192502873Y-87012930D01*
X192502583Y-87017413D01*
X192487236Y-87550201D01*
X182511566Y-87550201D01*
X182512954Y-87502024D01*
X182512939Y-87497967D01*
X182493866Y-86965096D01*
X182493544Y-86960601D01*
X182436442Y-86430662D01*
X182435800Y-86426211D01*
X182340955Y-85901710D01*
X182339999Y-85897327D01*
X182207892Y-85380933D01*
X182206630Y-85376645D01*
X182037938Y-84871015D01*
X182036370Y-84866818D01*
X181831966Y-84374558D01*
X181830088Y-84370456D01*
X181591023Y-83894094D01*
X181588855Y-83890133D01*
X181316347Y-83432090D01*
X181313891Y-83428279D01*
X181009331Y-82990890D01*
X181006624Y-82987284D01*
X180671552Y-82572765D01*
X180668609Y-82569380D01*
X180498034Y-82386780D01*
X180484361Y-82378698D01*
X180483667Y-82378724D01*
X180475320Y-82383890D01*
X175372022Y-87487188D01*
X175364408Y-87501132D01*
X174634356Y-87501132D01*
X174635592Y-87498868D01*
X174635461Y-87497035D01*
X174631210Y-87490420D01*
X169527007Y-82386217D01*
X169513063Y-82378603D01*
X169512606Y-82378635D01*
X169504130Y-82384332D01*
X169297104Y-82609077D01*
X169294190Y-82612477D01*
X168962015Y-83029331D01*
X168959344Y-83032941D01*
X168657831Y-83472465D01*
X168655409Y-83476283D01*
X168386107Y-83936216D01*
X168383964Y-83940196D01*
X168148233Y-84418211D01*
X168146376Y-84422343D01*
X167945427Y-84915984D01*
X167943874Y-84920230D01*
X167778729Y-85426984D01*
X167777484Y-85431326D01*
X167648991Y-85948608D01*
X167648067Y-85952991D01*
X167556885Y-86478152D01*
X167556274Y-86482609D01*
X167502873Y-87012930D01*
X167502583Y-87017413D01*
X167487236Y-87550201D01*
X154484101Y-87550201D01*
X154428425Y-87443248D01*
X154188738Y-87067014D01*
X154011097Y-86835508D01*
X153918836Y-86715270D01*
X153918831Y-86715264D01*
X153917172Y-86713102D01*
X153615794Y-86384206D01*
X153286898Y-86082828D01*
X153284736Y-86081169D01*
X153284730Y-86081164D01*
X153045148Y-85897327D01*
X152932986Y-85811262D01*
X152556752Y-85571575D01*
X152161061Y-85365591D01*
X151748922Y-85194877D01*
X151746302Y-85194051D01*
X151746294Y-85194048D01*
X151326102Y-85061562D01*
X151326097Y-85061561D01*
X151323472Y-85060733D01*
X151288584Y-85052999D01*
X150890645Y-84964778D01*
X150890640Y-84964777D01*
X150887951Y-84964181D01*
X150514483Y-84915012D01*
X150448406Y-84906313D01*
X150448404Y-84906313D01*
X150445671Y-84905953D01*
X150195887Y-84895047D01*
X150116013Y-84891560D01*
X150116008Y-84891560D01*
X150114636Y-84891500D01*
X149885364Y-84891500D01*
X149883992Y-84891560D01*
X149883987Y-84891560D01*
X149804113Y-84895047D01*
X149554329Y-84905953D01*
X149551596Y-84906313D01*
X149551594Y-84906313D01*
X149485517Y-84915012D01*
X149112049Y-84964181D01*
X149109360Y-84964777D01*
X149109355Y-84964778D01*
X148711416Y-85052999D01*
X148676528Y-85060733D01*
X148673903Y-85061561D01*
X148673898Y-85061562D01*
X148253706Y-85194048D01*
X148253698Y-85194051D01*
X148251078Y-85194877D01*
X147838939Y-85365591D01*
X147443248Y-85571575D01*
X147067014Y-85811262D01*
X146954852Y-85897327D01*
X146715270Y-86081164D01*
X146715264Y-86081169D01*
X146713102Y-86082828D01*
X146384206Y-86384206D01*
X146082828Y-86713102D01*
X146081169Y-86715264D01*
X146081164Y-86715270D01*
X145988903Y-86835508D01*
X145811262Y-87067014D01*
X145571575Y-87443247D01*
X145365591Y-87838939D01*
X145194877Y-88251078D01*
X145194051Y-88253698D01*
X145194048Y-88253706D01*
X145078165Y-88621240D01*
X145060733Y-88676528D01*
X145060136Y-88679221D01*
X144989989Y-88995638D01*
X144964181Y-89112049D01*
X144905953Y-89554329D01*
X144886495Y-90000000D01*
X127049522Y-90000000D01*
X127320779Y-89939864D01*
X127323472Y-89939267D01*
X127326097Y-89938439D01*
X127326102Y-89938438D01*
X127746294Y-89805952D01*
X127746302Y-89805949D01*
X127748922Y-89805123D01*
X128161061Y-89634409D01*
X128556752Y-89428425D01*
X128932986Y-89188738D01*
X129184639Y-88995638D01*
X129284730Y-88918836D01*
X129284736Y-88918831D01*
X129286898Y-88917172D01*
X129615794Y-88615794D01*
X129917172Y-88286898D01*
X129946608Y-88248537D01*
X130011097Y-88164492D01*
X130188738Y-87932986D01*
X130428425Y-87556753D01*
X130634409Y-87161061D01*
X130805123Y-86748922D01*
X130815734Y-86715270D01*
X130938438Y-86326102D01*
X130938439Y-86326097D01*
X130939267Y-86323472D01*
X131032769Y-85901710D01*
X131035222Y-85890645D01*
X131035223Y-85890640D01*
X131035819Y-85887951D01*
X131094047Y-85445671D01*
X131113505Y-85000000D01*
X131094047Y-84554329D01*
X131035819Y-84112049D01*
X130997721Y-83940196D01*
X130939864Y-83679221D01*
X130939267Y-83676528D01*
X130862196Y-83432090D01*
X130805952Y-83253706D01*
X130805949Y-83253698D01*
X130805123Y-83251078D01*
X130634409Y-82838939D01*
X130428425Y-82443248D01*
X130188738Y-82067014D01*
X130149280Y-82015591D01*
X169878674Y-82015591D01*
X169878707Y-82016404D01*
X169883783Y-82024573D01*
X174987188Y-87127978D01*
X175001132Y-87135592D01*
X175002965Y-87135461D01*
X175009580Y-87131210D01*
X180113682Y-82027108D01*
X180119971Y-82015591D01*
X194878674Y-82015591D01*
X194878707Y-82016404D01*
X194883783Y-82024573D01*
X199987188Y-87127978D01*
X200001132Y-87135592D01*
X200002965Y-87135461D01*
X200009580Y-87131210D01*
X205113682Y-82027108D01*
X205119971Y-82015591D01*
X219878674Y-82015591D01*
X219878707Y-82016404D01*
X219883783Y-82024573D01*
X224987188Y-87127978D01*
X225001132Y-87135592D01*
X225002965Y-87135461D01*
X225009580Y-87131210D01*
X230113682Y-82027108D01*
X230121296Y-82013164D01*
X230121255Y-82012590D01*
X230115684Y-82004268D01*
X229910818Y-81814228D01*
X229907387Y-81811267D01*
X229491729Y-81477666D01*
X229488115Y-81474972D01*
X229049654Y-81171933D01*
X229045835Y-81169490D01*
X228586846Y-80898585D01*
X228582877Y-80896430D01*
X228105679Y-80659028D01*
X228101575Y-80657166D01*
X227608610Y-80454483D01*
X227604395Y-80452924D01*
X227098199Y-80286006D01*
X227093883Y-80284752D01*
X226577042Y-80154451D01*
X226572665Y-80153513D01*
X226047822Y-80060496D01*
X226043365Y-80059870D01*
X225513241Y-80004620D01*
X225508747Y-80004313D01*
X224976027Y-79987107D01*
X224971530Y-79987122D01*
X224438927Y-80008048D01*
X224434451Y-80008384D01*
X223904713Y-80067336D01*
X223900261Y-80067994D01*
X223376106Y-80164667D01*
X223371701Y-80165643D01*
X222855801Y-80299545D01*
X222851490Y-80300830D01*
X222346471Y-80471278D01*
X222342259Y-80472870D01*
X221850723Y-80678988D01*
X221846647Y-80680871D01*
X221371109Y-80921605D01*
X221367158Y-80923786D01*
X220910063Y-81197893D01*
X220906267Y-81200358D01*
X220469930Y-81506452D01*
X220466347Y-81509162D01*
X220053007Y-81845674D01*
X220049617Y-81848642D01*
X219886708Y-82001891D01*
X219878674Y-82015591D01*
X205119971Y-82015591D01*
X205121296Y-82013164D01*
X205121255Y-82012590D01*
X205115684Y-82004268D01*
X204910818Y-81814228D01*
X204907387Y-81811267D01*
X204491729Y-81477666D01*
X204488115Y-81474972D01*
X204049654Y-81171933D01*
X204045835Y-81169490D01*
X203586846Y-80898585D01*
X203582877Y-80896430D01*
X203105679Y-80659028D01*
X203101575Y-80657166D01*
X202608610Y-80454483D01*
X202604395Y-80452924D01*
X202098199Y-80286006D01*
X202093883Y-80284752D01*
X201577042Y-80154451D01*
X201572665Y-80153513D01*
X201047822Y-80060496D01*
X201043365Y-80059870D01*
X200513241Y-80004620D01*
X200508747Y-80004313D01*
X199976027Y-79987107D01*
X199971530Y-79987122D01*
X199438927Y-80008048D01*
X199434451Y-80008384D01*
X198904713Y-80067336D01*
X198900261Y-80067994D01*
X198376106Y-80164667D01*
X198371701Y-80165643D01*
X197855801Y-80299545D01*
X197851490Y-80300830D01*
X197346471Y-80471278D01*
X197342259Y-80472870D01*
X196850723Y-80678988D01*
X196846647Y-80680871D01*
X196371109Y-80921605D01*
X196367158Y-80923786D01*
X195910063Y-81197893D01*
X195906267Y-81200358D01*
X195469930Y-81506452D01*
X195466347Y-81509162D01*
X195053007Y-81845674D01*
X195049617Y-81848642D01*
X194886708Y-82001891D01*
X194878674Y-82015591D01*
X180119971Y-82015591D01*
X180121296Y-82013164D01*
X180121255Y-82012590D01*
X180115684Y-82004268D01*
X179910818Y-81814228D01*
X179907387Y-81811267D01*
X179491729Y-81477666D01*
X179488115Y-81474972D01*
X179049654Y-81171933D01*
X179045835Y-81169490D01*
X178586846Y-80898585D01*
X178582877Y-80896430D01*
X178105679Y-80659028D01*
X178101575Y-80657166D01*
X177608610Y-80454483D01*
X177604395Y-80452924D01*
X177098199Y-80286006D01*
X177093883Y-80284752D01*
X176577042Y-80154451D01*
X176572665Y-80153513D01*
X176047822Y-80060496D01*
X176043365Y-80059870D01*
X175513241Y-80004620D01*
X175508747Y-80004313D01*
X174976027Y-79987107D01*
X174971530Y-79987122D01*
X174438927Y-80008048D01*
X174434451Y-80008384D01*
X173904713Y-80067336D01*
X173900261Y-80067994D01*
X173376106Y-80164667D01*
X173371701Y-80165643D01*
X172855801Y-80299545D01*
X172851490Y-80300830D01*
X172346471Y-80471278D01*
X172342259Y-80472870D01*
X171850723Y-80678988D01*
X171846647Y-80680871D01*
X171371109Y-80921605D01*
X171367158Y-80923786D01*
X170910063Y-81197893D01*
X170906267Y-81200358D01*
X170469930Y-81506452D01*
X170466347Y-81509162D01*
X170053007Y-81845674D01*
X170049617Y-81848642D01*
X169886708Y-82001891D01*
X169878674Y-82015591D01*
X130149280Y-82015591D01*
X129917172Y-81713102D01*
X129615794Y-81384206D01*
X129286898Y-81082828D01*
X129284736Y-81081169D01*
X129284730Y-81081164D01*
X129076788Y-80921605D01*
X128932986Y-80811262D01*
X128556752Y-80571575D01*
X128161061Y-80365591D01*
X127748922Y-80194877D01*
X127746302Y-80194051D01*
X127746294Y-80194048D01*
X127326102Y-80061562D01*
X127326097Y-80061561D01*
X127323472Y-80060733D01*
X127288584Y-80052999D01*
X126890645Y-79964778D01*
X126890640Y-79964777D01*
X126887951Y-79964181D01*
X126514483Y-79915012D01*
X126448406Y-79906313D01*
X126448404Y-79906313D01*
X126445671Y-79905953D01*
X126195887Y-79895047D01*
X126116013Y-79891560D01*
X126116008Y-79891560D01*
X126114636Y-79891500D01*
X125885364Y-79891500D01*
X125883992Y-79891560D01*
X125883987Y-79891560D01*
X125804113Y-79895047D01*
X125554329Y-79905953D01*
X125551596Y-79906313D01*
X125551594Y-79906313D01*
X125485517Y-79915012D01*
X125112049Y-79964181D01*
X125109360Y-79964777D01*
X125109355Y-79964778D01*
X124711416Y-80052999D01*
X124676528Y-80060733D01*
X124673903Y-80061561D01*
X124673898Y-80061562D01*
X124253706Y-80194048D01*
X124253698Y-80194051D01*
X124251078Y-80194877D01*
X123838939Y-80365591D01*
X123443248Y-80571575D01*
X123067014Y-80811262D01*
X122923212Y-80921605D01*
X122715270Y-81081164D01*
X122715264Y-81081169D01*
X122713102Y-81082828D01*
X122384206Y-81384206D01*
X122082828Y-81713102D01*
X121811262Y-82067014D01*
X121571575Y-82443247D01*
X121365591Y-82838939D01*
X121194877Y-83251078D01*
X121194051Y-83253698D01*
X121194048Y-83253706D01*
X121137804Y-83432090D01*
X121060733Y-83676528D01*
X121060136Y-83679221D01*
X121002280Y-83940196D01*
X120964181Y-84112049D01*
X120905953Y-84554329D01*
X120886495Y-85000000D01*
X79113505Y-85000000D01*
X79094047Y-84554329D01*
X79035819Y-84112049D01*
X78997721Y-83940196D01*
X78939864Y-83679221D01*
X78939267Y-83676528D01*
X78862196Y-83432090D01*
X78805952Y-83253706D01*
X78805949Y-83253698D01*
X78805123Y-83251078D01*
X78634409Y-82838939D01*
X78428425Y-82443248D01*
X78188738Y-82067014D01*
X77917172Y-81713102D01*
X77615794Y-81384206D01*
X77286898Y-81082828D01*
X77284736Y-81081169D01*
X77284730Y-81081164D01*
X77076788Y-80921605D01*
X76932986Y-80811262D01*
X76556752Y-80571575D01*
X76161061Y-80365591D01*
X75748922Y-80194877D01*
X75746302Y-80194051D01*
X75746294Y-80194048D01*
X75326102Y-80061562D01*
X75326097Y-80061561D01*
X75323472Y-80060733D01*
X75288584Y-80052999D01*
X74890645Y-79964778D01*
X74890640Y-79964777D01*
X74887951Y-79964181D01*
X74514483Y-79915012D01*
X74448406Y-79906313D01*
X74448404Y-79906313D01*
X74445671Y-79905953D01*
X74195887Y-79895047D01*
X74116013Y-79891560D01*
X74116008Y-79891560D01*
X74114636Y-79891500D01*
X73885364Y-79891500D01*
X73883992Y-79891560D01*
X73883987Y-79891560D01*
X73804113Y-79895047D01*
X73554329Y-79905953D01*
X73551596Y-79906313D01*
X73551594Y-79906313D01*
X73485517Y-79915012D01*
X73112049Y-79964181D01*
X73109360Y-79964777D01*
X73109355Y-79964778D01*
X72711416Y-80052999D01*
X72676528Y-80060733D01*
X72673903Y-80061561D01*
X72673898Y-80061562D01*
X72253706Y-80194048D01*
X72253698Y-80194051D01*
X72251078Y-80194877D01*
X71838939Y-80365591D01*
X71443248Y-80571575D01*
X71067014Y-80811262D01*
X70923212Y-80921605D01*
X70715270Y-81081164D01*
X70715264Y-81081169D01*
X70713102Y-81082828D01*
X70384206Y-81384206D01*
X70082828Y-81713102D01*
X69811262Y-82067014D01*
X69571575Y-82443247D01*
X69365591Y-82838939D01*
X69194877Y-83251078D01*
X69194051Y-83253698D01*
X69194048Y-83253706D01*
X69137804Y-83432090D01*
X69060733Y-83676528D01*
X69060136Y-83679221D01*
X69002280Y-83940196D01*
X68964181Y-84112049D01*
X68905953Y-84554329D01*
X68886495Y-85000000D01*
X50508500Y-85000000D01*
X50508500Y-74000000D01*
X79886495Y-74000000D01*
X79905953Y-74445671D01*
X79964181Y-74887951D01*
X79964777Y-74890640D01*
X79964778Y-74890645D01*
X79975557Y-74939267D01*
X80060733Y-75323472D01*
X80194877Y-75748922D01*
X80365591Y-76161061D01*
X80571575Y-76556752D01*
X80811262Y-76932986D01*
X81082828Y-77286898D01*
X81384206Y-77615794D01*
X81713102Y-77917172D01*
X81715264Y-77918831D01*
X81715270Y-77918836D01*
X81835508Y-78011097D01*
X82067014Y-78188738D01*
X82443248Y-78428425D01*
X82838939Y-78634409D01*
X83251078Y-78805123D01*
X83253698Y-78805949D01*
X83253706Y-78805952D01*
X83673898Y-78938438D01*
X83673903Y-78938439D01*
X83676528Y-78939267D01*
X83679221Y-78939864D01*
X84109355Y-79035222D01*
X84109360Y-79035223D01*
X84112049Y-79035819D01*
X84485517Y-79084988D01*
X84551594Y-79093687D01*
X84551596Y-79093687D01*
X84554329Y-79094047D01*
X84804113Y-79104953D01*
X84883987Y-79108440D01*
X84883992Y-79108440D01*
X84885364Y-79108500D01*
X85114636Y-79108500D01*
X85116008Y-79108440D01*
X85116013Y-79108440D01*
X85195887Y-79104953D01*
X85445671Y-79094047D01*
X85448404Y-79093687D01*
X85448406Y-79093687D01*
X85514483Y-79084988D01*
X85887951Y-79035819D01*
X85890640Y-79035223D01*
X85890645Y-79035222D01*
X86320779Y-78939864D01*
X86323472Y-78939267D01*
X86326097Y-78938439D01*
X86326102Y-78938438D01*
X86746294Y-78805952D01*
X86746302Y-78805949D01*
X86748922Y-78805123D01*
X87161061Y-78634409D01*
X87556752Y-78428425D01*
X87932986Y-78188738D01*
X88164492Y-78011097D01*
X88284730Y-77918836D01*
X88284736Y-77918831D01*
X88286898Y-77917172D01*
X88615794Y-77615794D01*
X88917172Y-77286898D01*
X89188738Y-76932986D01*
X89428425Y-76556753D01*
X89634409Y-76161061D01*
X89805123Y-75748922D01*
X89939267Y-75323472D01*
X90024443Y-74939267D01*
X90035222Y-74890645D01*
X90035223Y-74890640D01*
X90035819Y-74887951D01*
X90094047Y-74445671D01*
X90113505Y-74000000D01*
X90094047Y-73554329D01*
X90035819Y-73112049D01*
X89939267Y-72676528D01*
X89902235Y-72559077D01*
X89805952Y-72253706D01*
X89805949Y-72253698D01*
X89805123Y-72251078D01*
X89634409Y-71838939D01*
X89428425Y-71443248D01*
X89188738Y-71067014D01*
X88917172Y-70713102D01*
X88615794Y-70384206D01*
X88286898Y-70082828D01*
X88284736Y-70081169D01*
X88284730Y-70081164D01*
X88178954Y-70000000D01*
X94886495Y-70000000D01*
X94905953Y-70445671D01*
X94964181Y-70887951D01*
X94964777Y-70890640D01*
X94964778Y-70890645D01*
X95003396Y-71064840D01*
X95060733Y-71323472D01*
X95061561Y-71326097D01*
X95061562Y-71326102D01*
X95141357Y-71579177D01*
X95194877Y-71748922D01*
X95365591Y-72161061D01*
X95571575Y-72556752D01*
X95811262Y-72932986D01*
X96082828Y-73286898D01*
X96384206Y-73615794D01*
X96713102Y-73917172D01*
X96715264Y-73918831D01*
X96715270Y-73918836D01*
X96817463Y-73997251D01*
X97067014Y-74188738D01*
X97443248Y-74428425D01*
X97838939Y-74634409D01*
X98251078Y-74805123D01*
X98253698Y-74805949D01*
X98253706Y-74805952D01*
X98673898Y-74938438D01*
X98673903Y-74938439D01*
X98676528Y-74939267D01*
X98679221Y-74939864D01*
X99109355Y-75035222D01*
X99109360Y-75035223D01*
X99112049Y-75035819D01*
X99485517Y-75084988D01*
X99551594Y-75093687D01*
X99551596Y-75093687D01*
X99554329Y-75094047D01*
X99804113Y-75104953D01*
X99883987Y-75108440D01*
X99883992Y-75108440D01*
X99885364Y-75108500D01*
X100114636Y-75108500D01*
X100116008Y-75108440D01*
X100116013Y-75108440D01*
X100195887Y-75104953D01*
X100445671Y-75094047D01*
X100448404Y-75093687D01*
X100448406Y-75093687D01*
X100514483Y-75084988D01*
X100887951Y-75035819D01*
X100890640Y-75035223D01*
X100890645Y-75035222D01*
X101320779Y-74939864D01*
X101323472Y-74939267D01*
X101326097Y-74938439D01*
X101326102Y-74938438D01*
X101746294Y-74805952D01*
X101746302Y-74805949D01*
X101748922Y-74805123D01*
X102161061Y-74634409D01*
X102556752Y-74428425D01*
X102932986Y-74188738D01*
X103178954Y-74000000D01*
X109886495Y-74000000D01*
X109905953Y-74445671D01*
X109964181Y-74887951D01*
X109964777Y-74890640D01*
X109964778Y-74890645D01*
X109975557Y-74939267D01*
X110060733Y-75323472D01*
X110194877Y-75748922D01*
X110365591Y-76161061D01*
X110571575Y-76556752D01*
X110811262Y-76932986D01*
X111082828Y-77286898D01*
X111384206Y-77615794D01*
X111713102Y-77917172D01*
X111715264Y-77918831D01*
X111715270Y-77918836D01*
X111835508Y-78011097D01*
X112067014Y-78188738D01*
X112443248Y-78428425D01*
X112838939Y-78634409D01*
X113251078Y-78805123D01*
X113253698Y-78805949D01*
X113253706Y-78805952D01*
X113673898Y-78938438D01*
X113673903Y-78938439D01*
X113676528Y-78939267D01*
X113679221Y-78939864D01*
X114109355Y-79035222D01*
X114109360Y-79035223D01*
X114112049Y-79035819D01*
X114485517Y-79084988D01*
X114551594Y-79093687D01*
X114551596Y-79093687D01*
X114554329Y-79094047D01*
X114804113Y-79104953D01*
X114883987Y-79108440D01*
X114883992Y-79108440D01*
X114885364Y-79108500D01*
X115114636Y-79108500D01*
X115116008Y-79108440D01*
X115116013Y-79108440D01*
X115195887Y-79104953D01*
X115445671Y-79094047D01*
X115448404Y-79093687D01*
X115448406Y-79093687D01*
X115514483Y-79084988D01*
X115887951Y-79035819D01*
X115890640Y-79035223D01*
X115890645Y-79035222D01*
X116320779Y-78939864D01*
X116323472Y-78939267D01*
X116326097Y-78938439D01*
X116326102Y-78938438D01*
X116746294Y-78805952D01*
X116746302Y-78805949D01*
X116748922Y-78805123D01*
X117161061Y-78634409D01*
X117556752Y-78428425D01*
X117932986Y-78188738D01*
X118164492Y-78011097D01*
X118284730Y-77918836D01*
X118284736Y-77918831D01*
X118286898Y-77917172D01*
X118615794Y-77615794D01*
X118917172Y-77286898D01*
X119188738Y-76932986D01*
X119428425Y-76556753D01*
X119634409Y-76161061D01*
X119805123Y-75748922D01*
X119939267Y-75323472D01*
X120024443Y-74939267D01*
X120035222Y-74890645D01*
X120035223Y-74890640D01*
X120035819Y-74887951D01*
X120094047Y-74445671D01*
X120113505Y-74000000D01*
X120094047Y-73554329D01*
X120035819Y-73112049D01*
X119939267Y-72676528D01*
X119902235Y-72559077D01*
X119805952Y-72253706D01*
X119805949Y-72253698D01*
X119805123Y-72251078D01*
X119678750Y-71945987D01*
X128418721Y-71945987D01*
X128427548Y-71957605D01*
X128650281Y-72119430D01*
X128656961Y-72123670D01*
X128926572Y-72271890D01*
X128933707Y-72275247D01*
X129219770Y-72388508D01*
X129227296Y-72390953D01*
X129525279Y-72467462D01*
X129533050Y-72468945D01*
X129838278Y-72507503D01*
X129846169Y-72508000D01*
X130153831Y-72508000D01*
X130161722Y-72507503D01*
X130466950Y-72468945D01*
X130474721Y-72467462D01*
X130772704Y-72390953D01*
X130780230Y-72388508D01*
X131066293Y-72275247D01*
X131073428Y-72271890D01*
X131343039Y-72123670D01*
X131349719Y-72119430D01*
X131572823Y-71957336D01*
X131581246Y-71946413D01*
X131574342Y-71933552D01*
X130012812Y-70372022D01*
X129998868Y-70364408D01*
X129997035Y-70364539D01*
X129990420Y-70368790D01*
X128425334Y-71933876D01*
X128418721Y-71945987D01*
X119678750Y-71945987D01*
X119634409Y-71838939D01*
X119428425Y-71443248D01*
X119188738Y-71067014D01*
X118917172Y-70713102D01*
X118615794Y-70384206D01*
X118286898Y-70082828D01*
X118284736Y-70081169D01*
X118284730Y-70081164D01*
X118184112Y-70003958D01*
X127487290Y-70003958D01*
X127506607Y-70310994D01*
X127507600Y-70318855D01*
X127565246Y-70621046D01*
X127567217Y-70628723D01*
X127662284Y-70921309D01*
X127665199Y-70928672D01*
X127796189Y-71207041D01*
X127800001Y-71213974D01*
X127964851Y-71473736D01*
X127969495Y-71480129D01*
X128044497Y-71570790D01*
X128057014Y-71579245D01*
X128067752Y-71573038D01*
X129627978Y-70012812D01*
X129634356Y-70001132D01*
X130364408Y-70001132D01*
X130364539Y-70002965D01*
X130368790Y-70009580D01*
X131931145Y-71571935D01*
X131944407Y-71579177D01*
X131954512Y-71571988D01*
X132030505Y-71480129D01*
X132035149Y-71473736D01*
X132199999Y-71213974D01*
X132203811Y-71207041D01*
X132334801Y-70928672D01*
X132337716Y-70921309D01*
X132432783Y-70628723D01*
X132434754Y-70621046D01*
X132492400Y-70318855D01*
X132493393Y-70310994D01*
X132512710Y-70003958D01*
X132512710Y-70000000D01*
X144886495Y-70000000D01*
X144905953Y-70445671D01*
X144964181Y-70887951D01*
X144964777Y-70890640D01*
X144964778Y-70890645D01*
X145003396Y-71064840D01*
X145060733Y-71323472D01*
X145061561Y-71326097D01*
X145061562Y-71326102D01*
X145141357Y-71579177D01*
X145194877Y-71748922D01*
X145365591Y-72161061D01*
X145571575Y-72556752D01*
X145811262Y-72932986D01*
X146082828Y-73286898D01*
X146384206Y-73615794D01*
X146713102Y-73917172D01*
X146715264Y-73918831D01*
X146715270Y-73918836D01*
X146817463Y-73997251D01*
X147067014Y-74188738D01*
X147443248Y-74428425D01*
X147838939Y-74634409D01*
X148251078Y-74805123D01*
X148253698Y-74805949D01*
X148253706Y-74805952D01*
X148673898Y-74938438D01*
X148673903Y-74938439D01*
X148676528Y-74939267D01*
X148679221Y-74939864D01*
X149109355Y-75035222D01*
X149109360Y-75035223D01*
X149112049Y-75035819D01*
X149485517Y-75084988D01*
X149551594Y-75093687D01*
X149551596Y-75093687D01*
X149554329Y-75094047D01*
X149804113Y-75104953D01*
X149883987Y-75108440D01*
X149883992Y-75108440D01*
X149885364Y-75108500D01*
X150114636Y-75108500D01*
X150116008Y-75108440D01*
X150116013Y-75108440D01*
X150195887Y-75104953D01*
X150445671Y-75094047D01*
X150448404Y-75093687D01*
X150448406Y-75093687D01*
X150514483Y-75084988D01*
X150887951Y-75035819D01*
X150890640Y-75035223D01*
X150890645Y-75035222D01*
X151320779Y-74939864D01*
X151323472Y-74939267D01*
X151326097Y-74938439D01*
X151326102Y-74938438D01*
X151746294Y-74805952D01*
X151746302Y-74805949D01*
X151748922Y-74805123D01*
X152161061Y-74634409D01*
X152556752Y-74428425D01*
X152932986Y-74188738D01*
X153182537Y-73997251D01*
X153284730Y-73918836D01*
X153284736Y-73918831D01*
X153286898Y-73917172D01*
X153615794Y-73615794D01*
X153917172Y-73286898D01*
X154188738Y-72932986D01*
X154428425Y-72556753D01*
X154634409Y-72161061D01*
X154805123Y-71748922D01*
X154858644Y-71579177D01*
X154938438Y-71326102D01*
X154938439Y-71326097D01*
X154939267Y-71323472D01*
X154996604Y-71064840D01*
X155035222Y-70890645D01*
X155035223Y-70890640D01*
X155035819Y-70887951D01*
X155094047Y-70445671D01*
X155113505Y-70000000D01*
X155094047Y-69554329D01*
X155035819Y-69112049D01*
X155026792Y-69071328D01*
X154939864Y-68679221D01*
X154939267Y-68676528D01*
X154860579Y-68426962D01*
X154805952Y-68253706D01*
X154805949Y-68253698D01*
X154805123Y-68251078D01*
X154695780Y-67987102D01*
X194878438Y-67987102D01*
X194878462Y-67987441D01*
X194884285Y-67996073D01*
X195128991Y-68219913D01*
X195132445Y-68222852D01*
X195550430Y-68553550D01*
X195554067Y-68556222D01*
X195994618Y-68856182D01*
X195998446Y-68858593D01*
X196459337Y-69126300D01*
X196463309Y-69128421D01*
X196942148Y-69362483D01*
X196946284Y-69364325D01*
X197440627Y-69563551D01*
X197444871Y-69565087D01*
X197952218Y-69728467D01*
X197956539Y-69729689D01*
X198474254Y-69856374D01*
X198478695Y-69857294D01*
X199004141Y-69946637D01*
X199008595Y-69947232D01*
X199539106Y-69998782D01*
X199543579Y-69999056D01*
X200076427Y-70012543D01*
X200080930Y-70012496D01*
X200613352Y-69987853D01*
X200617836Y-69987485D01*
X201147152Y-69924836D01*
X201151591Y-69924149D01*
X201675087Y-69823814D01*
X201679446Y-69822815D01*
X202194414Y-69685311D01*
X202198727Y-69683992D01*
X202702525Y-69510028D01*
X202706740Y-69508402D01*
X203196805Y-69298866D01*
X203200892Y-69296943D01*
X203674731Y-69052900D01*
X203678658Y-69050696D01*
X204133828Y-68773404D01*
X204137624Y-68770901D01*
X204571786Y-68461788D01*
X204575372Y-68459036D01*
X204986362Y-68119640D01*
X204989705Y-68116672D01*
X205113630Y-67998453D01*
X205120179Y-67987102D01*
X219878438Y-67987102D01*
X219878462Y-67987441D01*
X219884285Y-67996073D01*
X220128991Y-68219913D01*
X220132445Y-68222852D01*
X220550430Y-68553550D01*
X220554067Y-68556222D01*
X220994618Y-68856182D01*
X220998446Y-68858593D01*
X221459337Y-69126300D01*
X221463309Y-69128421D01*
X221942148Y-69362483D01*
X221946284Y-69364325D01*
X222440627Y-69563551D01*
X222444871Y-69565087D01*
X222952218Y-69728467D01*
X222956539Y-69729689D01*
X223474254Y-69856374D01*
X223478695Y-69857294D01*
X224004141Y-69946637D01*
X224008595Y-69947232D01*
X224539106Y-69998782D01*
X224543579Y-69999056D01*
X225076427Y-70012543D01*
X225080930Y-70012496D01*
X225613352Y-69987853D01*
X225617836Y-69987485D01*
X226147152Y-69924836D01*
X226151591Y-69924149D01*
X226675087Y-69823814D01*
X226679446Y-69822815D01*
X227194414Y-69685311D01*
X227198727Y-69683992D01*
X227702525Y-69510028D01*
X227706740Y-69508402D01*
X228196805Y-69298866D01*
X228200892Y-69296943D01*
X228674731Y-69052900D01*
X228678658Y-69050696D01*
X229133828Y-68773404D01*
X229137624Y-68770901D01*
X229571786Y-68461788D01*
X229575372Y-68459036D01*
X229986362Y-68119640D01*
X229989705Y-68116672D01*
X230113630Y-67998453D01*
X230121568Y-67984695D01*
X230121518Y-67983649D01*
X230116625Y-67975835D01*
X225012812Y-62872022D01*
X224998868Y-62864408D01*
X224997035Y-62864539D01*
X224990420Y-62868790D01*
X219886052Y-67973158D01*
X219878438Y-67987102D01*
X205120179Y-67987102D01*
X205121568Y-67984695D01*
X205121518Y-67983649D01*
X205116625Y-67975835D01*
X200012812Y-62872022D01*
X199998868Y-62864408D01*
X199997035Y-62864539D01*
X199990420Y-62868790D01*
X194886052Y-67973158D01*
X194878438Y-67987102D01*
X154695780Y-67987102D01*
X154634409Y-67838939D01*
X154428425Y-67443248D01*
X154188738Y-67067014D01*
X153917172Y-66713102D01*
X153615794Y-66384206D01*
X153286898Y-66082828D01*
X153284736Y-66081169D01*
X153284730Y-66081164D01*
X153164492Y-65988903D01*
X152932986Y-65811262D01*
X152556752Y-65571575D01*
X152161061Y-65365591D01*
X151748922Y-65194877D01*
X151746302Y-65194051D01*
X151746294Y-65194048D01*
X151326102Y-65061562D01*
X151326097Y-65061561D01*
X151323472Y-65060733D01*
X151205999Y-65034690D01*
X150890645Y-64964778D01*
X150890640Y-64964777D01*
X150887951Y-64964181D01*
X150514483Y-64915012D01*
X150448406Y-64906313D01*
X150448404Y-64906313D01*
X150445671Y-64905953D01*
X150195887Y-64895047D01*
X150116013Y-64891560D01*
X150116008Y-64891560D01*
X150114636Y-64891500D01*
X149885364Y-64891500D01*
X149883992Y-64891560D01*
X149883987Y-64891560D01*
X149804113Y-64895047D01*
X149554329Y-64905953D01*
X149551596Y-64906313D01*
X149551594Y-64906313D01*
X149485517Y-64915012D01*
X149112049Y-64964181D01*
X149109360Y-64964777D01*
X149109355Y-64964778D01*
X148794001Y-65034690D01*
X148676528Y-65060733D01*
X148673903Y-65061561D01*
X148673898Y-65061562D01*
X148253706Y-65194048D01*
X148253698Y-65194051D01*
X148251078Y-65194877D01*
X147838939Y-65365591D01*
X147443248Y-65571575D01*
X147067014Y-65811262D01*
X146835508Y-65988903D01*
X146715270Y-66081164D01*
X146715264Y-66081169D01*
X146713102Y-66082828D01*
X146384206Y-66384206D01*
X146082828Y-66713102D01*
X145811262Y-67067014D01*
X145571575Y-67443247D01*
X145365591Y-67838939D01*
X145194877Y-68251078D01*
X145194051Y-68253698D01*
X145194048Y-68253706D01*
X145139421Y-68426962D01*
X145060733Y-68676528D01*
X145060136Y-68679221D01*
X144973209Y-69071328D01*
X144964181Y-69112049D01*
X144905953Y-69554329D01*
X144886495Y-70000000D01*
X132512710Y-70000000D01*
X132512710Y-69996042D01*
X132493393Y-69689006D01*
X132492400Y-69681145D01*
X132434754Y-69378954D01*
X132432783Y-69371277D01*
X132337716Y-69078691D01*
X132334801Y-69071328D01*
X132203811Y-68792959D01*
X132199999Y-68786026D01*
X132035149Y-68526264D01*
X132030505Y-68519871D01*
X131955503Y-68429210D01*
X131942986Y-68420755D01*
X131932248Y-68426962D01*
X130372022Y-69987188D01*
X130364408Y-70001132D01*
X129634356Y-70001132D01*
X129635592Y-69998868D01*
X129635461Y-69997035D01*
X129631210Y-69990420D01*
X128068855Y-68428065D01*
X128055593Y-68420823D01*
X128045488Y-68428012D01*
X127969495Y-68519871D01*
X127964851Y-68526264D01*
X127800001Y-68786026D01*
X127796189Y-68792959D01*
X127665199Y-69071328D01*
X127662284Y-69078691D01*
X127567217Y-69371277D01*
X127565246Y-69378954D01*
X127507600Y-69681145D01*
X127506607Y-69689006D01*
X127487290Y-69996042D01*
X127487290Y-70003958D01*
X118184112Y-70003958D01*
X118162257Y-69987188D01*
X117932986Y-69811262D01*
X117556752Y-69571575D01*
X117161061Y-69365591D01*
X116748922Y-69194877D01*
X116746302Y-69194051D01*
X116746294Y-69194048D01*
X116326102Y-69061562D01*
X116326097Y-69061561D01*
X116323472Y-69060733D01*
X116278198Y-69050696D01*
X115890645Y-68964778D01*
X115890640Y-68964777D01*
X115887951Y-68964181D01*
X115514483Y-68915012D01*
X115448406Y-68906313D01*
X115448404Y-68906313D01*
X115445671Y-68905953D01*
X115195887Y-68895047D01*
X115116013Y-68891560D01*
X115116008Y-68891560D01*
X115114636Y-68891500D01*
X114885364Y-68891500D01*
X114883992Y-68891560D01*
X114883987Y-68891560D01*
X114804113Y-68895047D01*
X114554329Y-68905953D01*
X114551596Y-68906313D01*
X114551594Y-68906313D01*
X114485517Y-68915012D01*
X114112049Y-68964181D01*
X114109360Y-68964777D01*
X114109355Y-68964778D01*
X113721802Y-69050696D01*
X113676528Y-69060733D01*
X113673903Y-69061561D01*
X113673898Y-69061562D01*
X113253706Y-69194048D01*
X113253698Y-69194051D01*
X113251078Y-69194877D01*
X112838939Y-69365591D01*
X112443248Y-69571575D01*
X112067014Y-69811262D01*
X111837743Y-69987188D01*
X111715270Y-70081164D01*
X111715264Y-70081169D01*
X111713102Y-70082828D01*
X111384206Y-70384206D01*
X111082828Y-70713102D01*
X110811262Y-71067014D01*
X110571575Y-71443247D01*
X110365591Y-71838939D01*
X110194877Y-72251078D01*
X110194051Y-72253698D01*
X110194048Y-72253706D01*
X110097765Y-72559077D01*
X110060733Y-72676528D01*
X109964181Y-73112049D01*
X109905953Y-73554329D01*
X109886495Y-74000000D01*
X103178954Y-74000000D01*
X103182537Y-73997251D01*
X103284730Y-73918836D01*
X103284736Y-73918831D01*
X103286898Y-73917172D01*
X103615794Y-73615794D01*
X103917172Y-73286898D01*
X104188738Y-72932986D01*
X104428425Y-72556753D01*
X104634409Y-72161061D01*
X104805123Y-71748922D01*
X104858644Y-71579177D01*
X104938438Y-71326102D01*
X104938439Y-71326097D01*
X104939267Y-71323472D01*
X104996604Y-71064840D01*
X105035222Y-70890645D01*
X105035223Y-70890640D01*
X105035819Y-70887951D01*
X105094047Y-70445671D01*
X105113505Y-70000000D01*
X105094047Y-69554329D01*
X105035819Y-69112049D01*
X105026792Y-69071328D01*
X104939864Y-68679221D01*
X104939267Y-68676528D01*
X104860579Y-68426962D01*
X104805952Y-68253706D01*
X104805949Y-68253698D01*
X104805123Y-68251078D01*
X104723319Y-68053587D01*
X128418754Y-68053587D01*
X128425658Y-68066448D01*
X129987188Y-69627978D01*
X130001132Y-69635592D01*
X130002965Y-69635461D01*
X130009580Y-69631210D01*
X131574666Y-68066124D01*
X131581279Y-68054013D01*
X131572452Y-68042395D01*
X131349719Y-67880570D01*
X131343039Y-67876330D01*
X131073428Y-67728110D01*
X131066293Y-67724753D01*
X130780230Y-67611492D01*
X130772704Y-67609047D01*
X130474721Y-67532538D01*
X130466950Y-67531055D01*
X130161722Y-67492497D01*
X130153831Y-67492000D01*
X129846169Y-67492000D01*
X129838278Y-67492497D01*
X129533050Y-67531055D01*
X129525279Y-67532538D01*
X129227296Y-67609047D01*
X129219770Y-67611492D01*
X128933707Y-67724753D01*
X128926572Y-67728110D01*
X128656961Y-67876330D01*
X128650281Y-67880570D01*
X128427177Y-68042664D01*
X128418754Y-68053587D01*
X104723319Y-68053587D01*
X104634409Y-67838939D01*
X104428425Y-67443248D01*
X104188738Y-67067014D01*
X103917172Y-66713102D01*
X103615794Y-66384206D01*
X103286898Y-66082828D01*
X103284736Y-66081169D01*
X103284730Y-66081164D01*
X103164492Y-65988903D01*
X102932986Y-65811262D01*
X102556752Y-65571575D01*
X102161061Y-65365591D01*
X101748922Y-65194877D01*
X101746302Y-65194051D01*
X101746294Y-65194048D01*
X101326102Y-65061562D01*
X101326097Y-65061561D01*
X101323472Y-65060733D01*
X101205999Y-65034690D01*
X100890645Y-64964778D01*
X100890640Y-64964777D01*
X100887951Y-64964181D01*
X100514483Y-64915012D01*
X100448406Y-64906313D01*
X100448404Y-64906313D01*
X100445671Y-64905953D01*
X100195887Y-64895047D01*
X100116013Y-64891560D01*
X100116008Y-64891560D01*
X100114636Y-64891500D01*
X99885364Y-64891500D01*
X99883992Y-64891560D01*
X99883987Y-64891560D01*
X99804113Y-64895047D01*
X99554329Y-64905953D01*
X99551596Y-64906313D01*
X99551594Y-64906313D01*
X99485517Y-64915012D01*
X99112049Y-64964181D01*
X99109360Y-64964777D01*
X99109355Y-64964778D01*
X98794001Y-65034690D01*
X98676528Y-65060733D01*
X98673903Y-65061561D01*
X98673898Y-65061562D01*
X98253706Y-65194048D01*
X98253698Y-65194051D01*
X98251078Y-65194877D01*
X97838939Y-65365591D01*
X97443248Y-65571575D01*
X97067014Y-65811262D01*
X96835508Y-65988903D01*
X96715270Y-66081164D01*
X96715264Y-66081169D01*
X96713102Y-66082828D01*
X96384206Y-66384206D01*
X96082828Y-66713102D01*
X95811262Y-67067014D01*
X95571575Y-67443247D01*
X95365591Y-67838939D01*
X95194877Y-68251078D01*
X95194051Y-68253698D01*
X95194048Y-68253706D01*
X95139421Y-68426962D01*
X95060733Y-68676528D01*
X95060136Y-68679221D01*
X94973209Y-69071328D01*
X94964181Y-69112049D01*
X94905953Y-69554329D01*
X94886495Y-70000000D01*
X88178954Y-70000000D01*
X88162257Y-69987188D01*
X87932986Y-69811262D01*
X87556752Y-69571575D01*
X87161061Y-69365591D01*
X86748922Y-69194877D01*
X86746302Y-69194051D01*
X86746294Y-69194048D01*
X86326102Y-69061562D01*
X86326097Y-69061561D01*
X86323472Y-69060733D01*
X86278198Y-69050696D01*
X85890645Y-68964778D01*
X85890640Y-68964777D01*
X85887951Y-68964181D01*
X85514483Y-68915012D01*
X85448406Y-68906313D01*
X85448404Y-68906313D01*
X85445671Y-68905953D01*
X85195887Y-68895047D01*
X85116013Y-68891560D01*
X85116008Y-68891560D01*
X85114636Y-68891500D01*
X84885364Y-68891500D01*
X84883992Y-68891560D01*
X84883987Y-68891560D01*
X84804113Y-68895047D01*
X84554329Y-68905953D01*
X84551596Y-68906313D01*
X84551594Y-68906313D01*
X84485517Y-68915012D01*
X84112049Y-68964181D01*
X84109360Y-68964777D01*
X84109355Y-68964778D01*
X83721802Y-69050696D01*
X83676528Y-69060733D01*
X83673903Y-69061561D01*
X83673898Y-69061562D01*
X83253706Y-69194048D01*
X83253698Y-69194051D01*
X83251078Y-69194877D01*
X82838939Y-69365591D01*
X82443248Y-69571575D01*
X82067014Y-69811262D01*
X81837743Y-69987188D01*
X81715270Y-70081164D01*
X81715264Y-70081169D01*
X81713102Y-70082828D01*
X81384206Y-70384206D01*
X81082828Y-70713102D01*
X80811262Y-71067014D01*
X80571575Y-71443247D01*
X80365591Y-71838939D01*
X80194877Y-72251078D01*
X80194051Y-72253698D01*
X80194048Y-72253706D01*
X80097765Y-72559077D01*
X80060733Y-72676528D01*
X79964181Y-73112049D01*
X79905953Y-73554329D01*
X79886495Y-74000000D01*
X50508500Y-74000000D01*
X50508500Y-71945987D01*
X68418721Y-71945987D01*
X68427548Y-71957605D01*
X68650281Y-72119430D01*
X68656961Y-72123670D01*
X68926572Y-72271890D01*
X68933707Y-72275247D01*
X69219770Y-72388508D01*
X69227296Y-72390953D01*
X69525279Y-72467462D01*
X69533050Y-72468945D01*
X69838278Y-72507503D01*
X69846169Y-72508000D01*
X70153831Y-72508000D01*
X70161722Y-72507503D01*
X70466950Y-72468945D01*
X70474721Y-72467462D01*
X70772704Y-72390953D01*
X70780230Y-72388508D01*
X71066293Y-72275247D01*
X71073428Y-72271890D01*
X71343039Y-72123670D01*
X71349719Y-72119430D01*
X71572823Y-71957336D01*
X71581246Y-71946413D01*
X71574342Y-71933552D01*
X70012812Y-70372022D01*
X69998868Y-70364408D01*
X69997035Y-70364539D01*
X69990420Y-70368790D01*
X68425334Y-71933876D01*
X68418721Y-71945987D01*
X50508500Y-71945987D01*
X50508500Y-70003958D01*
X67487290Y-70003958D01*
X67506607Y-70310994D01*
X67507600Y-70318855D01*
X67565246Y-70621046D01*
X67567217Y-70628723D01*
X67662284Y-70921309D01*
X67665199Y-70928672D01*
X67796189Y-71207041D01*
X67800001Y-71213974D01*
X67964851Y-71473736D01*
X67969495Y-71480129D01*
X68044497Y-71570790D01*
X68057014Y-71579245D01*
X68067752Y-71573038D01*
X69627978Y-70012812D01*
X69634356Y-70001132D01*
X70364408Y-70001132D01*
X70364539Y-70002965D01*
X70368790Y-70009580D01*
X71931145Y-71571935D01*
X71944407Y-71579177D01*
X71954512Y-71571988D01*
X72030505Y-71480129D01*
X72035149Y-71473736D01*
X72199999Y-71213974D01*
X72203811Y-71207041D01*
X72334801Y-70928672D01*
X72337716Y-70921309D01*
X72432783Y-70628723D01*
X72434754Y-70621046D01*
X72492400Y-70318855D01*
X72493393Y-70310994D01*
X72512710Y-70003958D01*
X72512710Y-69996042D01*
X72493393Y-69689006D01*
X72492400Y-69681145D01*
X72434754Y-69378954D01*
X72432783Y-69371277D01*
X72337716Y-69078691D01*
X72334801Y-69071328D01*
X72203811Y-68792959D01*
X72199999Y-68786026D01*
X72035149Y-68526264D01*
X72030505Y-68519871D01*
X71955503Y-68429210D01*
X71942986Y-68420755D01*
X71932248Y-68426962D01*
X70372022Y-69987188D01*
X70364408Y-70001132D01*
X69634356Y-70001132D01*
X69635592Y-69998868D01*
X69635461Y-69997035D01*
X69631210Y-69990420D01*
X68068855Y-68428065D01*
X68055593Y-68420823D01*
X68045488Y-68428012D01*
X67969495Y-68519871D01*
X67964851Y-68526264D01*
X67800001Y-68786026D01*
X67796189Y-68792959D01*
X67665199Y-69071328D01*
X67662284Y-69078691D01*
X67567217Y-69371277D01*
X67565246Y-69378954D01*
X67507600Y-69681145D01*
X67506607Y-69689006D01*
X67487290Y-69996042D01*
X67487290Y-70003958D01*
X50508500Y-70003958D01*
X50508500Y-68053587D01*
X68418754Y-68053587D01*
X68425658Y-68066448D01*
X69987188Y-69627978D01*
X70001132Y-69635592D01*
X70002965Y-69635461D01*
X70009580Y-69631210D01*
X71574666Y-68066124D01*
X71581279Y-68054013D01*
X71572452Y-68042395D01*
X71349719Y-67880570D01*
X71343039Y-67876330D01*
X71073428Y-67728110D01*
X71066293Y-67724753D01*
X70780230Y-67611492D01*
X70772704Y-67609047D01*
X70474721Y-67532538D01*
X70466950Y-67531055D01*
X70161722Y-67492497D01*
X70153831Y-67492000D01*
X69846169Y-67492000D01*
X69838278Y-67492497D01*
X69533050Y-67531055D01*
X69525279Y-67532538D01*
X69227296Y-67609047D01*
X69219770Y-67611492D01*
X68933707Y-67724753D01*
X68926572Y-67728110D01*
X68656961Y-67876330D01*
X68650281Y-67880570D01*
X68427177Y-68042664D01*
X68418754Y-68053587D01*
X50508500Y-68053587D01*
X50508500Y-62626196D01*
X184489044Y-62626196D01*
X184489405Y-62629810D01*
X184489405Y-62629816D01*
X184512821Y-62864408D01*
X184523503Y-62971431D01*
X184597414Y-63310417D01*
X184598587Y-63313844D01*
X184598589Y-63313850D01*
X184652012Y-63469885D01*
X184709797Y-63638661D01*
X184859163Y-63951812D01*
X185043532Y-64245721D01*
X185045804Y-64248557D01*
X185045809Y-64248564D01*
X185102252Y-64319016D01*
X185260459Y-64516491D01*
X185507071Y-64760534D01*
X185509929Y-64762775D01*
X185767554Y-64964778D01*
X185780098Y-64974614D01*
X186075921Y-65155895D01*
X186079206Y-65157420D01*
X186079210Y-65157422D01*
X186318653Y-65268567D01*
X186390620Y-65301973D01*
X186494926Y-65336469D01*
X186716578Y-65409774D01*
X186716583Y-65409775D01*
X186720023Y-65410913D01*
X186723578Y-65411649D01*
X186723581Y-65411650D01*
X187056214Y-65480535D01*
X187056217Y-65480535D01*
X187059764Y-65481270D01*
X187198221Y-65493627D01*
X187362076Y-65508251D01*
X187362082Y-65508251D01*
X187364869Y-65508500D01*
X187588432Y-65508500D01*
X187590251Y-65508395D01*
X187590255Y-65508395D01*
X187842754Y-65493836D01*
X187842759Y-65493835D01*
X187846374Y-65493627D01*
X187921388Y-65480535D01*
X188184585Y-65434600D01*
X188184592Y-65434598D01*
X188188158Y-65433976D01*
X188191633Y-65432947D01*
X188191640Y-65432945D01*
X188324863Y-65393482D01*
X188520820Y-65335437D01*
X188524159Y-65334013D01*
X188836614Y-65200740D01*
X188836617Y-65200738D01*
X188839952Y-65199316D01*
X188843099Y-65197521D01*
X188843103Y-65197519D01*
X189138184Y-65029208D01*
X189141324Y-65027417D01*
X189420940Y-64822018D01*
X189675096Y-64585842D01*
X189900422Y-64322019D01*
X190093931Y-64034047D01*
X190111487Y-64000034D01*
X190251398Y-63728961D01*
X190253060Y-63725741D01*
X190375698Y-63401189D01*
X190460220Y-63064692D01*
X190505506Y-62720711D01*
X190508185Y-62550201D01*
X192487236Y-62550201D01*
X192487267Y-62554699D01*
X192510052Y-63087215D01*
X192510404Y-63091696D01*
X192571206Y-63621240D01*
X192571874Y-63625659D01*
X192670381Y-64149497D01*
X192671370Y-64153884D01*
X192807070Y-64669308D01*
X192808381Y-64673648D01*
X192980581Y-65178039D01*
X192982188Y-65182249D01*
X193190028Y-65673079D01*
X193191917Y-65677129D01*
X193434314Y-66151836D01*
X193436507Y-66155776D01*
X193712217Y-66611925D01*
X193714678Y-66615685D01*
X194022290Y-67050947D01*
X194025036Y-67054552D01*
X194362987Y-67466712D01*
X194365944Y-67470066D01*
X194501751Y-67613428D01*
X194515482Y-67621415D01*
X194516410Y-67621374D01*
X194524399Y-67616391D01*
X199627978Y-62512812D01*
X199634356Y-62501132D01*
X200364408Y-62501132D01*
X200364539Y-62502965D01*
X200368790Y-62509580D01*
X205473389Y-67614179D01*
X205487333Y-67621793D01*
X205487556Y-67621778D01*
X205496338Y-67615831D01*
X205736905Y-67350987D01*
X205739793Y-67347570D01*
X206069044Y-66928414D01*
X206071701Y-66924771D01*
X206370130Y-66483164D01*
X206372526Y-66479329D01*
X206638617Y-66017514D01*
X206640726Y-66013531D01*
X206873116Y-65533878D01*
X206874941Y-65529741D01*
X207072446Y-65034690D01*
X207073961Y-65030460D01*
X207235567Y-64522549D01*
X207236781Y-64518202D01*
X207361661Y-64000034D01*
X207362555Y-63995638D01*
X207450064Y-63469885D01*
X207450649Y-63465380D01*
X207500363Y-62934517D01*
X207500613Y-62930439D01*
X207511566Y-62550201D01*
X217487236Y-62550201D01*
X217487267Y-62554699D01*
X217510052Y-63087215D01*
X217510404Y-63091696D01*
X217571206Y-63621240D01*
X217571874Y-63625659D01*
X217670381Y-64149497D01*
X217671370Y-64153884D01*
X217807070Y-64669308D01*
X217808381Y-64673648D01*
X217980581Y-65178039D01*
X217982188Y-65182249D01*
X218190028Y-65673079D01*
X218191917Y-65677129D01*
X218434314Y-66151836D01*
X218436507Y-66155776D01*
X218712217Y-66611925D01*
X218714678Y-66615685D01*
X219022290Y-67050947D01*
X219025036Y-67054552D01*
X219362987Y-67466712D01*
X219365944Y-67470066D01*
X219501751Y-67613428D01*
X219515482Y-67621415D01*
X219516410Y-67621374D01*
X219524399Y-67616391D01*
X224627978Y-62512812D01*
X224634356Y-62501132D01*
X225364408Y-62501132D01*
X225364539Y-62502965D01*
X225368790Y-62509580D01*
X230473389Y-67614179D01*
X230487333Y-67621793D01*
X230487556Y-67621778D01*
X230496338Y-67615831D01*
X230736905Y-67350987D01*
X230739793Y-67347570D01*
X231069044Y-66928414D01*
X231071701Y-66924771D01*
X231370130Y-66483164D01*
X231372526Y-66479329D01*
X231638617Y-66017514D01*
X231640726Y-66013531D01*
X231873116Y-65533878D01*
X231874941Y-65529741D01*
X232072446Y-65034690D01*
X232073961Y-65030460D01*
X232235567Y-64522549D01*
X232236781Y-64518202D01*
X232361661Y-64000034D01*
X232362555Y-63995638D01*
X232450064Y-63469885D01*
X232450649Y-63465380D01*
X232500363Y-62934517D01*
X232500613Y-62930439D01*
X232512954Y-62502024D01*
X232512939Y-62497967D01*
X232493866Y-61965096D01*
X232493544Y-61960601D01*
X232436442Y-61430662D01*
X232435800Y-61426211D01*
X232340955Y-60901710D01*
X232339999Y-60897327D01*
X232207892Y-60380933D01*
X232206630Y-60376645D01*
X232037938Y-59871015D01*
X232036370Y-59866818D01*
X231831966Y-59374558D01*
X231830088Y-59370456D01*
X231591023Y-58894094D01*
X231588855Y-58890133D01*
X231316347Y-58432090D01*
X231313891Y-58428279D01*
X231009331Y-57990890D01*
X231006624Y-57987284D01*
X230671552Y-57572765D01*
X230668609Y-57569380D01*
X230498034Y-57386780D01*
X230484361Y-57378698D01*
X230483667Y-57378724D01*
X230475320Y-57383890D01*
X225372022Y-62487188D01*
X225364408Y-62501132D01*
X224634356Y-62501132D01*
X224635592Y-62498868D01*
X224635461Y-62497035D01*
X224631210Y-62490420D01*
X219527007Y-57386217D01*
X219513063Y-57378603D01*
X219512606Y-57378635D01*
X219504130Y-57384332D01*
X219297104Y-57609077D01*
X219294190Y-57612477D01*
X218962015Y-58029331D01*
X218959344Y-58032941D01*
X218657831Y-58472465D01*
X218655409Y-58476283D01*
X218386107Y-58936216D01*
X218383964Y-58940196D01*
X218148233Y-59418211D01*
X218146376Y-59422343D01*
X217945427Y-59915984D01*
X217943874Y-59920230D01*
X217778729Y-60426984D01*
X217777484Y-60431326D01*
X217648991Y-60948608D01*
X217648067Y-60952991D01*
X217556885Y-61478152D01*
X217556274Y-61482609D01*
X217502873Y-62012930D01*
X217502583Y-62017413D01*
X217487236Y-62550201D01*
X207511566Y-62550201D01*
X207512954Y-62502024D01*
X207512939Y-62497967D01*
X207493866Y-61965096D01*
X207493544Y-61960601D01*
X207436442Y-61430662D01*
X207435800Y-61426211D01*
X207340955Y-60901710D01*
X207339999Y-60897327D01*
X207207892Y-60380933D01*
X207206630Y-60376645D01*
X207037938Y-59871015D01*
X207036370Y-59866818D01*
X206831966Y-59374558D01*
X206830088Y-59370456D01*
X206591023Y-58894094D01*
X206588855Y-58890133D01*
X206316347Y-58432090D01*
X206313891Y-58428279D01*
X206009331Y-57990890D01*
X206006624Y-57987284D01*
X205671552Y-57572765D01*
X205668609Y-57569380D01*
X205498034Y-57386780D01*
X205484361Y-57378698D01*
X205483667Y-57378724D01*
X205475320Y-57383890D01*
X200372022Y-62487188D01*
X200364408Y-62501132D01*
X199634356Y-62501132D01*
X199635592Y-62498868D01*
X199635461Y-62497035D01*
X199631210Y-62490420D01*
X194527007Y-57386217D01*
X194513063Y-57378603D01*
X194512606Y-57378635D01*
X194504130Y-57384332D01*
X194297104Y-57609077D01*
X194294190Y-57612477D01*
X193962015Y-58029331D01*
X193959344Y-58032941D01*
X193657831Y-58472465D01*
X193655409Y-58476283D01*
X193386107Y-58936216D01*
X193383964Y-58940196D01*
X193148233Y-59418211D01*
X193146376Y-59422343D01*
X192945427Y-59915984D01*
X192943874Y-59920230D01*
X192778729Y-60426984D01*
X192777484Y-60431326D01*
X192648991Y-60948608D01*
X192648067Y-60952991D01*
X192556885Y-61478152D01*
X192556274Y-61482609D01*
X192502873Y-62012930D01*
X192502583Y-62017413D01*
X192487236Y-62550201D01*
X190508185Y-62550201D01*
X190510956Y-62373804D01*
X190501163Y-62275685D01*
X190476857Y-62032177D01*
X190476497Y-62028569D01*
X190402586Y-61689583D01*
X190290203Y-61361339D01*
X190140837Y-61048188D01*
X189956468Y-60754279D01*
X189954196Y-60751443D01*
X189954191Y-60751436D01*
X189741813Y-60486345D01*
X189739541Y-60483509D01*
X189492929Y-60239466D01*
X189219902Y-60025386D01*
X188924079Y-59844105D01*
X188920794Y-59842580D01*
X188920790Y-59842578D01*
X188612663Y-59699551D01*
X188609380Y-59698027D01*
X188439112Y-59641716D01*
X188283422Y-59590226D01*
X188283417Y-59590225D01*
X188279977Y-59589087D01*
X188276422Y-59588351D01*
X188276419Y-59588350D01*
X187943786Y-59519465D01*
X187943783Y-59519465D01*
X187940236Y-59518730D01*
X187785947Y-59504960D01*
X187637924Y-59491749D01*
X187637918Y-59491749D01*
X187635131Y-59491500D01*
X187411568Y-59491500D01*
X187409749Y-59491605D01*
X187409745Y-59491605D01*
X187157246Y-59506164D01*
X187157241Y-59506165D01*
X187153626Y-59506373D01*
X187084669Y-59518408D01*
X186815415Y-59565400D01*
X186815408Y-59565402D01*
X186811842Y-59566024D01*
X186808367Y-59567053D01*
X186808360Y-59567055D01*
X186730137Y-59590226D01*
X186479180Y-59664563D01*
X186475844Y-59665986D01*
X186475841Y-59665987D01*
X186163386Y-59799260D01*
X186163383Y-59799262D01*
X186160048Y-59800684D01*
X186156901Y-59802479D01*
X186156897Y-59802481D01*
X186080602Y-59845999D01*
X185858676Y-59972583D01*
X185579060Y-60177982D01*
X185324904Y-60414158D01*
X185099578Y-60677981D01*
X184906069Y-60965953D01*
X184746940Y-61274259D01*
X184624302Y-61598811D01*
X184539780Y-61935308D01*
X184494494Y-62279289D01*
X184494437Y-62282927D01*
X184491059Y-62497967D01*
X184489044Y-62626196D01*
X50508500Y-62626196D01*
X50508500Y-57015591D01*
X194878674Y-57015591D01*
X194878707Y-57016404D01*
X194883783Y-57024573D01*
X199987188Y-62127978D01*
X200001132Y-62135592D01*
X200002965Y-62135461D01*
X200009580Y-62131210D01*
X205113682Y-57027108D01*
X205119971Y-57015591D01*
X219878674Y-57015591D01*
X219878707Y-57016404D01*
X219883783Y-57024573D01*
X224987188Y-62127978D01*
X225001132Y-62135592D01*
X225002965Y-62135461D01*
X225009580Y-62131210D01*
X230113682Y-57027108D01*
X230121296Y-57013164D01*
X230121255Y-57012590D01*
X230115684Y-57004268D01*
X229910818Y-56814228D01*
X229907387Y-56811267D01*
X229491729Y-56477666D01*
X229488115Y-56474972D01*
X229049654Y-56171933D01*
X229045835Y-56169490D01*
X228586846Y-55898585D01*
X228582877Y-55896430D01*
X228105679Y-55659028D01*
X228101575Y-55657166D01*
X227608610Y-55454483D01*
X227604395Y-55452924D01*
X227098199Y-55286006D01*
X227093883Y-55284752D01*
X226577042Y-55154451D01*
X226572665Y-55153513D01*
X226047822Y-55060496D01*
X226043365Y-55059870D01*
X225513241Y-55004620D01*
X225508747Y-55004313D01*
X224976027Y-54987107D01*
X224971530Y-54987122D01*
X224438927Y-55008048D01*
X224434451Y-55008384D01*
X223904713Y-55067336D01*
X223900261Y-55067994D01*
X223376106Y-55164667D01*
X223371701Y-55165643D01*
X222855801Y-55299545D01*
X222851490Y-55300830D01*
X222346471Y-55471278D01*
X222342259Y-55472870D01*
X221850723Y-55678988D01*
X221846647Y-55680871D01*
X221371109Y-55921605D01*
X221367158Y-55923786D01*
X220910063Y-56197893D01*
X220906267Y-56200358D01*
X220469930Y-56506452D01*
X220466347Y-56509162D01*
X220053007Y-56845674D01*
X220049617Y-56848642D01*
X219886708Y-57001891D01*
X219878674Y-57015591D01*
X205119971Y-57015591D01*
X205121296Y-57013164D01*
X205121255Y-57012590D01*
X205115684Y-57004268D01*
X204910818Y-56814228D01*
X204907387Y-56811267D01*
X204491729Y-56477666D01*
X204488115Y-56474972D01*
X204049654Y-56171933D01*
X204045835Y-56169490D01*
X203586846Y-55898585D01*
X203582877Y-55896430D01*
X203105679Y-55659028D01*
X203101575Y-55657166D01*
X202608610Y-55454483D01*
X202604395Y-55452924D01*
X202098199Y-55286006D01*
X202093883Y-55284752D01*
X201577042Y-55154451D01*
X201572665Y-55153513D01*
X201047822Y-55060496D01*
X201043365Y-55059870D01*
X200513241Y-55004620D01*
X200508747Y-55004313D01*
X199976027Y-54987107D01*
X199971530Y-54987122D01*
X199438927Y-55008048D01*
X199434451Y-55008384D01*
X198904713Y-55067336D01*
X198900261Y-55067994D01*
X198376106Y-55164667D01*
X198371701Y-55165643D01*
X197855801Y-55299545D01*
X197851490Y-55300830D01*
X197346471Y-55471278D01*
X197342259Y-55472870D01*
X196850723Y-55678988D01*
X196846647Y-55680871D01*
X196371109Y-55921605D01*
X196367158Y-55923786D01*
X195910063Y-56197893D01*
X195906267Y-56200358D01*
X195469930Y-56506452D01*
X195466347Y-56509162D01*
X195053007Y-56845674D01*
X195049617Y-56848642D01*
X194886708Y-57001891D01*
X194878674Y-57015591D01*
X50508500Y-57015591D01*
X50508500Y-54945987D01*
X51418721Y-54945987D01*
X51427548Y-54957605D01*
X51650281Y-55119430D01*
X51656961Y-55123670D01*
X51926572Y-55271890D01*
X51933707Y-55275247D01*
X52219770Y-55388508D01*
X52227296Y-55390953D01*
X52525279Y-55467462D01*
X52533050Y-55468945D01*
X52838278Y-55507503D01*
X52846169Y-55508000D01*
X53153831Y-55508000D01*
X53161722Y-55507503D01*
X53466950Y-55468945D01*
X53474721Y-55467462D01*
X53772704Y-55390953D01*
X53780230Y-55388508D01*
X54066293Y-55275247D01*
X54073428Y-55271890D01*
X54343039Y-55123670D01*
X54349719Y-55119430D01*
X54572823Y-54957336D01*
X54581246Y-54946413D01*
X54581017Y-54945987D01*
X245418721Y-54945987D01*
X245427548Y-54957605D01*
X245650281Y-55119430D01*
X245656961Y-55123670D01*
X245926572Y-55271890D01*
X245933707Y-55275247D01*
X246219770Y-55388508D01*
X246227296Y-55390953D01*
X246525279Y-55467462D01*
X246533050Y-55468945D01*
X246838278Y-55507503D01*
X246846169Y-55508000D01*
X247153831Y-55508000D01*
X247161722Y-55507503D01*
X247466950Y-55468945D01*
X247474721Y-55467462D01*
X247772704Y-55390953D01*
X247780230Y-55388508D01*
X248066293Y-55275247D01*
X248073428Y-55271890D01*
X248343039Y-55123670D01*
X248349719Y-55119430D01*
X248572823Y-54957336D01*
X248581246Y-54946413D01*
X248574342Y-54933552D01*
X247012812Y-53372022D01*
X246998868Y-53364408D01*
X246997035Y-53364539D01*
X246990420Y-53368790D01*
X245425334Y-54933876D01*
X245418721Y-54945987D01*
X54581017Y-54945987D01*
X54574342Y-54933552D01*
X53012812Y-53372022D01*
X52998868Y-53364408D01*
X52997035Y-53364539D01*
X52990420Y-53368790D01*
X51425334Y-54933876D01*
X51418721Y-54945987D01*
X50508500Y-54945987D01*
X50508500Y-54159360D01*
X50528502Y-54091239D01*
X50582158Y-54044746D01*
X50652432Y-54034642D01*
X50717012Y-54064136D01*
X50748508Y-54105712D01*
X50796190Y-54207041D01*
X50800001Y-54213974D01*
X50964851Y-54473736D01*
X50969495Y-54480129D01*
X51044497Y-54570790D01*
X51057014Y-54579245D01*
X51067752Y-54573038D01*
X52627978Y-53012812D01*
X52634356Y-53001132D01*
X53364408Y-53001132D01*
X53364539Y-53002965D01*
X53368790Y-53009580D01*
X54931145Y-54571935D01*
X54944407Y-54579177D01*
X54954512Y-54571988D01*
X55030505Y-54480129D01*
X55035149Y-54473736D01*
X55199999Y-54213974D01*
X55203811Y-54207041D01*
X55334801Y-53928672D01*
X55337716Y-53921309D01*
X55432783Y-53628723D01*
X55434754Y-53621046D01*
X55492400Y-53318855D01*
X55493393Y-53310994D01*
X55512710Y-53003958D01*
X244487290Y-53003958D01*
X244506607Y-53310994D01*
X244507600Y-53318855D01*
X244565246Y-53621046D01*
X244567217Y-53628723D01*
X244662284Y-53921309D01*
X244665199Y-53928672D01*
X244796189Y-54207041D01*
X244800001Y-54213974D01*
X244964851Y-54473736D01*
X244969495Y-54480129D01*
X245044497Y-54570790D01*
X245057014Y-54579245D01*
X245067752Y-54573038D01*
X246627978Y-53012812D01*
X246635592Y-52998868D01*
X246635461Y-52997035D01*
X246631210Y-52990420D01*
X245068855Y-51428065D01*
X245055593Y-51420823D01*
X245045488Y-51428012D01*
X244969495Y-51519871D01*
X244964851Y-51526264D01*
X244800001Y-51786026D01*
X244796189Y-51792959D01*
X244665199Y-52071328D01*
X244662284Y-52078691D01*
X244567217Y-52371277D01*
X244565246Y-52378954D01*
X244507600Y-52681145D01*
X244506607Y-52689006D01*
X244487290Y-52996042D01*
X244487290Y-53003958D01*
X55512710Y-53003958D01*
X55512710Y-52996042D01*
X55493393Y-52689006D01*
X55492400Y-52681145D01*
X55434754Y-52378954D01*
X55432783Y-52371277D01*
X55337716Y-52078691D01*
X55334801Y-52071328D01*
X55203811Y-51792959D01*
X55199999Y-51786026D01*
X55035149Y-51526264D01*
X55030505Y-51519871D01*
X54955503Y-51429210D01*
X54942986Y-51420755D01*
X54932248Y-51426962D01*
X53372022Y-52987188D01*
X53364408Y-53001132D01*
X52634356Y-53001132D01*
X52635592Y-52998868D01*
X52635461Y-52997035D01*
X52631210Y-52990420D01*
X51068855Y-51428065D01*
X51055593Y-51420823D01*
X51045488Y-51428012D01*
X50969495Y-51519871D01*
X50964851Y-51526264D01*
X50800001Y-51786026D01*
X50796190Y-51792959D01*
X50748508Y-51894288D01*
X50701406Y-51947409D01*
X50633061Y-51966632D01*
X50565173Y-51945853D01*
X50519296Y-51891670D01*
X50508500Y-51840640D01*
X50508500Y-50634500D01*
X50528502Y-50566379D01*
X50582158Y-50519886D01*
X50634500Y-50508500D01*
X51835303Y-50508500D01*
X51903424Y-50528502D01*
G37*
G04 #@! TD.AperFunction*
G04 #@! TD*
M02*
